%TF.GenerationSoftware,KiCad,Pcbnew,(5.1.9)-1*%
%TF.CreationDate,2022-08-26T12:30:02-05:00*%
%TF.ProjectId,GPSPuck,47505350-7563-46b2-9e6b-696361645f70,2*%
%TF.SameCoordinates,Original*%
%TF.FileFunction,Other,Fab,Bot*%
%FSLAX46Y46*%
G04 Gerber Fmt 4.6, Leading zero omitted, Abs format (unit mm)*
G04 Created by KiCad (PCBNEW (5.1.9)-1) date 2022-08-26 12:30:02*
%MOMM*%
%LPD*%
G01*
G04 APERTURE LIST*
%ADD10C,0.100000*%
%ADD11C,0.150000*%
%ADD12C,0.450000*%
G04 APERTURE END LIST*
D10*
%TO.C,BT1*%
X71810000Y-98920000D02*
X71810000Y-68720000D01*
X75660000Y-68720000D02*
X75660000Y-98920000D01*
X75660000Y-75420000D02*
X77660000Y-75420000D01*
X77660000Y-75420000D02*
X77660000Y-79520000D01*
X77660000Y-79520000D02*
X75660000Y-79520000D01*
X75660000Y-89920000D02*
X77660000Y-89920000D01*
X77660000Y-87620000D02*
X77660000Y-92720000D01*
X77660000Y-90420000D02*
X75660000Y-90420000D01*
X77660000Y-88120000D02*
X75660000Y-88120000D01*
X75660000Y-87620000D02*
X77660000Y-87620000D01*
X77660000Y-92720000D02*
X75660000Y-92720000D01*
X75660000Y-92220000D02*
X77660000Y-92220000D01*
X75660000Y-70820000D02*
X100660000Y-70820000D01*
X100660000Y-70820000D02*
X100660000Y-68720000D01*
X75660000Y-96820000D02*
X100660000Y-96820000D01*
X100660000Y-96820000D02*
X100660000Y-98920000D01*
X125060000Y-74820000D02*
X120660000Y-74820000D01*
X125060000Y-92820000D02*
X120660000Y-92820000D01*
X123660000Y-92820000D02*
X123660000Y-74820000D01*
X122660000Y-92820000D02*
X122660000Y-74820000D01*
X121660000Y-92820000D02*
X121660000Y-74820000D01*
X120660000Y-92820000D02*
X120660000Y-74820000D01*
X125060000Y-98920000D02*
X125060000Y-68720000D01*
X125060000Y-68720000D02*
X70560000Y-68720000D01*
X70560000Y-98920000D02*
X125060000Y-98920000D01*
X70560000Y-68720000D02*
X70560000Y-98920000D01*
%TD*%
%TO.C,BT1*%
D11*
X99861428Y-101528571D02*
X99718571Y-101576190D01*
X99670952Y-101623809D01*
X99623333Y-101719047D01*
X99623333Y-101861904D01*
X99670952Y-101957142D01*
X99718571Y-102004761D01*
X99813809Y-102052380D01*
X100194761Y-102052380D01*
X100194761Y-101052380D01*
X99861428Y-101052380D01*
X99766190Y-101100000D01*
X99718571Y-101147619D01*
X99670952Y-101242857D01*
X99670952Y-101338095D01*
X99718571Y-101433333D01*
X99766190Y-101480952D01*
X99861428Y-101528571D01*
X100194761Y-101528571D01*
X98766190Y-102052380D02*
X98766190Y-101528571D01*
X98813809Y-101433333D01*
X98909047Y-101385714D01*
X99099523Y-101385714D01*
X99194761Y-101433333D01*
X98766190Y-102004761D02*
X98861428Y-102052380D01*
X99099523Y-102052380D01*
X99194761Y-102004761D01*
X99242380Y-101909523D01*
X99242380Y-101814285D01*
X99194761Y-101719047D01*
X99099523Y-101671428D01*
X98861428Y-101671428D01*
X98766190Y-101623809D01*
X98432857Y-101385714D02*
X98051904Y-101385714D01*
X98290000Y-101052380D02*
X98290000Y-101909523D01*
X98242380Y-102004761D01*
X98147142Y-102052380D01*
X98051904Y-102052380D01*
X97861428Y-101385714D02*
X97480476Y-101385714D01*
X97718571Y-101052380D02*
X97718571Y-101909523D01*
X97670952Y-102004761D01*
X97575714Y-102052380D01*
X97480476Y-102052380D01*
X96766190Y-102004761D02*
X96861428Y-102052380D01*
X97051904Y-102052380D01*
X97147142Y-102004761D01*
X97194761Y-101909523D01*
X97194761Y-101528571D01*
X97147142Y-101433333D01*
X97051904Y-101385714D01*
X96861428Y-101385714D01*
X96766190Y-101433333D01*
X96718571Y-101528571D01*
X96718571Y-101623809D01*
X97194761Y-101719047D01*
X96290000Y-102052380D02*
X96290000Y-101385714D01*
X96290000Y-101576190D02*
X96242380Y-101480952D01*
X96194761Y-101433333D01*
X96099523Y-101385714D01*
X96004285Y-101385714D01*
X95766190Y-101385714D02*
X95528095Y-102052380D01*
X95290000Y-101385714D02*
X95528095Y-102052380D01*
X95623333Y-102290476D01*
X95670952Y-102338095D01*
X95766190Y-102385714D01*
D12*
X81802857Y-90384285D02*
X79517142Y-90384285D01*
X80660000Y-91527142D02*
X80660000Y-89241428D01*
X81802857Y-77684285D02*
X79517142Y-77684285D01*
D11*
X98575714Y-83748571D02*
X98432857Y-83796190D01*
X98385238Y-83843809D01*
X98337619Y-83939047D01*
X98337619Y-84081904D01*
X98385238Y-84177142D01*
X98432857Y-84224761D01*
X98528095Y-84272380D01*
X98909047Y-84272380D01*
X98909047Y-83272380D01*
X98575714Y-83272380D01*
X98480476Y-83320000D01*
X98432857Y-83367619D01*
X98385238Y-83462857D01*
X98385238Y-83558095D01*
X98432857Y-83653333D01*
X98480476Y-83700952D01*
X98575714Y-83748571D01*
X98909047Y-83748571D01*
X98051904Y-83272380D02*
X97480476Y-83272380D01*
X97766190Y-84272380D02*
X97766190Y-83272380D01*
X96623333Y-84272380D02*
X97194761Y-84272380D01*
X96909047Y-84272380D02*
X96909047Y-83272380D01*
X97004285Y-83415238D01*
X97099523Y-83510476D01*
X97194761Y-83558095D01*
%TD*%
M02*
