%FSLAX45Y45*%
G04 Gerber Fmt 4.5, Leading zero omitted, Abs format (unit mm)*
G04 Created by KiCad (PCBNEW (5.1.9)-1) date 2022-08-26 12:33:23*
%MOMM*%
%LPD*%
G01*
G04 APERTURE LIST*
%TA.AperFunction,Profile*%
%ADD10C,0.050000*%
%TD*%
%ADD11C,0.200000*%
%ADD12C,0.300000*%
G04 APERTURE END LIST*
D10*
X6985000Y-13970000D02*
X6985000Y-5969000D01*
X17653000Y-13970000D02*
X6985000Y-13970000D01*
X17653000Y-5969000D02*
X17653000Y-13970000D01*
X6985000Y-5969000D02*
X17653000Y-5969000D01*
D11*
X8326000Y-7142000D02*
X8586000Y-7402000D01*
X8586000Y-7142000D02*
X8326000Y-7402000D01*
X9651000Y-9362000D02*
X9911000Y-9622000D01*
X9911000Y-9362000D02*
X9651000Y-9622000D01*
X11126000Y-7142000D02*
X11386000Y-7402000D01*
X11386000Y-7142000D02*
X11126000Y-7402000D01*
D12*
X7268928Y-14438214D02*
X7268928Y-14138214D01*
X7340357Y-14138214D01*
X7383214Y-14152500D01*
X7411786Y-14181071D01*
X7426071Y-14209643D01*
X7440357Y-14266786D01*
X7440357Y-14309643D01*
X7426071Y-14366786D01*
X7411786Y-14395357D01*
X7383214Y-14423929D01*
X7340357Y-14438214D01*
X7268928Y-14438214D01*
X7568928Y-14438214D02*
X7568928Y-14238214D01*
X7568928Y-14295357D02*
X7583214Y-14266786D01*
X7597500Y-14252500D01*
X7626071Y-14238214D01*
X7654643Y-14238214D01*
X7754643Y-14438214D02*
X7754643Y-14238214D01*
X7754643Y-14138214D02*
X7740357Y-14152500D01*
X7754643Y-14166786D01*
X7768928Y-14152500D01*
X7754643Y-14138214D01*
X7754643Y-14166786D01*
X7940357Y-14438214D02*
X7911786Y-14423929D01*
X7897500Y-14395357D01*
X7897500Y-14138214D01*
X8097500Y-14438214D02*
X8068928Y-14423929D01*
X8054643Y-14395357D01*
X8054643Y-14138214D01*
X8440357Y-14438214D02*
X8440357Y-14138214D01*
X8540357Y-14352500D01*
X8640357Y-14138214D01*
X8640357Y-14438214D01*
X8911786Y-14438214D02*
X8911786Y-14281071D01*
X8897500Y-14252500D01*
X8868928Y-14238214D01*
X8811786Y-14238214D01*
X8783214Y-14252500D01*
X8911786Y-14423929D02*
X8883214Y-14438214D01*
X8811786Y-14438214D01*
X8783214Y-14423929D01*
X8768928Y-14395357D01*
X8768928Y-14366786D01*
X8783214Y-14338214D01*
X8811786Y-14323929D01*
X8883214Y-14323929D01*
X8911786Y-14309643D01*
X9054643Y-14238214D02*
X9054643Y-14538214D01*
X9054643Y-14252500D02*
X9083214Y-14238214D01*
X9140357Y-14238214D01*
X9168928Y-14252500D01*
X9183214Y-14266786D01*
X9197500Y-14295357D01*
X9197500Y-14381071D01*
X9183214Y-14409643D01*
X9168928Y-14423929D01*
X9140357Y-14438214D01*
X9083214Y-14438214D01*
X9054643Y-14423929D01*
X9326071Y-14409643D02*
X9340357Y-14423929D01*
X9326071Y-14438214D01*
X9311786Y-14423929D01*
X9326071Y-14409643D01*
X9326071Y-14438214D01*
X9326071Y-14252500D02*
X9340357Y-14266786D01*
X9326071Y-14281071D01*
X9311786Y-14266786D01*
X9326071Y-14252500D01*
X9326071Y-14281071D01*
X6722500Y-14802500D02*
X6982500Y-15062500D01*
X6982500Y-14802500D02*
X6722500Y-15062500D01*
X7254643Y-14796786D02*
X7268928Y-14782500D01*
X7297500Y-14768214D01*
X7368928Y-14768214D01*
X7397500Y-14782500D01*
X7411786Y-14796786D01*
X7426071Y-14825357D01*
X7426071Y-14853929D01*
X7411786Y-14896786D01*
X7240357Y-15068214D01*
X7426071Y-15068214D01*
X7554643Y-15039643D02*
X7568928Y-15053929D01*
X7554643Y-15068214D01*
X7540357Y-15053929D01*
X7554643Y-15039643D01*
X7554643Y-15068214D01*
X7826071Y-14768214D02*
X7768928Y-14768214D01*
X7740357Y-14782500D01*
X7726071Y-14796786D01*
X7697500Y-14839643D01*
X7683214Y-14896786D01*
X7683214Y-15011071D01*
X7697500Y-15039643D01*
X7711786Y-15053929D01*
X7740357Y-15068214D01*
X7797500Y-15068214D01*
X7826071Y-15053929D01*
X7840357Y-15039643D01*
X7854643Y-15011071D01*
X7854643Y-14939643D01*
X7840357Y-14911071D01*
X7826071Y-14896786D01*
X7797500Y-14882500D01*
X7740357Y-14882500D01*
X7711786Y-14896786D01*
X7697500Y-14911071D01*
X7683214Y-14939643D01*
X8040357Y-14768214D02*
X8068928Y-14768214D01*
X8097500Y-14782500D01*
X8111786Y-14796786D01*
X8126071Y-14825357D01*
X8140357Y-14882500D01*
X8140357Y-14953929D01*
X8126071Y-15011071D01*
X8111786Y-15039643D01*
X8097500Y-15053929D01*
X8068928Y-15068214D01*
X8040357Y-15068214D01*
X8011786Y-15053929D01*
X7997500Y-15039643D01*
X7983214Y-15011071D01*
X7968928Y-14953929D01*
X7968928Y-14882500D01*
X7983214Y-14825357D01*
X7997500Y-14796786D01*
X8011786Y-14782500D01*
X8040357Y-14768214D01*
X8268928Y-15068214D02*
X8268928Y-14868214D01*
X8268928Y-14896786D02*
X8283214Y-14882500D01*
X8311786Y-14868214D01*
X8354643Y-14868214D01*
X8383214Y-14882500D01*
X8397500Y-14911071D01*
X8397500Y-15068214D01*
X8397500Y-14911071D02*
X8411786Y-14882500D01*
X8440357Y-14868214D01*
X8483214Y-14868214D01*
X8511786Y-14882500D01*
X8526071Y-14911071D01*
X8526071Y-15068214D01*
X8668928Y-15068214D02*
X8668928Y-14868214D01*
X8668928Y-14896786D02*
X8683214Y-14882500D01*
X8711786Y-14868214D01*
X8754643Y-14868214D01*
X8783214Y-14882500D01*
X8797500Y-14911071D01*
X8797500Y-15068214D01*
X8797500Y-14911071D02*
X8811786Y-14882500D01*
X8840357Y-14868214D01*
X8883214Y-14868214D01*
X8911786Y-14882500D01*
X8926071Y-14911071D01*
X8926071Y-15068214D01*
X9511786Y-14753929D02*
X9254643Y-15139643D01*
X9897500Y-14768214D02*
X9926071Y-14768214D01*
X9954643Y-14782500D01*
X9968928Y-14796786D01*
X9983214Y-14825357D01*
X9997500Y-14882500D01*
X9997500Y-14953929D01*
X9983214Y-15011071D01*
X9968928Y-15039643D01*
X9954643Y-15053929D01*
X9926071Y-15068214D01*
X9897500Y-15068214D01*
X9868928Y-15053929D01*
X9854643Y-15039643D01*
X9840357Y-15011071D01*
X9826071Y-14953929D01*
X9826071Y-14882500D01*
X9840357Y-14825357D01*
X9854643Y-14796786D01*
X9868928Y-14782500D01*
X9897500Y-14768214D01*
X10126071Y-15039643D02*
X10140357Y-15053929D01*
X10126071Y-15068214D01*
X10111786Y-15053929D01*
X10126071Y-15039643D01*
X10126071Y-15068214D01*
X10426071Y-15068214D02*
X10254643Y-15068214D01*
X10340357Y-15068214D02*
X10340357Y-14768214D01*
X10311786Y-14811071D01*
X10283214Y-14839643D01*
X10254643Y-14853929D01*
X10611786Y-14768214D02*
X10640357Y-14768214D01*
X10668928Y-14782500D01*
X10683214Y-14796786D01*
X10697500Y-14825357D01*
X10711786Y-14882500D01*
X10711786Y-14953929D01*
X10697500Y-15011071D01*
X10683214Y-15039643D01*
X10668928Y-15053929D01*
X10640357Y-15068214D01*
X10611786Y-15068214D01*
X10583214Y-15053929D01*
X10568928Y-15039643D01*
X10554643Y-15011071D01*
X10540357Y-14953929D01*
X10540357Y-14882500D01*
X10554643Y-14825357D01*
X10568928Y-14796786D01*
X10583214Y-14782500D01*
X10611786Y-14768214D01*
X10826071Y-14796786D02*
X10840357Y-14782500D01*
X10868928Y-14768214D01*
X10940357Y-14768214D01*
X10968928Y-14782500D01*
X10983214Y-14796786D01*
X10997500Y-14825357D01*
X10997500Y-14853929D01*
X10983214Y-14896786D01*
X10811786Y-15068214D01*
X10997500Y-15068214D01*
X11111786Y-14768214D02*
X11111786Y-14825357D01*
X11226071Y-14768214D02*
X11226071Y-14825357D01*
X11668928Y-15182500D02*
X11654643Y-15168214D01*
X11626071Y-15125357D01*
X11611786Y-15096786D01*
X11597500Y-15053929D01*
X11583214Y-14982500D01*
X11583214Y-14925357D01*
X11597500Y-14853929D01*
X11611786Y-14811071D01*
X11626071Y-14782500D01*
X11654643Y-14739643D01*
X11668928Y-14725357D01*
X11754643Y-14768214D02*
X11940357Y-14768214D01*
X11840357Y-14882500D01*
X11883214Y-14882500D01*
X11911786Y-14896786D01*
X11926071Y-14911071D01*
X11940357Y-14939643D01*
X11940357Y-15011071D01*
X11926071Y-15039643D01*
X11911786Y-15053929D01*
X11883214Y-15068214D01*
X11797500Y-15068214D01*
X11768928Y-15053929D01*
X11754643Y-15039643D01*
X12297500Y-15068214D02*
X12297500Y-14768214D01*
X12426071Y-15068214D02*
X12426071Y-14911071D01*
X12411786Y-14882500D01*
X12383214Y-14868214D01*
X12340357Y-14868214D01*
X12311786Y-14882500D01*
X12297500Y-14896786D01*
X12611786Y-15068214D02*
X12583214Y-15053929D01*
X12568928Y-15039643D01*
X12554643Y-15011071D01*
X12554643Y-14925357D01*
X12568928Y-14896786D01*
X12583214Y-14882500D01*
X12611786Y-14868214D01*
X12654643Y-14868214D01*
X12683214Y-14882500D01*
X12697500Y-14896786D01*
X12711786Y-14925357D01*
X12711786Y-15011071D01*
X12697500Y-15039643D01*
X12683214Y-15053929D01*
X12654643Y-15068214D01*
X12611786Y-15068214D01*
X12883214Y-15068214D02*
X12854643Y-15053929D01*
X12840357Y-15025357D01*
X12840357Y-14768214D01*
X13111786Y-15053929D02*
X13083214Y-15068214D01*
X13026071Y-15068214D01*
X12997500Y-15053929D01*
X12983214Y-15025357D01*
X12983214Y-14911071D01*
X12997500Y-14882500D01*
X13026071Y-14868214D01*
X13083214Y-14868214D01*
X13111786Y-14882500D01*
X13126071Y-14911071D01*
X13126071Y-14939643D01*
X12983214Y-14968214D01*
X13240357Y-15053929D02*
X13268928Y-15068214D01*
X13326071Y-15068214D01*
X13354643Y-15053929D01*
X13368928Y-15025357D01*
X13368928Y-15011071D01*
X13354643Y-14982500D01*
X13326071Y-14968214D01*
X13283214Y-14968214D01*
X13254643Y-14953929D01*
X13240357Y-14925357D01*
X13240357Y-14911071D01*
X13254643Y-14882500D01*
X13283214Y-14868214D01*
X13326071Y-14868214D01*
X13354643Y-14882500D01*
X13468928Y-15182500D02*
X13483214Y-15168214D01*
X13511786Y-15125357D01*
X13526071Y-15096786D01*
X13540357Y-15053929D01*
X13554643Y-14982500D01*
X13554643Y-14925357D01*
X13540357Y-14853929D01*
X13526071Y-14811071D01*
X13511786Y-14782500D01*
X13483214Y-14739643D01*
X13468928Y-14725357D01*
X14011786Y-15182500D02*
X13997500Y-15168214D01*
X13968928Y-15125357D01*
X13954643Y-15096786D01*
X13940357Y-15053929D01*
X13926071Y-14982500D01*
X13926071Y-14925357D01*
X13940357Y-14853929D01*
X13954643Y-14811071D01*
X13968928Y-14782500D01*
X13997500Y-14739643D01*
X14011786Y-14725357D01*
X14126071Y-14868214D02*
X14126071Y-15068214D01*
X14126071Y-14896786D02*
X14140357Y-14882500D01*
X14168928Y-14868214D01*
X14211786Y-14868214D01*
X14240357Y-14882500D01*
X14254643Y-14911071D01*
X14254643Y-15068214D01*
X14440357Y-15068214D02*
X14411786Y-15053929D01*
X14397500Y-15039643D01*
X14383214Y-15011071D01*
X14383214Y-14925357D01*
X14397500Y-14896786D01*
X14411786Y-14882500D01*
X14440357Y-14868214D01*
X14483214Y-14868214D01*
X14511786Y-14882500D01*
X14526071Y-14896786D01*
X14540357Y-14925357D01*
X14540357Y-15011071D01*
X14526071Y-15039643D01*
X14511786Y-15053929D01*
X14483214Y-15068214D01*
X14440357Y-15068214D01*
X14626071Y-14868214D02*
X14740357Y-14868214D01*
X14668928Y-14768214D02*
X14668928Y-15025357D01*
X14683214Y-15053929D01*
X14711786Y-15068214D01*
X14740357Y-15068214D01*
X15068928Y-14868214D02*
X15068928Y-15168214D01*
X15068928Y-14882500D02*
X15097500Y-14868214D01*
X15154643Y-14868214D01*
X15183214Y-14882500D01*
X15197500Y-14896786D01*
X15211786Y-14925357D01*
X15211786Y-15011071D01*
X15197500Y-15039643D01*
X15183214Y-15053929D01*
X15154643Y-15068214D01*
X15097500Y-15068214D01*
X15068928Y-15053929D01*
X15383214Y-15068214D02*
X15354643Y-15053929D01*
X15340357Y-15025357D01*
X15340357Y-14768214D01*
X15626071Y-15068214D02*
X15626071Y-14911071D01*
X15611786Y-14882500D01*
X15583214Y-14868214D01*
X15526071Y-14868214D01*
X15497500Y-14882500D01*
X15626071Y-15053929D02*
X15597500Y-15068214D01*
X15526071Y-15068214D01*
X15497500Y-15053929D01*
X15483214Y-15025357D01*
X15483214Y-14996786D01*
X15497500Y-14968214D01*
X15526071Y-14953929D01*
X15597500Y-14953929D01*
X15626071Y-14939643D01*
X15726071Y-14868214D02*
X15840357Y-14868214D01*
X15768928Y-14768214D02*
X15768928Y-15025357D01*
X15783214Y-15053929D01*
X15811786Y-15068214D01*
X15840357Y-15068214D01*
X16054643Y-15053929D02*
X16026071Y-15068214D01*
X15968928Y-15068214D01*
X15940357Y-15053929D01*
X15926071Y-15025357D01*
X15926071Y-14911071D01*
X15940357Y-14882500D01*
X15968928Y-14868214D01*
X16026071Y-14868214D01*
X16054643Y-14882500D01*
X16068928Y-14911071D01*
X16068928Y-14939643D01*
X15926071Y-14968214D01*
X16326071Y-15068214D02*
X16326071Y-14768214D01*
X16326071Y-15053929D02*
X16297500Y-15068214D01*
X16240357Y-15068214D01*
X16211786Y-15053929D01*
X16197500Y-15039643D01*
X16183214Y-15011071D01*
X16183214Y-14925357D01*
X16197500Y-14896786D01*
X16211786Y-14882500D01*
X16240357Y-14868214D01*
X16297500Y-14868214D01*
X16326071Y-14882500D01*
X16440357Y-15182500D02*
X16454643Y-15168214D01*
X16483214Y-15125357D01*
X16497500Y-15096786D01*
X16511786Y-15053929D01*
X16526071Y-14982500D01*
X16526071Y-14925357D01*
X16511786Y-14853929D01*
X16497500Y-14811071D01*
X16483214Y-14782500D01*
X16454643Y-14739643D01*
X16440357Y-14725357D01*
M02*
