%TF.GenerationSoftware,KiCad,Pcbnew,(5.1.9)-1*%
%TF.CreationDate,2022-07-25T22:00:42-05:00*%
%TF.ProjectId,GPSPuck,47505350-7563-46b2-9e6b-696361645f70,1*%
%TF.SameCoordinates,Original*%
%TF.FileFunction,Legend,Top*%
%TF.FilePolarity,Positive*%
%FSLAX46Y46*%
G04 Gerber Fmt 4.6, Leading zero omitted, Abs format (unit mm)*
G04 Created by KiCad (PCBNEW (5.1.9)-1) date 2022-07-25 22:00:42*
%MOMM*%
%LPD*%
G01*
G04 APERTURE LIST*
%ADD10C,0.150000*%
%ADD11C,0.120000*%
G04 APERTURE END LIST*
D10*
X78161428Y-61806580D02*
X78161428Y-60806580D01*
X78494761Y-61520866D01*
X78828095Y-60806580D01*
X78828095Y-61806580D01*
X79447142Y-61806580D02*
X79351904Y-61758961D01*
X79304285Y-61711342D01*
X79256666Y-61616104D01*
X79256666Y-61330390D01*
X79304285Y-61235152D01*
X79351904Y-61187533D01*
X79447142Y-61139914D01*
X79590000Y-61139914D01*
X79685238Y-61187533D01*
X79732857Y-61235152D01*
X79780476Y-61330390D01*
X79780476Y-61616104D01*
X79732857Y-61711342D01*
X79685238Y-61758961D01*
X79590000Y-61806580D01*
X79447142Y-61806580D01*
X80637619Y-61139914D02*
X80637619Y-61806580D01*
X80209047Y-61139914D02*
X80209047Y-61663723D01*
X80256666Y-61758961D01*
X80351904Y-61806580D01*
X80494761Y-61806580D01*
X80590000Y-61758961D01*
X80637619Y-61711342D01*
X81113809Y-61139914D02*
X81113809Y-61806580D01*
X81113809Y-61235152D02*
X81161428Y-61187533D01*
X81256666Y-61139914D01*
X81399523Y-61139914D01*
X81494761Y-61187533D01*
X81542380Y-61282771D01*
X81542380Y-61806580D01*
X81875714Y-61139914D02*
X82256666Y-61139914D01*
X82018571Y-60806580D02*
X82018571Y-61663723D01*
X82066190Y-61758961D01*
X82161428Y-61806580D01*
X82256666Y-61806580D01*
X82590000Y-61806580D02*
X82590000Y-61139914D01*
X82590000Y-60806580D02*
X82542380Y-60854200D01*
X82590000Y-60901819D01*
X82637619Y-60854200D01*
X82590000Y-60806580D01*
X82590000Y-60901819D01*
X83066190Y-61139914D02*
X83066190Y-61806580D01*
X83066190Y-61235152D02*
X83113809Y-61187533D01*
X83209047Y-61139914D01*
X83351904Y-61139914D01*
X83447142Y-61187533D01*
X83494761Y-61282771D01*
X83494761Y-61806580D01*
X84399523Y-61139914D02*
X84399523Y-61949438D01*
X84351904Y-62044676D01*
X84304285Y-62092295D01*
X84209047Y-62139914D01*
X84066190Y-62139914D01*
X83970952Y-62092295D01*
X84399523Y-61758961D02*
X84304285Y-61806580D01*
X84113809Y-61806580D01*
X84018571Y-61758961D01*
X83970952Y-61711342D01*
X83923333Y-61616104D01*
X83923333Y-61330390D01*
X83970952Y-61235152D01*
X84018571Y-61187533D01*
X84113809Y-61139914D01*
X84304285Y-61139914D01*
X84399523Y-61187533D01*
X85637619Y-61806580D02*
X85637619Y-60806580D01*
X86066190Y-61806580D02*
X86066190Y-61282771D01*
X86018571Y-61187533D01*
X85923333Y-61139914D01*
X85780476Y-61139914D01*
X85685238Y-61187533D01*
X85637619Y-61235152D01*
X86685238Y-61806580D02*
X86590000Y-61758961D01*
X86542380Y-61711342D01*
X86494761Y-61616104D01*
X86494761Y-61330390D01*
X86542380Y-61235152D01*
X86590000Y-61187533D01*
X86685238Y-61139914D01*
X86828095Y-61139914D01*
X86923333Y-61187533D01*
X86970952Y-61235152D01*
X87018571Y-61330390D01*
X87018571Y-61616104D01*
X86970952Y-61711342D01*
X86923333Y-61758961D01*
X86828095Y-61806580D01*
X86685238Y-61806580D01*
X87590000Y-61806580D02*
X87494761Y-61758961D01*
X87447142Y-61663723D01*
X87447142Y-60806580D01*
X88351904Y-61758961D02*
X88256666Y-61806580D01*
X88066190Y-61806580D01*
X87970952Y-61758961D01*
X87923333Y-61663723D01*
X87923333Y-61282771D01*
X87970952Y-61187533D01*
X88066190Y-61139914D01*
X88256666Y-61139914D01*
X88351904Y-61187533D01*
X88399523Y-61282771D01*
X88399523Y-61378009D01*
X87923333Y-61473247D01*
X88780476Y-61758961D02*
X88875714Y-61806580D01*
X89066190Y-61806580D01*
X89161428Y-61758961D01*
X89209047Y-61663723D01*
X89209047Y-61616104D01*
X89161428Y-61520866D01*
X89066190Y-61473247D01*
X88923333Y-61473247D01*
X88828095Y-61425628D01*
X88780476Y-61330390D01*
X88780476Y-61282771D01*
X88828095Y-61187533D01*
X88923333Y-61139914D01*
X89066190Y-61139914D01*
X89161428Y-61187533D01*
X90256666Y-61139914D02*
X90637619Y-61139914D01*
X90399523Y-61806580D02*
X90399523Y-60949438D01*
X90447142Y-60854200D01*
X90542380Y-60806580D01*
X90637619Y-60806580D01*
X91113809Y-61806580D02*
X91018571Y-61758961D01*
X90970952Y-61711342D01*
X90923333Y-61616104D01*
X90923333Y-61330390D01*
X90970952Y-61235152D01*
X91018571Y-61187533D01*
X91113809Y-61139914D01*
X91256666Y-61139914D01*
X91351904Y-61187533D01*
X91399523Y-61235152D01*
X91447142Y-61330390D01*
X91447142Y-61616104D01*
X91399523Y-61711342D01*
X91351904Y-61758961D01*
X91256666Y-61806580D01*
X91113809Y-61806580D01*
X91875714Y-61806580D02*
X91875714Y-61139914D01*
X91875714Y-61330390D02*
X91923333Y-61235152D01*
X91970952Y-61187533D01*
X92066190Y-61139914D01*
X92161428Y-61139914D01*
X81328095Y-63456580D02*
X81328095Y-62456580D01*
X81661428Y-63170866D01*
X81994761Y-62456580D01*
X81994761Y-63456580D01*
X82375714Y-62456580D02*
X82994761Y-62456580D01*
X82661428Y-62837533D01*
X82804285Y-62837533D01*
X82899523Y-62885152D01*
X82947142Y-62932771D01*
X82994761Y-63028009D01*
X82994761Y-63266104D01*
X82947142Y-63361342D01*
X82899523Y-63408961D01*
X82804285Y-63456580D01*
X82518571Y-63456580D01*
X82423333Y-63408961D01*
X82375714Y-63361342D01*
X84137619Y-63408961D02*
X84280476Y-63456580D01*
X84518571Y-63456580D01*
X84613809Y-63408961D01*
X84661428Y-63361342D01*
X84709047Y-63266104D01*
X84709047Y-63170866D01*
X84661428Y-63075628D01*
X84613809Y-63028009D01*
X84518571Y-62980390D01*
X84328095Y-62932771D01*
X84232857Y-62885152D01*
X84185238Y-62837533D01*
X84137619Y-62742295D01*
X84137619Y-62647057D01*
X84185238Y-62551819D01*
X84232857Y-62504200D01*
X84328095Y-62456580D01*
X84566190Y-62456580D01*
X84709047Y-62504200D01*
X85566190Y-63408961D02*
X85470952Y-63456580D01*
X85280476Y-63456580D01*
X85185238Y-63408961D01*
X85137619Y-63361342D01*
X85090000Y-63266104D01*
X85090000Y-62980390D01*
X85137619Y-62885152D01*
X85185238Y-62837533D01*
X85280476Y-62789914D01*
X85470952Y-62789914D01*
X85566190Y-62837533D01*
X85994761Y-63456580D02*
X85994761Y-62789914D01*
X85994761Y-62980390D02*
X86042380Y-62885152D01*
X86090000Y-62837533D01*
X86185238Y-62789914D01*
X86280476Y-62789914D01*
X86994761Y-63408961D02*
X86899523Y-63456580D01*
X86709047Y-63456580D01*
X86613809Y-63408961D01*
X86566190Y-63313723D01*
X86566190Y-62932771D01*
X86613809Y-62837533D01*
X86709047Y-62789914D01*
X86899523Y-62789914D01*
X86994761Y-62837533D01*
X87042380Y-62932771D01*
X87042380Y-63028009D01*
X86566190Y-63123247D01*
X87375714Y-62789914D02*
X87566190Y-63456580D01*
X87756666Y-62980390D01*
X87947142Y-63456580D01*
X88137619Y-62789914D01*
X88470952Y-63408961D02*
X88566190Y-63456580D01*
X88756666Y-63456580D01*
X88851904Y-63408961D01*
X88899523Y-63313723D01*
X88899523Y-63266104D01*
X88851904Y-63170866D01*
X88756666Y-63123247D01*
X88613809Y-63123247D01*
X88518571Y-63075628D01*
X88470952Y-62980390D01*
X88470952Y-62932771D01*
X88518571Y-62837533D01*
X88613809Y-62789914D01*
X88756666Y-62789914D01*
X88851904Y-62837533D01*
X81090476Y-112609761D02*
X81233333Y-112657380D01*
X81471428Y-112657380D01*
X81566666Y-112609761D01*
X81614285Y-112562142D01*
X81661904Y-112466904D01*
X81661904Y-112371666D01*
X81614285Y-112276428D01*
X81566666Y-112228809D01*
X81471428Y-112181190D01*
X81280952Y-112133571D01*
X81185714Y-112085952D01*
X81138095Y-112038333D01*
X81090476Y-111943095D01*
X81090476Y-111847857D01*
X81138095Y-111752619D01*
X81185714Y-111705000D01*
X81280952Y-111657380D01*
X81519047Y-111657380D01*
X81661904Y-111705000D01*
X82519047Y-111990714D02*
X82519047Y-112657380D01*
X82090476Y-111990714D02*
X82090476Y-112514523D01*
X82138095Y-112609761D01*
X82233333Y-112657380D01*
X82376190Y-112657380D01*
X82471428Y-112609761D01*
X82519047Y-112562142D01*
X82995238Y-111990714D02*
X82995238Y-112990714D01*
X82995238Y-112038333D02*
X83090476Y-111990714D01*
X83280952Y-111990714D01*
X83376190Y-112038333D01*
X83423809Y-112085952D01*
X83471428Y-112181190D01*
X83471428Y-112466904D01*
X83423809Y-112562142D01*
X83376190Y-112609761D01*
X83280952Y-112657380D01*
X83090476Y-112657380D01*
X82995238Y-112609761D01*
X83900000Y-111990714D02*
X83900000Y-112990714D01*
X83900000Y-112038333D02*
X83995238Y-111990714D01*
X84185714Y-111990714D01*
X84280952Y-112038333D01*
X84328571Y-112085952D01*
X84376190Y-112181190D01*
X84376190Y-112466904D01*
X84328571Y-112562142D01*
X84280952Y-112609761D01*
X84185714Y-112657380D01*
X83995238Y-112657380D01*
X83900000Y-112609761D01*
X84947619Y-112657380D02*
X84852380Y-112609761D01*
X84804761Y-112514523D01*
X84804761Y-111657380D01*
X85233333Y-111990714D02*
X85471428Y-112657380D01*
X85709523Y-111990714D02*
X85471428Y-112657380D01*
X85376190Y-112895476D01*
X85328571Y-112943095D01*
X85233333Y-112990714D01*
X86852380Y-111990714D02*
X86852380Y-112990714D01*
X86852380Y-112038333D02*
X86947619Y-111990714D01*
X87138095Y-111990714D01*
X87233333Y-112038333D01*
X87280952Y-112085952D01*
X87328571Y-112181190D01*
X87328571Y-112466904D01*
X87280952Y-112562142D01*
X87233333Y-112609761D01*
X87138095Y-112657380D01*
X86947619Y-112657380D01*
X86852380Y-112609761D01*
X87900000Y-112657380D02*
X87804761Y-112609761D01*
X87757142Y-112562142D01*
X87709523Y-112466904D01*
X87709523Y-112181190D01*
X87757142Y-112085952D01*
X87804761Y-112038333D01*
X87900000Y-111990714D01*
X88042857Y-111990714D01*
X88138095Y-112038333D01*
X88185714Y-112085952D01*
X88233333Y-112181190D01*
X88233333Y-112466904D01*
X88185714Y-112562142D01*
X88138095Y-112609761D01*
X88042857Y-112657380D01*
X87900000Y-112657380D01*
X88566666Y-111990714D02*
X88757142Y-112657380D01*
X88947619Y-112181190D01*
X89138095Y-112657380D01*
X89328571Y-111990714D01*
X90090476Y-112609761D02*
X89995238Y-112657380D01*
X89804761Y-112657380D01*
X89709523Y-112609761D01*
X89661904Y-112514523D01*
X89661904Y-112133571D01*
X89709523Y-112038333D01*
X89804761Y-111990714D01*
X89995238Y-111990714D01*
X90090476Y-112038333D01*
X90138095Y-112133571D01*
X90138095Y-112228809D01*
X89661904Y-112324047D01*
X90566666Y-112657380D02*
X90566666Y-111990714D01*
X90566666Y-112181190D02*
X90614285Y-112085952D01*
X90661904Y-112038333D01*
X90757142Y-111990714D01*
X90852380Y-111990714D01*
X91947619Y-112657380D02*
X91947619Y-111990714D01*
X91947619Y-111657380D02*
X91900000Y-111705000D01*
X91947619Y-111752619D01*
X91995238Y-111705000D01*
X91947619Y-111657380D01*
X91947619Y-111752619D01*
X92376190Y-112609761D02*
X92471428Y-112657380D01*
X92661904Y-112657380D01*
X92757142Y-112609761D01*
X92804761Y-112514523D01*
X92804761Y-112466904D01*
X92757142Y-112371666D01*
X92661904Y-112324047D01*
X92519047Y-112324047D01*
X92423809Y-112276428D01*
X92376190Y-112181190D01*
X92376190Y-112133571D01*
X92423809Y-112038333D01*
X92519047Y-111990714D01*
X92661904Y-111990714D01*
X92757142Y-112038333D01*
X93995238Y-111990714D02*
X93995238Y-112657380D01*
X93995238Y-112085952D02*
X94042857Y-112038333D01*
X94138095Y-111990714D01*
X94280952Y-111990714D01*
X94376190Y-112038333D01*
X94423809Y-112133571D01*
X94423809Y-112657380D01*
X95042857Y-112657380D02*
X94947619Y-112609761D01*
X94900000Y-112562142D01*
X94852380Y-112466904D01*
X94852380Y-112181190D01*
X94900000Y-112085952D01*
X94947619Y-112038333D01*
X95042857Y-111990714D01*
X95185714Y-111990714D01*
X95280952Y-112038333D01*
X95328571Y-112085952D01*
X95376190Y-112181190D01*
X95376190Y-112466904D01*
X95328571Y-112562142D01*
X95280952Y-112609761D01*
X95185714Y-112657380D01*
X95042857Y-112657380D01*
X95661904Y-111990714D02*
X96042857Y-111990714D01*
X95804761Y-111657380D02*
X95804761Y-112514523D01*
X95852380Y-112609761D01*
X95947619Y-112657380D01*
X96042857Y-112657380D01*
X81804761Y-113640714D02*
X82185714Y-113640714D01*
X81947619Y-113307380D02*
X81947619Y-114164523D01*
X81995238Y-114259761D01*
X82090476Y-114307380D01*
X82185714Y-114307380D01*
X82661904Y-114307380D02*
X82566666Y-114259761D01*
X82519047Y-114212142D01*
X82471428Y-114116904D01*
X82471428Y-113831190D01*
X82519047Y-113735952D01*
X82566666Y-113688333D01*
X82661904Y-113640714D01*
X82804761Y-113640714D01*
X82900000Y-113688333D01*
X82947619Y-113735952D01*
X82995238Y-113831190D01*
X82995238Y-114116904D01*
X82947619Y-114212142D01*
X82900000Y-114259761D01*
X82804761Y-114307380D01*
X82661904Y-114307380D01*
X84566666Y-114259761D02*
X84471428Y-114307380D01*
X84280952Y-114307380D01*
X84185714Y-114259761D01*
X84138095Y-114164523D01*
X84138095Y-113783571D01*
X84185714Y-113688333D01*
X84280952Y-113640714D01*
X84471428Y-113640714D01*
X84566666Y-113688333D01*
X84614285Y-113783571D01*
X84614285Y-113878809D01*
X84138095Y-113974047D01*
X84947619Y-114307380D02*
X85471428Y-113640714D01*
X84947619Y-113640714D02*
X85471428Y-114307380D01*
X86280952Y-114259761D02*
X86185714Y-114307380D01*
X85995238Y-114307380D01*
X85900000Y-114259761D01*
X85852380Y-114212142D01*
X85804761Y-114116904D01*
X85804761Y-113831190D01*
X85852380Y-113735952D01*
X85900000Y-113688333D01*
X85995238Y-113640714D01*
X86185714Y-113640714D01*
X86280952Y-113688333D01*
X87090476Y-114259761D02*
X86995238Y-114307380D01*
X86804761Y-114307380D01*
X86709523Y-114259761D01*
X86661904Y-114164523D01*
X86661904Y-113783571D01*
X86709523Y-113688333D01*
X86804761Y-113640714D01*
X86995238Y-113640714D01*
X87090476Y-113688333D01*
X87138095Y-113783571D01*
X87138095Y-113878809D01*
X86661904Y-113974047D01*
X87947619Y-114259761D02*
X87852380Y-114307380D01*
X87661904Y-114307380D01*
X87566666Y-114259761D01*
X87519047Y-114164523D01*
X87519047Y-113783571D01*
X87566666Y-113688333D01*
X87661904Y-113640714D01*
X87852380Y-113640714D01*
X87947619Y-113688333D01*
X87995238Y-113783571D01*
X87995238Y-113878809D01*
X87519047Y-113974047D01*
X88852380Y-114307380D02*
X88852380Y-113307380D01*
X88852380Y-114259761D02*
X88757142Y-114307380D01*
X88566666Y-114307380D01*
X88471428Y-114259761D01*
X88423809Y-114212142D01*
X88376190Y-114116904D01*
X88376190Y-113831190D01*
X88423809Y-113735952D01*
X88471428Y-113688333D01*
X88566666Y-113640714D01*
X88757142Y-113640714D01*
X88852380Y-113688333D01*
X90614285Y-114307380D02*
X90042857Y-114307380D01*
X90328571Y-114307380D02*
X90328571Y-113307380D01*
X90233333Y-113450238D01*
X90138095Y-113545476D01*
X90042857Y-113593095D01*
X90995238Y-113402619D02*
X91042857Y-113355000D01*
X91138095Y-113307380D01*
X91376190Y-113307380D01*
X91471428Y-113355000D01*
X91519047Y-113402619D01*
X91566666Y-113497857D01*
X91566666Y-113593095D01*
X91519047Y-113735952D01*
X90947619Y-114307380D01*
X91566666Y-114307380D01*
X92661904Y-113640714D02*
X92900000Y-114307380D01*
X93138095Y-113640714D01*
X93661904Y-114307380D02*
X93566666Y-114259761D01*
X93519047Y-114212142D01*
X93471428Y-114116904D01*
X93471428Y-113831190D01*
X93519047Y-113735952D01*
X93566666Y-113688333D01*
X93661904Y-113640714D01*
X93804761Y-113640714D01*
X93900000Y-113688333D01*
X93947619Y-113735952D01*
X93995238Y-113831190D01*
X93995238Y-114116904D01*
X93947619Y-114212142D01*
X93900000Y-114259761D01*
X93804761Y-114307380D01*
X93661904Y-114307380D01*
X94566666Y-114307380D02*
X94471428Y-114259761D01*
X94423809Y-114164523D01*
X94423809Y-113307380D01*
X94804761Y-113640714D02*
X95185714Y-113640714D01*
X94947619Y-113307380D02*
X94947619Y-114164523D01*
X94995238Y-114259761D01*
X95090476Y-114307380D01*
X95185714Y-114307380D01*
X95471428Y-114259761D02*
X95566666Y-114307380D01*
X95757142Y-114307380D01*
X95852380Y-114259761D01*
X95900000Y-114164523D01*
X95900000Y-114116904D01*
X95852380Y-114021666D01*
X95757142Y-113974047D01*
X95614285Y-113974047D01*
X95519047Y-113926428D01*
X95471428Y-113831190D01*
X95471428Y-113783571D01*
X95519047Y-113688333D01*
X95614285Y-113640714D01*
X95757142Y-113640714D01*
X95852380Y-113688333D01*
X93321428Y-107402380D02*
X93892857Y-107402380D01*
X93607142Y-108402380D02*
X93607142Y-107402380D01*
X94607142Y-108354761D02*
X94511904Y-108402380D01*
X94321428Y-108402380D01*
X94226190Y-108354761D01*
X94178571Y-108259523D01*
X94178571Y-107878571D01*
X94226190Y-107783333D01*
X94321428Y-107735714D01*
X94511904Y-107735714D01*
X94607142Y-107783333D01*
X94654761Y-107878571D01*
X94654761Y-107973809D01*
X94178571Y-108069047D01*
X95083333Y-108402380D02*
X95083333Y-107735714D01*
X95083333Y-107926190D02*
X95130952Y-107830952D01*
X95178571Y-107783333D01*
X95273809Y-107735714D01*
X95369047Y-107735714D01*
X95702380Y-108402380D02*
X95702380Y-107735714D01*
X95702380Y-107830952D02*
X95750000Y-107783333D01*
X95845238Y-107735714D01*
X95988095Y-107735714D01*
X96083333Y-107783333D01*
X96130952Y-107878571D01*
X96130952Y-108402380D01*
X96130952Y-107878571D02*
X96178571Y-107783333D01*
X96273809Y-107735714D01*
X96416666Y-107735714D01*
X96511904Y-107783333D01*
X96559523Y-107878571D01*
X96559523Y-108402380D01*
X97035714Y-108307142D02*
X97083333Y-108354761D01*
X97035714Y-108402380D01*
X96988095Y-108354761D01*
X97035714Y-108307142D01*
X97035714Y-108402380D01*
X87709523Y-102798571D02*
X87852380Y-102846190D01*
X87900000Y-102893809D01*
X87947619Y-102989047D01*
X87947619Y-103131904D01*
X87900000Y-103227142D01*
X87852380Y-103274761D01*
X87757142Y-103322380D01*
X87376190Y-103322380D01*
X87376190Y-102322380D01*
X87709523Y-102322380D01*
X87804761Y-102370000D01*
X87852380Y-102417619D01*
X87900000Y-102512857D01*
X87900000Y-102608095D01*
X87852380Y-102703333D01*
X87804761Y-102750952D01*
X87709523Y-102798571D01*
X87376190Y-102798571D01*
X88804761Y-103322380D02*
X88804761Y-102798571D01*
X88757142Y-102703333D01*
X88661904Y-102655714D01*
X88471428Y-102655714D01*
X88376190Y-102703333D01*
X88804761Y-103274761D02*
X88709523Y-103322380D01*
X88471428Y-103322380D01*
X88376190Y-103274761D01*
X88328571Y-103179523D01*
X88328571Y-103084285D01*
X88376190Y-102989047D01*
X88471428Y-102941428D01*
X88709523Y-102941428D01*
X88804761Y-102893809D01*
X89138095Y-102655714D02*
X89519047Y-102655714D01*
X89280952Y-102322380D02*
X89280952Y-103179523D01*
X89328571Y-103274761D01*
X89423809Y-103322380D01*
X89519047Y-103322380D01*
X89709523Y-102655714D02*
X90090476Y-102655714D01*
X89852380Y-102322380D02*
X89852380Y-103179523D01*
X89900000Y-103274761D01*
X89995238Y-103322380D01*
X90090476Y-103322380D01*
X90423809Y-103227142D02*
X90471428Y-103274761D01*
X90423809Y-103322380D01*
X90376190Y-103274761D01*
X90423809Y-103227142D01*
X90423809Y-103322380D01*
X81288095Y-107402380D02*
X81288095Y-108211904D01*
X81335714Y-108307142D01*
X81383333Y-108354761D01*
X81478571Y-108402380D01*
X81669047Y-108402380D01*
X81764285Y-108354761D01*
X81811904Y-108307142D01*
X81859523Y-108211904D01*
X81859523Y-107402380D01*
X82288095Y-108354761D02*
X82430952Y-108402380D01*
X82669047Y-108402380D01*
X82764285Y-108354761D01*
X82811904Y-108307142D01*
X82859523Y-108211904D01*
X82859523Y-108116666D01*
X82811904Y-108021428D01*
X82764285Y-107973809D01*
X82669047Y-107926190D01*
X82478571Y-107878571D01*
X82383333Y-107830952D01*
X82335714Y-107783333D01*
X82288095Y-107688095D01*
X82288095Y-107592857D01*
X82335714Y-107497619D01*
X82383333Y-107450000D01*
X82478571Y-107402380D01*
X82716666Y-107402380D01*
X82859523Y-107450000D01*
X83621428Y-107878571D02*
X83764285Y-107926190D01*
X83811904Y-107973809D01*
X83859523Y-108069047D01*
X83859523Y-108211904D01*
X83811904Y-108307142D01*
X83764285Y-108354761D01*
X83669047Y-108402380D01*
X83288095Y-108402380D01*
X83288095Y-107402380D01*
X83621428Y-107402380D01*
X83716666Y-107450000D01*
X83764285Y-107497619D01*
X83811904Y-107592857D01*
X83811904Y-107688095D01*
X83764285Y-107783333D01*
X83716666Y-107830952D01*
X83621428Y-107878571D01*
X83288095Y-107878571D01*
X101393809Y-85860000D02*
X101298571Y-85812380D01*
X101155714Y-85812380D01*
X101012857Y-85860000D01*
X100917619Y-85955238D01*
X100870000Y-86050476D01*
X100822380Y-86240952D01*
X100822380Y-86383809D01*
X100870000Y-86574285D01*
X100917619Y-86669523D01*
X101012857Y-86764761D01*
X101155714Y-86812380D01*
X101250952Y-86812380D01*
X101393809Y-86764761D01*
X101441428Y-86717142D01*
X101441428Y-86383809D01*
X101250952Y-86383809D01*
X101870000Y-86812380D02*
X101870000Y-85812380D01*
X102250952Y-85812380D01*
X102346190Y-85860000D01*
X102393809Y-85907619D01*
X102441428Y-86002857D01*
X102441428Y-86145714D01*
X102393809Y-86240952D01*
X102346190Y-86288571D01*
X102250952Y-86336190D01*
X101870000Y-86336190D01*
X102870000Y-86812380D02*
X102870000Y-85812380D01*
X103536666Y-85812380D02*
X103727142Y-85812380D01*
X103822380Y-85860000D01*
X103917619Y-85955238D01*
X103965238Y-86145714D01*
X103965238Y-86479047D01*
X103917619Y-86669523D01*
X103822380Y-86764761D01*
X103727142Y-86812380D01*
X103536666Y-86812380D01*
X103441428Y-86764761D01*
X103346190Y-86669523D01*
X103298571Y-86479047D01*
X103298571Y-86145714D01*
X103346190Y-85955238D01*
X103441428Y-85860000D01*
X103536666Y-85812380D01*
X104822380Y-85812380D02*
X104631904Y-85812380D01*
X104536666Y-85860000D01*
X104489047Y-85907619D01*
X104393809Y-86050476D01*
X104346190Y-86240952D01*
X104346190Y-86621904D01*
X104393809Y-86717142D01*
X104441428Y-86764761D01*
X104536666Y-86812380D01*
X104727142Y-86812380D01*
X104822380Y-86764761D01*
X104870000Y-86717142D01*
X104917619Y-86621904D01*
X104917619Y-86383809D01*
X104870000Y-86288571D01*
X104822380Y-86240952D01*
X104727142Y-86193333D01*
X104536666Y-86193333D01*
X104441428Y-86240952D01*
X104393809Y-86288571D01*
X104346190Y-86383809D01*
X101393809Y-80780000D02*
X101298571Y-80732380D01*
X101155714Y-80732380D01*
X101012857Y-80780000D01*
X100917619Y-80875238D01*
X100870000Y-80970476D01*
X100822380Y-81160952D01*
X100822380Y-81303809D01*
X100870000Y-81494285D01*
X100917619Y-81589523D01*
X101012857Y-81684761D01*
X101155714Y-81732380D01*
X101250952Y-81732380D01*
X101393809Y-81684761D01*
X101441428Y-81637142D01*
X101441428Y-81303809D01*
X101250952Y-81303809D01*
X101870000Y-81732380D02*
X101870000Y-80732380D01*
X102250952Y-80732380D01*
X102346190Y-80780000D01*
X102393809Y-80827619D01*
X102441428Y-80922857D01*
X102441428Y-81065714D01*
X102393809Y-81160952D01*
X102346190Y-81208571D01*
X102250952Y-81256190D01*
X101870000Y-81256190D01*
X102870000Y-81732380D02*
X102870000Y-80732380D01*
X103536666Y-80732380D02*
X103727142Y-80732380D01*
X103822380Y-80780000D01*
X103917619Y-80875238D01*
X103965238Y-81065714D01*
X103965238Y-81399047D01*
X103917619Y-81589523D01*
X103822380Y-81684761D01*
X103727142Y-81732380D01*
X103536666Y-81732380D01*
X103441428Y-81684761D01*
X103346190Y-81589523D01*
X103298571Y-81399047D01*
X103298571Y-81065714D01*
X103346190Y-80875238D01*
X103441428Y-80780000D01*
X103536666Y-80732380D01*
X104822380Y-81065714D02*
X104822380Y-81732380D01*
X104584285Y-80684761D02*
X104346190Y-81399047D01*
X104965238Y-81399047D01*
X100917619Y-108720000D02*
X100822380Y-108672380D01*
X100679523Y-108672380D01*
X100536666Y-108720000D01*
X100441428Y-108815238D01*
X100393809Y-108910476D01*
X100346190Y-109100952D01*
X100346190Y-109243809D01*
X100393809Y-109434285D01*
X100441428Y-109529523D01*
X100536666Y-109624761D01*
X100679523Y-109672380D01*
X100774761Y-109672380D01*
X100917619Y-109624761D01*
X100965238Y-109577142D01*
X100965238Y-109243809D01*
X100774761Y-109243809D01*
X101393809Y-109672380D02*
X101393809Y-108672380D01*
X101774761Y-108672380D01*
X101870000Y-108720000D01*
X101917619Y-108767619D01*
X101965238Y-108862857D01*
X101965238Y-109005714D01*
X101917619Y-109100952D01*
X101870000Y-109148571D01*
X101774761Y-109196190D01*
X101393809Y-109196190D01*
X102393809Y-109672380D02*
X102393809Y-108672380D01*
X103060476Y-108672380D02*
X103250952Y-108672380D01*
X103346190Y-108720000D01*
X103441428Y-108815238D01*
X103489047Y-109005714D01*
X103489047Y-109339047D01*
X103441428Y-109529523D01*
X103346190Y-109624761D01*
X103250952Y-109672380D01*
X103060476Y-109672380D01*
X102965238Y-109624761D01*
X102870000Y-109529523D01*
X102822380Y-109339047D01*
X102822380Y-109005714D01*
X102870000Y-108815238D01*
X102965238Y-108720000D01*
X103060476Y-108672380D01*
X104441428Y-109672380D02*
X103870000Y-109672380D01*
X104155714Y-109672380D02*
X104155714Y-108672380D01*
X104060476Y-108815238D01*
X103965238Y-108910476D01*
X103870000Y-108958095D01*
X104774761Y-108672380D02*
X105441428Y-108672380D01*
X105012857Y-109672380D01*
X100917619Y-106180000D02*
X100822380Y-106132380D01*
X100679523Y-106132380D01*
X100536666Y-106180000D01*
X100441428Y-106275238D01*
X100393809Y-106370476D01*
X100346190Y-106560952D01*
X100346190Y-106703809D01*
X100393809Y-106894285D01*
X100441428Y-106989523D01*
X100536666Y-107084761D01*
X100679523Y-107132380D01*
X100774761Y-107132380D01*
X100917619Y-107084761D01*
X100965238Y-107037142D01*
X100965238Y-106703809D01*
X100774761Y-106703809D01*
X101393809Y-107132380D02*
X101393809Y-106132380D01*
X101774761Y-106132380D01*
X101870000Y-106180000D01*
X101917619Y-106227619D01*
X101965238Y-106322857D01*
X101965238Y-106465714D01*
X101917619Y-106560952D01*
X101870000Y-106608571D01*
X101774761Y-106656190D01*
X101393809Y-106656190D01*
X102393809Y-107132380D02*
X102393809Y-106132380D01*
X103060476Y-106132380D02*
X103250952Y-106132380D01*
X103346190Y-106180000D01*
X103441428Y-106275238D01*
X103489047Y-106465714D01*
X103489047Y-106799047D01*
X103441428Y-106989523D01*
X103346190Y-107084761D01*
X103250952Y-107132380D01*
X103060476Y-107132380D01*
X102965238Y-107084761D01*
X102870000Y-106989523D01*
X102822380Y-106799047D01*
X102822380Y-106465714D01*
X102870000Y-106275238D01*
X102965238Y-106180000D01*
X103060476Y-106132380D01*
X104441428Y-107132380D02*
X103870000Y-107132380D01*
X104155714Y-107132380D02*
X104155714Y-106132380D01*
X104060476Y-106275238D01*
X103965238Y-106370476D01*
X103870000Y-106418095D01*
X105012857Y-106560952D02*
X104917619Y-106513333D01*
X104870000Y-106465714D01*
X104822380Y-106370476D01*
X104822380Y-106322857D01*
X104870000Y-106227619D01*
X104917619Y-106180000D01*
X105012857Y-106132380D01*
X105203333Y-106132380D01*
X105298571Y-106180000D01*
X105346190Y-106227619D01*
X105393809Y-106322857D01*
X105393809Y-106370476D01*
X105346190Y-106465714D01*
X105298571Y-106513333D01*
X105203333Y-106560952D01*
X105012857Y-106560952D01*
X104917619Y-106608571D01*
X104870000Y-106656190D01*
X104822380Y-106751428D01*
X104822380Y-106941904D01*
X104870000Y-107037142D01*
X104917619Y-107084761D01*
X105012857Y-107132380D01*
X105203333Y-107132380D01*
X105298571Y-107084761D01*
X105346190Y-107037142D01*
X105393809Y-106941904D01*
X105393809Y-106751428D01*
X105346190Y-106656190D01*
X105298571Y-106608571D01*
X105203333Y-106560952D01*
X100917619Y-101100000D02*
X100822380Y-101052380D01*
X100679523Y-101052380D01*
X100536666Y-101100000D01*
X100441428Y-101195238D01*
X100393809Y-101290476D01*
X100346190Y-101480952D01*
X100346190Y-101623809D01*
X100393809Y-101814285D01*
X100441428Y-101909523D01*
X100536666Y-102004761D01*
X100679523Y-102052380D01*
X100774761Y-102052380D01*
X100917619Y-102004761D01*
X100965238Y-101957142D01*
X100965238Y-101623809D01*
X100774761Y-101623809D01*
X101393809Y-102052380D02*
X101393809Y-101052380D01*
X101774761Y-101052380D01*
X101870000Y-101100000D01*
X101917619Y-101147619D01*
X101965238Y-101242857D01*
X101965238Y-101385714D01*
X101917619Y-101480952D01*
X101870000Y-101528571D01*
X101774761Y-101576190D01*
X101393809Y-101576190D01*
X102393809Y-102052380D02*
X102393809Y-101052380D01*
X103060476Y-101052380D02*
X103250952Y-101052380D01*
X103346190Y-101100000D01*
X103441428Y-101195238D01*
X103489047Y-101385714D01*
X103489047Y-101719047D01*
X103441428Y-101909523D01*
X103346190Y-102004761D01*
X103250952Y-102052380D01*
X103060476Y-102052380D01*
X102965238Y-102004761D01*
X102870000Y-101909523D01*
X102822380Y-101719047D01*
X102822380Y-101385714D01*
X102870000Y-101195238D01*
X102965238Y-101100000D01*
X103060476Y-101052380D01*
X104441428Y-102052380D02*
X103870000Y-102052380D01*
X104155714Y-102052380D02*
X104155714Y-101052380D01*
X104060476Y-101195238D01*
X103965238Y-101290476D01*
X103870000Y-101338095D01*
X104822380Y-101147619D02*
X104870000Y-101100000D01*
X104965238Y-101052380D01*
X105203333Y-101052380D01*
X105298571Y-101100000D01*
X105346190Y-101147619D01*
X105393809Y-101242857D01*
X105393809Y-101338095D01*
X105346190Y-101480952D01*
X104774761Y-102052380D01*
X105393809Y-102052380D01*
X100917619Y-103640000D02*
X100822380Y-103592380D01*
X100679523Y-103592380D01*
X100536666Y-103640000D01*
X100441428Y-103735238D01*
X100393809Y-103830476D01*
X100346190Y-104020952D01*
X100346190Y-104163809D01*
X100393809Y-104354285D01*
X100441428Y-104449523D01*
X100536666Y-104544761D01*
X100679523Y-104592380D01*
X100774761Y-104592380D01*
X100917619Y-104544761D01*
X100965238Y-104497142D01*
X100965238Y-104163809D01*
X100774761Y-104163809D01*
X101393809Y-104592380D02*
X101393809Y-103592380D01*
X101774761Y-103592380D01*
X101870000Y-103640000D01*
X101917619Y-103687619D01*
X101965238Y-103782857D01*
X101965238Y-103925714D01*
X101917619Y-104020952D01*
X101870000Y-104068571D01*
X101774761Y-104116190D01*
X101393809Y-104116190D01*
X102393809Y-104592380D02*
X102393809Y-103592380D01*
X103060476Y-103592380D02*
X103250952Y-103592380D01*
X103346190Y-103640000D01*
X103441428Y-103735238D01*
X103489047Y-103925714D01*
X103489047Y-104259047D01*
X103441428Y-104449523D01*
X103346190Y-104544761D01*
X103250952Y-104592380D01*
X103060476Y-104592380D01*
X102965238Y-104544761D01*
X102870000Y-104449523D01*
X102822380Y-104259047D01*
X102822380Y-103925714D01*
X102870000Y-103735238D01*
X102965238Y-103640000D01*
X103060476Y-103592380D01*
X104441428Y-104592380D02*
X103870000Y-104592380D01*
X104155714Y-104592380D02*
X104155714Y-103592380D01*
X104060476Y-103735238D01*
X103965238Y-103830476D01*
X103870000Y-103878095D01*
X104774761Y-103592380D02*
X105393809Y-103592380D01*
X105060476Y-103973333D01*
X105203333Y-103973333D01*
X105298571Y-104020952D01*
X105346190Y-104068571D01*
X105393809Y-104163809D01*
X105393809Y-104401904D01*
X105346190Y-104497142D01*
X105298571Y-104544761D01*
X105203333Y-104592380D01*
X104917619Y-104592380D01*
X104822380Y-104544761D01*
X104774761Y-104497142D01*
X100917619Y-98560000D02*
X100822380Y-98512380D01*
X100679523Y-98512380D01*
X100536666Y-98560000D01*
X100441428Y-98655238D01*
X100393809Y-98750476D01*
X100346190Y-98940952D01*
X100346190Y-99083809D01*
X100393809Y-99274285D01*
X100441428Y-99369523D01*
X100536666Y-99464761D01*
X100679523Y-99512380D01*
X100774761Y-99512380D01*
X100917619Y-99464761D01*
X100965238Y-99417142D01*
X100965238Y-99083809D01*
X100774761Y-99083809D01*
X101393809Y-99512380D02*
X101393809Y-98512380D01*
X101774761Y-98512380D01*
X101870000Y-98560000D01*
X101917619Y-98607619D01*
X101965238Y-98702857D01*
X101965238Y-98845714D01*
X101917619Y-98940952D01*
X101870000Y-98988571D01*
X101774761Y-99036190D01*
X101393809Y-99036190D01*
X102393809Y-99512380D02*
X102393809Y-98512380D01*
X103060476Y-98512380D02*
X103250952Y-98512380D01*
X103346190Y-98560000D01*
X103441428Y-98655238D01*
X103489047Y-98845714D01*
X103489047Y-99179047D01*
X103441428Y-99369523D01*
X103346190Y-99464761D01*
X103250952Y-99512380D01*
X103060476Y-99512380D01*
X102965238Y-99464761D01*
X102870000Y-99369523D01*
X102822380Y-99179047D01*
X102822380Y-98845714D01*
X102870000Y-98655238D01*
X102965238Y-98560000D01*
X103060476Y-98512380D01*
X104441428Y-99512380D02*
X103870000Y-99512380D01*
X104155714Y-99512380D02*
X104155714Y-98512380D01*
X104060476Y-98655238D01*
X103965238Y-98750476D01*
X103870000Y-98798095D01*
X105393809Y-99512380D02*
X104822380Y-99512380D01*
X105108095Y-99512380D02*
X105108095Y-98512380D01*
X105012857Y-98655238D01*
X104917619Y-98750476D01*
X104822380Y-98798095D01*
X100917619Y-96020000D02*
X100822380Y-95972380D01*
X100679523Y-95972380D01*
X100536666Y-96020000D01*
X100441428Y-96115238D01*
X100393809Y-96210476D01*
X100346190Y-96400952D01*
X100346190Y-96543809D01*
X100393809Y-96734285D01*
X100441428Y-96829523D01*
X100536666Y-96924761D01*
X100679523Y-96972380D01*
X100774761Y-96972380D01*
X100917619Y-96924761D01*
X100965238Y-96877142D01*
X100965238Y-96543809D01*
X100774761Y-96543809D01*
X101393809Y-96972380D02*
X101393809Y-95972380D01*
X101774761Y-95972380D01*
X101870000Y-96020000D01*
X101917619Y-96067619D01*
X101965238Y-96162857D01*
X101965238Y-96305714D01*
X101917619Y-96400952D01*
X101870000Y-96448571D01*
X101774761Y-96496190D01*
X101393809Y-96496190D01*
X102393809Y-96972380D02*
X102393809Y-95972380D01*
X103060476Y-95972380D02*
X103250952Y-95972380D01*
X103346190Y-96020000D01*
X103441428Y-96115238D01*
X103489047Y-96305714D01*
X103489047Y-96639047D01*
X103441428Y-96829523D01*
X103346190Y-96924761D01*
X103250952Y-96972380D01*
X103060476Y-96972380D01*
X102965238Y-96924761D01*
X102870000Y-96829523D01*
X102822380Y-96639047D01*
X102822380Y-96305714D01*
X102870000Y-96115238D01*
X102965238Y-96020000D01*
X103060476Y-95972380D01*
X104441428Y-96972380D02*
X103870000Y-96972380D01*
X104155714Y-96972380D02*
X104155714Y-95972380D01*
X104060476Y-96115238D01*
X103965238Y-96210476D01*
X103870000Y-96258095D01*
X105060476Y-95972380D02*
X105155714Y-95972380D01*
X105250952Y-96020000D01*
X105298571Y-96067619D01*
X105346190Y-96162857D01*
X105393809Y-96353333D01*
X105393809Y-96591428D01*
X105346190Y-96781904D01*
X105298571Y-96877142D01*
X105250952Y-96924761D01*
X105155714Y-96972380D01*
X105060476Y-96972380D01*
X104965238Y-96924761D01*
X104917619Y-96877142D01*
X104870000Y-96781904D01*
X104822380Y-96591428D01*
X104822380Y-96353333D01*
X104870000Y-96162857D01*
X104917619Y-96067619D01*
X104965238Y-96020000D01*
X105060476Y-95972380D01*
X101393809Y-90940000D02*
X101298571Y-90892380D01*
X101155714Y-90892380D01*
X101012857Y-90940000D01*
X100917619Y-91035238D01*
X100870000Y-91130476D01*
X100822380Y-91320952D01*
X100822380Y-91463809D01*
X100870000Y-91654285D01*
X100917619Y-91749523D01*
X101012857Y-91844761D01*
X101155714Y-91892380D01*
X101250952Y-91892380D01*
X101393809Y-91844761D01*
X101441428Y-91797142D01*
X101441428Y-91463809D01*
X101250952Y-91463809D01*
X101870000Y-91892380D02*
X101870000Y-90892380D01*
X102250952Y-90892380D01*
X102346190Y-90940000D01*
X102393809Y-90987619D01*
X102441428Y-91082857D01*
X102441428Y-91225714D01*
X102393809Y-91320952D01*
X102346190Y-91368571D01*
X102250952Y-91416190D01*
X101870000Y-91416190D01*
X102870000Y-91892380D02*
X102870000Y-90892380D01*
X103536666Y-90892380D02*
X103727142Y-90892380D01*
X103822380Y-90940000D01*
X103917619Y-91035238D01*
X103965238Y-91225714D01*
X103965238Y-91559047D01*
X103917619Y-91749523D01*
X103822380Y-91844761D01*
X103727142Y-91892380D01*
X103536666Y-91892380D01*
X103441428Y-91844761D01*
X103346190Y-91749523D01*
X103298571Y-91559047D01*
X103298571Y-91225714D01*
X103346190Y-91035238D01*
X103441428Y-90940000D01*
X103536666Y-90892380D01*
X104536666Y-91320952D02*
X104441428Y-91273333D01*
X104393809Y-91225714D01*
X104346190Y-91130476D01*
X104346190Y-91082857D01*
X104393809Y-90987619D01*
X104441428Y-90940000D01*
X104536666Y-90892380D01*
X104727142Y-90892380D01*
X104822380Y-90940000D01*
X104870000Y-90987619D01*
X104917619Y-91082857D01*
X104917619Y-91130476D01*
X104870000Y-91225714D01*
X104822380Y-91273333D01*
X104727142Y-91320952D01*
X104536666Y-91320952D01*
X104441428Y-91368571D01*
X104393809Y-91416190D01*
X104346190Y-91511428D01*
X104346190Y-91701904D01*
X104393809Y-91797142D01*
X104441428Y-91844761D01*
X104536666Y-91892380D01*
X104727142Y-91892380D01*
X104822380Y-91844761D01*
X104870000Y-91797142D01*
X104917619Y-91701904D01*
X104917619Y-91511428D01*
X104870000Y-91416190D01*
X104822380Y-91368571D01*
X104727142Y-91320952D01*
X101393809Y-93480000D02*
X101298571Y-93432380D01*
X101155714Y-93432380D01*
X101012857Y-93480000D01*
X100917619Y-93575238D01*
X100870000Y-93670476D01*
X100822380Y-93860952D01*
X100822380Y-94003809D01*
X100870000Y-94194285D01*
X100917619Y-94289523D01*
X101012857Y-94384761D01*
X101155714Y-94432380D01*
X101250952Y-94432380D01*
X101393809Y-94384761D01*
X101441428Y-94337142D01*
X101441428Y-94003809D01*
X101250952Y-94003809D01*
X101870000Y-94432380D02*
X101870000Y-93432380D01*
X102250952Y-93432380D01*
X102346190Y-93480000D01*
X102393809Y-93527619D01*
X102441428Y-93622857D01*
X102441428Y-93765714D01*
X102393809Y-93860952D01*
X102346190Y-93908571D01*
X102250952Y-93956190D01*
X101870000Y-93956190D01*
X102870000Y-94432380D02*
X102870000Y-93432380D01*
X103536666Y-93432380D02*
X103727142Y-93432380D01*
X103822380Y-93480000D01*
X103917619Y-93575238D01*
X103965238Y-93765714D01*
X103965238Y-94099047D01*
X103917619Y-94289523D01*
X103822380Y-94384761D01*
X103727142Y-94432380D01*
X103536666Y-94432380D01*
X103441428Y-94384761D01*
X103346190Y-94289523D01*
X103298571Y-94099047D01*
X103298571Y-93765714D01*
X103346190Y-93575238D01*
X103441428Y-93480000D01*
X103536666Y-93432380D01*
X104441428Y-94432380D02*
X104631904Y-94432380D01*
X104727142Y-94384761D01*
X104774761Y-94337142D01*
X104870000Y-94194285D01*
X104917619Y-94003809D01*
X104917619Y-93622857D01*
X104870000Y-93527619D01*
X104822380Y-93480000D01*
X104727142Y-93432380D01*
X104536666Y-93432380D01*
X104441428Y-93480000D01*
X104393809Y-93527619D01*
X104346190Y-93622857D01*
X104346190Y-93860952D01*
X104393809Y-93956190D01*
X104441428Y-94003809D01*
X104536666Y-94051428D01*
X104727142Y-94051428D01*
X104822380Y-94003809D01*
X104870000Y-93956190D01*
X104917619Y-93860952D01*
X101393809Y-88400000D02*
X101298571Y-88352380D01*
X101155714Y-88352380D01*
X101012857Y-88400000D01*
X100917619Y-88495238D01*
X100870000Y-88590476D01*
X100822380Y-88780952D01*
X100822380Y-88923809D01*
X100870000Y-89114285D01*
X100917619Y-89209523D01*
X101012857Y-89304761D01*
X101155714Y-89352380D01*
X101250952Y-89352380D01*
X101393809Y-89304761D01*
X101441428Y-89257142D01*
X101441428Y-88923809D01*
X101250952Y-88923809D01*
X101870000Y-89352380D02*
X101870000Y-88352380D01*
X102250952Y-88352380D01*
X102346190Y-88400000D01*
X102393809Y-88447619D01*
X102441428Y-88542857D01*
X102441428Y-88685714D01*
X102393809Y-88780952D01*
X102346190Y-88828571D01*
X102250952Y-88876190D01*
X101870000Y-88876190D01*
X102870000Y-89352380D02*
X102870000Y-88352380D01*
X103536666Y-88352380D02*
X103727142Y-88352380D01*
X103822380Y-88400000D01*
X103917619Y-88495238D01*
X103965238Y-88685714D01*
X103965238Y-89019047D01*
X103917619Y-89209523D01*
X103822380Y-89304761D01*
X103727142Y-89352380D01*
X103536666Y-89352380D01*
X103441428Y-89304761D01*
X103346190Y-89209523D01*
X103298571Y-89019047D01*
X103298571Y-88685714D01*
X103346190Y-88495238D01*
X103441428Y-88400000D01*
X103536666Y-88352380D01*
X104298571Y-88352380D02*
X104965238Y-88352380D01*
X104536666Y-89352380D01*
X101393809Y-83320000D02*
X101298571Y-83272380D01*
X101155714Y-83272380D01*
X101012857Y-83320000D01*
X100917619Y-83415238D01*
X100870000Y-83510476D01*
X100822380Y-83700952D01*
X100822380Y-83843809D01*
X100870000Y-84034285D01*
X100917619Y-84129523D01*
X101012857Y-84224761D01*
X101155714Y-84272380D01*
X101250952Y-84272380D01*
X101393809Y-84224761D01*
X101441428Y-84177142D01*
X101441428Y-83843809D01*
X101250952Y-83843809D01*
X101870000Y-84272380D02*
X101870000Y-83272380D01*
X102250952Y-83272380D01*
X102346190Y-83320000D01*
X102393809Y-83367619D01*
X102441428Y-83462857D01*
X102441428Y-83605714D01*
X102393809Y-83700952D01*
X102346190Y-83748571D01*
X102250952Y-83796190D01*
X101870000Y-83796190D01*
X102870000Y-84272380D02*
X102870000Y-83272380D01*
X103536666Y-83272380D02*
X103727142Y-83272380D01*
X103822380Y-83320000D01*
X103917619Y-83415238D01*
X103965238Y-83605714D01*
X103965238Y-83939047D01*
X103917619Y-84129523D01*
X103822380Y-84224761D01*
X103727142Y-84272380D01*
X103536666Y-84272380D01*
X103441428Y-84224761D01*
X103346190Y-84129523D01*
X103298571Y-83939047D01*
X103298571Y-83605714D01*
X103346190Y-83415238D01*
X103441428Y-83320000D01*
X103536666Y-83272380D01*
X104870000Y-83272380D02*
X104393809Y-83272380D01*
X104346190Y-83748571D01*
X104393809Y-83700952D01*
X104489047Y-83653333D01*
X104727142Y-83653333D01*
X104822380Y-83700952D01*
X104870000Y-83748571D01*
X104917619Y-83843809D01*
X104917619Y-84081904D01*
X104870000Y-84177142D01*
X104822380Y-84224761D01*
X104727142Y-84272380D01*
X104489047Y-84272380D01*
X104393809Y-84224761D01*
X104346190Y-84177142D01*
X101393809Y-78240000D02*
X101298571Y-78192380D01*
X101155714Y-78192380D01*
X101012857Y-78240000D01*
X100917619Y-78335238D01*
X100870000Y-78430476D01*
X100822380Y-78620952D01*
X100822380Y-78763809D01*
X100870000Y-78954285D01*
X100917619Y-79049523D01*
X101012857Y-79144761D01*
X101155714Y-79192380D01*
X101250952Y-79192380D01*
X101393809Y-79144761D01*
X101441428Y-79097142D01*
X101441428Y-78763809D01*
X101250952Y-78763809D01*
X101870000Y-79192380D02*
X101870000Y-78192380D01*
X102250952Y-78192380D01*
X102346190Y-78240000D01*
X102393809Y-78287619D01*
X102441428Y-78382857D01*
X102441428Y-78525714D01*
X102393809Y-78620952D01*
X102346190Y-78668571D01*
X102250952Y-78716190D01*
X101870000Y-78716190D01*
X102870000Y-79192380D02*
X102870000Y-78192380D01*
X103536666Y-78192380D02*
X103727142Y-78192380D01*
X103822380Y-78240000D01*
X103917619Y-78335238D01*
X103965238Y-78525714D01*
X103965238Y-78859047D01*
X103917619Y-79049523D01*
X103822380Y-79144761D01*
X103727142Y-79192380D01*
X103536666Y-79192380D01*
X103441428Y-79144761D01*
X103346190Y-79049523D01*
X103298571Y-78859047D01*
X103298571Y-78525714D01*
X103346190Y-78335238D01*
X103441428Y-78240000D01*
X103536666Y-78192380D01*
X104298571Y-78192380D02*
X104917619Y-78192380D01*
X104584285Y-78573333D01*
X104727142Y-78573333D01*
X104822380Y-78620952D01*
X104870000Y-78668571D01*
X104917619Y-78763809D01*
X104917619Y-79001904D01*
X104870000Y-79097142D01*
X104822380Y-79144761D01*
X104727142Y-79192380D01*
X104441428Y-79192380D01*
X104346190Y-79144761D01*
X104298571Y-79097142D01*
X101393809Y-75700000D02*
X101298571Y-75652380D01*
X101155714Y-75652380D01*
X101012857Y-75700000D01*
X100917619Y-75795238D01*
X100870000Y-75890476D01*
X100822380Y-76080952D01*
X100822380Y-76223809D01*
X100870000Y-76414285D01*
X100917619Y-76509523D01*
X101012857Y-76604761D01*
X101155714Y-76652380D01*
X101250952Y-76652380D01*
X101393809Y-76604761D01*
X101441428Y-76557142D01*
X101441428Y-76223809D01*
X101250952Y-76223809D01*
X101870000Y-76652380D02*
X101870000Y-75652380D01*
X102250952Y-75652380D01*
X102346190Y-75700000D01*
X102393809Y-75747619D01*
X102441428Y-75842857D01*
X102441428Y-75985714D01*
X102393809Y-76080952D01*
X102346190Y-76128571D01*
X102250952Y-76176190D01*
X101870000Y-76176190D01*
X102870000Y-76652380D02*
X102870000Y-75652380D01*
X103536666Y-75652380D02*
X103727142Y-75652380D01*
X103822380Y-75700000D01*
X103917619Y-75795238D01*
X103965238Y-75985714D01*
X103965238Y-76319047D01*
X103917619Y-76509523D01*
X103822380Y-76604761D01*
X103727142Y-76652380D01*
X103536666Y-76652380D01*
X103441428Y-76604761D01*
X103346190Y-76509523D01*
X103298571Y-76319047D01*
X103298571Y-75985714D01*
X103346190Y-75795238D01*
X103441428Y-75700000D01*
X103536666Y-75652380D01*
X104346190Y-75747619D02*
X104393809Y-75700000D01*
X104489047Y-75652380D01*
X104727142Y-75652380D01*
X104822380Y-75700000D01*
X104870000Y-75747619D01*
X104917619Y-75842857D01*
X104917619Y-75938095D01*
X104870000Y-76080952D01*
X104298571Y-76652380D01*
X104917619Y-76652380D01*
X101393809Y-73160000D02*
X101298571Y-73112380D01*
X101155714Y-73112380D01*
X101012857Y-73160000D01*
X100917619Y-73255238D01*
X100870000Y-73350476D01*
X100822380Y-73540952D01*
X100822380Y-73683809D01*
X100870000Y-73874285D01*
X100917619Y-73969523D01*
X101012857Y-74064761D01*
X101155714Y-74112380D01*
X101250952Y-74112380D01*
X101393809Y-74064761D01*
X101441428Y-74017142D01*
X101441428Y-73683809D01*
X101250952Y-73683809D01*
X101870000Y-74112380D02*
X101870000Y-73112380D01*
X102250952Y-73112380D01*
X102346190Y-73160000D01*
X102393809Y-73207619D01*
X102441428Y-73302857D01*
X102441428Y-73445714D01*
X102393809Y-73540952D01*
X102346190Y-73588571D01*
X102250952Y-73636190D01*
X101870000Y-73636190D01*
X102870000Y-74112380D02*
X102870000Y-73112380D01*
X103536666Y-73112380D02*
X103727142Y-73112380D01*
X103822380Y-73160000D01*
X103917619Y-73255238D01*
X103965238Y-73445714D01*
X103965238Y-73779047D01*
X103917619Y-73969523D01*
X103822380Y-74064761D01*
X103727142Y-74112380D01*
X103536666Y-74112380D01*
X103441428Y-74064761D01*
X103346190Y-73969523D01*
X103298571Y-73779047D01*
X103298571Y-73445714D01*
X103346190Y-73255238D01*
X103441428Y-73160000D01*
X103536666Y-73112380D01*
X104917619Y-74112380D02*
X104346190Y-74112380D01*
X104631904Y-74112380D02*
X104631904Y-73112380D01*
X104536666Y-73255238D01*
X104441428Y-73350476D01*
X104346190Y-73398095D01*
X101393809Y-70620000D02*
X101298571Y-70572380D01*
X101155714Y-70572380D01*
X101012857Y-70620000D01*
X100917619Y-70715238D01*
X100870000Y-70810476D01*
X100822380Y-71000952D01*
X100822380Y-71143809D01*
X100870000Y-71334285D01*
X100917619Y-71429523D01*
X101012857Y-71524761D01*
X101155714Y-71572380D01*
X101250952Y-71572380D01*
X101393809Y-71524761D01*
X101441428Y-71477142D01*
X101441428Y-71143809D01*
X101250952Y-71143809D01*
X101870000Y-71572380D02*
X101870000Y-70572380D01*
X102250952Y-70572380D01*
X102346190Y-70620000D01*
X102393809Y-70667619D01*
X102441428Y-70762857D01*
X102441428Y-70905714D01*
X102393809Y-71000952D01*
X102346190Y-71048571D01*
X102250952Y-71096190D01*
X101870000Y-71096190D01*
X102870000Y-71572380D02*
X102870000Y-70572380D01*
X103536666Y-70572380D02*
X103727142Y-70572380D01*
X103822380Y-70620000D01*
X103917619Y-70715238D01*
X103965238Y-70905714D01*
X103965238Y-71239047D01*
X103917619Y-71429523D01*
X103822380Y-71524761D01*
X103727142Y-71572380D01*
X103536666Y-71572380D01*
X103441428Y-71524761D01*
X103346190Y-71429523D01*
X103298571Y-71239047D01*
X103298571Y-70905714D01*
X103346190Y-70715238D01*
X103441428Y-70620000D01*
X103536666Y-70572380D01*
X104584285Y-70572380D02*
X104679523Y-70572380D01*
X104774761Y-70620000D01*
X104822380Y-70667619D01*
X104870000Y-70762857D01*
X104917619Y-70953333D01*
X104917619Y-71191428D01*
X104870000Y-71381904D01*
X104822380Y-71477142D01*
X104774761Y-71524761D01*
X104679523Y-71572380D01*
X104584285Y-71572380D01*
X104489047Y-71524761D01*
X104441428Y-71477142D01*
X104393809Y-71381904D01*
X104346190Y-71191428D01*
X104346190Y-70953333D01*
X104393809Y-70762857D01*
X104441428Y-70667619D01*
X104489047Y-70620000D01*
X104584285Y-70572380D01*
X94488095Y-97290000D02*
X94392857Y-97242380D01*
X94250000Y-97242380D01*
X94107142Y-97290000D01*
X94011904Y-97385238D01*
X93964285Y-97480476D01*
X93916666Y-97670952D01*
X93916666Y-97813809D01*
X93964285Y-98004285D01*
X94011904Y-98099523D01*
X94107142Y-98194761D01*
X94250000Y-98242380D01*
X94345238Y-98242380D01*
X94488095Y-98194761D01*
X94535714Y-98147142D01*
X94535714Y-97813809D01*
X94345238Y-97813809D01*
X94964285Y-98242380D02*
X94964285Y-97242380D01*
X95535714Y-98242380D01*
X95535714Y-97242380D01*
X96011904Y-98242380D02*
X96011904Y-97242380D01*
X96250000Y-97242380D01*
X96392857Y-97290000D01*
X96488095Y-97385238D01*
X96535714Y-97480476D01*
X96583333Y-97670952D01*
X96583333Y-97813809D01*
X96535714Y-98004285D01*
X96488095Y-98099523D01*
X96392857Y-98194761D01*
X96250000Y-98242380D01*
X96011904Y-98242380D01*
X94059523Y-95654761D02*
X94202380Y-95702380D01*
X94440476Y-95702380D01*
X94535714Y-95654761D01*
X94583333Y-95607142D01*
X94630952Y-95511904D01*
X94630952Y-95416666D01*
X94583333Y-95321428D01*
X94535714Y-95273809D01*
X94440476Y-95226190D01*
X94250000Y-95178571D01*
X94154761Y-95130952D01*
X94107142Y-95083333D01*
X94059523Y-94988095D01*
X94059523Y-94892857D01*
X94107142Y-94797619D01*
X94154761Y-94750000D01*
X94250000Y-94702380D01*
X94488095Y-94702380D01*
X94630952Y-94750000D01*
X95630952Y-95607142D02*
X95583333Y-95654761D01*
X95440476Y-95702380D01*
X95345238Y-95702380D01*
X95202380Y-95654761D01*
X95107142Y-95559523D01*
X95059523Y-95464285D01*
X95011904Y-95273809D01*
X95011904Y-95130952D01*
X95059523Y-94940476D01*
X95107142Y-94845238D01*
X95202380Y-94750000D01*
X95345238Y-94702380D01*
X95440476Y-94702380D01*
X95583333Y-94750000D01*
X95630952Y-94797619D01*
X96535714Y-95702380D02*
X96059523Y-95702380D01*
X96059523Y-94702380D01*
X94035714Y-93114761D02*
X94178571Y-93162380D01*
X94416666Y-93162380D01*
X94511904Y-93114761D01*
X94559523Y-93067142D01*
X94607142Y-92971904D01*
X94607142Y-92876666D01*
X94559523Y-92781428D01*
X94511904Y-92733809D01*
X94416666Y-92686190D01*
X94226190Y-92638571D01*
X94130952Y-92590952D01*
X94083333Y-92543333D01*
X94035714Y-92448095D01*
X94035714Y-92352857D01*
X94083333Y-92257619D01*
X94130952Y-92210000D01*
X94226190Y-92162380D01*
X94464285Y-92162380D01*
X94607142Y-92210000D01*
X95035714Y-93162380D02*
X95035714Y-92162380D01*
X95273809Y-92162380D01*
X95416666Y-92210000D01*
X95511904Y-92305238D01*
X95559523Y-92400476D01*
X95607142Y-92590952D01*
X95607142Y-92733809D01*
X95559523Y-92924285D01*
X95511904Y-93019523D01*
X95416666Y-93114761D01*
X95273809Y-93162380D01*
X95035714Y-93162380D01*
X95988095Y-92876666D02*
X96464285Y-92876666D01*
X95892857Y-93162380D02*
X96226190Y-92162380D01*
X96559523Y-93162380D01*
X95059523Y-89622380D02*
X94583333Y-89622380D01*
X94535714Y-90098571D01*
X94583333Y-90050952D01*
X94678571Y-90003333D01*
X94916666Y-90003333D01*
X95011904Y-90050952D01*
X95059523Y-90098571D01*
X95107142Y-90193809D01*
X95107142Y-90431904D01*
X95059523Y-90527142D01*
X95011904Y-90574761D01*
X94916666Y-90622380D01*
X94678571Y-90622380D01*
X94583333Y-90574761D01*
X94535714Y-90527142D01*
X95392857Y-89622380D02*
X95726190Y-90622380D01*
X96059523Y-89622380D01*
X81311904Y-98194761D02*
X81454761Y-98242380D01*
X81692857Y-98242380D01*
X81788095Y-98194761D01*
X81835714Y-98147142D01*
X81883333Y-98051904D01*
X81883333Y-97956666D01*
X81835714Y-97861428D01*
X81788095Y-97813809D01*
X81692857Y-97766190D01*
X81502380Y-97718571D01*
X81407142Y-97670952D01*
X81359523Y-97623333D01*
X81311904Y-97528095D01*
X81311904Y-97432857D01*
X81359523Y-97337619D01*
X81407142Y-97290000D01*
X81502380Y-97242380D01*
X81740476Y-97242380D01*
X81883333Y-97290000D01*
X82264285Y-98194761D02*
X82407142Y-98242380D01*
X82645238Y-98242380D01*
X82740476Y-98194761D01*
X82788095Y-98147142D01*
X82835714Y-98051904D01*
X82835714Y-97956666D01*
X82788095Y-97861428D01*
X82740476Y-97813809D01*
X82645238Y-97766190D01*
X82454761Y-97718571D01*
X82359523Y-97670952D01*
X82311904Y-97623333D01*
X82264285Y-97528095D01*
X82264285Y-97432857D01*
X82311904Y-97337619D01*
X82359523Y-97290000D01*
X82454761Y-97242380D01*
X82692857Y-97242380D01*
X82835714Y-97290000D01*
X83788095Y-98242380D02*
X83216666Y-98242380D01*
X83502380Y-98242380D02*
X83502380Y-97242380D01*
X83407142Y-97385238D01*
X83311904Y-97480476D01*
X83216666Y-97528095D01*
X81311904Y-95654761D02*
X81454761Y-95702380D01*
X81692857Y-95702380D01*
X81788095Y-95654761D01*
X81835714Y-95607142D01*
X81883333Y-95511904D01*
X81883333Y-95416666D01*
X81835714Y-95321428D01*
X81788095Y-95273809D01*
X81692857Y-95226190D01*
X81502380Y-95178571D01*
X81407142Y-95130952D01*
X81359523Y-95083333D01*
X81311904Y-94988095D01*
X81311904Y-94892857D01*
X81359523Y-94797619D01*
X81407142Y-94750000D01*
X81502380Y-94702380D01*
X81740476Y-94702380D01*
X81883333Y-94750000D01*
X82264285Y-95654761D02*
X82407142Y-95702380D01*
X82645238Y-95702380D01*
X82740476Y-95654761D01*
X82788095Y-95607142D01*
X82835714Y-95511904D01*
X82835714Y-95416666D01*
X82788095Y-95321428D01*
X82740476Y-95273809D01*
X82645238Y-95226190D01*
X82454761Y-95178571D01*
X82359523Y-95130952D01*
X82311904Y-95083333D01*
X82264285Y-94988095D01*
X82264285Y-94892857D01*
X82311904Y-94797619D01*
X82359523Y-94750000D01*
X82454761Y-94702380D01*
X82692857Y-94702380D01*
X82835714Y-94750000D01*
X83454761Y-94702380D02*
X83550000Y-94702380D01*
X83645238Y-94750000D01*
X83692857Y-94797619D01*
X83740476Y-94892857D01*
X83788095Y-95083333D01*
X83788095Y-95321428D01*
X83740476Y-95511904D01*
X83692857Y-95607142D01*
X83645238Y-95654761D01*
X83550000Y-95702380D01*
X83454761Y-95702380D01*
X83359523Y-95654761D01*
X83311904Y-95607142D01*
X83264285Y-95511904D01*
X83216666Y-95321428D01*
X83216666Y-95083333D01*
X83264285Y-94892857D01*
X83311904Y-94797619D01*
X83359523Y-94750000D01*
X83454761Y-94702380D01*
X80978571Y-93162380D02*
X80978571Y-92162380D01*
X81311904Y-92876666D01*
X81645238Y-92162380D01*
X81645238Y-93162380D01*
X82121428Y-93162380D02*
X82121428Y-92162380D01*
X82550000Y-93114761D02*
X82692857Y-93162380D01*
X82930952Y-93162380D01*
X83026190Y-93114761D01*
X83073809Y-93067142D01*
X83121428Y-92971904D01*
X83121428Y-92876666D01*
X83073809Y-92781428D01*
X83026190Y-92733809D01*
X82930952Y-92686190D01*
X82740476Y-92638571D01*
X82645238Y-92590952D01*
X82597619Y-92543333D01*
X82550000Y-92448095D01*
X82550000Y-92352857D01*
X82597619Y-92257619D01*
X82645238Y-92210000D01*
X82740476Y-92162380D01*
X82978571Y-92162380D01*
X83121428Y-92210000D01*
X83740476Y-92162380D02*
X83930952Y-92162380D01*
X84026190Y-92210000D01*
X84121428Y-92305238D01*
X84169047Y-92495714D01*
X84169047Y-92829047D01*
X84121428Y-93019523D01*
X84026190Y-93114761D01*
X83930952Y-93162380D01*
X83740476Y-93162380D01*
X83645238Y-93114761D01*
X83550000Y-93019523D01*
X83502380Y-92829047D01*
X83502380Y-92495714D01*
X83550000Y-92305238D01*
X83645238Y-92210000D01*
X83740476Y-92162380D01*
X80978571Y-90622380D02*
X80978571Y-89622380D01*
X81311904Y-90336666D01*
X81645238Y-89622380D01*
X81645238Y-90622380D01*
X82311904Y-89622380D02*
X82502380Y-89622380D01*
X82597619Y-89670000D01*
X82692857Y-89765238D01*
X82740476Y-89955714D01*
X82740476Y-90289047D01*
X82692857Y-90479523D01*
X82597619Y-90574761D01*
X82502380Y-90622380D01*
X82311904Y-90622380D01*
X82216666Y-90574761D01*
X82121428Y-90479523D01*
X82073809Y-90289047D01*
X82073809Y-89955714D01*
X82121428Y-89765238D01*
X82216666Y-89670000D01*
X82311904Y-89622380D01*
X83121428Y-90574761D02*
X83264285Y-90622380D01*
X83502380Y-90622380D01*
X83597619Y-90574761D01*
X83645238Y-90527142D01*
X83692857Y-90431904D01*
X83692857Y-90336666D01*
X83645238Y-90241428D01*
X83597619Y-90193809D01*
X83502380Y-90146190D01*
X83311904Y-90098571D01*
X83216666Y-90050952D01*
X83169047Y-90003333D01*
X83121428Y-89908095D01*
X83121428Y-89812857D01*
X83169047Y-89717619D01*
X83216666Y-89670000D01*
X83311904Y-89622380D01*
X83550000Y-89622380D01*
X83692857Y-89670000D01*
X84121428Y-90622380D02*
X84121428Y-89622380D01*
%TO.C,U6*%
X146930000Y-107070000D02*
X146405000Y-107070000D01*
X146930000Y-111370000D02*
X146405000Y-111370000D01*
X142630000Y-111370000D02*
X143155000Y-111370000D01*
X142630000Y-107070000D02*
X143155000Y-107070000D01*
X146930000Y-111370000D02*
X146930000Y-110845000D01*
X142630000Y-111370000D02*
X142630000Y-110845000D01*
X146930000Y-107070000D02*
X146930000Y-107595000D01*
D11*
%TO.C,U5*%
X141690000Y-88860000D02*
X142380000Y-88860000D01*
X142380000Y-88410000D02*
X142380000Y-88860000D01*
X154800000Y-104180000D02*
X154800000Y-104620000D01*
X154800000Y-88410000D02*
X154800000Y-88860000D01*
X142380000Y-104180000D02*
X142380000Y-104630000D01*
X142380000Y-88410000D02*
X154800000Y-88410000D01*
X142380000Y-104630000D02*
X154800000Y-104630000D01*
X154800000Y-96780000D02*
X154800000Y-98460000D01*
X142380000Y-96780000D02*
X142380000Y-98460000D01*
%TO.C,U4*%
X140490000Y-67180000D02*
X139590000Y-67180000D01*
X140490000Y-66830000D02*
X140490000Y-67180000D01*
X156690000Y-83030000D02*
X156690000Y-82630000D01*
X140490000Y-83030000D02*
X156690000Y-83030000D01*
X140490000Y-82630000D02*
X140490000Y-83030000D01*
X156690000Y-66830000D02*
X156690000Y-67230000D01*
X140490000Y-66830000D02*
X156690000Y-66830000D01*
%TO.C,5V Reg.*%
X90540000Y-137500000D02*
X92990000Y-137500000D01*
X92340000Y-134280000D02*
X90540000Y-134280000D01*
%TO.C,3.3V Reg.*%
X103240000Y-137500000D02*
X105690000Y-137500000D01*
X105040000Y-134280000D02*
X103240000Y-134280000D01*
%TO.C,U1*%
X134225000Y-98715000D02*
X132725000Y-98715000D01*
X116225000Y-98715000D02*
X117725000Y-98715000D01*
X134225000Y-74015000D02*
X116225000Y-74015000D01*
X116225000Y-67715000D02*
X134225000Y-67715000D01*
X116225000Y-67715000D02*
X116225000Y-74465000D01*
X134225000Y-67715000D02*
X134225000Y-74465000D01*
X116225000Y-98715000D02*
X116225000Y-98465000D01*
X134225000Y-98715000D02*
X134225000Y-98465000D01*
%TO.C,SW2*%
X129510000Y-104800000D02*
X132110000Y-104800000D01*
X134260000Y-111100000D02*
X134010000Y-111100000D01*
X134260000Y-104800000D02*
X134260000Y-111100000D01*
X134010000Y-104800000D02*
X134260000Y-104800000D01*
X132110000Y-111100000D02*
X129510000Y-111100000D01*
X127360000Y-104800000D02*
X127610000Y-104800000D01*
X127360000Y-111100000D02*
X127360000Y-104800000D01*
X127610000Y-111100000D02*
X127360000Y-111100000D01*
%TO.C,SW1*%
X119350000Y-104800000D02*
X121950000Y-104800000D01*
X124100000Y-111100000D02*
X123850000Y-111100000D01*
X124100000Y-104800000D02*
X124100000Y-111100000D01*
X123850000Y-104800000D02*
X124100000Y-104800000D01*
X121950000Y-111100000D02*
X119350000Y-111100000D01*
X117200000Y-104800000D02*
X117450000Y-104800000D01*
X117200000Y-111100000D02*
X117200000Y-104800000D01*
X117450000Y-111100000D02*
X117200000Y-111100000D01*
%TO.C,R4*%
X137520000Y-108492936D02*
X137520000Y-109947064D01*
X139340000Y-108492936D02*
X139340000Y-109947064D01*
%TO.C,R3*%
X149125000Y-111178748D02*
X149125000Y-111701252D01*
X150595000Y-111178748D02*
X150595000Y-111701252D01*
%TO.C,R1*%
X129180000Y-127542936D02*
X129180000Y-128997064D01*
X127360000Y-127542936D02*
X127360000Y-128997064D01*
%TO.C,J10*%
X90110000Y-99120000D02*
X92770000Y-99120000D01*
X90110000Y-91440000D02*
X90110000Y-99120000D01*
X92770000Y-91440000D02*
X92770000Y-99120000D01*
X90110000Y-91440000D02*
X92770000Y-91440000D01*
X90110000Y-90170000D02*
X90110000Y-88840000D01*
X90110000Y-88840000D02*
X91440000Y-88840000D01*
%TO.C,J9*%
X85030000Y-88840000D02*
X86360000Y-88840000D01*
X85030000Y-90170000D02*
X85030000Y-88840000D01*
X85030000Y-91440000D02*
X87690000Y-91440000D01*
X87690000Y-91440000D02*
X87690000Y-99120000D01*
X85030000Y-91440000D02*
X85030000Y-99120000D01*
X85030000Y-99120000D02*
X87690000Y-99120000D01*
%TO.C,J8*%
X106620000Y-69790000D02*
X107950000Y-69790000D01*
X106620000Y-71120000D02*
X106620000Y-69790000D01*
X106620000Y-72390000D02*
X109280000Y-72390000D01*
X109280000Y-72390000D02*
X109280000Y-110550000D01*
X106620000Y-72390000D02*
X106620000Y-110550000D01*
X106620000Y-110550000D02*
X109280000Y-110550000D01*
%TO.C,J7*%
X86300000Y-71060000D02*
X87630000Y-71060000D01*
X86300000Y-72390000D02*
X86300000Y-71060000D01*
X88900000Y-71060000D02*
X91500000Y-71060000D01*
X88900000Y-73660000D02*
X88900000Y-71060000D01*
X86300000Y-73660000D02*
X88900000Y-73660000D01*
X91500000Y-71060000D02*
X91500000Y-83880000D01*
X86300000Y-73660000D02*
X86300000Y-83880000D01*
X86300000Y-83880000D02*
X91500000Y-83880000D01*
%TO.C,J6*%
X87570000Y-104080000D02*
X88900000Y-104080000D01*
X87570000Y-105410000D02*
X87570000Y-104080000D01*
X87570000Y-106680000D02*
X90230000Y-106680000D01*
X90230000Y-106680000D02*
X90230000Y-106740000D01*
X87570000Y-106680000D02*
X87570000Y-106740000D01*
X87570000Y-106740000D02*
X90230000Y-106740000D01*
%TO.C,J5*%
X87570000Y-106620000D02*
X88900000Y-106620000D01*
X87570000Y-107950000D02*
X87570000Y-106620000D01*
X87570000Y-109220000D02*
X90230000Y-109220000D01*
X90230000Y-109220000D02*
X90230000Y-109280000D01*
X87570000Y-109220000D02*
X87570000Y-109280000D01*
X87570000Y-109280000D02*
X90230000Y-109280000D01*
%TO.C,J4*%
X85030000Y-106620000D02*
X86360000Y-106620000D01*
X85030000Y-107950000D02*
X85030000Y-106620000D01*
X85030000Y-109220000D02*
X87690000Y-109220000D01*
X87690000Y-109220000D02*
X87690000Y-109280000D01*
X85030000Y-109220000D02*
X85030000Y-109280000D01*
X85030000Y-109280000D02*
X87690000Y-109280000D01*
%TO.C,J3*%
X90110000Y-106620000D02*
X91440000Y-106620000D01*
X90110000Y-107950000D02*
X90110000Y-106620000D01*
X90110000Y-109220000D02*
X92770000Y-109220000D01*
X92770000Y-109220000D02*
X92770000Y-109280000D01*
X90110000Y-109220000D02*
X90110000Y-109280000D01*
X90110000Y-109280000D02*
X92770000Y-109280000D01*
%TO.C,J2*%
X78258500Y-108663000D02*
X77808500Y-108663000D01*
X78258500Y-108663000D02*
X78258500Y-109113000D01*
X77708500Y-114263000D02*
X77708500Y-113813000D01*
X75858500Y-114263000D02*
X77708500Y-114263000D01*
X73308500Y-106463000D02*
X73558500Y-106463000D01*
X73308500Y-114263000D02*
X73558500Y-114263000D01*
X75858500Y-106463000D02*
X77708500Y-106463000D01*
X77708500Y-106463000D02*
X77708500Y-106913000D01*
%TO.C,J1*%
X72440000Y-116260000D02*
X72440000Y-127110000D01*
X77540000Y-116260000D02*
X72440000Y-116260000D01*
X77240000Y-116760000D02*
X77540000Y-116260000D01*
X82640000Y-116760000D02*
X77240000Y-116760000D01*
X82390000Y-116260000D02*
X82640000Y-116760000D01*
X82440000Y-116260000D02*
X82390000Y-116260000D01*
X84340000Y-116260000D02*
X82440000Y-116260000D01*
X84090000Y-116760000D02*
X84340000Y-116260000D01*
X85040000Y-116760000D02*
X84090000Y-116760000D01*
X85040000Y-127110000D02*
X85040000Y-116760000D01*
X72440000Y-127110000D02*
X85040000Y-127110000D01*
%TO.C,D2*%
X137295000Y-100585000D02*
X137295000Y-104470000D01*
X139565000Y-100585000D02*
X137295000Y-100585000D01*
X139565000Y-104470000D02*
X139565000Y-100585000D01*
%TO.C,D1*%
X124325000Y-129870000D02*
X124325000Y-125985000D01*
X124325000Y-125985000D02*
X122055000Y-125985000D01*
X122055000Y-125985000D02*
X122055000Y-129870000D01*
%TO.C,C8*%
X114580000Y-130530000D02*
X115780000Y-130530000D01*
X119100000Y-130530000D02*
X117900000Y-130530000D01*
X119100000Y-127074437D02*
X119100000Y-130530000D01*
X114580000Y-127074437D02*
X114580000Y-130530000D01*
X115644437Y-126010000D02*
X115780000Y-126010000D01*
X118035563Y-126010000D02*
X117900000Y-126010000D01*
X118035563Y-126010000D02*
X119100000Y-127074437D01*
X115644437Y-126010000D02*
X114580000Y-127074437D01*
X118400000Y-125270000D02*
X118400000Y-125770000D01*
X118650000Y-125520000D02*
X118150000Y-125520000D01*
%TO.C,C7*%
X112300000Y-133140000D02*
X111800000Y-133140000D01*
X112050000Y-132890000D02*
X112050000Y-133390000D01*
X109294437Y-133630000D02*
X108230000Y-134694437D01*
X111685563Y-133630000D02*
X112750000Y-134694437D01*
X111685563Y-133630000D02*
X111550000Y-133630000D01*
X109294437Y-133630000D02*
X109430000Y-133630000D01*
X108230000Y-134694437D02*
X108230000Y-138150000D01*
X112750000Y-134694437D02*
X112750000Y-138150000D01*
X112750000Y-138150000D02*
X111550000Y-138150000D01*
X108230000Y-138150000D02*
X109430000Y-138150000D01*
%TO.C,C6*%
X112300000Y-125520000D02*
X111800000Y-125520000D01*
X112050000Y-125270000D02*
X112050000Y-125770000D01*
X109294437Y-126010000D02*
X108230000Y-127074437D01*
X111685563Y-126010000D02*
X112750000Y-127074437D01*
X111685563Y-126010000D02*
X111550000Y-126010000D01*
X109294437Y-126010000D02*
X109430000Y-126010000D01*
X108230000Y-127074437D02*
X108230000Y-130530000D01*
X112750000Y-127074437D02*
X112750000Y-130530000D01*
X112750000Y-130530000D02*
X111550000Y-130530000D01*
X108230000Y-130530000D02*
X109430000Y-130530000D01*
%TO.C,C5*%
X99600000Y-125520000D02*
X99100000Y-125520000D01*
X99350000Y-125270000D02*
X99350000Y-125770000D01*
X96594437Y-126010000D02*
X95530000Y-127074437D01*
X98985563Y-126010000D02*
X100050000Y-127074437D01*
X98985563Y-126010000D02*
X98850000Y-126010000D01*
X96594437Y-126010000D02*
X96730000Y-126010000D01*
X95530000Y-127074437D02*
X95530000Y-130530000D01*
X100050000Y-127074437D02*
X100050000Y-130530000D01*
X100050000Y-130530000D02*
X98850000Y-130530000D01*
X95530000Y-130530000D02*
X96730000Y-130530000D01*
%TO.C,C4*%
X105950000Y-125520000D02*
X105450000Y-125520000D01*
X105700000Y-125270000D02*
X105700000Y-125770000D01*
X102944437Y-126010000D02*
X101880000Y-127074437D01*
X105335563Y-126010000D02*
X106400000Y-127074437D01*
X105335563Y-126010000D02*
X105200000Y-126010000D01*
X102944437Y-126010000D02*
X103080000Y-126010000D01*
X101880000Y-127074437D02*
X101880000Y-130530000D01*
X106400000Y-127074437D02*
X106400000Y-130530000D01*
X106400000Y-130530000D02*
X105200000Y-130530000D01*
X101880000Y-130530000D02*
X103080000Y-130530000D01*
%TO.C,C3*%
X99600000Y-133140000D02*
X99100000Y-133140000D01*
X99350000Y-132890000D02*
X99350000Y-133390000D01*
X96594437Y-133630000D02*
X95530000Y-134694437D01*
X98985563Y-133630000D02*
X100050000Y-134694437D01*
X98985563Y-133630000D02*
X98850000Y-133630000D01*
X96594437Y-133630000D02*
X96730000Y-133630000D01*
X95530000Y-134694437D02*
X95530000Y-138150000D01*
X100050000Y-134694437D02*
X100050000Y-138150000D01*
X100050000Y-138150000D02*
X98850000Y-138150000D01*
X95530000Y-138150000D02*
X96730000Y-138150000D01*
%TO.C,C2*%
X120930000Y-138150000D02*
X122130000Y-138150000D01*
X125450000Y-138150000D02*
X124250000Y-138150000D01*
X125450000Y-134694437D02*
X125450000Y-138150000D01*
X120930000Y-134694437D02*
X120930000Y-138150000D01*
X121994437Y-133630000D02*
X122130000Y-133630000D01*
X124385563Y-133630000D02*
X124250000Y-133630000D01*
X124385563Y-133630000D02*
X125450000Y-134694437D01*
X121994437Y-133630000D02*
X120930000Y-134694437D01*
X124750000Y-132890000D02*
X124750000Y-133390000D01*
X125000000Y-133140000D02*
X124500000Y-133140000D01*
%TO.C,C1*%
X93250000Y-125520000D02*
X92750000Y-125520000D01*
X93000000Y-125270000D02*
X93000000Y-125770000D01*
X90244437Y-126010000D02*
X89180000Y-127074437D01*
X92635563Y-126010000D02*
X93700000Y-127074437D01*
X92635563Y-126010000D02*
X92500000Y-126010000D01*
X90244437Y-126010000D02*
X90380000Y-126010000D01*
X89180000Y-127074437D02*
X89180000Y-130530000D01*
X93700000Y-127074437D02*
X93700000Y-130530000D01*
X93700000Y-130530000D02*
X92500000Y-130530000D01*
X89180000Y-130530000D02*
X90380000Y-130530000D01*
%TO.C,AE1*%
X174160000Y-97260000D02*
X166460000Y-97260000D01*
X166460000Y-92140000D02*
X166460000Y-97260000D01*
X174160000Y-92140000D02*
X166460000Y-92140000D01*
X166260000Y-95250000D02*
X166260000Y-94150000D01*
%TO.C,.1uF*%
X114580000Y-138150000D02*
X115780000Y-138150000D01*
X119100000Y-138150000D02*
X117900000Y-138150000D01*
X119100000Y-134694437D02*
X119100000Y-138150000D01*
X114580000Y-134694437D02*
X114580000Y-138150000D01*
X115644437Y-133630000D02*
X115780000Y-133630000D01*
X118035563Y-133630000D02*
X117900000Y-133630000D01*
X118035563Y-133630000D02*
X119100000Y-134694437D01*
X115644437Y-133630000D02*
X114580000Y-134694437D01*
X118400000Y-132890000D02*
X118400000Y-133390000D01*
X118650000Y-133140000D02*
X118150000Y-133140000D01*
%TO.C,U6*%
D10*
X144018095Y-105297380D02*
X144018095Y-106106904D01*
X144065714Y-106202142D01*
X144113333Y-106249761D01*
X144208571Y-106297380D01*
X144399047Y-106297380D01*
X144494285Y-106249761D01*
X144541904Y-106202142D01*
X144589523Y-106106904D01*
X144589523Y-105297380D01*
X145494285Y-105297380D02*
X145303809Y-105297380D01*
X145208571Y-105345000D01*
X145160952Y-105392619D01*
X145065714Y-105535476D01*
X145018095Y-105725952D01*
X145018095Y-106106904D01*
X145065714Y-106202142D01*
X145113333Y-106249761D01*
X145208571Y-106297380D01*
X145399047Y-106297380D01*
X145494285Y-106249761D01*
X145541904Y-106202142D01*
X145589523Y-106106904D01*
X145589523Y-105868809D01*
X145541904Y-105773571D01*
X145494285Y-105725952D01*
X145399047Y-105678333D01*
X145208571Y-105678333D01*
X145113333Y-105725952D01*
X145065714Y-105773571D01*
X145018095Y-105868809D01*
%TO.C,U5*%
X147828095Y-86972380D02*
X147828095Y-87781904D01*
X147875714Y-87877142D01*
X147923333Y-87924761D01*
X148018571Y-87972380D01*
X148209047Y-87972380D01*
X148304285Y-87924761D01*
X148351904Y-87877142D01*
X148399523Y-87781904D01*
X148399523Y-86972380D01*
X149351904Y-86972380D02*
X148875714Y-86972380D01*
X148828095Y-87448571D01*
X148875714Y-87400952D01*
X148970952Y-87353333D01*
X149209047Y-87353333D01*
X149304285Y-87400952D01*
X149351904Y-87448571D01*
X149399523Y-87543809D01*
X149399523Y-87781904D01*
X149351904Y-87877142D01*
X149304285Y-87924761D01*
X149209047Y-87972380D01*
X148970952Y-87972380D01*
X148875714Y-87924761D01*
X148828095Y-87877142D01*
X157297380Y-101543809D02*
X156297380Y-101543809D01*
X157297380Y-100972380D01*
X156297380Y-100972380D01*
X156773571Y-100496190D02*
X156773571Y-100162857D01*
X157297380Y-100020000D02*
X157297380Y-100496190D01*
X156297380Y-100496190D01*
X156297380Y-100020000D01*
X156297380Y-99400952D02*
X156297380Y-99210476D01*
X156345000Y-99115238D01*
X156440238Y-99020000D01*
X156630714Y-98972380D01*
X156964047Y-98972380D01*
X157154523Y-99020000D01*
X157249761Y-99115238D01*
X157297380Y-99210476D01*
X157297380Y-99400952D01*
X157249761Y-99496190D01*
X157154523Y-99591428D01*
X156964047Y-99639047D01*
X156630714Y-99639047D01*
X156440238Y-99591428D01*
X156345000Y-99496190D01*
X156297380Y-99400952D01*
X156916428Y-98543809D02*
X156916428Y-97781904D01*
X156297380Y-96877142D02*
X156297380Y-97067619D01*
X156345000Y-97162857D01*
X156392619Y-97210476D01*
X156535476Y-97305714D01*
X156725952Y-97353333D01*
X157106904Y-97353333D01*
X157202142Y-97305714D01*
X157249761Y-97258095D01*
X157297380Y-97162857D01*
X157297380Y-96972380D01*
X157249761Y-96877142D01*
X157202142Y-96829523D01*
X157106904Y-96781904D01*
X156868809Y-96781904D01*
X156773571Y-96829523D01*
X156725952Y-96877142D01*
X156678333Y-96972380D01*
X156678333Y-97162857D01*
X156725952Y-97258095D01*
X156773571Y-97305714D01*
X156868809Y-97353333D01*
X157297380Y-96353333D02*
X156297380Y-96353333D01*
X157011666Y-96020000D01*
X156297380Y-95686666D01*
X157297380Y-95686666D01*
X156916428Y-95210476D02*
X156916428Y-94448571D01*
X156345000Y-93448571D02*
X156297380Y-93543809D01*
X156297380Y-93686666D01*
X156345000Y-93829523D01*
X156440238Y-93924761D01*
X156535476Y-93972380D01*
X156725952Y-94020000D01*
X156868809Y-94020000D01*
X157059285Y-93972380D01*
X157154523Y-93924761D01*
X157249761Y-93829523D01*
X157297380Y-93686666D01*
X157297380Y-93591428D01*
X157249761Y-93448571D01*
X157202142Y-93400952D01*
X156868809Y-93400952D01*
X156868809Y-93591428D01*
X157297380Y-92972380D02*
X156297380Y-92972380D01*
X156297380Y-92591428D01*
X156345000Y-92496190D01*
X156392619Y-92448571D01*
X156487857Y-92400952D01*
X156630714Y-92400952D01*
X156725952Y-92448571D01*
X156773571Y-92496190D01*
X156821190Y-92591428D01*
X156821190Y-92972380D01*
X157249761Y-92020000D02*
X157297380Y-91877142D01*
X157297380Y-91639047D01*
X157249761Y-91543809D01*
X157202142Y-91496190D01*
X157106904Y-91448571D01*
X157011666Y-91448571D01*
X156916428Y-91496190D01*
X156868809Y-91543809D01*
X156821190Y-91639047D01*
X156773571Y-91829523D01*
X156725952Y-91924761D01*
X156678333Y-91972380D01*
X156583095Y-92020000D01*
X156487857Y-92020000D01*
X156392619Y-91972380D01*
X156345000Y-91924761D01*
X156297380Y-91829523D01*
X156297380Y-91591428D01*
X156345000Y-91448571D01*
%TO.C,U4*%
X145351904Y-84882380D02*
X145018571Y-84406190D01*
X144780476Y-84882380D02*
X144780476Y-83882380D01*
X145161428Y-83882380D01*
X145256666Y-83930000D01*
X145304285Y-83977619D01*
X145351904Y-84072857D01*
X145351904Y-84215714D01*
X145304285Y-84310952D01*
X145256666Y-84358571D01*
X145161428Y-84406190D01*
X144780476Y-84406190D01*
X146113809Y-84358571D02*
X145780476Y-84358571D01*
X145780476Y-84882380D02*
X145780476Y-83882380D01*
X146256666Y-83882380D01*
X146637619Y-84882380D02*
X146637619Y-83882380D01*
X146970952Y-84596666D01*
X147304285Y-83882380D01*
X147304285Y-84882380D01*
X148209047Y-83882380D02*
X148018571Y-83882380D01*
X147923333Y-83930000D01*
X147875714Y-83977619D01*
X147780476Y-84120476D01*
X147732857Y-84310952D01*
X147732857Y-84691904D01*
X147780476Y-84787142D01*
X147828095Y-84834761D01*
X147923333Y-84882380D01*
X148113809Y-84882380D01*
X148209047Y-84834761D01*
X148256666Y-84787142D01*
X148304285Y-84691904D01*
X148304285Y-84453809D01*
X148256666Y-84358571D01*
X148209047Y-84310952D01*
X148113809Y-84263333D01*
X147923333Y-84263333D01*
X147828095Y-84310952D01*
X147780476Y-84358571D01*
X147732857Y-84453809D01*
X148780476Y-84882380D02*
X148970952Y-84882380D01*
X149066190Y-84834761D01*
X149113809Y-84787142D01*
X149209047Y-84644285D01*
X149256666Y-84453809D01*
X149256666Y-84072857D01*
X149209047Y-83977619D01*
X149161428Y-83930000D01*
X149066190Y-83882380D01*
X148875714Y-83882380D01*
X148780476Y-83930000D01*
X148732857Y-83977619D01*
X148685238Y-84072857D01*
X148685238Y-84310952D01*
X148732857Y-84406190D01*
X148780476Y-84453809D01*
X148875714Y-84501428D01*
X149066190Y-84501428D01*
X149161428Y-84453809D01*
X149209047Y-84406190D01*
X149256666Y-84310952D01*
X149685238Y-84882380D02*
X149685238Y-83882380D01*
X149685238Y-84358571D02*
X150256666Y-84358571D01*
X150256666Y-84882380D02*
X150256666Y-83882380D01*
X151304285Y-84787142D02*
X151256666Y-84834761D01*
X151113809Y-84882380D01*
X151018571Y-84882380D01*
X150875714Y-84834761D01*
X150780476Y-84739523D01*
X150732857Y-84644285D01*
X150685238Y-84453809D01*
X150685238Y-84310952D01*
X150732857Y-84120476D01*
X150780476Y-84025238D01*
X150875714Y-83930000D01*
X151018571Y-83882380D01*
X151113809Y-83882380D01*
X151256666Y-83930000D01*
X151304285Y-83977619D01*
X151637619Y-83882380D02*
X151875714Y-84882380D01*
X152066190Y-84168095D01*
X152256666Y-84882380D01*
X152494761Y-83882380D01*
%TO.C,5V Reg.*%
X87717380Y-138080476D02*
X87717380Y-138556666D01*
X88193571Y-138604285D01*
X88145952Y-138556666D01*
X88098333Y-138461428D01*
X88098333Y-138223333D01*
X88145952Y-138128095D01*
X88193571Y-138080476D01*
X88288809Y-138032857D01*
X88526904Y-138032857D01*
X88622142Y-138080476D01*
X88669761Y-138128095D01*
X88717380Y-138223333D01*
X88717380Y-138461428D01*
X88669761Y-138556666D01*
X88622142Y-138604285D01*
X87717380Y-137747142D02*
X88717380Y-137413809D01*
X87717380Y-137080476D01*
X88717380Y-135413809D02*
X88241190Y-135747142D01*
X88717380Y-135985238D02*
X87717380Y-135985238D01*
X87717380Y-135604285D01*
X87765000Y-135509047D01*
X87812619Y-135461428D01*
X87907857Y-135413809D01*
X88050714Y-135413809D01*
X88145952Y-135461428D01*
X88193571Y-135509047D01*
X88241190Y-135604285D01*
X88241190Y-135985238D01*
X88669761Y-134604285D02*
X88717380Y-134699523D01*
X88717380Y-134890000D01*
X88669761Y-134985238D01*
X88574523Y-135032857D01*
X88193571Y-135032857D01*
X88098333Y-134985238D01*
X88050714Y-134890000D01*
X88050714Y-134699523D01*
X88098333Y-134604285D01*
X88193571Y-134556666D01*
X88288809Y-134556666D01*
X88384047Y-135032857D01*
X88050714Y-133699523D02*
X88860238Y-133699523D01*
X88955476Y-133747142D01*
X89003095Y-133794761D01*
X89050714Y-133890000D01*
X89050714Y-134032857D01*
X89003095Y-134128095D01*
X88669761Y-133699523D02*
X88717380Y-133794761D01*
X88717380Y-133985238D01*
X88669761Y-134080476D01*
X88622142Y-134128095D01*
X88526904Y-134175714D01*
X88241190Y-134175714D01*
X88145952Y-134128095D01*
X88098333Y-134080476D01*
X88050714Y-133985238D01*
X88050714Y-133794761D01*
X88098333Y-133699523D01*
X88622142Y-133223333D02*
X88669761Y-133175714D01*
X88717380Y-133223333D01*
X88669761Y-133270952D01*
X88622142Y-133223333D01*
X88717380Y-133223333D01*
%TO.C,3.3V Reg.*%
X101052380Y-139366190D02*
X101052380Y-138747142D01*
X101433333Y-139080476D01*
X101433333Y-138937619D01*
X101480952Y-138842380D01*
X101528571Y-138794761D01*
X101623809Y-138747142D01*
X101861904Y-138747142D01*
X101957142Y-138794761D01*
X102004761Y-138842380D01*
X102052380Y-138937619D01*
X102052380Y-139223333D01*
X102004761Y-139318571D01*
X101957142Y-139366190D01*
X101957142Y-138318571D02*
X102004761Y-138270952D01*
X102052380Y-138318571D01*
X102004761Y-138366190D01*
X101957142Y-138318571D01*
X102052380Y-138318571D01*
X101052380Y-137937619D02*
X101052380Y-137318571D01*
X101433333Y-137651904D01*
X101433333Y-137509047D01*
X101480952Y-137413809D01*
X101528571Y-137366190D01*
X101623809Y-137318571D01*
X101861904Y-137318571D01*
X101957142Y-137366190D01*
X102004761Y-137413809D01*
X102052380Y-137509047D01*
X102052380Y-137794761D01*
X102004761Y-137890000D01*
X101957142Y-137937619D01*
X101052380Y-137032857D02*
X102052380Y-136699523D01*
X101052380Y-136366190D01*
X102052380Y-134699523D02*
X101576190Y-135032857D01*
X102052380Y-135270952D02*
X101052380Y-135270952D01*
X101052380Y-134890000D01*
X101100000Y-134794761D01*
X101147619Y-134747142D01*
X101242857Y-134699523D01*
X101385714Y-134699523D01*
X101480952Y-134747142D01*
X101528571Y-134794761D01*
X101576190Y-134890000D01*
X101576190Y-135270952D01*
X102004761Y-133890000D02*
X102052380Y-133985238D01*
X102052380Y-134175714D01*
X102004761Y-134270952D01*
X101909523Y-134318571D01*
X101528571Y-134318571D01*
X101433333Y-134270952D01*
X101385714Y-134175714D01*
X101385714Y-133985238D01*
X101433333Y-133890000D01*
X101528571Y-133842380D01*
X101623809Y-133842380D01*
X101719047Y-134318571D01*
X101385714Y-132985238D02*
X102195238Y-132985238D01*
X102290476Y-133032857D01*
X102338095Y-133080476D01*
X102385714Y-133175714D01*
X102385714Y-133318571D01*
X102338095Y-133413809D01*
X102004761Y-132985238D02*
X102052380Y-133080476D01*
X102052380Y-133270952D01*
X102004761Y-133366190D01*
X101957142Y-133413809D01*
X101861904Y-133461428D01*
X101576190Y-133461428D01*
X101480952Y-133413809D01*
X101433333Y-133366190D01*
X101385714Y-133270952D01*
X101385714Y-133080476D01*
X101433333Y-132985238D01*
X101957142Y-132509047D02*
X102004761Y-132461428D01*
X102052380Y-132509047D01*
X102004761Y-132556666D01*
X101957142Y-132509047D01*
X102052380Y-132509047D01*
%TO.C,U1*%
X124463095Y-65817380D02*
X124463095Y-66626904D01*
X124510714Y-66722142D01*
X124558333Y-66769761D01*
X124653571Y-66817380D01*
X124844047Y-66817380D01*
X124939285Y-66769761D01*
X124986904Y-66722142D01*
X125034523Y-66626904D01*
X125034523Y-65817380D01*
X126034523Y-66817380D02*
X125463095Y-66817380D01*
X125748809Y-66817380D02*
X125748809Y-65817380D01*
X125653571Y-65960238D01*
X125558333Y-66055476D01*
X125463095Y-66103095D01*
X117915476Y-100263571D02*
X118248809Y-100263571D01*
X118391666Y-100787380D02*
X117915476Y-100787380D01*
X117915476Y-99787380D01*
X118391666Y-99787380D01*
X118772619Y-100739761D02*
X118915476Y-100787380D01*
X119153571Y-100787380D01*
X119248809Y-100739761D01*
X119296428Y-100692142D01*
X119344047Y-100596904D01*
X119344047Y-100501666D01*
X119296428Y-100406428D01*
X119248809Y-100358809D01*
X119153571Y-100311190D01*
X118963095Y-100263571D01*
X118867857Y-100215952D01*
X118820238Y-100168333D01*
X118772619Y-100073095D01*
X118772619Y-99977857D01*
X118820238Y-99882619D01*
X118867857Y-99835000D01*
X118963095Y-99787380D01*
X119201190Y-99787380D01*
X119344047Y-99835000D01*
X119772619Y-100787380D02*
X119772619Y-99787380D01*
X120153571Y-99787380D01*
X120248809Y-99835000D01*
X120296428Y-99882619D01*
X120344047Y-99977857D01*
X120344047Y-100120714D01*
X120296428Y-100215952D01*
X120248809Y-100263571D01*
X120153571Y-100311190D01*
X119772619Y-100311190D01*
X120677380Y-99787380D02*
X121296428Y-99787380D01*
X120963095Y-100168333D01*
X121105952Y-100168333D01*
X121201190Y-100215952D01*
X121248809Y-100263571D01*
X121296428Y-100358809D01*
X121296428Y-100596904D01*
X121248809Y-100692142D01*
X121201190Y-100739761D01*
X121105952Y-100787380D01*
X120820238Y-100787380D01*
X120725000Y-100739761D01*
X120677380Y-100692142D01*
X121677380Y-99882619D02*
X121725000Y-99835000D01*
X121820238Y-99787380D01*
X122058333Y-99787380D01*
X122153571Y-99835000D01*
X122201190Y-99882619D01*
X122248809Y-99977857D01*
X122248809Y-100073095D01*
X122201190Y-100215952D01*
X121629761Y-100787380D01*
X122248809Y-100787380D01*
X122677380Y-100406428D02*
X123439285Y-100406428D01*
X123867857Y-100739761D02*
X124010714Y-100787380D01*
X124248809Y-100787380D01*
X124344047Y-100739761D01*
X124391666Y-100692142D01*
X124439285Y-100596904D01*
X124439285Y-100501666D01*
X124391666Y-100406428D01*
X124344047Y-100358809D01*
X124248809Y-100311190D01*
X124058333Y-100263571D01*
X123963095Y-100215952D01*
X123915476Y-100168333D01*
X123867857Y-100073095D01*
X123867857Y-99977857D01*
X123915476Y-99882619D01*
X123963095Y-99835000D01*
X124058333Y-99787380D01*
X124296428Y-99787380D01*
X124439285Y-99835000D01*
X124820238Y-99882619D02*
X124867857Y-99835000D01*
X124963095Y-99787380D01*
X125201190Y-99787380D01*
X125296428Y-99835000D01*
X125344047Y-99882619D01*
X125391666Y-99977857D01*
X125391666Y-100073095D01*
X125344047Y-100215952D01*
X124772619Y-100787380D01*
X125391666Y-100787380D01*
X125820238Y-100406428D02*
X126582142Y-100406428D01*
X126963095Y-99787380D02*
X127201190Y-100787380D01*
X127391666Y-100073095D01*
X127582142Y-100787380D01*
X127820238Y-99787380D01*
X128772619Y-100787380D02*
X128439285Y-100311190D01*
X128201190Y-100787380D02*
X128201190Y-99787380D01*
X128582142Y-99787380D01*
X128677380Y-99835000D01*
X128725000Y-99882619D01*
X128772619Y-99977857D01*
X128772619Y-100120714D01*
X128725000Y-100215952D01*
X128677380Y-100263571D01*
X128582142Y-100311190D01*
X128201190Y-100311190D01*
X129391666Y-99787380D02*
X129582142Y-99787380D01*
X129677380Y-99835000D01*
X129772619Y-99930238D01*
X129820238Y-100120714D01*
X129820238Y-100454047D01*
X129772619Y-100644523D01*
X129677380Y-100739761D01*
X129582142Y-100787380D01*
X129391666Y-100787380D01*
X129296428Y-100739761D01*
X129201190Y-100644523D01*
X129153571Y-100454047D01*
X129153571Y-100120714D01*
X129201190Y-99930238D01*
X129296428Y-99835000D01*
X129391666Y-99787380D01*
X130105952Y-99787380D02*
X130439285Y-100787380D01*
X130772619Y-99787380D01*
X131105952Y-100263571D02*
X131439285Y-100263571D01*
X131582142Y-100787380D02*
X131105952Y-100787380D01*
X131105952Y-99787380D01*
X131582142Y-99787380D01*
X132582142Y-100787380D02*
X132248809Y-100311190D01*
X132010714Y-100787380D02*
X132010714Y-99787380D01*
X132391666Y-99787380D01*
X132486904Y-99835000D01*
X132534523Y-99882619D01*
X132582142Y-99977857D01*
X132582142Y-100120714D01*
X132534523Y-100215952D01*
X132486904Y-100263571D01*
X132391666Y-100311190D01*
X132010714Y-100311190D01*
X120463095Y-70881666D02*
X120939285Y-70881666D01*
X120367857Y-71167380D02*
X120701190Y-70167380D01*
X121034523Y-71167380D01*
X121367857Y-70500714D02*
X121367857Y-71167380D01*
X121367857Y-70595952D02*
X121415476Y-70548333D01*
X121510714Y-70500714D01*
X121653571Y-70500714D01*
X121748809Y-70548333D01*
X121796428Y-70643571D01*
X121796428Y-71167380D01*
X122129761Y-70500714D02*
X122510714Y-70500714D01*
X122272619Y-70167380D02*
X122272619Y-71024523D01*
X122320238Y-71119761D01*
X122415476Y-71167380D01*
X122510714Y-71167380D01*
X123225000Y-71119761D02*
X123129761Y-71167380D01*
X122939285Y-71167380D01*
X122844047Y-71119761D01*
X122796428Y-71024523D01*
X122796428Y-70643571D01*
X122844047Y-70548333D01*
X122939285Y-70500714D01*
X123129761Y-70500714D01*
X123225000Y-70548333D01*
X123272619Y-70643571D01*
X123272619Y-70738809D01*
X122796428Y-70834047D01*
X123701190Y-70500714D02*
X123701190Y-71167380D01*
X123701190Y-70595952D02*
X123748809Y-70548333D01*
X123844047Y-70500714D01*
X123986904Y-70500714D01*
X124082142Y-70548333D01*
X124129761Y-70643571D01*
X124129761Y-71167380D01*
X124605952Y-70500714D02*
X124605952Y-71167380D01*
X124605952Y-70595952D02*
X124653571Y-70548333D01*
X124748809Y-70500714D01*
X124891666Y-70500714D01*
X124986904Y-70548333D01*
X125034523Y-70643571D01*
X125034523Y-71167380D01*
X125939285Y-71167380D02*
X125939285Y-70643571D01*
X125891666Y-70548333D01*
X125796428Y-70500714D01*
X125605952Y-70500714D01*
X125510714Y-70548333D01*
X125939285Y-71119761D02*
X125844047Y-71167380D01*
X125605952Y-71167380D01*
X125510714Y-71119761D01*
X125463095Y-71024523D01*
X125463095Y-70929285D01*
X125510714Y-70834047D01*
X125605952Y-70786428D01*
X125844047Y-70786428D01*
X125939285Y-70738809D01*
X127129761Y-70881666D02*
X127605952Y-70881666D01*
X127034523Y-71167380D02*
X127367857Y-70167380D01*
X127701190Y-71167380D01*
X128034523Y-71167380D02*
X128034523Y-70500714D01*
X128034523Y-70691190D02*
X128082142Y-70595952D01*
X128129761Y-70548333D01*
X128225000Y-70500714D01*
X128320238Y-70500714D01*
X129034523Y-71119761D02*
X128939285Y-71167380D01*
X128748809Y-71167380D01*
X128653571Y-71119761D01*
X128605952Y-71024523D01*
X128605952Y-70643571D01*
X128653571Y-70548333D01*
X128748809Y-70500714D01*
X128939285Y-70500714D01*
X129034523Y-70548333D01*
X129082142Y-70643571D01*
X129082142Y-70738809D01*
X128605952Y-70834047D01*
X129939285Y-71167380D02*
X129939285Y-70643571D01*
X129891666Y-70548333D01*
X129796428Y-70500714D01*
X129605952Y-70500714D01*
X129510714Y-70548333D01*
X129939285Y-71119761D02*
X129844047Y-71167380D01*
X129605952Y-71167380D01*
X129510714Y-71119761D01*
X129463095Y-71024523D01*
X129463095Y-70929285D01*
X129510714Y-70834047D01*
X129605952Y-70786428D01*
X129844047Y-70786428D01*
X129939285Y-70738809D01*
%TO.C,R4*%
X137062380Y-111886666D02*
X137062380Y-112458095D01*
X137062380Y-112172380D02*
X136062380Y-112172380D01*
X136205238Y-112267619D01*
X136300476Y-112362857D01*
X136348095Y-112458095D01*
X136062380Y-111267619D02*
X136062380Y-111172380D01*
X136110000Y-111077142D01*
X136157619Y-111029523D01*
X136252857Y-110981904D01*
X136443333Y-110934285D01*
X136681428Y-110934285D01*
X136871904Y-110981904D01*
X136967142Y-111029523D01*
X137014761Y-111077142D01*
X137062380Y-111172380D01*
X137062380Y-111267619D01*
X137014761Y-111362857D01*
X136967142Y-111410476D01*
X136871904Y-111458095D01*
X136681428Y-111505714D01*
X136443333Y-111505714D01*
X136252857Y-111458095D01*
X136157619Y-111410476D01*
X136110000Y-111362857D01*
X136062380Y-111267619D01*
X136062380Y-110315238D02*
X136062380Y-110220000D01*
X136110000Y-110124761D01*
X136157619Y-110077142D01*
X136252857Y-110029523D01*
X136443333Y-109981904D01*
X136681428Y-109981904D01*
X136871904Y-110029523D01*
X136967142Y-110077142D01*
X137014761Y-110124761D01*
X137062380Y-110220000D01*
X137062380Y-110315238D01*
X137014761Y-110410476D01*
X136967142Y-110458095D01*
X136871904Y-110505714D01*
X136681428Y-110553333D01*
X136443333Y-110553333D01*
X136252857Y-110505714D01*
X136157619Y-110458095D01*
X136110000Y-110410476D01*
X136062380Y-110315238D01*
X136062380Y-108600952D02*
X136062380Y-108410476D01*
X136110000Y-108315238D01*
X136205238Y-108220000D01*
X136395714Y-108172380D01*
X136729047Y-108172380D01*
X136919523Y-108220000D01*
X137014761Y-108315238D01*
X137062380Y-108410476D01*
X137062380Y-108600952D01*
X137014761Y-108696190D01*
X136919523Y-108791428D01*
X136729047Y-108839047D01*
X136395714Y-108839047D01*
X136205238Y-108791428D01*
X136110000Y-108696190D01*
X136062380Y-108600952D01*
X137062380Y-107743809D02*
X136062380Y-107743809D01*
X136538571Y-107743809D02*
X136538571Y-107172380D01*
X137062380Y-107172380D02*
X136062380Y-107172380D01*
X137062380Y-106696190D02*
X136062380Y-106696190D01*
X136776666Y-106362857D01*
X136062380Y-106029523D01*
X137062380Y-106029523D01*
%TO.C,R3*%
X147965714Y-112368571D02*
X148632380Y-112368571D01*
X147584761Y-112606666D02*
X148299047Y-112844761D01*
X148299047Y-112225714D01*
X148537142Y-111844761D02*
X148584761Y-111797142D01*
X148632380Y-111844761D01*
X148584761Y-111892380D01*
X148537142Y-111844761D01*
X148632380Y-111844761D01*
X147632380Y-111463809D02*
X147632380Y-110797142D01*
X148632380Y-111225714D01*
X148632380Y-110416190D02*
X147632380Y-110416190D01*
X148251428Y-110320952D02*
X148632380Y-110035238D01*
X147965714Y-110035238D02*
X148346666Y-110416190D01*
%TO.C,R2*%
X165282380Y-97464285D02*
X165282380Y-98035714D01*
X165282380Y-97750000D02*
X164282380Y-97750000D01*
X164425238Y-97845238D01*
X164520476Y-97940476D01*
X164568095Y-98035714D01*
X164282380Y-96845238D02*
X164282380Y-96750000D01*
X164330000Y-96654761D01*
X164377619Y-96607142D01*
X164472857Y-96559523D01*
X164663333Y-96511904D01*
X164901428Y-96511904D01*
X165091904Y-96559523D01*
X165187142Y-96607142D01*
X165234761Y-96654761D01*
X165282380Y-96750000D01*
X165282380Y-96845238D01*
X165234761Y-96940476D01*
X165187142Y-96988095D01*
X165091904Y-97035714D01*
X164901428Y-97083333D01*
X164663333Y-97083333D01*
X164472857Y-97035714D01*
X164377619Y-96988095D01*
X164330000Y-96940476D01*
X164282380Y-96845238D01*
X164282380Y-95130952D02*
X164282380Y-94940476D01*
X164330000Y-94845238D01*
X164425238Y-94750000D01*
X164615714Y-94702380D01*
X164949047Y-94702380D01*
X165139523Y-94750000D01*
X165234761Y-94845238D01*
X165282380Y-94940476D01*
X165282380Y-95130952D01*
X165234761Y-95226190D01*
X165139523Y-95321428D01*
X164949047Y-95369047D01*
X164615714Y-95369047D01*
X164425238Y-95321428D01*
X164330000Y-95226190D01*
X164282380Y-95130952D01*
X165282380Y-94273809D02*
X164282380Y-94273809D01*
X165282380Y-93845238D02*
X164758571Y-93845238D01*
X164663333Y-93892857D01*
X164615714Y-93988095D01*
X164615714Y-94130952D01*
X164663333Y-94226190D01*
X164710952Y-94273809D01*
X165282380Y-93369047D02*
X164615714Y-93369047D01*
X164710952Y-93369047D02*
X164663333Y-93321428D01*
X164615714Y-93226190D01*
X164615714Y-93083333D01*
X164663333Y-92988095D01*
X164758571Y-92940476D01*
X165282380Y-92940476D01*
X164758571Y-92940476D02*
X164663333Y-92892857D01*
X164615714Y-92797619D01*
X164615714Y-92654761D01*
X164663333Y-92559523D01*
X164758571Y-92511904D01*
X165282380Y-92511904D01*
%TO.C,R1*%
X126902380Y-130936666D02*
X126902380Y-131508095D01*
X126902380Y-131222380D02*
X125902380Y-131222380D01*
X126045238Y-131317619D01*
X126140476Y-131412857D01*
X126188095Y-131508095D01*
X125902380Y-130317619D02*
X125902380Y-130222380D01*
X125950000Y-130127142D01*
X125997619Y-130079523D01*
X126092857Y-130031904D01*
X126283333Y-129984285D01*
X126521428Y-129984285D01*
X126711904Y-130031904D01*
X126807142Y-130079523D01*
X126854761Y-130127142D01*
X126902380Y-130222380D01*
X126902380Y-130317619D01*
X126854761Y-130412857D01*
X126807142Y-130460476D01*
X126711904Y-130508095D01*
X126521428Y-130555714D01*
X126283333Y-130555714D01*
X126092857Y-130508095D01*
X125997619Y-130460476D01*
X125950000Y-130412857D01*
X125902380Y-130317619D01*
X125902380Y-129365238D02*
X125902380Y-129270000D01*
X125950000Y-129174761D01*
X125997619Y-129127142D01*
X126092857Y-129079523D01*
X126283333Y-129031904D01*
X126521428Y-129031904D01*
X126711904Y-129079523D01*
X126807142Y-129127142D01*
X126854761Y-129174761D01*
X126902380Y-129270000D01*
X126902380Y-129365238D01*
X126854761Y-129460476D01*
X126807142Y-129508095D01*
X126711904Y-129555714D01*
X126521428Y-129603333D01*
X126283333Y-129603333D01*
X126092857Y-129555714D01*
X125997619Y-129508095D01*
X125950000Y-129460476D01*
X125902380Y-129365238D01*
X125902380Y-127650952D02*
X125902380Y-127460476D01*
X125950000Y-127365238D01*
X126045238Y-127270000D01*
X126235714Y-127222380D01*
X126569047Y-127222380D01*
X126759523Y-127270000D01*
X126854761Y-127365238D01*
X126902380Y-127460476D01*
X126902380Y-127650952D01*
X126854761Y-127746190D01*
X126759523Y-127841428D01*
X126569047Y-127889047D01*
X126235714Y-127889047D01*
X126045238Y-127841428D01*
X125950000Y-127746190D01*
X125902380Y-127650952D01*
X126902380Y-126793809D02*
X125902380Y-126793809D01*
X126378571Y-126793809D02*
X126378571Y-126222380D01*
X126902380Y-126222380D02*
X125902380Y-126222380D01*
X126902380Y-125746190D02*
X125902380Y-125746190D01*
X126616666Y-125412857D01*
X125902380Y-125079523D01*
X126902380Y-125079523D01*
%TO.C,J10*%
X98242380Y-98646666D02*
X97242380Y-98646666D01*
X97337619Y-98218095D02*
X97290000Y-98170476D01*
X97242380Y-98075238D01*
X97242380Y-97837142D01*
X97290000Y-97741904D01*
X97337619Y-97694285D01*
X97432857Y-97646666D01*
X97528095Y-97646666D01*
X97670952Y-97694285D01*
X98242380Y-98265714D01*
X98242380Y-97646666D01*
X98147142Y-96646666D02*
X98194761Y-96694285D01*
X98242380Y-96837142D01*
X98242380Y-96932380D01*
X98194761Y-97075238D01*
X98099523Y-97170476D01*
X98004285Y-97218095D01*
X97813809Y-97265714D01*
X97670952Y-97265714D01*
X97480476Y-97218095D01*
X97385238Y-97170476D01*
X97290000Y-97075238D01*
X97242380Y-96932380D01*
X97242380Y-96837142D01*
X97290000Y-96694285D01*
X97337619Y-96646666D01*
X98242380Y-95456190D02*
X97242380Y-95456190D01*
X97575714Y-94980000D02*
X98242380Y-94980000D01*
X97670952Y-94980000D02*
X97623333Y-94932380D01*
X97575714Y-94837142D01*
X97575714Y-94694285D01*
X97623333Y-94599047D01*
X97718571Y-94551428D01*
X98242380Y-94551428D01*
X97575714Y-94218095D02*
X97575714Y-93837142D01*
X97242380Y-94075238D02*
X98099523Y-94075238D01*
X98194761Y-94027619D01*
X98242380Y-93932380D01*
X98242380Y-93837142D01*
X98194761Y-93122857D02*
X98242380Y-93218095D01*
X98242380Y-93408571D01*
X98194761Y-93503809D01*
X98099523Y-93551428D01*
X97718571Y-93551428D01*
X97623333Y-93503809D01*
X97575714Y-93408571D01*
X97575714Y-93218095D01*
X97623333Y-93122857D01*
X97718571Y-93075238D01*
X97813809Y-93075238D01*
X97909047Y-93551428D01*
X98242380Y-92646666D02*
X97575714Y-92646666D01*
X97766190Y-92646666D02*
X97670952Y-92599047D01*
X97623333Y-92551428D01*
X97575714Y-92456190D01*
X97575714Y-92360952D01*
X97575714Y-92170476D02*
X97575714Y-91789523D01*
X98242380Y-92027619D02*
X97385238Y-92027619D01*
X97290000Y-91980000D01*
X97242380Y-91884761D01*
X97242380Y-91789523D01*
X98242380Y-91027619D02*
X97718571Y-91027619D01*
X97623333Y-91075238D01*
X97575714Y-91170476D01*
X97575714Y-91360952D01*
X97623333Y-91456190D01*
X98194761Y-91027619D02*
X98242380Y-91122857D01*
X98242380Y-91360952D01*
X98194761Y-91456190D01*
X98099523Y-91503809D01*
X98004285Y-91503809D01*
X97909047Y-91456190D01*
X97861428Y-91360952D01*
X97861428Y-91122857D01*
X97813809Y-91027619D01*
X98194761Y-90122857D02*
X98242380Y-90218095D01*
X98242380Y-90408571D01*
X98194761Y-90503809D01*
X98147142Y-90551428D01*
X98051904Y-90599047D01*
X97766190Y-90599047D01*
X97670952Y-90551428D01*
X97623333Y-90503809D01*
X97575714Y-90408571D01*
X97575714Y-90218095D01*
X97623333Y-90122857D01*
X98194761Y-89313333D02*
X98242380Y-89408571D01*
X98242380Y-89599047D01*
X98194761Y-89694285D01*
X98099523Y-89741904D01*
X97718571Y-89741904D01*
X97623333Y-89694285D01*
X97575714Y-89599047D01*
X97575714Y-89408571D01*
X97623333Y-89313333D01*
X97718571Y-89265714D01*
X97813809Y-89265714D01*
X97909047Y-89741904D01*
%TO.C,J9*%
X80414761Y-98694285D02*
X80462380Y-98551428D01*
X80462380Y-98313333D01*
X80414761Y-98218095D01*
X80367142Y-98170476D01*
X80271904Y-98122857D01*
X80176666Y-98122857D01*
X80081428Y-98170476D01*
X80033809Y-98218095D01*
X79986190Y-98313333D01*
X79938571Y-98503809D01*
X79890952Y-98599047D01*
X79843333Y-98646666D01*
X79748095Y-98694285D01*
X79652857Y-98694285D01*
X79557619Y-98646666D01*
X79510000Y-98599047D01*
X79462380Y-98503809D01*
X79462380Y-98265714D01*
X79510000Y-98122857D01*
X80462380Y-97694285D02*
X79462380Y-97694285D01*
X79462380Y-97313333D01*
X79510000Y-97218095D01*
X79557619Y-97170476D01*
X79652857Y-97122857D01*
X79795714Y-97122857D01*
X79890952Y-97170476D01*
X79938571Y-97218095D01*
X79986190Y-97313333D01*
X79986190Y-97694285D01*
X80462380Y-96694285D02*
X79462380Y-96694285D01*
X80462380Y-95456190D02*
X79462380Y-95456190D01*
X79795714Y-94980000D02*
X80462380Y-94980000D01*
X79890952Y-94980000D02*
X79843333Y-94932380D01*
X79795714Y-94837142D01*
X79795714Y-94694285D01*
X79843333Y-94599047D01*
X79938571Y-94551428D01*
X80462380Y-94551428D01*
X79795714Y-94218095D02*
X79795714Y-93837142D01*
X79462380Y-94075238D02*
X80319523Y-94075238D01*
X80414761Y-94027619D01*
X80462380Y-93932380D01*
X80462380Y-93837142D01*
X80414761Y-93122857D02*
X80462380Y-93218095D01*
X80462380Y-93408571D01*
X80414761Y-93503809D01*
X80319523Y-93551428D01*
X79938571Y-93551428D01*
X79843333Y-93503809D01*
X79795714Y-93408571D01*
X79795714Y-93218095D01*
X79843333Y-93122857D01*
X79938571Y-93075238D01*
X80033809Y-93075238D01*
X80129047Y-93551428D01*
X80462380Y-92646666D02*
X79795714Y-92646666D01*
X79986190Y-92646666D02*
X79890952Y-92599047D01*
X79843333Y-92551428D01*
X79795714Y-92456190D01*
X79795714Y-92360952D01*
X79795714Y-92170476D02*
X79795714Y-91789523D01*
X80462380Y-92027619D02*
X79605238Y-92027619D01*
X79510000Y-91980000D01*
X79462380Y-91884761D01*
X79462380Y-91789523D01*
X80462380Y-91027619D02*
X79938571Y-91027619D01*
X79843333Y-91075238D01*
X79795714Y-91170476D01*
X79795714Y-91360952D01*
X79843333Y-91456190D01*
X80414761Y-91027619D02*
X80462380Y-91122857D01*
X80462380Y-91360952D01*
X80414761Y-91456190D01*
X80319523Y-91503809D01*
X80224285Y-91503809D01*
X80129047Y-91456190D01*
X80081428Y-91360952D01*
X80081428Y-91122857D01*
X80033809Y-91027619D01*
X80414761Y-90122857D02*
X80462380Y-90218095D01*
X80462380Y-90408571D01*
X80414761Y-90503809D01*
X80367142Y-90551428D01*
X80271904Y-90599047D01*
X79986190Y-90599047D01*
X79890952Y-90551428D01*
X79843333Y-90503809D01*
X79795714Y-90408571D01*
X79795714Y-90218095D01*
X79843333Y-90122857D01*
X80414761Y-89313333D02*
X80462380Y-89408571D01*
X80462380Y-89599047D01*
X80414761Y-89694285D01*
X80319523Y-89741904D01*
X79938571Y-89741904D01*
X79843333Y-89694285D01*
X79795714Y-89599047D01*
X79795714Y-89408571D01*
X79843333Y-89313333D01*
X79938571Y-89265714D01*
X80033809Y-89265714D01*
X80129047Y-89741904D01*
%TO.C,J7*%
X87733333Y-85177380D02*
X87733333Y-85891666D01*
X87685714Y-86034523D01*
X87590476Y-86129761D01*
X87447619Y-86177380D01*
X87352380Y-86177380D01*
X88066666Y-85177380D02*
X88638095Y-85177380D01*
X88352380Y-86177380D02*
X88352380Y-85177380D01*
X88923809Y-85891666D02*
X89400000Y-85891666D01*
X88828571Y-86177380D02*
X89161904Y-85177380D01*
X89495238Y-86177380D01*
X90352380Y-85225000D02*
X90257142Y-85177380D01*
X90114285Y-85177380D01*
X89971428Y-85225000D01*
X89876190Y-85320238D01*
X89828571Y-85415476D01*
X89780952Y-85605952D01*
X89780952Y-85748809D01*
X89828571Y-85939285D01*
X89876190Y-86034523D01*
X89971428Y-86129761D01*
X90114285Y-86177380D01*
X90209523Y-86177380D01*
X90352380Y-86129761D01*
X90400000Y-86082142D01*
X90400000Y-85748809D01*
X90209523Y-85748809D01*
%TO.C,J5*%
X88566666Y-105072380D02*
X88566666Y-105786666D01*
X88519047Y-105929523D01*
X88423809Y-106024761D01*
X88280952Y-106072380D01*
X88185714Y-106072380D01*
X89519047Y-105072380D02*
X89042857Y-105072380D01*
X88995238Y-105548571D01*
X89042857Y-105500952D01*
X89138095Y-105453333D01*
X89376190Y-105453333D01*
X89471428Y-105500952D01*
X89519047Y-105548571D01*
X89566666Y-105643809D01*
X89566666Y-105881904D01*
X89519047Y-105977142D01*
X89471428Y-106024761D01*
X89376190Y-106072380D01*
X89138095Y-106072380D01*
X89042857Y-106024761D01*
X88995238Y-105977142D01*
%TO.C,J2*%
X79208380Y-114886809D02*
X80017904Y-114886809D01*
X80113142Y-114839190D01*
X80160761Y-114791571D01*
X80208380Y-114696333D01*
X80208380Y-114505857D01*
X80160761Y-114410619D01*
X80113142Y-114363000D01*
X80017904Y-114315380D01*
X79208380Y-114315380D01*
X80160761Y-113886809D02*
X80208380Y-113743952D01*
X80208380Y-113505857D01*
X80160761Y-113410619D01*
X80113142Y-113363000D01*
X80017904Y-113315380D01*
X79922666Y-113315380D01*
X79827428Y-113363000D01*
X79779809Y-113410619D01*
X79732190Y-113505857D01*
X79684571Y-113696333D01*
X79636952Y-113791571D01*
X79589333Y-113839190D01*
X79494095Y-113886809D01*
X79398857Y-113886809D01*
X79303619Y-113839190D01*
X79256000Y-113791571D01*
X79208380Y-113696333D01*
X79208380Y-113458238D01*
X79256000Y-113315380D01*
X79684571Y-112553476D02*
X79732190Y-112410619D01*
X79779809Y-112363000D01*
X79875047Y-112315380D01*
X80017904Y-112315380D01*
X80113142Y-112363000D01*
X80160761Y-112410619D01*
X80208380Y-112505857D01*
X80208380Y-112886809D01*
X79208380Y-112886809D01*
X79208380Y-112553476D01*
X79256000Y-112458238D01*
X79303619Y-112410619D01*
X79398857Y-112363000D01*
X79494095Y-112363000D01*
X79589333Y-112410619D01*
X79636952Y-112458238D01*
X79684571Y-112553476D01*
X79684571Y-112886809D01*
X80303619Y-112124904D02*
X80303619Y-111363000D01*
X79684571Y-110791571D02*
X79732190Y-110648714D01*
X79779809Y-110601095D01*
X79875047Y-110553476D01*
X80017904Y-110553476D01*
X80113142Y-110601095D01*
X80160761Y-110648714D01*
X80208380Y-110743952D01*
X80208380Y-111124904D01*
X79208380Y-111124904D01*
X79208380Y-110791571D01*
X79256000Y-110696333D01*
X79303619Y-110648714D01*
X79398857Y-110601095D01*
X79494095Y-110601095D01*
X79589333Y-110648714D01*
X79636952Y-110696333D01*
X79684571Y-110791571D01*
X79684571Y-111124904D01*
X80303619Y-110363000D02*
X80303619Y-109601095D01*
X80208380Y-109363000D02*
X79208380Y-109363000D01*
X79922666Y-109029666D01*
X79208380Y-108696333D01*
X80208380Y-108696333D01*
X80208380Y-108220142D02*
X79541714Y-108220142D01*
X79208380Y-108220142D02*
X79256000Y-108267761D01*
X79303619Y-108220142D01*
X79256000Y-108172523D01*
X79208380Y-108220142D01*
X79303619Y-108220142D01*
X80160761Y-107315380D02*
X80208380Y-107410619D01*
X80208380Y-107601095D01*
X80160761Y-107696333D01*
X80113142Y-107743952D01*
X80017904Y-107791571D01*
X79732190Y-107791571D01*
X79636952Y-107743952D01*
X79589333Y-107696333D01*
X79541714Y-107601095D01*
X79541714Y-107410619D01*
X79589333Y-107315380D01*
X80208380Y-106886809D02*
X79541714Y-106886809D01*
X79732190Y-106886809D02*
X79636952Y-106839190D01*
X79589333Y-106791571D01*
X79541714Y-106696333D01*
X79541714Y-106601095D01*
X80208380Y-106124904D02*
X80160761Y-106220142D01*
X80113142Y-106267761D01*
X80017904Y-106315380D01*
X79732190Y-106315380D01*
X79636952Y-106267761D01*
X79589333Y-106220142D01*
X79541714Y-106124904D01*
X79541714Y-105982047D01*
X79589333Y-105886809D01*
X79636952Y-105839190D01*
X79732190Y-105791571D01*
X80017904Y-105791571D01*
X80113142Y-105839190D01*
X80160761Y-105886809D01*
X80208380Y-105982047D01*
X80208380Y-106124904D01*
%TO.C,J1*%
X71202380Y-126713333D02*
X71916666Y-126713333D01*
X72059523Y-126760952D01*
X72154761Y-126856190D01*
X72202380Y-126999047D01*
X72202380Y-127094285D01*
X72202380Y-125713333D02*
X72202380Y-126284761D01*
X72202380Y-125999047D02*
X71202380Y-125999047D01*
X71345238Y-126094285D01*
X71440476Y-126189523D01*
X71488095Y-126284761D01*
X86894761Y-127227619D02*
X86942380Y-127084761D01*
X86942380Y-126846666D01*
X86894761Y-126751428D01*
X86847142Y-126703809D01*
X86751904Y-126656190D01*
X86656666Y-126656190D01*
X86561428Y-126703809D01*
X86513809Y-126751428D01*
X86466190Y-126846666D01*
X86418571Y-127037142D01*
X86370952Y-127132380D01*
X86323333Y-127180000D01*
X86228095Y-127227619D01*
X86132857Y-127227619D01*
X86037619Y-127180000D01*
X85990000Y-127132380D01*
X85942380Y-127037142D01*
X85942380Y-126799047D01*
X85990000Y-126656190D01*
X86894761Y-125799047D02*
X86942380Y-125894285D01*
X86942380Y-126084761D01*
X86894761Y-126180000D01*
X86847142Y-126227619D01*
X86751904Y-126275238D01*
X86466190Y-126275238D01*
X86370952Y-126227619D01*
X86323333Y-126180000D01*
X86275714Y-126084761D01*
X86275714Y-125894285D01*
X86323333Y-125799047D01*
X86942380Y-125370476D02*
X86275714Y-125370476D01*
X86466190Y-125370476D02*
X86370952Y-125322857D01*
X86323333Y-125275238D01*
X86275714Y-125180000D01*
X86275714Y-125084761D01*
X86894761Y-124370476D02*
X86942380Y-124465714D01*
X86942380Y-124656190D01*
X86894761Y-124751428D01*
X86799523Y-124799047D01*
X86418571Y-124799047D01*
X86323333Y-124751428D01*
X86275714Y-124656190D01*
X86275714Y-124465714D01*
X86323333Y-124370476D01*
X86418571Y-124322857D01*
X86513809Y-124322857D01*
X86609047Y-124799047D01*
X86275714Y-123989523D02*
X86942380Y-123799047D01*
X86466190Y-123608571D01*
X86942380Y-123418095D01*
X86275714Y-123227619D01*
X87037619Y-123084761D02*
X87037619Y-122322857D01*
X85942380Y-122227619D02*
X85942380Y-121656190D01*
X86942380Y-121941904D02*
X85942380Y-121941904D01*
X86894761Y-120941904D02*
X86942380Y-121037142D01*
X86942380Y-121227619D01*
X86894761Y-121322857D01*
X86799523Y-121370476D01*
X86418571Y-121370476D01*
X86323333Y-121322857D01*
X86275714Y-121227619D01*
X86275714Y-121037142D01*
X86323333Y-120941904D01*
X86418571Y-120894285D01*
X86513809Y-120894285D01*
X86609047Y-121370476D01*
X86942380Y-120465714D02*
X86275714Y-120465714D01*
X86466190Y-120465714D02*
X86370952Y-120418095D01*
X86323333Y-120370476D01*
X86275714Y-120275238D01*
X86275714Y-120180000D01*
X86942380Y-119846666D02*
X86275714Y-119846666D01*
X86370952Y-119846666D02*
X86323333Y-119799047D01*
X86275714Y-119703809D01*
X86275714Y-119560952D01*
X86323333Y-119465714D01*
X86418571Y-119418095D01*
X86942380Y-119418095D01*
X86418571Y-119418095D02*
X86323333Y-119370476D01*
X86275714Y-119275238D01*
X86275714Y-119132380D01*
X86323333Y-119037142D01*
X86418571Y-118989523D01*
X86942380Y-118989523D01*
X86942380Y-118513333D02*
X86275714Y-118513333D01*
X85942380Y-118513333D02*
X85990000Y-118560952D01*
X86037619Y-118513333D01*
X85990000Y-118465714D01*
X85942380Y-118513333D01*
X86037619Y-118513333D01*
X86275714Y-118037142D02*
X86942380Y-118037142D01*
X86370952Y-118037142D02*
X86323333Y-117989523D01*
X86275714Y-117894285D01*
X86275714Y-117751428D01*
X86323333Y-117656190D01*
X86418571Y-117608571D01*
X86942380Y-117608571D01*
X86942380Y-116703809D02*
X86418571Y-116703809D01*
X86323333Y-116751428D01*
X86275714Y-116846666D01*
X86275714Y-117037142D01*
X86323333Y-117132380D01*
X86894761Y-116703809D02*
X86942380Y-116799047D01*
X86942380Y-117037142D01*
X86894761Y-117132380D01*
X86799523Y-117180000D01*
X86704285Y-117180000D01*
X86609047Y-117132380D01*
X86561428Y-117037142D01*
X86561428Y-116799047D01*
X86513809Y-116703809D01*
X86942380Y-116084761D02*
X86894761Y-116180000D01*
X86799523Y-116227619D01*
X85942380Y-116227619D01*
%TO.C,D2*%
X137062380Y-103512857D02*
X137062380Y-103989047D01*
X136062380Y-103989047D01*
X136538571Y-103179523D02*
X136538571Y-102846190D01*
X137062380Y-102703333D02*
X137062380Y-103179523D01*
X136062380Y-103179523D01*
X136062380Y-102703333D01*
X137062380Y-102274761D02*
X136062380Y-102274761D01*
X136062380Y-102036666D01*
X136110000Y-101893809D01*
X136205238Y-101798571D01*
X136300476Y-101750952D01*
X136490952Y-101703333D01*
X136633809Y-101703333D01*
X136824285Y-101750952D01*
X136919523Y-101798571D01*
X137014761Y-101893809D01*
X137062380Y-102036666D01*
X137062380Y-102274761D01*
%TO.C,D1*%
X121822380Y-128912857D02*
X121822380Y-129389047D01*
X120822380Y-129389047D01*
X121298571Y-128579523D02*
X121298571Y-128246190D01*
X121822380Y-128103333D02*
X121822380Y-128579523D01*
X120822380Y-128579523D01*
X120822380Y-128103333D01*
X121822380Y-127674761D02*
X120822380Y-127674761D01*
X120822380Y-127436666D01*
X120870000Y-127293809D01*
X120965238Y-127198571D01*
X121060476Y-127150952D01*
X121250952Y-127103333D01*
X121393809Y-127103333D01*
X121584285Y-127150952D01*
X121679523Y-127198571D01*
X121774761Y-127293809D01*
X121822380Y-127436666D01*
X121822380Y-127674761D01*
%TO.C,C8*%
X114022142Y-130008095D02*
X114069761Y-129960476D01*
X114117380Y-130008095D01*
X114069761Y-130055714D01*
X114022142Y-130008095D01*
X114117380Y-130008095D01*
X114117380Y-129008095D02*
X114117380Y-129579523D01*
X114117380Y-129293809D02*
X113117380Y-129293809D01*
X113260238Y-129389047D01*
X113355476Y-129484285D01*
X113403095Y-129579523D01*
X113450714Y-127389047D02*
X114117380Y-127389047D01*
X113450714Y-127817619D02*
X113974523Y-127817619D01*
X114069761Y-127770000D01*
X114117380Y-127674761D01*
X114117380Y-127531904D01*
X114069761Y-127436666D01*
X114022142Y-127389047D01*
X113593571Y-126579523D02*
X113593571Y-126912857D01*
X114117380Y-126912857D02*
X113117380Y-126912857D01*
X113117380Y-126436666D01*
%TO.C,C7*%
X107647142Y-137628095D02*
X107694761Y-137580476D01*
X107742380Y-137628095D01*
X107694761Y-137675714D01*
X107647142Y-137628095D01*
X107742380Y-137628095D01*
X107742380Y-136628095D02*
X107742380Y-137199523D01*
X107742380Y-136913809D02*
X106742380Y-136913809D01*
X106885238Y-137009047D01*
X106980476Y-137104285D01*
X107028095Y-137199523D01*
X107075714Y-135009047D02*
X107742380Y-135009047D01*
X107075714Y-135437619D02*
X107599523Y-135437619D01*
X107694761Y-135390000D01*
X107742380Y-135294761D01*
X107742380Y-135151904D01*
X107694761Y-135056666D01*
X107647142Y-135009047D01*
X107218571Y-134199523D02*
X107218571Y-134532857D01*
X107742380Y-134532857D02*
X106742380Y-134532857D01*
X106742380Y-134056666D01*
%TO.C,C6*%
X107647142Y-130008095D02*
X107694761Y-129960476D01*
X107742380Y-130008095D01*
X107694761Y-130055714D01*
X107647142Y-130008095D01*
X107742380Y-130008095D01*
X107742380Y-129008095D02*
X107742380Y-129579523D01*
X107742380Y-129293809D02*
X106742380Y-129293809D01*
X106885238Y-129389047D01*
X106980476Y-129484285D01*
X107028095Y-129579523D01*
X107075714Y-127389047D02*
X107742380Y-127389047D01*
X107075714Y-127817619D02*
X107599523Y-127817619D01*
X107694761Y-127770000D01*
X107742380Y-127674761D01*
X107742380Y-127531904D01*
X107694761Y-127436666D01*
X107647142Y-127389047D01*
X107218571Y-126579523D02*
X107218571Y-126912857D01*
X107742380Y-126912857D02*
X106742380Y-126912857D01*
X106742380Y-126436666D01*
%TO.C,C5*%
X94947142Y-130008095D02*
X94994761Y-129960476D01*
X95042380Y-130008095D01*
X94994761Y-130055714D01*
X94947142Y-130008095D01*
X95042380Y-130008095D01*
X95042380Y-129008095D02*
X95042380Y-129579523D01*
X95042380Y-129293809D02*
X94042380Y-129293809D01*
X94185238Y-129389047D01*
X94280476Y-129484285D01*
X94328095Y-129579523D01*
X94375714Y-127389047D02*
X95042380Y-127389047D01*
X94375714Y-127817619D02*
X94899523Y-127817619D01*
X94994761Y-127770000D01*
X95042380Y-127674761D01*
X95042380Y-127531904D01*
X94994761Y-127436666D01*
X94947142Y-127389047D01*
X94518571Y-126579523D02*
X94518571Y-126912857D01*
X95042380Y-126912857D02*
X94042380Y-126912857D01*
X94042380Y-126436666D01*
%TO.C,C4*%
X101297142Y-130008095D02*
X101344761Y-129960476D01*
X101392380Y-130008095D01*
X101344761Y-130055714D01*
X101297142Y-130008095D01*
X101392380Y-130008095D01*
X101392380Y-129008095D02*
X101392380Y-129579523D01*
X101392380Y-129293809D02*
X100392380Y-129293809D01*
X100535238Y-129389047D01*
X100630476Y-129484285D01*
X100678095Y-129579523D01*
X100725714Y-127389047D02*
X101392380Y-127389047D01*
X100725714Y-127817619D02*
X101249523Y-127817619D01*
X101344761Y-127770000D01*
X101392380Y-127674761D01*
X101392380Y-127531904D01*
X101344761Y-127436666D01*
X101297142Y-127389047D01*
X100868571Y-126579523D02*
X100868571Y-126912857D01*
X101392380Y-126912857D02*
X100392380Y-126912857D01*
X100392380Y-126436666D01*
%TO.C,C3*%
X94137619Y-137913809D02*
X94090000Y-137866190D01*
X94042380Y-137770952D01*
X94042380Y-137532857D01*
X94090000Y-137437619D01*
X94137619Y-137390000D01*
X94232857Y-137342380D01*
X94328095Y-137342380D01*
X94470952Y-137390000D01*
X95042380Y-137961428D01*
X95042380Y-137342380D01*
X94137619Y-136961428D02*
X94090000Y-136913809D01*
X94042380Y-136818571D01*
X94042380Y-136580476D01*
X94090000Y-136485238D01*
X94137619Y-136437619D01*
X94232857Y-136390000D01*
X94328095Y-136390000D01*
X94470952Y-136437619D01*
X95042380Y-137009047D01*
X95042380Y-136390000D01*
X94375714Y-134770952D02*
X95042380Y-134770952D01*
X94375714Y-135199523D02*
X94899523Y-135199523D01*
X94994761Y-135151904D01*
X95042380Y-135056666D01*
X95042380Y-134913809D01*
X94994761Y-134818571D01*
X94947142Y-134770952D01*
X94518571Y-133961428D02*
X94518571Y-134294761D01*
X95042380Y-134294761D02*
X94042380Y-134294761D01*
X94042380Y-133818571D01*
%TO.C,C2*%
X119562619Y-137913809D02*
X119515000Y-137866190D01*
X119467380Y-137770952D01*
X119467380Y-137532857D01*
X119515000Y-137437619D01*
X119562619Y-137390000D01*
X119657857Y-137342380D01*
X119753095Y-137342380D01*
X119895952Y-137390000D01*
X120467380Y-137961428D01*
X120467380Y-137342380D01*
X119562619Y-136961428D02*
X119515000Y-136913809D01*
X119467380Y-136818571D01*
X119467380Y-136580476D01*
X119515000Y-136485238D01*
X119562619Y-136437619D01*
X119657857Y-136390000D01*
X119753095Y-136390000D01*
X119895952Y-136437619D01*
X120467380Y-137009047D01*
X120467380Y-136390000D01*
X119800714Y-134770952D02*
X120467380Y-134770952D01*
X119800714Y-135199523D02*
X120324523Y-135199523D01*
X120419761Y-135151904D01*
X120467380Y-135056666D01*
X120467380Y-134913809D01*
X120419761Y-134818571D01*
X120372142Y-134770952D01*
X119943571Y-133961428D02*
X119943571Y-134294761D01*
X120467380Y-134294761D02*
X119467380Y-134294761D01*
X119467380Y-133818571D01*
%TO.C,C1*%
X88025714Y-130055714D02*
X88692380Y-130055714D01*
X87644761Y-130293809D02*
X88359047Y-130531904D01*
X88359047Y-129912857D01*
X88597142Y-129531904D02*
X88644761Y-129484285D01*
X88692380Y-129531904D01*
X88644761Y-129579523D01*
X88597142Y-129531904D01*
X88692380Y-129531904D01*
X87692380Y-129150952D02*
X87692380Y-128484285D01*
X88692380Y-128912857D01*
X88025714Y-126912857D02*
X88692380Y-126912857D01*
X88025714Y-127341428D02*
X88549523Y-127341428D01*
X88644761Y-127293809D01*
X88692380Y-127198571D01*
X88692380Y-127055714D01*
X88644761Y-126960476D01*
X88597142Y-126912857D01*
X88168571Y-126103333D02*
X88168571Y-126436666D01*
X88692380Y-126436666D02*
X87692380Y-126436666D01*
X87692380Y-125960476D01*
%TO.C,Ae2*%
X166596666Y-83901904D02*
X166596666Y-83425714D01*
X166882380Y-83997142D02*
X165882380Y-83663809D01*
X166882380Y-83330476D01*
X166215714Y-82997142D02*
X166882380Y-82997142D01*
X166310952Y-82997142D02*
X166263333Y-82949523D01*
X166215714Y-82854285D01*
X166215714Y-82711428D01*
X166263333Y-82616190D01*
X166358571Y-82568571D01*
X166882380Y-82568571D01*
X166215714Y-82235238D02*
X166215714Y-81854285D01*
X165882380Y-82092380D02*
X166739523Y-82092380D01*
X166834761Y-82044761D01*
X166882380Y-81949523D01*
X166882380Y-81854285D01*
X166834761Y-81140000D02*
X166882380Y-81235238D01*
X166882380Y-81425714D01*
X166834761Y-81520952D01*
X166739523Y-81568571D01*
X166358571Y-81568571D01*
X166263333Y-81520952D01*
X166215714Y-81425714D01*
X166215714Y-81235238D01*
X166263333Y-81140000D01*
X166358571Y-81092380D01*
X166453809Y-81092380D01*
X166549047Y-81568571D01*
X166215714Y-80663809D02*
X166882380Y-80663809D01*
X166310952Y-80663809D02*
X166263333Y-80616190D01*
X166215714Y-80520952D01*
X166215714Y-80378095D01*
X166263333Y-80282857D01*
X166358571Y-80235238D01*
X166882380Y-80235238D01*
X166215714Y-79759047D02*
X166882380Y-79759047D01*
X166310952Y-79759047D02*
X166263333Y-79711428D01*
X166215714Y-79616190D01*
X166215714Y-79473333D01*
X166263333Y-79378095D01*
X166358571Y-79330476D01*
X166882380Y-79330476D01*
X166882380Y-78425714D02*
X166358571Y-78425714D01*
X166263333Y-78473333D01*
X166215714Y-78568571D01*
X166215714Y-78759047D01*
X166263333Y-78854285D01*
X166834761Y-78425714D02*
X166882380Y-78520952D01*
X166882380Y-78759047D01*
X166834761Y-78854285D01*
X166739523Y-78901904D01*
X166644285Y-78901904D01*
X166549047Y-78854285D01*
X166501428Y-78759047D01*
X166501428Y-78520952D01*
X166453809Y-78425714D01*
%TO.C,AE1*%
X167708095Y-91366666D02*
X168184285Y-91366666D01*
X167612857Y-91652380D02*
X167946190Y-90652380D01*
X168279523Y-91652380D01*
X168612857Y-90985714D02*
X168612857Y-91652380D01*
X168612857Y-91080952D02*
X168660476Y-91033333D01*
X168755714Y-90985714D01*
X168898571Y-90985714D01*
X168993809Y-91033333D01*
X169041428Y-91128571D01*
X169041428Y-91652380D01*
X169374761Y-90985714D02*
X169755714Y-90985714D01*
X169517619Y-90652380D02*
X169517619Y-91509523D01*
X169565238Y-91604761D01*
X169660476Y-91652380D01*
X169755714Y-91652380D01*
X170470000Y-91604761D02*
X170374761Y-91652380D01*
X170184285Y-91652380D01*
X170089047Y-91604761D01*
X170041428Y-91509523D01*
X170041428Y-91128571D01*
X170089047Y-91033333D01*
X170184285Y-90985714D01*
X170374761Y-90985714D01*
X170470000Y-91033333D01*
X170517619Y-91128571D01*
X170517619Y-91223809D01*
X170041428Y-91319047D01*
X170946190Y-90985714D02*
X170946190Y-91652380D01*
X170946190Y-91080952D02*
X170993809Y-91033333D01*
X171089047Y-90985714D01*
X171231904Y-90985714D01*
X171327142Y-91033333D01*
X171374761Y-91128571D01*
X171374761Y-91652380D01*
X171850952Y-90985714D02*
X171850952Y-91652380D01*
X171850952Y-91080952D02*
X171898571Y-91033333D01*
X171993809Y-90985714D01*
X172136666Y-90985714D01*
X172231904Y-91033333D01*
X172279523Y-91128571D01*
X172279523Y-91652380D01*
X173184285Y-91652380D02*
X173184285Y-91128571D01*
X173136666Y-91033333D01*
X173041428Y-90985714D01*
X172850952Y-90985714D01*
X172755714Y-91033333D01*
X173184285Y-91604761D02*
X173089047Y-91652380D01*
X172850952Y-91652380D01*
X172755714Y-91604761D01*
X172708095Y-91509523D01*
X172708095Y-91414285D01*
X172755714Y-91319047D01*
X172850952Y-91271428D01*
X173089047Y-91271428D01*
X173184285Y-91223809D01*
%TO.C,2200pF1*%
X150457619Y-111021428D02*
X150410000Y-110973809D01*
X150362380Y-110878571D01*
X150362380Y-110640476D01*
X150410000Y-110545238D01*
X150457619Y-110497619D01*
X150552857Y-110450000D01*
X150648095Y-110450000D01*
X150790952Y-110497619D01*
X151362380Y-111069047D01*
X151362380Y-110450000D01*
X150457619Y-110069047D02*
X150410000Y-110021428D01*
X150362380Y-109926190D01*
X150362380Y-109688095D01*
X150410000Y-109592857D01*
X150457619Y-109545238D01*
X150552857Y-109497619D01*
X150648095Y-109497619D01*
X150790952Y-109545238D01*
X151362380Y-110116666D01*
X151362380Y-109497619D01*
X150362380Y-108878571D02*
X150362380Y-108783333D01*
X150410000Y-108688095D01*
X150457619Y-108640476D01*
X150552857Y-108592857D01*
X150743333Y-108545238D01*
X150981428Y-108545238D01*
X151171904Y-108592857D01*
X151267142Y-108640476D01*
X151314761Y-108688095D01*
X151362380Y-108783333D01*
X151362380Y-108878571D01*
X151314761Y-108973809D01*
X151267142Y-109021428D01*
X151171904Y-109069047D01*
X150981428Y-109116666D01*
X150743333Y-109116666D01*
X150552857Y-109069047D01*
X150457619Y-109021428D01*
X150410000Y-108973809D01*
X150362380Y-108878571D01*
X150362380Y-107926190D02*
X150362380Y-107830952D01*
X150410000Y-107735714D01*
X150457619Y-107688095D01*
X150552857Y-107640476D01*
X150743333Y-107592857D01*
X150981428Y-107592857D01*
X151171904Y-107640476D01*
X151267142Y-107688095D01*
X151314761Y-107735714D01*
X151362380Y-107830952D01*
X151362380Y-107926190D01*
X151314761Y-108021428D01*
X151267142Y-108069047D01*
X151171904Y-108116666D01*
X150981428Y-108164285D01*
X150743333Y-108164285D01*
X150552857Y-108116666D01*
X150457619Y-108069047D01*
X150410000Y-108021428D01*
X150362380Y-107926190D01*
X150695714Y-107164285D02*
X151695714Y-107164285D01*
X150743333Y-107164285D02*
X150695714Y-107069047D01*
X150695714Y-106878571D01*
X150743333Y-106783333D01*
X150790952Y-106735714D01*
X150886190Y-106688095D01*
X151171904Y-106688095D01*
X151267142Y-106735714D01*
X151314761Y-106783333D01*
X151362380Y-106878571D01*
X151362380Y-107069047D01*
X151314761Y-107164285D01*
X150838571Y-105926190D02*
X150838571Y-106259523D01*
X151362380Y-106259523D02*
X150362380Y-106259523D01*
X150362380Y-105783333D01*
X151362380Y-104878571D02*
X151362380Y-105450000D01*
X151362380Y-105164285D02*
X150362380Y-105164285D01*
X150505238Y-105259523D01*
X150600476Y-105354761D01*
X150648095Y-105450000D01*
%TO.C,.1uF*%
X113997142Y-137628095D02*
X114044761Y-137580476D01*
X114092380Y-137628095D01*
X114044761Y-137675714D01*
X113997142Y-137628095D01*
X114092380Y-137628095D01*
X114092380Y-136628095D02*
X114092380Y-137199523D01*
X114092380Y-136913809D02*
X113092380Y-136913809D01*
X113235238Y-137009047D01*
X113330476Y-137104285D01*
X113378095Y-137199523D01*
X113425714Y-135009047D02*
X114092380Y-135009047D01*
X113425714Y-135437619D02*
X113949523Y-135437619D01*
X114044761Y-135390000D01*
X114092380Y-135294761D01*
X114092380Y-135151904D01*
X114044761Y-135056666D01*
X113997142Y-135009047D01*
X113568571Y-134199523D02*
X113568571Y-134532857D01*
X114092380Y-134532857D02*
X113092380Y-134532857D01*
X113092380Y-134056666D01*
%TD*%
M02*
