M48
; DRILL file {KiCad (5.1.9)-1} date 08/26/22 12:33:02
; FORMAT={-:-/ absolute / metric / decimal}
; #@! TF.CreationDate,2022-08-26T12:33:02-05:00
; #@! TF.GenerationSoftware,Kicad,Pcbnew,(5.1.9)-1
; #@! TF.FileFunction,Plated,1,2,PTH
FMAT,2
METRIC
T1C0.300
T2C0.400
T3C0.600
T4C0.850
T5C1.000
T6C1.320
T7C2.400
T8C3.200
%
G90
G05
T1
X167.64Y-87.19
T2
X74.962Y-100.932
X80.645Y-81.825
X81.645Y-81.825
X83.185Y-86.36
X83.185Y-102.235
X84.455Y-96.52
X84.455Y-135.165
X84.455Y-136.615
X86.36Y-97.79
X86.36Y-123.825
X86.995Y-111.125
X91.44Y-133.985
X92.71Y-100.965
X92.71Y-132.715
X92.71Y-138.43
X92.71Y-138.43
X95.25Y-95.25
X96.52Y-135.255
X97.063Y-117.208
X97.065Y-116.205
X101.6Y-114.3
X101.6Y-118.745
X101.6Y-137.705
X102.87Y-114.3
X102.87Y-118.745
X104.11Y-135.165
X104.11Y-136.615
X104.775Y-133.35
X105.41Y-138.43
X106.045Y-127.635
X112.395Y-120.92
X112.395Y-121.92
X113.665Y-132.08
X114.3Y-78.74
X114.935Y-135.89
X116.205Y-120.92
X116.205Y-121.92
X119.38Y-132.715
X119.915Y-101.5
X120.015Y-99.695
X120.65Y-103.505
X120.65Y-115.57
X121.195Y-135.165
X121.285Y-104.685
X121.285Y-112.395
X121.285Y-128.27
X123.825Y-125.095
X124.46Y-100.33
X125.73Y-100.33
X126.73Y-100.33
X128.18Y-80.01
X129.54Y-125.095
X130.103Y-84.527
X130.175Y-88.265
X130.175Y-100.24
X130.72Y-123.1
X130.81Y-83.82
X130.81Y-111.76
X130.81Y-129.54
X132.08Y-85.725
X132.18Y-86.895
X135.255Y-95.885
X135.89Y-64.225
X135.89Y-94.615
X136.435Y-93.345
X137.885Y-80.01
X137.885Y-88.9
X137.885Y-92.075
X138.43Y-93.98
X138.99Y-72.39
X138.99Y-74.19
X139.04Y-75.189
X139.065Y-76.2
X140.052Y-113.755
X141.515Y-113.575
X143.315Y-78.935
X143.528Y-113.12
X143.6Y-106.045
X144.145Y-115.025
X144.585Y-102.43
X144.6Y-106.045
X144.78Y-113.575
X146.255Y-112.395
X146.816Y-113.223
X148.59Y-90.805
X148.59Y-109.22
X149.77Y-90.805
X151.04Y-105.32
X152.4Y-92.71
X152.46Y-93.92
X153.035Y-72.39
X154.305Y-109.22
X158.66Y-82.55
X160.401Y-82.55
X160.655Y-95.885
T4
X77.408Y-107.863
X77.408Y-112.863
T5
X86.36Y-90.17
X86.36Y-92.71
X86.36Y-95.25
X86.36Y-97.79
X86.36Y-107.95
X87.63Y-72.39
X87.63Y-74.93
X87.63Y-77.47
X87.63Y-80.01
X87.63Y-82.55
X88.9Y-105.41
X88.9Y-107.95
X90.17Y-72.39
X90.17Y-74.93
X90.17Y-77.47
X90.17Y-80.01
X90.17Y-82.55
X91.44Y-90.17
X91.44Y-92.71
X91.44Y-95.25
X91.44Y-97.79
X91.44Y-107.95
X107.95Y-71.12
X107.95Y-73.66
X107.95Y-76.2
X107.95Y-78.74
X107.95Y-81.28
X107.95Y-83.82
X107.95Y-86.36
X107.95Y-88.9
X107.95Y-91.44
X107.95Y-93.98
X107.95Y-96.52
X107.95Y-99.06
X107.95Y-101.6
X107.95Y-104.14
X107.95Y-106.68
X107.95Y-109.22
T6
X78.74Y-119.46
X78.74Y-124.46
T7
X73.66Y-77.47
X73.66Y-90.17
T8
X74.93Y-64.77
X74.93Y-134.62
X171.45Y-64.77
X171.45Y-134.62
T3
X74.358Y-106.863G85X75.058Y-106.863
G05
X75.058Y-113.863G85X74.358Y-113.863
G05
T0
M30
