%TF.GenerationSoftware,KiCad,Pcbnew,(5.1.9)-1*%
%TF.CreationDate,2022-08-26T12:30:02-05:00*%
%TF.ProjectId,GPSPuck,47505350-7563-46b2-9e6b-696361645f70,2*%
%TF.SameCoordinates,Original*%
%TF.FileFunction,Other,Fab,Top*%
%FSLAX46Y46*%
G04 Gerber Fmt 4.6, Leading zero omitted, Abs format (unit mm)*
G04 Created by KiCad (PCBNEW (5.1.9)-1) date 2022-08-26 12:30:02*
%MOMM*%
%LPD*%
G01*
G04 APERTURE LIST*
%ADD10C,0.100000*%
%ADD11C,0.150000*%
%ADD12C,0.075000*%
%ADD13C,0.120000*%
%ADD14C,0.080000*%
%ADD15C,0.040000*%
G04 APERTURE END LIST*
D10*
%TO.C,REF\u002A\u002A*%
X165735000Y-121280000D02*
X165735000Y-120020000D01*
X165735000Y-120020000D02*
X168275000Y-120020000D01*
X168275000Y-120020000D02*
X168275000Y-121280000D01*
X168275000Y-121280000D02*
X165735000Y-121280000D01*
%TO.C,J11*%
X170450000Y-94615000D02*
X170150000Y-94915000D01*
X170150000Y-94315000D02*
X170450000Y-94615000D01*
X171500000Y-94615000D02*
G75*
G03*
X171500000Y-94615000I-50000J0D01*
G01*
X171575000Y-94615000D02*
G75*
G03*
X171575000Y-94615000I-125000J0D01*
G01*
X172350000Y-94615000D02*
G75*
G03*
X172350000Y-94615000I-900000J0D01*
G01*
X172750000Y-93315000D02*
X172750000Y-95915000D01*
X172750000Y-93315000D02*
X170450000Y-93315000D01*
X170450000Y-93315000D02*
X170150000Y-93615000D01*
X172750000Y-95915000D02*
X170150000Y-95915000D01*
X170150000Y-93615000D02*
X170150000Y-95915000D01*
X171650000Y-94615000D02*
G75*
G03*
X171650000Y-94615000I-200000J0D01*
G01*
D11*
%TO.C,U6*%
X142780000Y-108220000D02*
X143780000Y-107220000D01*
X142780000Y-111220000D02*
X142780000Y-108220000D01*
X146780000Y-111220000D02*
X142780000Y-111220000D01*
X146780000Y-107220000D02*
X146780000Y-111220000D01*
X143780000Y-107220000D02*
X146780000Y-107220000D01*
D10*
%TO.C,U5*%
X143490000Y-88520000D02*
X142490000Y-89520000D01*
X142490000Y-89520000D02*
X142490000Y-104520000D01*
X142490000Y-104520000D02*
X154690000Y-104520000D01*
X154690000Y-88520000D02*
X154690000Y-104520000D01*
X143490000Y-88520000D02*
X154690000Y-88520000D01*
%TO.C,U4*%
X141590000Y-66930000D02*
X140590000Y-67930000D01*
X140590000Y-82930000D02*
X140590000Y-67930000D01*
X140590000Y-82930000D02*
X156590000Y-82930000D01*
X156590000Y-82930000D02*
X156590000Y-66930000D01*
X141590000Y-66930000D02*
X156590000Y-66930000D01*
%TO.C,U3*%
X90540000Y-137440000D02*
X90540000Y-134340000D01*
X90540000Y-134340000D02*
X92340000Y-134340000D01*
X92340000Y-136790000D02*
X92340000Y-134340000D01*
X90540000Y-137440000D02*
X91690000Y-137440000D01*
X92340000Y-136790000D02*
X91690000Y-137440000D01*
%TO.C,U2*%
X103240000Y-137440000D02*
X103240000Y-134340000D01*
X103240000Y-134340000D02*
X105040000Y-134340000D01*
X105040000Y-136790000D02*
X105040000Y-134340000D01*
X103240000Y-137440000D02*
X104390000Y-137440000D01*
X105040000Y-136790000D02*
X104390000Y-137440000D01*
%TO.C,SW2*%
X134110000Y-110950000D02*
X127510000Y-110950000D01*
X134110000Y-104950000D02*
X134110000Y-110950000D01*
X127510000Y-104950000D02*
X134110000Y-104950000D01*
X127510000Y-110950000D02*
X127510000Y-104950000D01*
X132460000Y-107950000D02*
G75*
G03*
X132460000Y-107950000I-1650000J0D01*
G01*
%TO.C,SW1*%
X123950000Y-110950000D02*
X117350000Y-110950000D01*
X123950000Y-104950000D02*
X123950000Y-110950000D01*
X117350000Y-104950000D02*
X123950000Y-104950000D01*
X117350000Y-110950000D02*
X117350000Y-104950000D01*
X122300000Y-107950000D02*
G75*
G03*
X122300000Y-107950000I-1650000J0D01*
G01*
%TO.C,R4*%
X137630000Y-110820000D02*
X137630000Y-107620000D01*
X139230000Y-110820000D02*
X137630000Y-110820000D01*
X139230000Y-107620000D02*
X139230000Y-110820000D01*
X137630000Y-107620000D02*
X139230000Y-107620000D01*
%TO.C,R3*%
X149235000Y-112440000D02*
X149235000Y-110440000D01*
X150485000Y-112440000D02*
X149235000Y-112440000D01*
X150485000Y-110440000D02*
X150485000Y-112440000D01*
X149235000Y-110440000D02*
X150485000Y-110440000D01*
%TO.C,R2*%
X163930000Y-95450000D02*
X163730000Y-95450000D01*
X163730000Y-95450000D02*
X163730000Y-95050000D01*
X163730000Y-95050000D02*
X163930000Y-95050000D01*
X163930000Y-95050000D02*
X163930000Y-95450000D01*
%TO.C,R1*%
X127470000Y-126670000D02*
X129070000Y-126670000D01*
X129070000Y-126670000D02*
X129070000Y-129870000D01*
X129070000Y-129870000D02*
X127470000Y-129870000D01*
X127470000Y-129870000D02*
X127470000Y-126670000D01*
%TO.C,J10*%
X90805000Y-88900000D02*
X92710000Y-88900000D01*
X92710000Y-88900000D02*
X92710000Y-99060000D01*
X92710000Y-99060000D02*
X90170000Y-99060000D01*
X90170000Y-99060000D02*
X90170000Y-89535000D01*
X90170000Y-89535000D02*
X90805000Y-88900000D01*
%TO.C,J9*%
X85090000Y-89535000D02*
X85725000Y-88900000D01*
X85090000Y-99060000D02*
X85090000Y-89535000D01*
X87630000Y-99060000D02*
X85090000Y-99060000D01*
X87630000Y-88900000D02*
X87630000Y-99060000D01*
X85725000Y-88900000D02*
X87630000Y-88900000D01*
%TO.C,J8*%
X106680000Y-70485000D02*
X107315000Y-69850000D01*
X106680000Y-110490000D02*
X106680000Y-70485000D01*
X109220000Y-110490000D02*
X106680000Y-110490000D01*
X109220000Y-69850000D02*
X109220000Y-110490000D01*
X107315000Y-69850000D02*
X109220000Y-69850000D01*
%TO.C,J7*%
X86360000Y-72390000D02*
X87630000Y-71120000D01*
X86360000Y-83820000D02*
X86360000Y-72390000D01*
X91440000Y-83820000D02*
X86360000Y-83820000D01*
X91440000Y-71120000D02*
X91440000Y-83820000D01*
X87630000Y-71120000D02*
X91440000Y-71120000D01*
%TO.C,J6*%
X87630000Y-104775000D02*
X88265000Y-104140000D01*
X87630000Y-106680000D02*
X87630000Y-104775000D01*
X90170000Y-106680000D02*
X87630000Y-106680000D01*
X90170000Y-104140000D02*
X90170000Y-106680000D01*
X88265000Y-104140000D02*
X90170000Y-104140000D01*
%TO.C,J5*%
X87630000Y-107315000D02*
X88265000Y-106680000D01*
X87630000Y-109220000D02*
X87630000Y-107315000D01*
X90170000Y-109220000D02*
X87630000Y-109220000D01*
X90170000Y-106680000D02*
X90170000Y-109220000D01*
X88265000Y-106680000D02*
X90170000Y-106680000D01*
%TO.C,J4*%
X85090000Y-107315000D02*
X85725000Y-106680000D01*
X85090000Y-109220000D02*
X85090000Y-107315000D01*
X87630000Y-109220000D02*
X85090000Y-109220000D01*
X87630000Y-106680000D02*
X87630000Y-109220000D01*
X85725000Y-106680000D02*
X87630000Y-106680000D01*
%TO.C,J3*%
X90170000Y-107315000D02*
X90805000Y-106680000D01*
X90170000Y-109220000D02*
X90170000Y-107315000D01*
X92710000Y-109220000D02*
X90170000Y-109220000D01*
X92710000Y-106680000D02*
X92710000Y-109220000D01*
X90805000Y-106680000D02*
X92710000Y-106680000D01*
%TO.C,J2*%
X78068500Y-109263000D02*
X77858500Y-109263000D01*
X78068500Y-108863000D02*
X77858500Y-108863000D01*
X78068500Y-108863000D02*
X78068500Y-109263000D01*
X77858500Y-109263000D02*
X77658500Y-109063000D01*
X77658500Y-109063000D02*
X77858500Y-108863000D01*
X72558500Y-106613000D02*
X77558500Y-106613000D01*
X77558500Y-106613000D02*
X77558500Y-114113000D01*
X72556796Y-106613000D02*
X72556796Y-114113000D01*
X73256796Y-107363000D02*
X73256796Y-113363000D01*
X72558500Y-114113000D02*
X77558500Y-114113000D01*
%TO.C,J1*%
X78490000Y-121100000D02*
X78490000Y-117790000D01*
X78490000Y-121480000D02*
X78490000Y-121100000D01*
X78490000Y-117410000D02*
X78490000Y-117790000D01*
X78100000Y-117790000D02*
X78100000Y-121100000D01*
X78100000Y-116850000D02*
X78100000Y-117790000D01*
X78100000Y-122800000D02*
X78100000Y-121100000D01*
X78100000Y-126100000D02*
X78100000Y-122800000D01*
X78100000Y-127040000D02*
X78100000Y-126100000D01*
X78490000Y-122800000D02*
X78490000Y-126100000D01*
X78490000Y-122420000D02*
X78490000Y-122800000D01*
X78490000Y-126480000D02*
X78490000Y-126100000D01*
X74420000Y-125950000D02*
X73790000Y-122900000D01*
X74290000Y-126080000D02*
X73660000Y-123020000D01*
X74420000Y-120940000D02*
X73790000Y-117900000D01*
X74290000Y-121070000D02*
X73660000Y-118020000D01*
X72770000Y-122420000D02*
X72770000Y-126480000D01*
X75310000Y-126480000D02*
X72770000Y-126480000D01*
X75310000Y-122420000D02*
X75310000Y-126480000D01*
X75310000Y-122420000D02*
X72770000Y-122420000D01*
X75310000Y-117410000D02*
X75310000Y-121480000D01*
X72770000Y-117410000D02*
X75310000Y-117410000D01*
X72770000Y-121480000D02*
X72770000Y-117410000D01*
X75310000Y-121480000D02*
X72770000Y-121480000D01*
X75570000Y-116850000D02*
X77090000Y-116850000D01*
X75570000Y-127040000D02*
X72520000Y-127040000D01*
X75570000Y-127040000D02*
X75570000Y-116850000D01*
X78100000Y-116850000D02*
X82800000Y-116850000D01*
X77090000Y-116850000D02*
X78100000Y-116850000D01*
X78100000Y-127040000D02*
X75570000Y-127040000D01*
X84960000Y-127040000D02*
X78100000Y-127040000D01*
X79250000Y-117790000D02*
X79250000Y-118180000D01*
X79250000Y-121100000D02*
X79250000Y-120720000D01*
X79250000Y-122800000D02*
X79250000Y-123180000D01*
X79250000Y-126100000D02*
X79250000Y-125720000D01*
X82420000Y-126100000D02*
X79250000Y-126100000D01*
X82420000Y-122800000D02*
X82420000Y-126100000D01*
X82420000Y-122800000D02*
X79250000Y-122800000D01*
X82420000Y-121100000D02*
X79250000Y-121100000D01*
X82420000Y-117790000D02*
X82420000Y-121100000D01*
X82420000Y-117790000D02*
X79250000Y-117790000D01*
X83060000Y-126480000D02*
X84960000Y-126480000D01*
X83060000Y-122420000D02*
X78490000Y-122420000D01*
X83060000Y-122420000D02*
X83060000Y-126480000D01*
X83060000Y-117410000D02*
X84960000Y-117410000D01*
X83060000Y-121480000D02*
X78490000Y-121480000D01*
X83060000Y-121480000D02*
X83060000Y-117410000D01*
X84960000Y-126480000D02*
X84960000Y-122420000D01*
X84960000Y-127040000D02*
X84960000Y-126480000D01*
X78490000Y-126480000D02*
X83060000Y-126480000D01*
X84960000Y-122420000D02*
X84960000Y-121480000D01*
X84960000Y-122420000D02*
X83060000Y-122420000D01*
X84960000Y-117410000D02*
X84960000Y-116850000D01*
X84960000Y-121480000D02*
X84960000Y-117410000D01*
X78490000Y-117410000D02*
X83060000Y-117410000D01*
X84960000Y-121480000D02*
X83060000Y-121480000D01*
X82550000Y-116350000D02*
X84200000Y-116350000D01*
X82800000Y-116850000D02*
X83950000Y-116850000D01*
X82550000Y-116350000D02*
X82800000Y-116850000D01*
X83950000Y-116850000D02*
X84960000Y-116850000D01*
X84200000Y-116350000D02*
X83950000Y-116850000D01*
X77340000Y-116350000D02*
X77090000Y-116850000D01*
X72520000Y-116350000D02*
X77340000Y-116350000D01*
X72520000Y-116850000D02*
X72520000Y-116350000D01*
X72520000Y-116850000D02*
X72520000Y-127040000D01*
X72520000Y-116850000D02*
X75570000Y-116850000D01*
X81280000Y-120720000D02*
X78490000Y-120720000D01*
X78490000Y-120720000D02*
X78490000Y-118180000D01*
X81280000Y-118180000D02*
X78490000Y-118180000D01*
X81280000Y-120720000D02*
X81280000Y-118180000D01*
X81280000Y-125720000D02*
X78490000Y-125720000D01*
X78490000Y-125720000D02*
X78490000Y-123180000D01*
X81280000Y-123180000D02*
X78490000Y-123180000D01*
X81280000Y-125720000D02*
X81280000Y-123180000D01*
X73681301Y-126022972D02*
G75*
G03*
X74610000Y-125880000I408699J432972D01*
G01*
X73668466Y-122920024D02*
G75*
G03*
X73740000Y-126080000I1361534J-1549976D01*
G01*
X74581418Y-125919829D02*
G75*
G03*
X74620000Y-122930000I-1911418J1519829D01*
G01*
X74653996Y-122974380D02*
G75*
G03*
X73690000Y-122930000I-503996J-455620D01*
G01*
X73681301Y-121022972D02*
G75*
G03*
X74610000Y-120880000I408699J432972D01*
G01*
X73678313Y-117921761D02*
G75*
G03*
X73740000Y-121070000I1351687J-1548239D01*
G01*
X74571737Y-120912333D02*
G75*
G03*
X74620000Y-117930000I-1901737J1522333D01*
G01*
X74663995Y-117974468D02*
G75*
G03*
X73690000Y-117920000I-513995J-455532D01*
G01*
%TO.C,D2*%
X137630000Y-104470000D02*
X139230000Y-104470000D01*
X137630000Y-101270000D02*
X137630000Y-104470000D01*
X138830000Y-101270000D02*
X137630000Y-101270000D01*
X139230000Y-101670000D02*
X138830000Y-101270000D01*
X139230000Y-104470000D02*
X139230000Y-101670000D01*
%TO.C,D1*%
X123990000Y-129870000D02*
X123990000Y-127070000D01*
X123990000Y-127070000D02*
X123590000Y-126670000D01*
X123590000Y-126670000D02*
X122390000Y-126670000D01*
X122390000Y-126670000D02*
X122390000Y-129870000D01*
X122390000Y-129870000D02*
X123990000Y-129870000D01*
%TO.C,C8*%
X118840000Y-128270000D02*
G75*
G03*
X118840000Y-128270000I-2000000J0D01*
G01*
X118990000Y-130420000D02*
X114690000Y-130420000D01*
X118990000Y-127120000D02*
X118990000Y-130420000D01*
X114690000Y-127120000D02*
X114690000Y-130420000D01*
X117990000Y-126120000D02*
X115690000Y-126120000D01*
X117990000Y-126120000D02*
X118990000Y-127120000D01*
X115690000Y-126120000D02*
X114690000Y-127120000D01*
X117840000Y-126695227D02*
X117840000Y-127095227D01*
X118040000Y-126895227D02*
X117640000Y-126895227D01*
%TO.C,C7*%
X111690000Y-134515227D02*
X111290000Y-134515227D01*
X111490000Y-134315227D02*
X111490000Y-134715227D01*
X109340000Y-133740000D02*
X108340000Y-134740000D01*
X111640000Y-133740000D02*
X112640000Y-134740000D01*
X111640000Y-133740000D02*
X109340000Y-133740000D01*
X108340000Y-134740000D02*
X108340000Y-138040000D01*
X112640000Y-134740000D02*
X112640000Y-138040000D01*
X112640000Y-138040000D02*
X108340000Y-138040000D01*
X112490000Y-135890000D02*
G75*
G03*
X112490000Y-135890000I-2000000J0D01*
G01*
%TO.C,C6*%
X111690000Y-126895227D02*
X111290000Y-126895227D01*
X111490000Y-126695227D02*
X111490000Y-127095227D01*
X109340000Y-126120000D02*
X108340000Y-127120000D01*
X111640000Y-126120000D02*
X112640000Y-127120000D01*
X111640000Y-126120000D02*
X109340000Y-126120000D01*
X108340000Y-127120000D02*
X108340000Y-130420000D01*
X112640000Y-127120000D02*
X112640000Y-130420000D01*
X112640000Y-130420000D02*
X108340000Y-130420000D01*
X112490000Y-128270000D02*
G75*
G03*
X112490000Y-128270000I-2000000J0D01*
G01*
%TO.C,C5*%
X98990000Y-126895227D02*
X98590000Y-126895227D01*
X98790000Y-126695227D02*
X98790000Y-127095227D01*
X96640000Y-126120000D02*
X95640000Y-127120000D01*
X98940000Y-126120000D02*
X99940000Y-127120000D01*
X98940000Y-126120000D02*
X96640000Y-126120000D01*
X95640000Y-127120000D02*
X95640000Y-130420000D01*
X99940000Y-127120000D02*
X99940000Y-130420000D01*
X99940000Y-130420000D02*
X95640000Y-130420000D01*
X99790000Y-128270000D02*
G75*
G03*
X99790000Y-128270000I-2000000J0D01*
G01*
%TO.C,C4*%
X105340000Y-126895227D02*
X104940000Y-126895227D01*
X105140000Y-126695227D02*
X105140000Y-127095227D01*
X102990000Y-126120000D02*
X101990000Y-127120000D01*
X105290000Y-126120000D02*
X106290000Y-127120000D01*
X105290000Y-126120000D02*
X102990000Y-126120000D01*
X101990000Y-127120000D02*
X101990000Y-130420000D01*
X106290000Y-127120000D02*
X106290000Y-130420000D01*
X106290000Y-130420000D02*
X101990000Y-130420000D01*
X106140000Y-128270000D02*
G75*
G03*
X106140000Y-128270000I-2000000J0D01*
G01*
%TO.C,C3*%
X98990000Y-134515227D02*
X98590000Y-134515227D01*
X98790000Y-134315227D02*
X98790000Y-134715227D01*
X96640000Y-133740000D02*
X95640000Y-134740000D01*
X98940000Y-133740000D02*
X99940000Y-134740000D01*
X98940000Y-133740000D02*
X96640000Y-133740000D01*
X95640000Y-134740000D02*
X95640000Y-138040000D01*
X99940000Y-134740000D02*
X99940000Y-138040000D01*
X99940000Y-138040000D02*
X95640000Y-138040000D01*
X99790000Y-135890000D02*
G75*
G03*
X99790000Y-135890000I-2000000J0D01*
G01*
%TO.C,C2*%
X125190000Y-135890000D02*
G75*
G03*
X125190000Y-135890000I-2000000J0D01*
G01*
X125340000Y-138040000D02*
X121040000Y-138040000D01*
X125340000Y-134740000D02*
X125340000Y-138040000D01*
X121040000Y-134740000D02*
X121040000Y-138040000D01*
X124340000Y-133740000D02*
X122040000Y-133740000D01*
X124340000Y-133740000D02*
X125340000Y-134740000D01*
X122040000Y-133740000D02*
X121040000Y-134740000D01*
X124190000Y-134315227D02*
X124190000Y-134715227D01*
X124390000Y-134515227D02*
X123990000Y-134515227D01*
%TO.C,C1*%
X92640000Y-126895227D02*
X92240000Y-126895227D01*
X92440000Y-126695227D02*
X92440000Y-127095227D01*
X90290000Y-126120000D02*
X89290000Y-127120000D01*
X92590000Y-126120000D02*
X93590000Y-127120000D01*
X92590000Y-126120000D02*
X90290000Y-126120000D01*
X89290000Y-127120000D02*
X89290000Y-130420000D01*
X93590000Y-127120000D02*
X93590000Y-130420000D01*
X93590000Y-130420000D02*
X89290000Y-130420000D01*
X93440000Y-128270000D02*
G75*
G03*
X93440000Y-128270000I-2000000J0D01*
G01*
D11*
%TO.C,AE2*%
X173240000Y-72790000D02*
X167290000Y-72790000D01*
X167290000Y-88290000D02*
X173240000Y-88290000D01*
X167290000Y-72790000D02*
X167290000Y-88290000D01*
X173240000Y-88290000D02*
X173240000Y-72790000D01*
D10*
%TO.C,C9*%
X149710000Y-108250000D02*
X149710000Y-107650000D01*
X150010000Y-108250000D02*
X149710000Y-108250000D01*
X150010000Y-107650000D02*
X150010000Y-108250000D01*
X149710000Y-107650000D02*
X150010000Y-107650000D01*
%TO.C,C10*%
X118840000Y-135890000D02*
G75*
G03*
X118840000Y-135890000I-2000000J0D01*
G01*
X118990000Y-138040000D02*
X114690000Y-138040000D01*
X118990000Y-134740000D02*
X118990000Y-138040000D01*
X114690000Y-134740000D02*
X114690000Y-138040000D01*
X117990000Y-133740000D02*
X115690000Y-133740000D01*
X117990000Y-133740000D02*
X118990000Y-134740000D01*
X115690000Y-133740000D02*
X114690000Y-134740000D01*
X117840000Y-134315227D02*
X117840000Y-134715227D01*
X118040000Y-134515227D02*
X117640000Y-134515227D01*
%TD*%
%TO.C,REF\u002A\u002A*%
D11*
X164917380Y-121983333D02*
X164441190Y-122316666D01*
X164917380Y-122554761D02*
X163917380Y-122554761D01*
X163917380Y-122173809D01*
X163965000Y-122078571D01*
X164012619Y-122030952D01*
X164107857Y-121983333D01*
X164250714Y-121983333D01*
X164345952Y-122030952D01*
X164393571Y-122078571D01*
X164441190Y-122173809D01*
X164441190Y-122554761D01*
X164393571Y-121554761D02*
X164393571Y-121221428D01*
X164917380Y-121078571D02*
X164917380Y-121554761D01*
X163917380Y-121554761D01*
X163917380Y-121078571D01*
X164393571Y-120316666D02*
X164393571Y-120650000D01*
X164917380Y-120650000D02*
X163917380Y-120650000D01*
X163917380Y-120173809D01*
X163917380Y-119650000D02*
X164155476Y-119650000D01*
X164060238Y-119888095D02*
X164155476Y-119650000D01*
X164060238Y-119411904D01*
X164345952Y-119792857D02*
X164155476Y-119650000D01*
X164345952Y-119507142D01*
X163917380Y-118888095D02*
X164155476Y-118888095D01*
X164060238Y-119126190D02*
X164155476Y-118888095D01*
X164060238Y-118650000D01*
X164345952Y-119030952D02*
X164155476Y-118888095D01*
X164345952Y-118745238D01*
X167457380Y-121983333D02*
X166981190Y-122316666D01*
X167457380Y-122554761D02*
X166457380Y-122554761D01*
X166457380Y-122173809D01*
X166505000Y-122078571D01*
X166552619Y-122030952D01*
X166647857Y-121983333D01*
X166790714Y-121983333D01*
X166885952Y-122030952D01*
X166933571Y-122078571D01*
X166981190Y-122173809D01*
X166981190Y-122554761D01*
X166933571Y-121554761D02*
X166933571Y-121221428D01*
X167457380Y-121078571D02*
X167457380Y-121554761D01*
X166457380Y-121554761D01*
X166457380Y-121078571D01*
X166933571Y-120316666D02*
X166933571Y-120650000D01*
X167457380Y-120650000D02*
X166457380Y-120650000D01*
X166457380Y-120173809D01*
X166457380Y-119650000D02*
X166695476Y-119650000D01*
X166600238Y-119888095D02*
X166695476Y-119650000D01*
X166600238Y-119411904D01*
X166885952Y-119792857D02*
X166695476Y-119650000D01*
X166885952Y-119507142D01*
X166457380Y-118888095D02*
X166695476Y-118888095D01*
X166600238Y-119126190D02*
X166695476Y-118888095D01*
X166600238Y-118650000D01*
X166885952Y-119030952D02*
X166695476Y-118888095D01*
X166885952Y-118745238D01*
%TO.C,J11*%
X167402380Y-95424523D02*
X168116666Y-95424523D01*
X168259523Y-95472142D01*
X168354761Y-95567380D01*
X168402380Y-95710238D01*
X168402380Y-95805476D01*
X168402380Y-94424523D02*
X168402380Y-94995952D01*
X168402380Y-94710238D02*
X167402380Y-94710238D01*
X167545238Y-94805476D01*
X167640476Y-94900714D01*
X167688095Y-94995952D01*
X168402380Y-93472142D02*
X168402380Y-94043571D01*
X168402380Y-93757857D02*
X167402380Y-93757857D01*
X167545238Y-93853095D01*
X167640476Y-93948333D01*
X167688095Y-94043571D01*
X167402380Y-95424523D02*
X168116666Y-95424523D01*
X168259523Y-95472142D01*
X168354761Y-95567380D01*
X168402380Y-95710238D01*
X168402380Y-95805476D01*
X168402380Y-94424523D02*
X168402380Y-94995952D01*
X168402380Y-94710238D02*
X167402380Y-94710238D01*
X167545238Y-94805476D01*
X167640476Y-94900714D01*
X167688095Y-94995952D01*
X168402380Y-93472142D02*
X168402380Y-94043571D01*
X168402380Y-93757857D02*
X167402380Y-93757857D01*
X167545238Y-93853095D01*
X167640476Y-93948333D01*
X167688095Y-94043571D01*
%TO.C,H4*%
X68358571Y-69022380D02*
X68358571Y-68022380D01*
X68691904Y-68736666D01*
X69025238Y-68022380D01*
X69025238Y-69022380D01*
X69644285Y-69022380D02*
X69549047Y-68974761D01*
X69501428Y-68927142D01*
X69453809Y-68831904D01*
X69453809Y-68546190D01*
X69501428Y-68450952D01*
X69549047Y-68403333D01*
X69644285Y-68355714D01*
X69787142Y-68355714D01*
X69882380Y-68403333D01*
X69930000Y-68450952D01*
X69977619Y-68546190D01*
X69977619Y-68831904D01*
X69930000Y-68927142D01*
X69882380Y-68974761D01*
X69787142Y-69022380D01*
X69644285Y-69022380D01*
X70834761Y-68355714D02*
X70834761Y-69022380D01*
X70406190Y-68355714D02*
X70406190Y-68879523D01*
X70453809Y-68974761D01*
X70549047Y-69022380D01*
X70691904Y-69022380D01*
X70787142Y-68974761D01*
X70834761Y-68927142D01*
X71310952Y-68355714D02*
X71310952Y-69022380D01*
X71310952Y-68450952D02*
X71358571Y-68403333D01*
X71453809Y-68355714D01*
X71596666Y-68355714D01*
X71691904Y-68403333D01*
X71739523Y-68498571D01*
X71739523Y-69022380D01*
X72072857Y-68355714D02*
X72453809Y-68355714D01*
X72215714Y-68022380D02*
X72215714Y-68879523D01*
X72263333Y-68974761D01*
X72358571Y-69022380D01*
X72453809Y-69022380D01*
X72787142Y-69022380D02*
X72787142Y-68355714D01*
X72787142Y-68022380D02*
X72739523Y-68070000D01*
X72787142Y-68117619D01*
X72834761Y-68070000D01*
X72787142Y-68022380D01*
X72787142Y-68117619D01*
X73263333Y-68355714D02*
X73263333Y-69022380D01*
X73263333Y-68450952D02*
X73310952Y-68403333D01*
X73406190Y-68355714D01*
X73549047Y-68355714D01*
X73644285Y-68403333D01*
X73691904Y-68498571D01*
X73691904Y-69022380D01*
X74596666Y-68355714D02*
X74596666Y-69165238D01*
X74549047Y-69260476D01*
X74501428Y-69308095D01*
X74406190Y-69355714D01*
X74263333Y-69355714D01*
X74168095Y-69308095D01*
X74596666Y-68974761D02*
X74501428Y-69022380D01*
X74310952Y-69022380D01*
X74215714Y-68974761D01*
X74168095Y-68927142D01*
X74120476Y-68831904D01*
X74120476Y-68546190D01*
X74168095Y-68450952D01*
X74215714Y-68403333D01*
X74310952Y-68355714D01*
X74501428Y-68355714D01*
X74596666Y-68403333D01*
X75072857Y-69022380D02*
X75072857Y-68022380D01*
X75072857Y-68498571D02*
X75644285Y-68498571D01*
X75644285Y-69022380D02*
X75644285Y-68022380D01*
X76263333Y-69022380D02*
X76168095Y-68974761D01*
X76120476Y-68927142D01*
X76072857Y-68831904D01*
X76072857Y-68546190D01*
X76120476Y-68450952D01*
X76168095Y-68403333D01*
X76263333Y-68355714D01*
X76406190Y-68355714D01*
X76501428Y-68403333D01*
X76549047Y-68450952D01*
X76596666Y-68546190D01*
X76596666Y-68831904D01*
X76549047Y-68927142D01*
X76501428Y-68974761D01*
X76406190Y-69022380D01*
X76263333Y-69022380D01*
X77168095Y-69022380D02*
X77072857Y-68974761D01*
X77025238Y-68879523D01*
X77025238Y-68022380D01*
X77930000Y-68974761D02*
X77834761Y-69022380D01*
X77644285Y-69022380D01*
X77549047Y-68974761D01*
X77501428Y-68879523D01*
X77501428Y-68498571D01*
X77549047Y-68403333D01*
X77644285Y-68355714D01*
X77834761Y-68355714D01*
X77930000Y-68403333D01*
X77977619Y-68498571D01*
X77977619Y-68593809D01*
X77501428Y-68689047D01*
X78168095Y-69117619D02*
X78930000Y-69117619D01*
X79168095Y-69022380D02*
X79168095Y-68022380D01*
X79549047Y-68022380D01*
X79644285Y-68070000D01*
X79691904Y-68117619D01*
X79739523Y-68212857D01*
X79739523Y-68355714D01*
X79691904Y-68450952D01*
X79644285Y-68498571D01*
X79549047Y-68546190D01*
X79168095Y-68546190D01*
X80596666Y-69022380D02*
X80596666Y-68498571D01*
X80549047Y-68403333D01*
X80453809Y-68355714D01*
X80263333Y-68355714D01*
X80168095Y-68403333D01*
X80596666Y-68974761D02*
X80501428Y-69022380D01*
X80263333Y-69022380D01*
X80168095Y-68974761D01*
X80120476Y-68879523D01*
X80120476Y-68784285D01*
X80168095Y-68689047D01*
X80263333Y-68641428D01*
X80501428Y-68641428D01*
X80596666Y-68593809D01*
X81501428Y-69022380D02*
X81501428Y-68022380D01*
X81501428Y-68974761D02*
X81406190Y-69022380D01*
X81215714Y-69022380D01*
X81120476Y-68974761D01*
X81072857Y-68927142D01*
X81025238Y-68831904D01*
X81025238Y-68546190D01*
X81072857Y-68450952D01*
X81120476Y-68403333D01*
X81215714Y-68355714D01*
X81406190Y-68355714D01*
X81501428Y-68403333D01*
X74468095Y-65222380D02*
X74468095Y-64222380D01*
X74468095Y-64698571D02*
X75039523Y-64698571D01*
X75039523Y-65222380D02*
X75039523Y-64222380D01*
X75944285Y-64555714D02*
X75944285Y-65222380D01*
X75706190Y-64174761D02*
X75468095Y-64889047D01*
X76087142Y-64889047D01*
%TO.C,H3*%
X164878571Y-69022380D02*
X164878571Y-68022380D01*
X165211904Y-68736666D01*
X165545238Y-68022380D01*
X165545238Y-69022380D01*
X166164285Y-69022380D02*
X166069047Y-68974761D01*
X166021428Y-68927142D01*
X165973809Y-68831904D01*
X165973809Y-68546190D01*
X166021428Y-68450952D01*
X166069047Y-68403333D01*
X166164285Y-68355714D01*
X166307142Y-68355714D01*
X166402380Y-68403333D01*
X166450000Y-68450952D01*
X166497619Y-68546190D01*
X166497619Y-68831904D01*
X166450000Y-68927142D01*
X166402380Y-68974761D01*
X166307142Y-69022380D01*
X166164285Y-69022380D01*
X167354761Y-68355714D02*
X167354761Y-69022380D01*
X166926190Y-68355714D02*
X166926190Y-68879523D01*
X166973809Y-68974761D01*
X167069047Y-69022380D01*
X167211904Y-69022380D01*
X167307142Y-68974761D01*
X167354761Y-68927142D01*
X167830952Y-68355714D02*
X167830952Y-69022380D01*
X167830952Y-68450952D02*
X167878571Y-68403333D01*
X167973809Y-68355714D01*
X168116666Y-68355714D01*
X168211904Y-68403333D01*
X168259523Y-68498571D01*
X168259523Y-69022380D01*
X168592857Y-68355714D02*
X168973809Y-68355714D01*
X168735714Y-68022380D02*
X168735714Y-68879523D01*
X168783333Y-68974761D01*
X168878571Y-69022380D01*
X168973809Y-69022380D01*
X169307142Y-69022380D02*
X169307142Y-68355714D01*
X169307142Y-68022380D02*
X169259523Y-68070000D01*
X169307142Y-68117619D01*
X169354761Y-68070000D01*
X169307142Y-68022380D01*
X169307142Y-68117619D01*
X169783333Y-68355714D02*
X169783333Y-69022380D01*
X169783333Y-68450952D02*
X169830952Y-68403333D01*
X169926190Y-68355714D01*
X170069047Y-68355714D01*
X170164285Y-68403333D01*
X170211904Y-68498571D01*
X170211904Y-69022380D01*
X171116666Y-68355714D02*
X171116666Y-69165238D01*
X171069047Y-69260476D01*
X171021428Y-69308095D01*
X170926190Y-69355714D01*
X170783333Y-69355714D01*
X170688095Y-69308095D01*
X171116666Y-68974761D02*
X171021428Y-69022380D01*
X170830952Y-69022380D01*
X170735714Y-68974761D01*
X170688095Y-68927142D01*
X170640476Y-68831904D01*
X170640476Y-68546190D01*
X170688095Y-68450952D01*
X170735714Y-68403333D01*
X170830952Y-68355714D01*
X171021428Y-68355714D01*
X171116666Y-68403333D01*
X171592857Y-69022380D02*
X171592857Y-68022380D01*
X171592857Y-68498571D02*
X172164285Y-68498571D01*
X172164285Y-69022380D02*
X172164285Y-68022380D01*
X172783333Y-69022380D02*
X172688095Y-68974761D01*
X172640476Y-68927142D01*
X172592857Y-68831904D01*
X172592857Y-68546190D01*
X172640476Y-68450952D01*
X172688095Y-68403333D01*
X172783333Y-68355714D01*
X172926190Y-68355714D01*
X173021428Y-68403333D01*
X173069047Y-68450952D01*
X173116666Y-68546190D01*
X173116666Y-68831904D01*
X173069047Y-68927142D01*
X173021428Y-68974761D01*
X172926190Y-69022380D01*
X172783333Y-69022380D01*
X173688095Y-69022380D02*
X173592857Y-68974761D01*
X173545238Y-68879523D01*
X173545238Y-68022380D01*
X174450000Y-68974761D02*
X174354761Y-69022380D01*
X174164285Y-69022380D01*
X174069047Y-68974761D01*
X174021428Y-68879523D01*
X174021428Y-68498571D01*
X174069047Y-68403333D01*
X174164285Y-68355714D01*
X174354761Y-68355714D01*
X174450000Y-68403333D01*
X174497619Y-68498571D01*
X174497619Y-68593809D01*
X174021428Y-68689047D01*
X174688095Y-69117619D02*
X175450000Y-69117619D01*
X175688095Y-69022380D02*
X175688095Y-68022380D01*
X176069047Y-68022380D01*
X176164285Y-68070000D01*
X176211904Y-68117619D01*
X176259523Y-68212857D01*
X176259523Y-68355714D01*
X176211904Y-68450952D01*
X176164285Y-68498571D01*
X176069047Y-68546190D01*
X175688095Y-68546190D01*
X177116666Y-69022380D02*
X177116666Y-68498571D01*
X177069047Y-68403333D01*
X176973809Y-68355714D01*
X176783333Y-68355714D01*
X176688095Y-68403333D01*
X177116666Y-68974761D02*
X177021428Y-69022380D01*
X176783333Y-69022380D01*
X176688095Y-68974761D01*
X176640476Y-68879523D01*
X176640476Y-68784285D01*
X176688095Y-68689047D01*
X176783333Y-68641428D01*
X177021428Y-68641428D01*
X177116666Y-68593809D01*
X178021428Y-69022380D02*
X178021428Y-68022380D01*
X178021428Y-68974761D02*
X177926190Y-69022380D01*
X177735714Y-69022380D01*
X177640476Y-68974761D01*
X177592857Y-68927142D01*
X177545238Y-68831904D01*
X177545238Y-68546190D01*
X177592857Y-68450952D01*
X177640476Y-68403333D01*
X177735714Y-68355714D01*
X177926190Y-68355714D01*
X178021428Y-68403333D01*
X170988095Y-65222380D02*
X170988095Y-64222380D01*
X170988095Y-64698571D02*
X171559523Y-64698571D01*
X171559523Y-65222380D02*
X171559523Y-64222380D01*
X171940476Y-64222380D02*
X172559523Y-64222380D01*
X172226190Y-64603333D01*
X172369047Y-64603333D01*
X172464285Y-64650952D01*
X172511904Y-64698571D01*
X172559523Y-64793809D01*
X172559523Y-65031904D01*
X172511904Y-65127142D01*
X172464285Y-65174761D01*
X172369047Y-65222380D01*
X172083333Y-65222380D01*
X171988095Y-65174761D01*
X171940476Y-65127142D01*
%TO.C,H2*%
X164878571Y-138872380D02*
X164878571Y-137872380D01*
X165211904Y-138586666D01*
X165545238Y-137872380D01*
X165545238Y-138872380D01*
X166164285Y-138872380D02*
X166069047Y-138824761D01*
X166021428Y-138777142D01*
X165973809Y-138681904D01*
X165973809Y-138396190D01*
X166021428Y-138300952D01*
X166069047Y-138253333D01*
X166164285Y-138205714D01*
X166307142Y-138205714D01*
X166402380Y-138253333D01*
X166450000Y-138300952D01*
X166497619Y-138396190D01*
X166497619Y-138681904D01*
X166450000Y-138777142D01*
X166402380Y-138824761D01*
X166307142Y-138872380D01*
X166164285Y-138872380D01*
X167354761Y-138205714D02*
X167354761Y-138872380D01*
X166926190Y-138205714D02*
X166926190Y-138729523D01*
X166973809Y-138824761D01*
X167069047Y-138872380D01*
X167211904Y-138872380D01*
X167307142Y-138824761D01*
X167354761Y-138777142D01*
X167830952Y-138205714D02*
X167830952Y-138872380D01*
X167830952Y-138300952D02*
X167878571Y-138253333D01*
X167973809Y-138205714D01*
X168116666Y-138205714D01*
X168211904Y-138253333D01*
X168259523Y-138348571D01*
X168259523Y-138872380D01*
X168592857Y-138205714D02*
X168973809Y-138205714D01*
X168735714Y-137872380D02*
X168735714Y-138729523D01*
X168783333Y-138824761D01*
X168878571Y-138872380D01*
X168973809Y-138872380D01*
X169307142Y-138872380D02*
X169307142Y-138205714D01*
X169307142Y-137872380D02*
X169259523Y-137920000D01*
X169307142Y-137967619D01*
X169354761Y-137920000D01*
X169307142Y-137872380D01*
X169307142Y-137967619D01*
X169783333Y-138205714D02*
X169783333Y-138872380D01*
X169783333Y-138300952D02*
X169830952Y-138253333D01*
X169926190Y-138205714D01*
X170069047Y-138205714D01*
X170164285Y-138253333D01*
X170211904Y-138348571D01*
X170211904Y-138872380D01*
X171116666Y-138205714D02*
X171116666Y-139015238D01*
X171069047Y-139110476D01*
X171021428Y-139158095D01*
X170926190Y-139205714D01*
X170783333Y-139205714D01*
X170688095Y-139158095D01*
X171116666Y-138824761D02*
X171021428Y-138872380D01*
X170830952Y-138872380D01*
X170735714Y-138824761D01*
X170688095Y-138777142D01*
X170640476Y-138681904D01*
X170640476Y-138396190D01*
X170688095Y-138300952D01*
X170735714Y-138253333D01*
X170830952Y-138205714D01*
X171021428Y-138205714D01*
X171116666Y-138253333D01*
X171592857Y-138872380D02*
X171592857Y-137872380D01*
X171592857Y-138348571D02*
X172164285Y-138348571D01*
X172164285Y-138872380D02*
X172164285Y-137872380D01*
X172783333Y-138872380D02*
X172688095Y-138824761D01*
X172640476Y-138777142D01*
X172592857Y-138681904D01*
X172592857Y-138396190D01*
X172640476Y-138300952D01*
X172688095Y-138253333D01*
X172783333Y-138205714D01*
X172926190Y-138205714D01*
X173021428Y-138253333D01*
X173069047Y-138300952D01*
X173116666Y-138396190D01*
X173116666Y-138681904D01*
X173069047Y-138777142D01*
X173021428Y-138824761D01*
X172926190Y-138872380D01*
X172783333Y-138872380D01*
X173688095Y-138872380D02*
X173592857Y-138824761D01*
X173545238Y-138729523D01*
X173545238Y-137872380D01*
X174450000Y-138824761D02*
X174354761Y-138872380D01*
X174164285Y-138872380D01*
X174069047Y-138824761D01*
X174021428Y-138729523D01*
X174021428Y-138348571D01*
X174069047Y-138253333D01*
X174164285Y-138205714D01*
X174354761Y-138205714D01*
X174450000Y-138253333D01*
X174497619Y-138348571D01*
X174497619Y-138443809D01*
X174021428Y-138539047D01*
X174688095Y-138967619D02*
X175450000Y-138967619D01*
X175688095Y-138872380D02*
X175688095Y-137872380D01*
X176069047Y-137872380D01*
X176164285Y-137920000D01*
X176211904Y-137967619D01*
X176259523Y-138062857D01*
X176259523Y-138205714D01*
X176211904Y-138300952D01*
X176164285Y-138348571D01*
X176069047Y-138396190D01*
X175688095Y-138396190D01*
X177116666Y-138872380D02*
X177116666Y-138348571D01*
X177069047Y-138253333D01*
X176973809Y-138205714D01*
X176783333Y-138205714D01*
X176688095Y-138253333D01*
X177116666Y-138824761D02*
X177021428Y-138872380D01*
X176783333Y-138872380D01*
X176688095Y-138824761D01*
X176640476Y-138729523D01*
X176640476Y-138634285D01*
X176688095Y-138539047D01*
X176783333Y-138491428D01*
X177021428Y-138491428D01*
X177116666Y-138443809D01*
X178021428Y-138872380D02*
X178021428Y-137872380D01*
X178021428Y-138824761D02*
X177926190Y-138872380D01*
X177735714Y-138872380D01*
X177640476Y-138824761D01*
X177592857Y-138777142D01*
X177545238Y-138681904D01*
X177545238Y-138396190D01*
X177592857Y-138300952D01*
X177640476Y-138253333D01*
X177735714Y-138205714D01*
X177926190Y-138205714D01*
X178021428Y-138253333D01*
X170988095Y-135072380D02*
X170988095Y-134072380D01*
X170988095Y-134548571D02*
X171559523Y-134548571D01*
X171559523Y-135072380D02*
X171559523Y-134072380D01*
X171988095Y-134167619D02*
X172035714Y-134120000D01*
X172130952Y-134072380D01*
X172369047Y-134072380D01*
X172464285Y-134120000D01*
X172511904Y-134167619D01*
X172559523Y-134262857D01*
X172559523Y-134358095D01*
X172511904Y-134500952D01*
X171940476Y-135072380D01*
X172559523Y-135072380D01*
%TO.C,H1*%
X68358571Y-138872380D02*
X68358571Y-137872380D01*
X68691904Y-138586666D01*
X69025238Y-137872380D01*
X69025238Y-138872380D01*
X69644285Y-138872380D02*
X69549047Y-138824761D01*
X69501428Y-138777142D01*
X69453809Y-138681904D01*
X69453809Y-138396190D01*
X69501428Y-138300952D01*
X69549047Y-138253333D01*
X69644285Y-138205714D01*
X69787142Y-138205714D01*
X69882380Y-138253333D01*
X69930000Y-138300952D01*
X69977619Y-138396190D01*
X69977619Y-138681904D01*
X69930000Y-138777142D01*
X69882380Y-138824761D01*
X69787142Y-138872380D01*
X69644285Y-138872380D01*
X70834761Y-138205714D02*
X70834761Y-138872380D01*
X70406190Y-138205714D02*
X70406190Y-138729523D01*
X70453809Y-138824761D01*
X70549047Y-138872380D01*
X70691904Y-138872380D01*
X70787142Y-138824761D01*
X70834761Y-138777142D01*
X71310952Y-138205714D02*
X71310952Y-138872380D01*
X71310952Y-138300952D02*
X71358571Y-138253333D01*
X71453809Y-138205714D01*
X71596666Y-138205714D01*
X71691904Y-138253333D01*
X71739523Y-138348571D01*
X71739523Y-138872380D01*
X72072857Y-138205714D02*
X72453809Y-138205714D01*
X72215714Y-137872380D02*
X72215714Y-138729523D01*
X72263333Y-138824761D01*
X72358571Y-138872380D01*
X72453809Y-138872380D01*
X72787142Y-138872380D02*
X72787142Y-138205714D01*
X72787142Y-137872380D02*
X72739523Y-137920000D01*
X72787142Y-137967619D01*
X72834761Y-137920000D01*
X72787142Y-137872380D01*
X72787142Y-137967619D01*
X73263333Y-138205714D02*
X73263333Y-138872380D01*
X73263333Y-138300952D02*
X73310952Y-138253333D01*
X73406190Y-138205714D01*
X73549047Y-138205714D01*
X73644285Y-138253333D01*
X73691904Y-138348571D01*
X73691904Y-138872380D01*
X74596666Y-138205714D02*
X74596666Y-139015238D01*
X74549047Y-139110476D01*
X74501428Y-139158095D01*
X74406190Y-139205714D01*
X74263333Y-139205714D01*
X74168095Y-139158095D01*
X74596666Y-138824761D02*
X74501428Y-138872380D01*
X74310952Y-138872380D01*
X74215714Y-138824761D01*
X74168095Y-138777142D01*
X74120476Y-138681904D01*
X74120476Y-138396190D01*
X74168095Y-138300952D01*
X74215714Y-138253333D01*
X74310952Y-138205714D01*
X74501428Y-138205714D01*
X74596666Y-138253333D01*
X75072857Y-138872380D02*
X75072857Y-137872380D01*
X75072857Y-138348571D02*
X75644285Y-138348571D01*
X75644285Y-138872380D02*
X75644285Y-137872380D01*
X76263333Y-138872380D02*
X76168095Y-138824761D01*
X76120476Y-138777142D01*
X76072857Y-138681904D01*
X76072857Y-138396190D01*
X76120476Y-138300952D01*
X76168095Y-138253333D01*
X76263333Y-138205714D01*
X76406190Y-138205714D01*
X76501428Y-138253333D01*
X76549047Y-138300952D01*
X76596666Y-138396190D01*
X76596666Y-138681904D01*
X76549047Y-138777142D01*
X76501428Y-138824761D01*
X76406190Y-138872380D01*
X76263333Y-138872380D01*
X77168095Y-138872380D02*
X77072857Y-138824761D01*
X77025238Y-138729523D01*
X77025238Y-137872380D01*
X77930000Y-138824761D02*
X77834761Y-138872380D01*
X77644285Y-138872380D01*
X77549047Y-138824761D01*
X77501428Y-138729523D01*
X77501428Y-138348571D01*
X77549047Y-138253333D01*
X77644285Y-138205714D01*
X77834761Y-138205714D01*
X77930000Y-138253333D01*
X77977619Y-138348571D01*
X77977619Y-138443809D01*
X77501428Y-138539047D01*
X78168095Y-138967619D02*
X78930000Y-138967619D01*
X79168095Y-138872380D02*
X79168095Y-137872380D01*
X79549047Y-137872380D01*
X79644285Y-137920000D01*
X79691904Y-137967619D01*
X79739523Y-138062857D01*
X79739523Y-138205714D01*
X79691904Y-138300952D01*
X79644285Y-138348571D01*
X79549047Y-138396190D01*
X79168095Y-138396190D01*
X80596666Y-138872380D02*
X80596666Y-138348571D01*
X80549047Y-138253333D01*
X80453809Y-138205714D01*
X80263333Y-138205714D01*
X80168095Y-138253333D01*
X80596666Y-138824761D02*
X80501428Y-138872380D01*
X80263333Y-138872380D01*
X80168095Y-138824761D01*
X80120476Y-138729523D01*
X80120476Y-138634285D01*
X80168095Y-138539047D01*
X80263333Y-138491428D01*
X80501428Y-138491428D01*
X80596666Y-138443809D01*
X81501428Y-138872380D02*
X81501428Y-137872380D01*
X81501428Y-138824761D02*
X81406190Y-138872380D01*
X81215714Y-138872380D01*
X81120476Y-138824761D01*
X81072857Y-138777142D01*
X81025238Y-138681904D01*
X81025238Y-138396190D01*
X81072857Y-138300952D01*
X81120476Y-138253333D01*
X81215714Y-138205714D01*
X81406190Y-138205714D01*
X81501428Y-138253333D01*
X74468095Y-135072380D02*
X74468095Y-134072380D01*
X74468095Y-134548571D02*
X75039523Y-134548571D01*
X75039523Y-135072380D02*
X75039523Y-134072380D01*
X76039523Y-135072380D02*
X75468095Y-135072380D01*
X75753809Y-135072380D02*
X75753809Y-134072380D01*
X75658571Y-134215238D01*
X75563333Y-134310476D01*
X75468095Y-134358095D01*
%TO.C,U6*%
X140899047Y-113047380D02*
X140899047Y-112047380D01*
X141232380Y-112761666D01*
X141565714Y-112047380D01*
X141565714Y-113047380D01*
X142041904Y-113047380D02*
X142041904Y-112047380D01*
X142422857Y-112047380D01*
X142518095Y-112095000D01*
X142565714Y-112142619D01*
X142613333Y-112237857D01*
X142613333Y-112380714D01*
X142565714Y-112475952D01*
X142518095Y-112523571D01*
X142422857Y-112571190D01*
X142041904Y-112571190D01*
X143041904Y-112047380D02*
X143041904Y-112856904D01*
X143089523Y-112952142D01*
X143137142Y-112999761D01*
X143232380Y-113047380D01*
X143422857Y-113047380D01*
X143518095Y-112999761D01*
X143565714Y-112952142D01*
X143613333Y-112856904D01*
X143613333Y-112047380D01*
X144089523Y-112666428D02*
X144851428Y-112666428D01*
X145756190Y-112047380D02*
X145565714Y-112047380D01*
X145470476Y-112095000D01*
X145422857Y-112142619D01*
X145327619Y-112285476D01*
X145280000Y-112475952D01*
X145280000Y-112856904D01*
X145327619Y-112952142D01*
X145375238Y-112999761D01*
X145470476Y-113047380D01*
X145660952Y-113047380D01*
X145756190Y-112999761D01*
X145803809Y-112952142D01*
X145851428Y-112856904D01*
X145851428Y-112618809D01*
X145803809Y-112523571D01*
X145756190Y-112475952D01*
X145660952Y-112428333D01*
X145470476Y-112428333D01*
X145375238Y-112475952D01*
X145327619Y-112523571D01*
X145280000Y-112618809D01*
X146470476Y-112047380D02*
X146565714Y-112047380D01*
X146660952Y-112095000D01*
X146708571Y-112142619D01*
X146756190Y-112237857D01*
X146803809Y-112428333D01*
X146803809Y-112666428D01*
X146756190Y-112856904D01*
X146708571Y-112952142D01*
X146660952Y-112999761D01*
X146565714Y-113047380D01*
X146470476Y-113047380D01*
X146375238Y-112999761D01*
X146327619Y-112952142D01*
X146280000Y-112856904D01*
X146232380Y-112666428D01*
X146232380Y-112428333D01*
X146280000Y-112237857D01*
X146327619Y-112142619D01*
X146375238Y-112095000D01*
X146470476Y-112047380D01*
X147708571Y-112047380D02*
X147232380Y-112047380D01*
X147184761Y-112523571D01*
X147232380Y-112475952D01*
X147327619Y-112428333D01*
X147565714Y-112428333D01*
X147660952Y-112475952D01*
X147708571Y-112523571D01*
X147756190Y-112618809D01*
X147756190Y-112856904D01*
X147708571Y-112952142D01*
X147660952Y-112999761D01*
X147565714Y-113047380D01*
X147327619Y-113047380D01*
X147232380Y-112999761D01*
X147184761Y-112952142D01*
X148375238Y-112047380D02*
X148470476Y-112047380D01*
X148565714Y-112095000D01*
X148613333Y-112142619D01*
X148660952Y-112237857D01*
X148708571Y-112428333D01*
X148708571Y-112666428D01*
X148660952Y-112856904D01*
X148613333Y-112952142D01*
X148565714Y-112999761D01*
X148470476Y-113047380D01*
X148375238Y-113047380D01*
X148280000Y-112999761D01*
X148232380Y-112952142D01*
X148184761Y-112856904D01*
X148137142Y-112666428D01*
X148137142Y-112428333D01*
X148184761Y-112237857D01*
X148232380Y-112142619D01*
X148280000Y-112095000D01*
X148375238Y-112047380D01*
X144018095Y-108672380D02*
X144018095Y-109481904D01*
X144065714Y-109577142D01*
X144113333Y-109624761D01*
X144208571Y-109672380D01*
X144399047Y-109672380D01*
X144494285Y-109624761D01*
X144541904Y-109577142D01*
X144589523Y-109481904D01*
X144589523Y-108672380D01*
X145494285Y-108672380D02*
X145303809Y-108672380D01*
X145208571Y-108720000D01*
X145160952Y-108767619D01*
X145065714Y-108910476D01*
X145018095Y-109100952D01*
X145018095Y-109481904D01*
X145065714Y-109577142D01*
X145113333Y-109624761D01*
X145208571Y-109672380D01*
X145399047Y-109672380D01*
X145494285Y-109624761D01*
X145541904Y-109577142D01*
X145589523Y-109481904D01*
X145589523Y-109243809D01*
X145541904Y-109148571D01*
X145494285Y-109100952D01*
X145399047Y-109053333D01*
X145208571Y-109053333D01*
X145113333Y-109100952D01*
X145065714Y-109148571D01*
X145018095Y-109243809D01*
%TO.C,U5*%
X147828095Y-95172380D02*
X147828095Y-95981904D01*
X147875714Y-96077142D01*
X147923333Y-96124761D01*
X148018571Y-96172380D01*
X148209047Y-96172380D01*
X148304285Y-96124761D01*
X148351904Y-96077142D01*
X148399523Y-95981904D01*
X148399523Y-95172380D01*
X149351904Y-95172380D02*
X148875714Y-95172380D01*
X148828095Y-95648571D01*
X148875714Y-95600952D01*
X148970952Y-95553333D01*
X149209047Y-95553333D01*
X149304285Y-95600952D01*
X149351904Y-95648571D01*
X149399523Y-95743809D01*
X149399523Y-95981904D01*
X149351904Y-96077142D01*
X149304285Y-96124761D01*
X149209047Y-96172380D01*
X148970952Y-96172380D01*
X148875714Y-96124761D01*
X148828095Y-96077142D01*
%TO.C,U4*%
X147828095Y-65182380D02*
X147828095Y-65991904D01*
X147875714Y-66087142D01*
X147923333Y-66134761D01*
X148018571Y-66182380D01*
X148209047Y-66182380D01*
X148304285Y-66134761D01*
X148351904Y-66087142D01*
X148399523Y-65991904D01*
X148399523Y-65182380D01*
X149304285Y-65515714D02*
X149304285Y-66182380D01*
X149066190Y-65134761D02*
X148828095Y-65849047D01*
X149447142Y-65849047D01*
X147828095Y-74382380D02*
X147828095Y-75191904D01*
X147875714Y-75287142D01*
X147923333Y-75334761D01*
X148018571Y-75382380D01*
X148209047Y-75382380D01*
X148304285Y-75334761D01*
X148351904Y-75287142D01*
X148399523Y-75191904D01*
X148399523Y-74382380D01*
X149304285Y-74715714D02*
X149304285Y-75382380D01*
X149066190Y-74334761D02*
X148828095Y-75049047D01*
X149447142Y-75049047D01*
%TO.C,U3*%
X85178095Y-133442380D02*
X85178095Y-132442380D01*
X85511428Y-133156666D01*
X85844761Y-132442380D01*
X85844761Y-133442380D01*
X86320952Y-133442380D02*
X86320952Y-132442380D01*
X87368571Y-133347142D02*
X87320952Y-133394761D01*
X87178095Y-133442380D01*
X87082857Y-133442380D01*
X86940000Y-133394761D01*
X86844761Y-133299523D01*
X86797142Y-133204285D01*
X86749523Y-133013809D01*
X86749523Y-132870952D01*
X86797142Y-132680476D01*
X86844761Y-132585238D01*
X86940000Y-132490000D01*
X87082857Y-132442380D01*
X87178095Y-132442380D01*
X87320952Y-132490000D01*
X87368571Y-132537619D01*
X88273333Y-132442380D02*
X87797142Y-132442380D01*
X87749523Y-132918571D01*
X87797142Y-132870952D01*
X87892380Y-132823333D01*
X88130476Y-132823333D01*
X88225714Y-132870952D01*
X88273333Y-132918571D01*
X88320952Y-133013809D01*
X88320952Y-133251904D01*
X88273333Y-133347142D01*
X88225714Y-133394761D01*
X88130476Y-133442380D01*
X87892380Y-133442380D01*
X87797142Y-133394761D01*
X87749523Y-133347142D01*
X88701904Y-132537619D02*
X88749523Y-132490000D01*
X88844761Y-132442380D01*
X89082857Y-132442380D01*
X89178095Y-132490000D01*
X89225714Y-132537619D01*
X89273333Y-132632857D01*
X89273333Y-132728095D01*
X89225714Y-132870952D01*
X88654285Y-133442380D01*
X89273333Y-133442380D01*
X90225714Y-133442380D02*
X89654285Y-133442380D01*
X89940000Y-133442380D02*
X89940000Y-132442380D01*
X89844761Y-132585238D01*
X89749523Y-132680476D01*
X89654285Y-132728095D01*
X90701904Y-133442380D02*
X90892380Y-133442380D01*
X90987619Y-133394761D01*
X91035238Y-133347142D01*
X91130476Y-133204285D01*
X91178095Y-133013809D01*
X91178095Y-132632857D01*
X91130476Y-132537619D01*
X91082857Y-132490000D01*
X90987619Y-132442380D01*
X90797142Y-132442380D01*
X90701904Y-132490000D01*
X90654285Y-132537619D01*
X90606666Y-132632857D01*
X90606666Y-132870952D01*
X90654285Y-132966190D01*
X90701904Y-133013809D01*
X90797142Y-133061428D01*
X90987619Y-133061428D01*
X91082857Y-133013809D01*
X91130476Y-132966190D01*
X91178095Y-132870952D01*
X91606666Y-133061428D02*
X92368571Y-133061428D01*
X93320952Y-132442380D02*
X92844761Y-132442380D01*
X92797142Y-132918571D01*
X92844761Y-132870952D01*
X92940000Y-132823333D01*
X93178095Y-132823333D01*
X93273333Y-132870952D01*
X93320952Y-132918571D01*
X93368571Y-133013809D01*
X93368571Y-133251904D01*
X93320952Y-133347142D01*
X93273333Y-133394761D01*
X93178095Y-133442380D01*
X92940000Y-133442380D01*
X92844761Y-133394761D01*
X92797142Y-133347142D01*
X93797142Y-133347142D02*
X93844761Y-133394761D01*
X93797142Y-133442380D01*
X93749523Y-133394761D01*
X93797142Y-133347142D01*
X93797142Y-133442380D01*
X94463809Y-132442380D02*
X94559047Y-132442380D01*
X94654285Y-132490000D01*
X94701904Y-132537619D01*
X94749523Y-132632857D01*
X94797142Y-132823333D01*
X94797142Y-133061428D01*
X94749523Y-133251904D01*
X94701904Y-133347142D01*
X94654285Y-133394761D01*
X94559047Y-133442380D01*
X94463809Y-133442380D01*
X94368571Y-133394761D01*
X94320952Y-133347142D01*
X94273333Y-133251904D01*
X94225714Y-133061428D01*
X94225714Y-132823333D01*
X94273333Y-132632857D01*
X94320952Y-132537619D01*
X94368571Y-132490000D01*
X94463809Y-132442380D01*
X95416190Y-132966190D02*
X95416190Y-133442380D01*
X95082857Y-132442380D02*
X95416190Y-132966190D01*
X95749523Y-132442380D01*
X96082857Y-133442380D02*
X96082857Y-132442380D01*
X96416190Y-133156666D01*
X96749523Y-132442380D01*
X96749523Y-133442380D01*
X97701904Y-132442380D02*
X97225714Y-132442380D01*
X97178095Y-132918571D01*
X97225714Y-132870952D01*
X97320952Y-132823333D01*
X97559047Y-132823333D01*
X97654285Y-132870952D01*
X97701904Y-132918571D01*
X97749523Y-133013809D01*
X97749523Y-133251904D01*
X97701904Y-133347142D01*
X97654285Y-133394761D01*
X97559047Y-133442380D01*
X97320952Y-133442380D01*
X97225714Y-133394761D01*
X97178095Y-133347142D01*
D12*
X91166190Y-136270952D02*
X91570952Y-136270952D01*
X91618571Y-136247142D01*
X91642380Y-136223333D01*
X91666190Y-136175714D01*
X91666190Y-136080476D01*
X91642380Y-136032857D01*
X91618571Y-136009047D01*
X91570952Y-135985238D01*
X91166190Y-135985238D01*
X91166190Y-135794761D02*
X91166190Y-135485238D01*
X91356666Y-135651904D01*
X91356666Y-135580476D01*
X91380476Y-135532857D01*
X91404285Y-135509047D01*
X91451904Y-135485238D01*
X91570952Y-135485238D01*
X91618571Y-135509047D01*
X91642380Y-135532857D01*
X91666190Y-135580476D01*
X91666190Y-135723333D01*
X91642380Y-135770952D01*
X91618571Y-135794761D01*
%TO.C,U2*%
D11*
X97878095Y-133442380D02*
X97878095Y-132442380D01*
X98211428Y-133156666D01*
X98544761Y-132442380D01*
X98544761Y-133442380D01*
X99020952Y-133442380D02*
X99020952Y-132442380D01*
X100068571Y-133347142D02*
X100020952Y-133394761D01*
X99878095Y-133442380D01*
X99782857Y-133442380D01*
X99640000Y-133394761D01*
X99544761Y-133299523D01*
X99497142Y-133204285D01*
X99449523Y-133013809D01*
X99449523Y-132870952D01*
X99497142Y-132680476D01*
X99544761Y-132585238D01*
X99640000Y-132490000D01*
X99782857Y-132442380D01*
X99878095Y-132442380D01*
X100020952Y-132490000D01*
X100068571Y-132537619D01*
X100973333Y-132442380D02*
X100497142Y-132442380D01*
X100449523Y-132918571D01*
X100497142Y-132870952D01*
X100592380Y-132823333D01*
X100830476Y-132823333D01*
X100925714Y-132870952D01*
X100973333Y-132918571D01*
X101020952Y-133013809D01*
X101020952Y-133251904D01*
X100973333Y-133347142D01*
X100925714Y-133394761D01*
X100830476Y-133442380D01*
X100592380Y-133442380D01*
X100497142Y-133394761D01*
X100449523Y-133347142D01*
X101401904Y-132537619D02*
X101449523Y-132490000D01*
X101544761Y-132442380D01*
X101782857Y-132442380D01*
X101878095Y-132490000D01*
X101925714Y-132537619D01*
X101973333Y-132632857D01*
X101973333Y-132728095D01*
X101925714Y-132870952D01*
X101354285Y-133442380D01*
X101973333Y-133442380D01*
X102925714Y-133442380D02*
X102354285Y-133442380D01*
X102640000Y-133442380D02*
X102640000Y-132442380D01*
X102544761Y-132585238D01*
X102449523Y-132680476D01*
X102354285Y-132728095D01*
X103401904Y-133442380D02*
X103592380Y-133442380D01*
X103687619Y-133394761D01*
X103735238Y-133347142D01*
X103830476Y-133204285D01*
X103878095Y-133013809D01*
X103878095Y-132632857D01*
X103830476Y-132537619D01*
X103782857Y-132490000D01*
X103687619Y-132442380D01*
X103497142Y-132442380D01*
X103401904Y-132490000D01*
X103354285Y-132537619D01*
X103306666Y-132632857D01*
X103306666Y-132870952D01*
X103354285Y-132966190D01*
X103401904Y-133013809D01*
X103497142Y-133061428D01*
X103687619Y-133061428D01*
X103782857Y-133013809D01*
X103830476Y-132966190D01*
X103878095Y-132870952D01*
X104306666Y-133061428D02*
X105068571Y-133061428D01*
X105449523Y-132442380D02*
X106068571Y-132442380D01*
X105735238Y-132823333D01*
X105878095Y-132823333D01*
X105973333Y-132870952D01*
X106020952Y-132918571D01*
X106068571Y-133013809D01*
X106068571Y-133251904D01*
X106020952Y-133347142D01*
X105973333Y-133394761D01*
X105878095Y-133442380D01*
X105592380Y-133442380D01*
X105497142Y-133394761D01*
X105449523Y-133347142D01*
X106497142Y-133347142D02*
X106544761Y-133394761D01*
X106497142Y-133442380D01*
X106449523Y-133394761D01*
X106497142Y-133347142D01*
X106497142Y-133442380D01*
X106878095Y-132442380D02*
X107497142Y-132442380D01*
X107163809Y-132823333D01*
X107306666Y-132823333D01*
X107401904Y-132870952D01*
X107449523Y-132918571D01*
X107497142Y-133013809D01*
X107497142Y-133251904D01*
X107449523Y-133347142D01*
X107401904Y-133394761D01*
X107306666Y-133442380D01*
X107020952Y-133442380D01*
X106925714Y-133394761D01*
X106878095Y-133347142D01*
X108116190Y-132966190D02*
X108116190Y-133442380D01*
X107782857Y-132442380D02*
X108116190Y-132966190D01*
X108449523Y-132442380D01*
X108782857Y-133442380D02*
X108782857Y-132442380D01*
X109116190Y-133156666D01*
X109449523Y-132442380D01*
X109449523Y-133442380D01*
X110401904Y-132442380D02*
X109925714Y-132442380D01*
X109878095Y-132918571D01*
X109925714Y-132870952D01*
X110020952Y-132823333D01*
X110259047Y-132823333D01*
X110354285Y-132870952D01*
X110401904Y-132918571D01*
X110449523Y-133013809D01*
X110449523Y-133251904D01*
X110401904Y-133347142D01*
X110354285Y-133394761D01*
X110259047Y-133442380D01*
X110020952Y-133442380D01*
X109925714Y-133394761D01*
X109878095Y-133347142D01*
D12*
X103866190Y-136270952D02*
X104270952Y-136270952D01*
X104318571Y-136247142D01*
X104342380Y-136223333D01*
X104366190Y-136175714D01*
X104366190Y-136080476D01*
X104342380Y-136032857D01*
X104318571Y-136009047D01*
X104270952Y-135985238D01*
X103866190Y-135985238D01*
X103913809Y-135770952D02*
X103890000Y-135747142D01*
X103866190Y-135699523D01*
X103866190Y-135580476D01*
X103890000Y-135532857D01*
X103913809Y-135509047D01*
X103961428Y-135485238D01*
X104009047Y-135485238D01*
X104080476Y-135509047D01*
X104366190Y-135794761D01*
X104366190Y-135485238D01*
%TO.C,U1*%
D11*
X123891666Y-86817380D02*
X123558333Y-86341190D01*
X123320238Y-86817380D02*
X123320238Y-85817380D01*
X123701190Y-85817380D01*
X123796428Y-85865000D01*
X123844047Y-85912619D01*
X123891666Y-86007857D01*
X123891666Y-86150714D01*
X123844047Y-86245952D01*
X123796428Y-86293571D01*
X123701190Y-86341190D01*
X123320238Y-86341190D01*
X124320238Y-86293571D02*
X124653571Y-86293571D01*
X124796428Y-86817380D02*
X124320238Y-86817380D01*
X124320238Y-85817380D01*
X124796428Y-85817380D01*
X125558333Y-86293571D02*
X125225000Y-86293571D01*
X125225000Y-86817380D02*
X125225000Y-85817380D01*
X125701190Y-85817380D01*
X126225000Y-85817380D02*
X126225000Y-86055476D01*
X125986904Y-85960238D02*
X126225000Y-86055476D01*
X126463095Y-85960238D01*
X126082142Y-86245952D02*
X126225000Y-86055476D01*
X126367857Y-86245952D01*
X126986904Y-85817380D02*
X126986904Y-86055476D01*
X126748809Y-85960238D02*
X126986904Y-86055476D01*
X127225000Y-85960238D01*
X126844047Y-86245952D02*
X126986904Y-86055476D01*
X127129761Y-86245952D01*
%TO.C,SW2*%
X126714761Y-109283333D02*
X126762380Y-109140476D01*
X126762380Y-108902380D01*
X126714761Y-108807142D01*
X126667142Y-108759523D01*
X126571904Y-108711904D01*
X126476666Y-108711904D01*
X126381428Y-108759523D01*
X126333809Y-108807142D01*
X126286190Y-108902380D01*
X126238571Y-109092857D01*
X126190952Y-109188095D01*
X126143333Y-109235714D01*
X126048095Y-109283333D01*
X125952857Y-109283333D01*
X125857619Y-109235714D01*
X125810000Y-109188095D01*
X125762380Y-109092857D01*
X125762380Y-108854761D01*
X125810000Y-108711904D01*
X125762380Y-108378571D02*
X126762380Y-108140476D01*
X126048095Y-107950000D01*
X126762380Y-107759523D01*
X125762380Y-107521428D01*
X125857619Y-107188095D02*
X125810000Y-107140476D01*
X125762380Y-107045238D01*
X125762380Y-106807142D01*
X125810000Y-106711904D01*
X125857619Y-106664285D01*
X125952857Y-106616666D01*
X126048095Y-106616666D01*
X126190952Y-106664285D01*
X126762380Y-107235714D01*
X126762380Y-106616666D01*
X135714761Y-110997619D02*
X135762380Y-110854761D01*
X135762380Y-110616666D01*
X135714761Y-110521428D01*
X135667142Y-110473809D01*
X135571904Y-110426190D01*
X135476666Y-110426190D01*
X135381428Y-110473809D01*
X135333809Y-110521428D01*
X135286190Y-110616666D01*
X135238571Y-110807142D01*
X135190952Y-110902380D01*
X135143333Y-110950000D01*
X135048095Y-110997619D01*
X134952857Y-110997619D01*
X134857619Y-110950000D01*
X134810000Y-110902380D01*
X134762380Y-110807142D01*
X134762380Y-110569047D01*
X134810000Y-110426190D01*
X134762380Y-110092857D02*
X135762380Y-109854761D01*
X135048095Y-109664285D01*
X135762380Y-109473809D01*
X134762380Y-109235714D01*
X135857619Y-109092857D02*
X135857619Y-108330952D01*
X135762380Y-108092857D02*
X134762380Y-108092857D01*
X134762380Y-107711904D01*
X134810000Y-107616666D01*
X134857619Y-107569047D01*
X134952857Y-107521428D01*
X135095714Y-107521428D01*
X135190952Y-107569047D01*
X135238571Y-107616666D01*
X135286190Y-107711904D01*
X135286190Y-108092857D01*
X135095714Y-106664285D02*
X135762380Y-106664285D01*
X135095714Y-107092857D02*
X135619523Y-107092857D01*
X135714761Y-107045238D01*
X135762380Y-106950000D01*
X135762380Y-106807142D01*
X135714761Y-106711904D01*
X135667142Y-106664285D01*
X135714761Y-106235714D02*
X135762380Y-106140476D01*
X135762380Y-105950000D01*
X135714761Y-105854761D01*
X135619523Y-105807142D01*
X135571904Y-105807142D01*
X135476666Y-105854761D01*
X135429047Y-105950000D01*
X135429047Y-106092857D01*
X135381428Y-106188095D01*
X135286190Y-106235714D01*
X135238571Y-106235714D01*
X135143333Y-106188095D01*
X135095714Y-106092857D01*
X135095714Y-105950000D01*
X135143333Y-105854761D01*
X135762380Y-105378571D02*
X134762380Y-105378571D01*
X135762380Y-104950000D02*
X135238571Y-104950000D01*
X135143333Y-104997619D01*
X135095714Y-105092857D01*
X135095714Y-105235714D01*
X135143333Y-105330952D01*
X135190952Y-105378571D01*
X126714761Y-109283333D02*
X126762380Y-109140476D01*
X126762380Y-108902380D01*
X126714761Y-108807142D01*
X126667142Y-108759523D01*
X126571904Y-108711904D01*
X126476666Y-108711904D01*
X126381428Y-108759523D01*
X126333809Y-108807142D01*
X126286190Y-108902380D01*
X126238571Y-109092857D01*
X126190952Y-109188095D01*
X126143333Y-109235714D01*
X126048095Y-109283333D01*
X125952857Y-109283333D01*
X125857619Y-109235714D01*
X125810000Y-109188095D01*
X125762380Y-109092857D01*
X125762380Y-108854761D01*
X125810000Y-108711904D01*
X125762380Y-108378571D02*
X126762380Y-108140476D01*
X126048095Y-107950000D01*
X126762380Y-107759523D01*
X125762380Y-107521428D01*
X125857619Y-107188095D02*
X125810000Y-107140476D01*
X125762380Y-107045238D01*
X125762380Y-106807142D01*
X125810000Y-106711904D01*
X125857619Y-106664285D01*
X125952857Y-106616666D01*
X126048095Y-106616666D01*
X126190952Y-106664285D01*
X126762380Y-107235714D01*
X126762380Y-106616666D01*
%TO.C,SW1*%
X116554761Y-109283333D02*
X116602380Y-109140476D01*
X116602380Y-108902380D01*
X116554761Y-108807142D01*
X116507142Y-108759523D01*
X116411904Y-108711904D01*
X116316666Y-108711904D01*
X116221428Y-108759523D01*
X116173809Y-108807142D01*
X116126190Y-108902380D01*
X116078571Y-109092857D01*
X116030952Y-109188095D01*
X115983333Y-109235714D01*
X115888095Y-109283333D01*
X115792857Y-109283333D01*
X115697619Y-109235714D01*
X115650000Y-109188095D01*
X115602380Y-109092857D01*
X115602380Y-108854761D01*
X115650000Y-108711904D01*
X115602380Y-108378571D02*
X116602380Y-108140476D01*
X115888095Y-107950000D01*
X116602380Y-107759523D01*
X115602380Y-107521428D01*
X116602380Y-106616666D02*
X116602380Y-107188095D01*
X116602380Y-106902380D02*
X115602380Y-106902380D01*
X115745238Y-106997619D01*
X115840476Y-107092857D01*
X115888095Y-107188095D01*
X125554761Y-110997619D02*
X125602380Y-110854761D01*
X125602380Y-110616666D01*
X125554761Y-110521428D01*
X125507142Y-110473809D01*
X125411904Y-110426190D01*
X125316666Y-110426190D01*
X125221428Y-110473809D01*
X125173809Y-110521428D01*
X125126190Y-110616666D01*
X125078571Y-110807142D01*
X125030952Y-110902380D01*
X124983333Y-110950000D01*
X124888095Y-110997619D01*
X124792857Y-110997619D01*
X124697619Y-110950000D01*
X124650000Y-110902380D01*
X124602380Y-110807142D01*
X124602380Y-110569047D01*
X124650000Y-110426190D01*
X124602380Y-110092857D02*
X125602380Y-109854761D01*
X124888095Y-109664285D01*
X125602380Y-109473809D01*
X124602380Y-109235714D01*
X125697619Y-109092857D02*
X125697619Y-108330952D01*
X125602380Y-108092857D02*
X124602380Y-108092857D01*
X124602380Y-107711904D01*
X124650000Y-107616666D01*
X124697619Y-107569047D01*
X124792857Y-107521428D01*
X124935714Y-107521428D01*
X125030952Y-107569047D01*
X125078571Y-107616666D01*
X125126190Y-107711904D01*
X125126190Y-108092857D01*
X124935714Y-106664285D02*
X125602380Y-106664285D01*
X124935714Y-107092857D02*
X125459523Y-107092857D01*
X125554761Y-107045238D01*
X125602380Y-106950000D01*
X125602380Y-106807142D01*
X125554761Y-106711904D01*
X125507142Y-106664285D01*
X125554761Y-106235714D02*
X125602380Y-106140476D01*
X125602380Y-105950000D01*
X125554761Y-105854761D01*
X125459523Y-105807142D01*
X125411904Y-105807142D01*
X125316666Y-105854761D01*
X125269047Y-105950000D01*
X125269047Y-106092857D01*
X125221428Y-106188095D01*
X125126190Y-106235714D01*
X125078571Y-106235714D01*
X124983333Y-106188095D01*
X124935714Y-106092857D01*
X124935714Y-105950000D01*
X124983333Y-105854761D01*
X125602380Y-105378571D02*
X124602380Y-105378571D01*
X125602380Y-104950000D02*
X125078571Y-104950000D01*
X124983333Y-104997619D01*
X124935714Y-105092857D01*
X124935714Y-105235714D01*
X124983333Y-105330952D01*
X125030952Y-105378571D01*
X116554761Y-109283333D02*
X116602380Y-109140476D01*
X116602380Y-108902380D01*
X116554761Y-108807142D01*
X116507142Y-108759523D01*
X116411904Y-108711904D01*
X116316666Y-108711904D01*
X116221428Y-108759523D01*
X116173809Y-108807142D01*
X116126190Y-108902380D01*
X116078571Y-109092857D01*
X116030952Y-109188095D01*
X115983333Y-109235714D01*
X115888095Y-109283333D01*
X115792857Y-109283333D01*
X115697619Y-109235714D01*
X115650000Y-109188095D01*
X115602380Y-109092857D01*
X115602380Y-108854761D01*
X115650000Y-108711904D01*
X115602380Y-108378571D02*
X116602380Y-108140476D01*
X115888095Y-107950000D01*
X116602380Y-107759523D01*
X115602380Y-107521428D01*
X116602380Y-106616666D02*
X116602380Y-107188095D01*
X116602380Y-106902380D02*
X115602380Y-106902380D01*
X115745238Y-106997619D01*
X115840476Y-107092857D01*
X115888095Y-107188095D01*
%TO.C,R4*%
X140702380Y-109386666D02*
X140226190Y-109720000D01*
X140702380Y-109958095D02*
X139702380Y-109958095D01*
X139702380Y-109577142D01*
X139750000Y-109481904D01*
X139797619Y-109434285D01*
X139892857Y-109386666D01*
X140035714Y-109386666D01*
X140130952Y-109434285D01*
X140178571Y-109481904D01*
X140226190Y-109577142D01*
X140226190Y-109958095D01*
X140035714Y-108529523D02*
X140702380Y-108529523D01*
X139654761Y-108767619D02*
X140369047Y-109005714D01*
X140369047Y-108386666D01*
D13*
X138791904Y-109353333D02*
X138410952Y-109620000D01*
X138791904Y-109810476D02*
X137991904Y-109810476D01*
X137991904Y-109505714D01*
X138030000Y-109429523D01*
X138068095Y-109391428D01*
X138144285Y-109353333D01*
X138258571Y-109353333D01*
X138334761Y-109391428D01*
X138372857Y-109429523D01*
X138410952Y-109505714D01*
X138410952Y-109810476D01*
X138258571Y-108667619D02*
X138791904Y-108667619D01*
X137953809Y-108858095D02*
X138525238Y-109048571D01*
X138525238Y-108553333D01*
%TO.C,R3*%
D11*
X151992380Y-111606666D02*
X151516190Y-111940000D01*
X151992380Y-112178095D02*
X150992380Y-112178095D01*
X150992380Y-111797142D01*
X151040000Y-111701904D01*
X151087619Y-111654285D01*
X151182857Y-111606666D01*
X151325714Y-111606666D01*
X151420952Y-111654285D01*
X151468571Y-111701904D01*
X151516190Y-111797142D01*
X151516190Y-112178095D01*
X150992380Y-111273333D02*
X150992380Y-110654285D01*
X151373333Y-110987619D01*
X151373333Y-110844761D01*
X151420952Y-110749523D01*
X151468571Y-110701904D01*
X151563809Y-110654285D01*
X151801904Y-110654285D01*
X151897142Y-110701904D01*
X151944761Y-110749523D01*
X151992380Y-110844761D01*
X151992380Y-111130476D01*
X151944761Y-111225714D01*
X151897142Y-111273333D01*
D14*
X150086190Y-111523333D02*
X149848095Y-111690000D01*
X150086190Y-111809047D02*
X149586190Y-111809047D01*
X149586190Y-111618571D01*
X149610000Y-111570952D01*
X149633809Y-111547142D01*
X149681428Y-111523333D01*
X149752857Y-111523333D01*
X149800476Y-111547142D01*
X149824285Y-111570952D01*
X149848095Y-111618571D01*
X149848095Y-111809047D01*
X149586190Y-111356666D02*
X149586190Y-111047142D01*
X149776666Y-111213809D01*
X149776666Y-111142380D01*
X149800476Y-111094761D01*
X149824285Y-111070952D01*
X149871904Y-111047142D01*
X149990952Y-111047142D01*
X150038571Y-111070952D01*
X150062380Y-111094761D01*
X150086190Y-111142380D01*
X150086190Y-111285238D01*
X150062380Y-111332857D01*
X150038571Y-111356666D01*
%TO.C,R2*%
D11*
X163282380Y-95416666D02*
X162806190Y-95750000D01*
X163282380Y-95988095D02*
X162282380Y-95988095D01*
X162282380Y-95607142D01*
X162330000Y-95511904D01*
X162377619Y-95464285D01*
X162472857Y-95416666D01*
X162615714Y-95416666D01*
X162710952Y-95464285D01*
X162758571Y-95511904D01*
X162806190Y-95607142D01*
X162806190Y-95988095D01*
X162377619Y-95035714D02*
X162330000Y-94988095D01*
X162282380Y-94892857D01*
X162282380Y-94654761D01*
X162330000Y-94559523D01*
X162377619Y-94511904D01*
X162472857Y-94464285D01*
X162568095Y-94464285D01*
X162710952Y-94511904D01*
X163282380Y-95083333D01*
X163282380Y-94464285D01*
D15*
X163323095Y-95291666D02*
X163204047Y-95375000D01*
X163323095Y-95434523D02*
X163073095Y-95434523D01*
X163073095Y-95339285D01*
X163085000Y-95315476D01*
X163096904Y-95303571D01*
X163120714Y-95291666D01*
X163156428Y-95291666D01*
X163180238Y-95303571D01*
X163192142Y-95315476D01*
X163204047Y-95339285D01*
X163204047Y-95434523D01*
X163096904Y-95196428D02*
X163085000Y-95184523D01*
X163073095Y-95160714D01*
X163073095Y-95101190D01*
X163085000Y-95077380D01*
X163096904Y-95065476D01*
X163120714Y-95053571D01*
X163144523Y-95053571D01*
X163180238Y-95065476D01*
X163323095Y-95208333D01*
X163323095Y-95053571D01*
%TO.C,R1*%
D11*
X130542380Y-128436666D02*
X130066190Y-128770000D01*
X130542380Y-129008095D02*
X129542380Y-129008095D01*
X129542380Y-128627142D01*
X129590000Y-128531904D01*
X129637619Y-128484285D01*
X129732857Y-128436666D01*
X129875714Y-128436666D01*
X129970952Y-128484285D01*
X130018571Y-128531904D01*
X130066190Y-128627142D01*
X130066190Y-129008095D01*
X130542380Y-127484285D02*
X130542380Y-128055714D01*
X130542380Y-127770000D02*
X129542380Y-127770000D01*
X129685238Y-127865238D01*
X129780476Y-127960476D01*
X129828095Y-128055714D01*
D13*
X128631904Y-128403333D02*
X128250952Y-128670000D01*
X128631904Y-128860476D02*
X127831904Y-128860476D01*
X127831904Y-128555714D01*
X127870000Y-128479523D01*
X127908095Y-128441428D01*
X127984285Y-128403333D01*
X128098571Y-128403333D01*
X128174761Y-128441428D01*
X128212857Y-128479523D01*
X128250952Y-128555714D01*
X128250952Y-128860476D01*
X128631904Y-127641428D02*
X128631904Y-128098571D01*
X128631904Y-127870000D02*
X127831904Y-127870000D01*
X127946190Y-127946190D01*
X128022380Y-128022380D01*
X128060476Y-128098571D01*
%TO.C,J10*%
D11*
X90630476Y-87292380D02*
X90630476Y-88006666D01*
X90582857Y-88149523D01*
X90487619Y-88244761D01*
X90344761Y-88292380D01*
X90249523Y-88292380D01*
X91630476Y-88292380D02*
X91059047Y-88292380D01*
X91344761Y-88292380D02*
X91344761Y-87292380D01*
X91249523Y-87435238D01*
X91154285Y-87530476D01*
X91059047Y-87578095D01*
X92249523Y-87292380D02*
X92344761Y-87292380D01*
X92440000Y-87340000D01*
X92487619Y-87387619D01*
X92535238Y-87482857D01*
X92582857Y-87673333D01*
X92582857Y-87911428D01*
X92535238Y-88101904D01*
X92487619Y-88197142D01*
X92440000Y-88244761D01*
X92344761Y-88292380D01*
X92249523Y-88292380D01*
X92154285Y-88244761D01*
X92106666Y-88197142D01*
X92059047Y-88101904D01*
X92011428Y-87911428D01*
X92011428Y-87673333D01*
X92059047Y-87482857D01*
X92106666Y-87387619D01*
X92154285Y-87340000D01*
X92249523Y-87292380D01*
X90892380Y-94789523D02*
X91606666Y-94789523D01*
X91749523Y-94837142D01*
X91844761Y-94932380D01*
X91892380Y-95075238D01*
X91892380Y-95170476D01*
X91892380Y-93789523D02*
X91892380Y-94360952D01*
X91892380Y-94075238D02*
X90892380Y-94075238D01*
X91035238Y-94170476D01*
X91130476Y-94265714D01*
X91178095Y-94360952D01*
X90892380Y-93170476D02*
X90892380Y-93075238D01*
X90940000Y-92980000D01*
X90987619Y-92932380D01*
X91082857Y-92884761D01*
X91273333Y-92837142D01*
X91511428Y-92837142D01*
X91701904Y-92884761D01*
X91797142Y-92932380D01*
X91844761Y-92980000D01*
X91892380Y-93075238D01*
X91892380Y-93170476D01*
X91844761Y-93265714D01*
X91797142Y-93313333D01*
X91701904Y-93360952D01*
X91511428Y-93408571D01*
X91273333Y-93408571D01*
X91082857Y-93360952D01*
X90987619Y-93313333D01*
X90940000Y-93265714D01*
X90892380Y-93170476D01*
%TO.C,J9*%
X86026666Y-87292380D02*
X86026666Y-88006666D01*
X85979047Y-88149523D01*
X85883809Y-88244761D01*
X85740952Y-88292380D01*
X85645714Y-88292380D01*
X86550476Y-88292380D02*
X86740952Y-88292380D01*
X86836190Y-88244761D01*
X86883809Y-88197142D01*
X86979047Y-88054285D01*
X87026666Y-87863809D01*
X87026666Y-87482857D01*
X86979047Y-87387619D01*
X86931428Y-87340000D01*
X86836190Y-87292380D01*
X86645714Y-87292380D01*
X86550476Y-87340000D01*
X86502857Y-87387619D01*
X86455238Y-87482857D01*
X86455238Y-87720952D01*
X86502857Y-87816190D01*
X86550476Y-87863809D01*
X86645714Y-87911428D01*
X86836190Y-87911428D01*
X86931428Y-87863809D01*
X86979047Y-87816190D01*
X87026666Y-87720952D01*
X85812380Y-94313333D02*
X86526666Y-94313333D01*
X86669523Y-94360952D01*
X86764761Y-94456190D01*
X86812380Y-94599047D01*
X86812380Y-94694285D01*
X86812380Y-93789523D02*
X86812380Y-93599047D01*
X86764761Y-93503809D01*
X86717142Y-93456190D01*
X86574285Y-93360952D01*
X86383809Y-93313333D01*
X86002857Y-93313333D01*
X85907619Y-93360952D01*
X85860000Y-93408571D01*
X85812380Y-93503809D01*
X85812380Y-93694285D01*
X85860000Y-93789523D01*
X85907619Y-93837142D01*
X86002857Y-93884761D01*
X86240952Y-93884761D01*
X86336190Y-93837142D01*
X86383809Y-93789523D01*
X86431428Y-93694285D01*
X86431428Y-93503809D01*
X86383809Y-93408571D01*
X86336190Y-93360952D01*
X86240952Y-93313333D01*
%TO.C,J8*%
X107616666Y-68242380D02*
X107616666Y-68956666D01*
X107569047Y-69099523D01*
X107473809Y-69194761D01*
X107330952Y-69242380D01*
X107235714Y-69242380D01*
X108235714Y-68670952D02*
X108140476Y-68623333D01*
X108092857Y-68575714D01*
X108045238Y-68480476D01*
X108045238Y-68432857D01*
X108092857Y-68337619D01*
X108140476Y-68290000D01*
X108235714Y-68242380D01*
X108426190Y-68242380D01*
X108521428Y-68290000D01*
X108569047Y-68337619D01*
X108616666Y-68432857D01*
X108616666Y-68480476D01*
X108569047Y-68575714D01*
X108521428Y-68623333D01*
X108426190Y-68670952D01*
X108235714Y-68670952D01*
X108140476Y-68718571D01*
X108092857Y-68766190D01*
X108045238Y-68861428D01*
X108045238Y-69051904D01*
X108092857Y-69147142D01*
X108140476Y-69194761D01*
X108235714Y-69242380D01*
X108426190Y-69242380D01*
X108521428Y-69194761D01*
X108569047Y-69147142D01*
X108616666Y-69051904D01*
X108616666Y-68861428D01*
X108569047Y-68766190D01*
X108521428Y-68718571D01*
X108426190Y-68670952D01*
X107402380Y-90503333D02*
X108116666Y-90503333D01*
X108259523Y-90550952D01*
X108354761Y-90646190D01*
X108402380Y-90789047D01*
X108402380Y-90884285D01*
X107830952Y-89884285D02*
X107783333Y-89979523D01*
X107735714Y-90027142D01*
X107640476Y-90074761D01*
X107592857Y-90074761D01*
X107497619Y-90027142D01*
X107450000Y-89979523D01*
X107402380Y-89884285D01*
X107402380Y-89693809D01*
X107450000Y-89598571D01*
X107497619Y-89550952D01*
X107592857Y-89503333D01*
X107640476Y-89503333D01*
X107735714Y-89550952D01*
X107783333Y-89598571D01*
X107830952Y-89693809D01*
X107830952Y-89884285D01*
X107878571Y-89979523D01*
X107926190Y-90027142D01*
X108021428Y-90074761D01*
X108211904Y-90074761D01*
X108307142Y-90027142D01*
X108354761Y-89979523D01*
X108402380Y-89884285D01*
X108402380Y-89693809D01*
X108354761Y-89598571D01*
X108307142Y-89550952D01*
X108211904Y-89503333D01*
X108021428Y-89503333D01*
X107926190Y-89550952D01*
X107878571Y-89598571D01*
X107830952Y-89693809D01*
%TO.C,J7*%
X88566666Y-69512380D02*
X88566666Y-70226666D01*
X88519047Y-70369523D01*
X88423809Y-70464761D01*
X88280952Y-70512380D01*
X88185714Y-70512380D01*
X88947619Y-69512380D02*
X89614285Y-69512380D01*
X89185714Y-70512380D01*
X88352380Y-77803333D02*
X89066666Y-77803333D01*
X89209523Y-77850952D01*
X89304761Y-77946190D01*
X89352380Y-78089047D01*
X89352380Y-78184285D01*
X88352380Y-77422380D02*
X88352380Y-76755714D01*
X89352380Y-77184285D01*
%TO.C,J6*%
X88566666Y-102532380D02*
X88566666Y-103246666D01*
X88519047Y-103389523D01*
X88423809Y-103484761D01*
X88280952Y-103532380D01*
X88185714Y-103532380D01*
X89471428Y-102532380D02*
X89280952Y-102532380D01*
X89185714Y-102580000D01*
X89138095Y-102627619D01*
X89042857Y-102770476D01*
X88995238Y-102960952D01*
X88995238Y-103341904D01*
X89042857Y-103437142D01*
X89090476Y-103484761D01*
X89185714Y-103532380D01*
X89376190Y-103532380D01*
X89471428Y-103484761D01*
X89519047Y-103437142D01*
X89566666Y-103341904D01*
X89566666Y-103103809D01*
X89519047Y-103008571D01*
X89471428Y-102960952D01*
X89376190Y-102913333D01*
X89185714Y-102913333D01*
X89090476Y-102960952D01*
X89042857Y-103008571D01*
X88995238Y-103103809D01*
X83066666Y-108097142D02*
X83019047Y-108144761D01*
X82876190Y-108192380D01*
X82780952Y-108192380D01*
X82638095Y-108144761D01*
X82542857Y-108049523D01*
X82495238Y-107954285D01*
X82447619Y-107763809D01*
X82447619Y-107620952D01*
X82495238Y-107430476D01*
X82542857Y-107335238D01*
X82638095Y-107240000D01*
X82780952Y-107192380D01*
X82876190Y-107192380D01*
X83019047Y-107240000D01*
X83066666Y-107287619D01*
X83638095Y-108192380D02*
X83542857Y-108144761D01*
X83495238Y-108097142D01*
X83447619Y-108001904D01*
X83447619Y-107716190D01*
X83495238Y-107620952D01*
X83542857Y-107573333D01*
X83638095Y-107525714D01*
X83780952Y-107525714D01*
X83876190Y-107573333D01*
X83923809Y-107620952D01*
X83971428Y-107716190D01*
X83971428Y-108001904D01*
X83923809Y-108097142D01*
X83876190Y-108144761D01*
X83780952Y-108192380D01*
X83638095Y-108192380D01*
X84400000Y-107525714D02*
X84400000Y-108192380D01*
X84400000Y-107620952D02*
X84447619Y-107573333D01*
X84542857Y-107525714D01*
X84685714Y-107525714D01*
X84780952Y-107573333D01*
X84828571Y-107668571D01*
X84828571Y-108192380D01*
X85304761Y-107525714D02*
X85304761Y-108192380D01*
X85304761Y-107620952D02*
X85352380Y-107573333D01*
X85447619Y-107525714D01*
X85590476Y-107525714D01*
X85685714Y-107573333D01*
X85733333Y-107668571D01*
X85733333Y-108192380D01*
X85971428Y-108287619D02*
X86733333Y-108287619D01*
X87161904Y-107192380D02*
X87257142Y-107192380D01*
X87352380Y-107240000D01*
X87400000Y-107287619D01*
X87447619Y-107382857D01*
X87495238Y-107573333D01*
X87495238Y-107811428D01*
X87447619Y-108001904D01*
X87400000Y-108097142D01*
X87352380Y-108144761D01*
X87257142Y-108192380D01*
X87161904Y-108192380D01*
X87066666Y-108144761D01*
X87019047Y-108097142D01*
X86971428Y-108001904D01*
X86923809Y-107811428D01*
X86923809Y-107573333D01*
X86971428Y-107382857D01*
X87019047Y-107287619D01*
X87066666Y-107240000D01*
X87161904Y-107192380D01*
X88447619Y-108192380D02*
X87876190Y-108192380D01*
X88161904Y-108192380D02*
X88161904Y-107192380D01*
X88066666Y-107335238D01*
X87971428Y-107430476D01*
X87876190Y-107478095D01*
X88780952Y-108192380D02*
X89304761Y-107525714D01*
X88780952Y-107525714D02*
X89304761Y-108192380D01*
X89876190Y-107192380D02*
X89971428Y-107192380D01*
X90066666Y-107240000D01*
X90114285Y-107287619D01*
X90161904Y-107382857D01*
X90209523Y-107573333D01*
X90209523Y-107811428D01*
X90161904Y-108001904D01*
X90114285Y-108097142D01*
X90066666Y-108144761D01*
X89971428Y-108192380D01*
X89876190Y-108192380D01*
X89780952Y-108144761D01*
X89733333Y-108097142D01*
X89685714Y-108001904D01*
X89638095Y-107811428D01*
X89638095Y-107573333D01*
X89685714Y-107382857D01*
X89733333Y-107287619D01*
X89780952Y-107240000D01*
X89876190Y-107192380D01*
X91161904Y-108192380D02*
X90590476Y-108192380D01*
X90876190Y-108192380D02*
X90876190Y-107192380D01*
X90780952Y-107335238D01*
X90685714Y-107430476D01*
X90590476Y-107478095D01*
X91352380Y-108287619D02*
X92114285Y-108287619D01*
X92352380Y-108192380D02*
X92352380Y-107192380D01*
X92685714Y-107906666D01*
X93019047Y-107192380D01*
X93019047Y-108192380D01*
X93923809Y-108192380D02*
X93923809Y-107668571D01*
X93876190Y-107573333D01*
X93780952Y-107525714D01*
X93590476Y-107525714D01*
X93495238Y-107573333D01*
X93923809Y-108144761D02*
X93828571Y-108192380D01*
X93590476Y-108192380D01*
X93495238Y-108144761D01*
X93447619Y-108049523D01*
X93447619Y-107954285D01*
X93495238Y-107859047D01*
X93590476Y-107811428D01*
X93828571Y-107811428D01*
X93923809Y-107763809D01*
X94542857Y-108192380D02*
X94447619Y-108144761D01*
X94400000Y-108049523D01*
X94400000Y-107192380D01*
X95304761Y-108144761D02*
X95209523Y-108192380D01*
X95019047Y-108192380D01*
X94923809Y-108144761D01*
X94876190Y-108049523D01*
X94876190Y-107668571D01*
X94923809Y-107573333D01*
X95019047Y-107525714D01*
X95209523Y-107525714D01*
X95304761Y-107573333D01*
X95352380Y-107668571D01*
X95352380Y-107763809D01*
X94876190Y-107859047D01*
X88352380Y-105743333D02*
X89066666Y-105743333D01*
X89209523Y-105790952D01*
X89304761Y-105886190D01*
X89352380Y-106029047D01*
X89352380Y-106124285D01*
X88352380Y-104838571D02*
X88352380Y-105029047D01*
X88400000Y-105124285D01*
X88447619Y-105171904D01*
X88590476Y-105267142D01*
X88780952Y-105314761D01*
X89161904Y-105314761D01*
X89257142Y-105267142D01*
X89304761Y-105219523D01*
X89352380Y-105124285D01*
X89352380Y-104933809D01*
X89304761Y-104838571D01*
X89257142Y-104790952D01*
X89161904Y-104743333D01*
X88923809Y-104743333D01*
X88828571Y-104790952D01*
X88780952Y-104838571D01*
X88733333Y-104933809D01*
X88733333Y-105124285D01*
X88780952Y-105219523D01*
X88828571Y-105267142D01*
X88923809Y-105314761D01*
%TO.C,J5*%
X83066666Y-110637142D02*
X83019047Y-110684761D01*
X82876190Y-110732380D01*
X82780952Y-110732380D01*
X82638095Y-110684761D01*
X82542857Y-110589523D01*
X82495238Y-110494285D01*
X82447619Y-110303809D01*
X82447619Y-110160952D01*
X82495238Y-109970476D01*
X82542857Y-109875238D01*
X82638095Y-109780000D01*
X82780952Y-109732380D01*
X82876190Y-109732380D01*
X83019047Y-109780000D01*
X83066666Y-109827619D01*
X83638095Y-110732380D02*
X83542857Y-110684761D01*
X83495238Y-110637142D01*
X83447619Y-110541904D01*
X83447619Y-110256190D01*
X83495238Y-110160952D01*
X83542857Y-110113333D01*
X83638095Y-110065714D01*
X83780952Y-110065714D01*
X83876190Y-110113333D01*
X83923809Y-110160952D01*
X83971428Y-110256190D01*
X83971428Y-110541904D01*
X83923809Y-110637142D01*
X83876190Y-110684761D01*
X83780952Y-110732380D01*
X83638095Y-110732380D01*
X84400000Y-110065714D02*
X84400000Y-110732380D01*
X84400000Y-110160952D02*
X84447619Y-110113333D01*
X84542857Y-110065714D01*
X84685714Y-110065714D01*
X84780952Y-110113333D01*
X84828571Y-110208571D01*
X84828571Y-110732380D01*
X85304761Y-110065714D02*
X85304761Y-110732380D01*
X85304761Y-110160952D02*
X85352380Y-110113333D01*
X85447619Y-110065714D01*
X85590476Y-110065714D01*
X85685714Y-110113333D01*
X85733333Y-110208571D01*
X85733333Y-110732380D01*
X85971428Y-110827619D02*
X86733333Y-110827619D01*
X87161904Y-109732380D02*
X87257142Y-109732380D01*
X87352380Y-109780000D01*
X87400000Y-109827619D01*
X87447619Y-109922857D01*
X87495238Y-110113333D01*
X87495238Y-110351428D01*
X87447619Y-110541904D01*
X87400000Y-110637142D01*
X87352380Y-110684761D01*
X87257142Y-110732380D01*
X87161904Y-110732380D01*
X87066666Y-110684761D01*
X87019047Y-110637142D01*
X86971428Y-110541904D01*
X86923809Y-110351428D01*
X86923809Y-110113333D01*
X86971428Y-109922857D01*
X87019047Y-109827619D01*
X87066666Y-109780000D01*
X87161904Y-109732380D01*
X88447619Y-110732380D02*
X87876190Y-110732380D01*
X88161904Y-110732380D02*
X88161904Y-109732380D01*
X88066666Y-109875238D01*
X87971428Y-109970476D01*
X87876190Y-110018095D01*
X88780952Y-110732380D02*
X89304761Y-110065714D01*
X88780952Y-110065714D02*
X89304761Y-110732380D01*
X89876190Y-109732380D02*
X89971428Y-109732380D01*
X90066666Y-109780000D01*
X90114285Y-109827619D01*
X90161904Y-109922857D01*
X90209523Y-110113333D01*
X90209523Y-110351428D01*
X90161904Y-110541904D01*
X90114285Y-110637142D01*
X90066666Y-110684761D01*
X89971428Y-110732380D01*
X89876190Y-110732380D01*
X89780952Y-110684761D01*
X89733333Y-110637142D01*
X89685714Y-110541904D01*
X89638095Y-110351428D01*
X89638095Y-110113333D01*
X89685714Y-109922857D01*
X89733333Y-109827619D01*
X89780952Y-109780000D01*
X89876190Y-109732380D01*
X91161904Y-110732380D02*
X90590476Y-110732380D01*
X90876190Y-110732380D02*
X90876190Y-109732380D01*
X90780952Y-109875238D01*
X90685714Y-109970476D01*
X90590476Y-110018095D01*
X91352380Y-110827619D02*
X92114285Y-110827619D01*
X92352380Y-110732380D02*
X92352380Y-109732380D01*
X92685714Y-110446666D01*
X93019047Y-109732380D01*
X93019047Y-110732380D01*
X93923809Y-110732380D02*
X93923809Y-110208571D01*
X93876190Y-110113333D01*
X93780952Y-110065714D01*
X93590476Y-110065714D01*
X93495238Y-110113333D01*
X93923809Y-110684761D02*
X93828571Y-110732380D01*
X93590476Y-110732380D01*
X93495238Y-110684761D01*
X93447619Y-110589523D01*
X93447619Y-110494285D01*
X93495238Y-110399047D01*
X93590476Y-110351428D01*
X93828571Y-110351428D01*
X93923809Y-110303809D01*
X94542857Y-110732380D02*
X94447619Y-110684761D01*
X94400000Y-110589523D01*
X94400000Y-109732380D01*
X95304761Y-110684761D02*
X95209523Y-110732380D01*
X95019047Y-110732380D01*
X94923809Y-110684761D01*
X94876190Y-110589523D01*
X94876190Y-110208571D01*
X94923809Y-110113333D01*
X95019047Y-110065714D01*
X95209523Y-110065714D01*
X95304761Y-110113333D01*
X95352380Y-110208571D01*
X95352380Y-110303809D01*
X94876190Y-110399047D01*
X88566666Y-109942380D02*
X88566666Y-110656666D01*
X88519047Y-110799523D01*
X88423809Y-110894761D01*
X88280952Y-110942380D01*
X88185714Y-110942380D01*
X89519047Y-109942380D02*
X89042857Y-109942380D01*
X88995238Y-110418571D01*
X89042857Y-110370952D01*
X89138095Y-110323333D01*
X89376190Y-110323333D01*
X89471428Y-110370952D01*
X89519047Y-110418571D01*
X89566666Y-110513809D01*
X89566666Y-110751904D01*
X89519047Y-110847142D01*
X89471428Y-110894761D01*
X89376190Y-110942380D01*
X89138095Y-110942380D01*
X89042857Y-110894761D01*
X88995238Y-110847142D01*
%TO.C,J4*%
X86026666Y-105072380D02*
X86026666Y-105786666D01*
X85979047Y-105929523D01*
X85883809Y-106024761D01*
X85740952Y-106072380D01*
X85645714Y-106072380D01*
X86931428Y-105405714D02*
X86931428Y-106072380D01*
X86693333Y-105024761D02*
X86455238Y-105739047D01*
X87074285Y-105739047D01*
X80526666Y-110637142D02*
X80479047Y-110684761D01*
X80336190Y-110732380D01*
X80240952Y-110732380D01*
X80098095Y-110684761D01*
X80002857Y-110589523D01*
X79955238Y-110494285D01*
X79907619Y-110303809D01*
X79907619Y-110160952D01*
X79955238Y-109970476D01*
X80002857Y-109875238D01*
X80098095Y-109780000D01*
X80240952Y-109732380D01*
X80336190Y-109732380D01*
X80479047Y-109780000D01*
X80526666Y-109827619D01*
X81098095Y-110732380D02*
X81002857Y-110684761D01*
X80955238Y-110637142D01*
X80907619Y-110541904D01*
X80907619Y-110256190D01*
X80955238Y-110160952D01*
X81002857Y-110113333D01*
X81098095Y-110065714D01*
X81240952Y-110065714D01*
X81336190Y-110113333D01*
X81383809Y-110160952D01*
X81431428Y-110256190D01*
X81431428Y-110541904D01*
X81383809Y-110637142D01*
X81336190Y-110684761D01*
X81240952Y-110732380D01*
X81098095Y-110732380D01*
X81860000Y-110065714D02*
X81860000Y-110732380D01*
X81860000Y-110160952D02*
X81907619Y-110113333D01*
X82002857Y-110065714D01*
X82145714Y-110065714D01*
X82240952Y-110113333D01*
X82288571Y-110208571D01*
X82288571Y-110732380D01*
X82764761Y-110065714D02*
X82764761Y-110732380D01*
X82764761Y-110160952D02*
X82812380Y-110113333D01*
X82907619Y-110065714D01*
X83050476Y-110065714D01*
X83145714Y-110113333D01*
X83193333Y-110208571D01*
X83193333Y-110732380D01*
X83431428Y-110827619D02*
X84193333Y-110827619D01*
X84621904Y-109732380D02*
X84717142Y-109732380D01*
X84812380Y-109780000D01*
X84860000Y-109827619D01*
X84907619Y-109922857D01*
X84955238Y-110113333D01*
X84955238Y-110351428D01*
X84907619Y-110541904D01*
X84860000Y-110637142D01*
X84812380Y-110684761D01*
X84717142Y-110732380D01*
X84621904Y-110732380D01*
X84526666Y-110684761D01*
X84479047Y-110637142D01*
X84431428Y-110541904D01*
X84383809Y-110351428D01*
X84383809Y-110113333D01*
X84431428Y-109922857D01*
X84479047Y-109827619D01*
X84526666Y-109780000D01*
X84621904Y-109732380D01*
X85907619Y-110732380D02*
X85336190Y-110732380D01*
X85621904Y-110732380D02*
X85621904Y-109732380D01*
X85526666Y-109875238D01*
X85431428Y-109970476D01*
X85336190Y-110018095D01*
X86240952Y-110732380D02*
X86764761Y-110065714D01*
X86240952Y-110065714D02*
X86764761Y-110732380D01*
X87336190Y-109732380D02*
X87431428Y-109732380D01*
X87526666Y-109780000D01*
X87574285Y-109827619D01*
X87621904Y-109922857D01*
X87669523Y-110113333D01*
X87669523Y-110351428D01*
X87621904Y-110541904D01*
X87574285Y-110637142D01*
X87526666Y-110684761D01*
X87431428Y-110732380D01*
X87336190Y-110732380D01*
X87240952Y-110684761D01*
X87193333Y-110637142D01*
X87145714Y-110541904D01*
X87098095Y-110351428D01*
X87098095Y-110113333D01*
X87145714Y-109922857D01*
X87193333Y-109827619D01*
X87240952Y-109780000D01*
X87336190Y-109732380D01*
X88621904Y-110732380D02*
X88050476Y-110732380D01*
X88336190Y-110732380D02*
X88336190Y-109732380D01*
X88240952Y-109875238D01*
X88145714Y-109970476D01*
X88050476Y-110018095D01*
X88812380Y-110827619D02*
X89574285Y-110827619D01*
X89812380Y-110732380D02*
X89812380Y-109732380D01*
X90145714Y-110446666D01*
X90479047Y-109732380D01*
X90479047Y-110732380D01*
X91383809Y-110732380D02*
X91383809Y-110208571D01*
X91336190Y-110113333D01*
X91240952Y-110065714D01*
X91050476Y-110065714D01*
X90955238Y-110113333D01*
X91383809Y-110684761D02*
X91288571Y-110732380D01*
X91050476Y-110732380D01*
X90955238Y-110684761D01*
X90907619Y-110589523D01*
X90907619Y-110494285D01*
X90955238Y-110399047D01*
X91050476Y-110351428D01*
X91288571Y-110351428D01*
X91383809Y-110303809D01*
X92002857Y-110732380D02*
X91907619Y-110684761D01*
X91860000Y-110589523D01*
X91860000Y-109732380D01*
X92764761Y-110684761D02*
X92669523Y-110732380D01*
X92479047Y-110732380D01*
X92383809Y-110684761D01*
X92336190Y-110589523D01*
X92336190Y-110208571D01*
X92383809Y-110113333D01*
X92479047Y-110065714D01*
X92669523Y-110065714D01*
X92764761Y-110113333D01*
X92812380Y-110208571D01*
X92812380Y-110303809D01*
X92336190Y-110399047D01*
X85812380Y-108283333D02*
X86526666Y-108283333D01*
X86669523Y-108330952D01*
X86764761Y-108426190D01*
X86812380Y-108569047D01*
X86812380Y-108664285D01*
X86145714Y-107378571D02*
X86812380Y-107378571D01*
X85764761Y-107616666D02*
X86479047Y-107854761D01*
X86479047Y-107235714D01*
%TO.C,J3*%
X91106666Y-105072380D02*
X91106666Y-105786666D01*
X91059047Y-105929523D01*
X90963809Y-106024761D01*
X90820952Y-106072380D01*
X90725714Y-106072380D01*
X91487619Y-105072380D02*
X92106666Y-105072380D01*
X91773333Y-105453333D01*
X91916190Y-105453333D01*
X92011428Y-105500952D01*
X92059047Y-105548571D01*
X92106666Y-105643809D01*
X92106666Y-105881904D01*
X92059047Y-105977142D01*
X92011428Y-106024761D01*
X91916190Y-106072380D01*
X91630476Y-106072380D01*
X91535238Y-106024761D01*
X91487619Y-105977142D01*
X87701904Y-110637142D02*
X87654285Y-110684761D01*
X87511428Y-110732380D01*
X87416190Y-110732380D01*
X87273333Y-110684761D01*
X87178095Y-110589523D01*
X87130476Y-110494285D01*
X87082857Y-110303809D01*
X87082857Y-110160952D01*
X87130476Y-109970476D01*
X87178095Y-109875238D01*
X87273333Y-109780000D01*
X87416190Y-109732380D01*
X87511428Y-109732380D01*
X87654285Y-109780000D01*
X87701904Y-109827619D01*
X88273333Y-110732380D02*
X88178095Y-110684761D01*
X88130476Y-110637142D01*
X88082857Y-110541904D01*
X88082857Y-110256190D01*
X88130476Y-110160952D01*
X88178095Y-110113333D01*
X88273333Y-110065714D01*
X88416190Y-110065714D01*
X88511428Y-110113333D01*
X88559047Y-110160952D01*
X88606666Y-110256190D01*
X88606666Y-110541904D01*
X88559047Y-110637142D01*
X88511428Y-110684761D01*
X88416190Y-110732380D01*
X88273333Y-110732380D01*
X89035238Y-110065714D02*
X89035238Y-110732380D01*
X89035238Y-110160952D02*
X89082857Y-110113333D01*
X89178095Y-110065714D01*
X89320952Y-110065714D01*
X89416190Y-110113333D01*
X89463809Y-110208571D01*
X89463809Y-110732380D01*
X89940000Y-110065714D02*
X89940000Y-110732380D01*
X89940000Y-110160952D02*
X89987619Y-110113333D01*
X90082857Y-110065714D01*
X90225714Y-110065714D01*
X90320952Y-110113333D01*
X90368571Y-110208571D01*
X90368571Y-110732380D01*
X90606666Y-110827619D02*
X91368571Y-110827619D01*
X91797142Y-109732380D02*
X91892380Y-109732380D01*
X91987619Y-109780000D01*
X92035238Y-109827619D01*
X92082857Y-109922857D01*
X92130476Y-110113333D01*
X92130476Y-110351428D01*
X92082857Y-110541904D01*
X92035238Y-110637142D01*
X91987619Y-110684761D01*
X91892380Y-110732380D01*
X91797142Y-110732380D01*
X91701904Y-110684761D01*
X91654285Y-110637142D01*
X91606666Y-110541904D01*
X91559047Y-110351428D01*
X91559047Y-110113333D01*
X91606666Y-109922857D01*
X91654285Y-109827619D01*
X91701904Y-109780000D01*
X91797142Y-109732380D01*
X93082857Y-110732380D02*
X92511428Y-110732380D01*
X92797142Y-110732380D02*
X92797142Y-109732380D01*
X92701904Y-109875238D01*
X92606666Y-109970476D01*
X92511428Y-110018095D01*
X93416190Y-110732380D02*
X93940000Y-110065714D01*
X93416190Y-110065714D02*
X93940000Y-110732380D01*
X94511428Y-109732380D02*
X94606666Y-109732380D01*
X94701904Y-109780000D01*
X94749523Y-109827619D01*
X94797142Y-109922857D01*
X94844761Y-110113333D01*
X94844761Y-110351428D01*
X94797142Y-110541904D01*
X94749523Y-110637142D01*
X94701904Y-110684761D01*
X94606666Y-110732380D01*
X94511428Y-110732380D01*
X94416190Y-110684761D01*
X94368571Y-110637142D01*
X94320952Y-110541904D01*
X94273333Y-110351428D01*
X94273333Y-110113333D01*
X94320952Y-109922857D01*
X94368571Y-109827619D01*
X94416190Y-109780000D01*
X94511428Y-109732380D01*
X95797142Y-110732380D02*
X95225714Y-110732380D01*
X95511428Y-110732380D02*
X95511428Y-109732380D01*
X95416190Y-109875238D01*
X95320952Y-109970476D01*
X95225714Y-110018095D01*
X90892380Y-108283333D02*
X91606666Y-108283333D01*
X91749523Y-108330952D01*
X91844761Y-108426190D01*
X91892380Y-108569047D01*
X91892380Y-108664285D01*
X90892380Y-107902380D02*
X90892380Y-107283333D01*
X91273333Y-107616666D01*
X91273333Y-107473809D01*
X91320952Y-107378571D01*
X91368571Y-107330952D01*
X91463809Y-107283333D01*
X91701904Y-107283333D01*
X91797142Y-107330952D01*
X91844761Y-107378571D01*
X91892380Y-107473809D01*
X91892380Y-107759523D01*
X91844761Y-107854761D01*
X91797142Y-107902380D01*
%TO.C,J2*%
X70953380Y-110696333D02*
X71667666Y-110696333D01*
X71810523Y-110743952D01*
X71905761Y-110839190D01*
X71953380Y-110982047D01*
X71953380Y-111077285D01*
X71048619Y-110267761D02*
X71001000Y-110220142D01*
X70953380Y-110124904D01*
X70953380Y-109886809D01*
X71001000Y-109791571D01*
X71048619Y-109743952D01*
X71143857Y-109696333D01*
X71239095Y-109696333D01*
X71381952Y-109743952D01*
X71953380Y-110315380D01*
X71953380Y-109696333D01*
X74510880Y-110696333D02*
X75225166Y-110696333D01*
X75368023Y-110743952D01*
X75463261Y-110839190D01*
X75510880Y-110982047D01*
X75510880Y-111077285D01*
X74606119Y-110267761D02*
X74558500Y-110220142D01*
X74510880Y-110124904D01*
X74510880Y-109886809D01*
X74558500Y-109791571D01*
X74606119Y-109743952D01*
X74701357Y-109696333D01*
X74796595Y-109696333D01*
X74939452Y-109743952D01*
X75510880Y-110315380D01*
X75510880Y-109696333D01*
%TO.C,D2*%
X140702380Y-103608095D02*
X139702380Y-103608095D01*
X139702380Y-103370000D01*
X139750000Y-103227142D01*
X139845238Y-103131904D01*
X139940476Y-103084285D01*
X140130952Y-103036666D01*
X140273809Y-103036666D01*
X140464285Y-103084285D01*
X140559523Y-103131904D01*
X140654761Y-103227142D01*
X140702380Y-103370000D01*
X140702380Y-103608095D01*
X139797619Y-102655714D02*
X139750000Y-102608095D01*
X139702380Y-102512857D01*
X139702380Y-102274761D01*
X139750000Y-102179523D01*
X139797619Y-102131904D01*
X139892857Y-102084285D01*
X139988095Y-102084285D01*
X140130952Y-102131904D01*
X140702380Y-102703333D01*
X140702380Y-102084285D01*
D13*
X138791904Y-103460476D02*
X137991904Y-103460476D01*
X137991904Y-103270000D01*
X138030000Y-103155714D01*
X138106190Y-103079523D01*
X138182380Y-103041428D01*
X138334761Y-103003333D01*
X138449047Y-103003333D01*
X138601428Y-103041428D01*
X138677619Y-103079523D01*
X138753809Y-103155714D01*
X138791904Y-103270000D01*
X138791904Y-103460476D01*
X138068095Y-102698571D02*
X138030000Y-102660476D01*
X137991904Y-102584285D01*
X137991904Y-102393809D01*
X138030000Y-102317619D01*
X138068095Y-102279523D01*
X138144285Y-102241428D01*
X138220476Y-102241428D01*
X138334761Y-102279523D01*
X138791904Y-102736666D01*
X138791904Y-102241428D01*
%TO.C,D1*%
D11*
X125462380Y-129008095D02*
X124462380Y-129008095D01*
X124462380Y-128770000D01*
X124510000Y-128627142D01*
X124605238Y-128531904D01*
X124700476Y-128484285D01*
X124890952Y-128436666D01*
X125033809Y-128436666D01*
X125224285Y-128484285D01*
X125319523Y-128531904D01*
X125414761Y-128627142D01*
X125462380Y-128770000D01*
X125462380Y-129008095D01*
X125462380Y-127484285D02*
X125462380Y-128055714D01*
X125462380Y-127770000D02*
X124462380Y-127770000D01*
X124605238Y-127865238D01*
X124700476Y-127960476D01*
X124748095Y-128055714D01*
D13*
X123551904Y-128860476D02*
X122751904Y-128860476D01*
X122751904Y-128670000D01*
X122790000Y-128555714D01*
X122866190Y-128479523D01*
X122942380Y-128441428D01*
X123094761Y-128403333D01*
X123209047Y-128403333D01*
X123361428Y-128441428D01*
X123437619Y-128479523D01*
X123513809Y-128555714D01*
X123551904Y-128670000D01*
X123551904Y-128860476D01*
X123551904Y-127641428D02*
X123551904Y-128098571D01*
X123551904Y-127870000D02*
X122751904Y-127870000D01*
X122866190Y-127946190D01*
X122942380Y-128022380D01*
X122980476Y-128098571D01*
%TO.C,C8*%
D11*
X120397142Y-128436666D02*
X120444761Y-128484285D01*
X120492380Y-128627142D01*
X120492380Y-128722380D01*
X120444761Y-128865238D01*
X120349523Y-128960476D01*
X120254285Y-129008095D01*
X120063809Y-129055714D01*
X119920952Y-129055714D01*
X119730476Y-129008095D01*
X119635238Y-128960476D01*
X119540000Y-128865238D01*
X119492380Y-128722380D01*
X119492380Y-128627142D01*
X119540000Y-128484285D01*
X119587619Y-128436666D01*
X119920952Y-127865238D02*
X119873333Y-127960476D01*
X119825714Y-128008095D01*
X119730476Y-128055714D01*
X119682857Y-128055714D01*
X119587619Y-128008095D01*
X119540000Y-127960476D01*
X119492380Y-127865238D01*
X119492380Y-127674761D01*
X119540000Y-127579523D01*
X119587619Y-127531904D01*
X119682857Y-127484285D01*
X119730476Y-127484285D01*
X119825714Y-127531904D01*
X119873333Y-127579523D01*
X119920952Y-127674761D01*
X119920952Y-127865238D01*
X119968571Y-127960476D01*
X120016190Y-128008095D01*
X120111428Y-128055714D01*
X120301904Y-128055714D01*
X120397142Y-128008095D01*
X120444761Y-127960476D01*
X120492380Y-127865238D01*
X120492380Y-127674761D01*
X120444761Y-127579523D01*
X120397142Y-127531904D01*
X120301904Y-127484285D01*
X120111428Y-127484285D01*
X120016190Y-127531904D01*
X119968571Y-127579523D01*
X119920952Y-127674761D01*
D13*
X117125714Y-128403333D02*
X117163809Y-128441428D01*
X117201904Y-128555714D01*
X117201904Y-128631904D01*
X117163809Y-128746190D01*
X117087619Y-128822380D01*
X117011428Y-128860476D01*
X116859047Y-128898571D01*
X116744761Y-128898571D01*
X116592380Y-128860476D01*
X116516190Y-128822380D01*
X116440000Y-128746190D01*
X116401904Y-128631904D01*
X116401904Y-128555714D01*
X116440000Y-128441428D01*
X116478095Y-128403333D01*
X116744761Y-127946190D02*
X116706666Y-128022380D01*
X116668571Y-128060476D01*
X116592380Y-128098571D01*
X116554285Y-128098571D01*
X116478095Y-128060476D01*
X116440000Y-128022380D01*
X116401904Y-127946190D01*
X116401904Y-127793809D01*
X116440000Y-127717619D01*
X116478095Y-127679523D01*
X116554285Y-127641428D01*
X116592380Y-127641428D01*
X116668571Y-127679523D01*
X116706666Y-127717619D01*
X116744761Y-127793809D01*
X116744761Y-127946190D01*
X116782857Y-128022380D01*
X116820952Y-128060476D01*
X116897142Y-128098571D01*
X117049523Y-128098571D01*
X117125714Y-128060476D01*
X117163809Y-128022380D01*
X117201904Y-127946190D01*
X117201904Y-127793809D01*
X117163809Y-127717619D01*
X117125714Y-127679523D01*
X117049523Y-127641428D01*
X116897142Y-127641428D01*
X116820952Y-127679523D01*
X116782857Y-127717619D01*
X116744761Y-127793809D01*
%TO.C,C7*%
D11*
X114022142Y-136056666D02*
X114069761Y-136104285D01*
X114117380Y-136247142D01*
X114117380Y-136342380D01*
X114069761Y-136485238D01*
X113974523Y-136580476D01*
X113879285Y-136628095D01*
X113688809Y-136675714D01*
X113545952Y-136675714D01*
X113355476Y-136628095D01*
X113260238Y-136580476D01*
X113165000Y-136485238D01*
X113117380Y-136342380D01*
X113117380Y-136247142D01*
X113165000Y-136104285D01*
X113212619Y-136056666D01*
X113117380Y-135723333D02*
X113117380Y-135056666D01*
X114117380Y-135485238D01*
D13*
X110775714Y-136023333D02*
X110813809Y-136061428D01*
X110851904Y-136175714D01*
X110851904Y-136251904D01*
X110813809Y-136366190D01*
X110737619Y-136442380D01*
X110661428Y-136480476D01*
X110509047Y-136518571D01*
X110394761Y-136518571D01*
X110242380Y-136480476D01*
X110166190Y-136442380D01*
X110090000Y-136366190D01*
X110051904Y-136251904D01*
X110051904Y-136175714D01*
X110090000Y-136061428D01*
X110128095Y-136023333D01*
X110051904Y-135756666D02*
X110051904Y-135223333D01*
X110851904Y-135566190D01*
%TO.C,C6*%
D11*
X114047142Y-128436666D02*
X114094761Y-128484285D01*
X114142380Y-128627142D01*
X114142380Y-128722380D01*
X114094761Y-128865238D01*
X113999523Y-128960476D01*
X113904285Y-129008095D01*
X113713809Y-129055714D01*
X113570952Y-129055714D01*
X113380476Y-129008095D01*
X113285238Y-128960476D01*
X113190000Y-128865238D01*
X113142380Y-128722380D01*
X113142380Y-128627142D01*
X113190000Y-128484285D01*
X113237619Y-128436666D01*
X113142380Y-127579523D02*
X113142380Y-127770000D01*
X113190000Y-127865238D01*
X113237619Y-127912857D01*
X113380476Y-128008095D01*
X113570952Y-128055714D01*
X113951904Y-128055714D01*
X114047142Y-128008095D01*
X114094761Y-127960476D01*
X114142380Y-127865238D01*
X114142380Y-127674761D01*
X114094761Y-127579523D01*
X114047142Y-127531904D01*
X113951904Y-127484285D01*
X113713809Y-127484285D01*
X113618571Y-127531904D01*
X113570952Y-127579523D01*
X113523333Y-127674761D01*
X113523333Y-127865238D01*
X113570952Y-127960476D01*
X113618571Y-128008095D01*
X113713809Y-128055714D01*
D13*
X110775714Y-128403333D02*
X110813809Y-128441428D01*
X110851904Y-128555714D01*
X110851904Y-128631904D01*
X110813809Y-128746190D01*
X110737619Y-128822380D01*
X110661428Y-128860476D01*
X110509047Y-128898571D01*
X110394761Y-128898571D01*
X110242380Y-128860476D01*
X110166190Y-128822380D01*
X110090000Y-128746190D01*
X110051904Y-128631904D01*
X110051904Y-128555714D01*
X110090000Y-128441428D01*
X110128095Y-128403333D01*
X110051904Y-127717619D02*
X110051904Y-127870000D01*
X110090000Y-127946190D01*
X110128095Y-127984285D01*
X110242380Y-128060476D01*
X110394761Y-128098571D01*
X110699523Y-128098571D01*
X110775714Y-128060476D01*
X110813809Y-128022380D01*
X110851904Y-127946190D01*
X110851904Y-127793809D01*
X110813809Y-127717619D01*
X110775714Y-127679523D01*
X110699523Y-127641428D01*
X110509047Y-127641428D01*
X110432857Y-127679523D01*
X110394761Y-127717619D01*
X110356666Y-127793809D01*
X110356666Y-127946190D01*
X110394761Y-128022380D01*
X110432857Y-128060476D01*
X110509047Y-128098571D01*
%TO.C,C5*%
D11*
X101322142Y-128436666D02*
X101369761Y-128484285D01*
X101417380Y-128627142D01*
X101417380Y-128722380D01*
X101369761Y-128865238D01*
X101274523Y-128960476D01*
X101179285Y-129008095D01*
X100988809Y-129055714D01*
X100845952Y-129055714D01*
X100655476Y-129008095D01*
X100560238Y-128960476D01*
X100465000Y-128865238D01*
X100417380Y-128722380D01*
X100417380Y-128627142D01*
X100465000Y-128484285D01*
X100512619Y-128436666D01*
X100417380Y-127531904D02*
X100417380Y-128008095D01*
X100893571Y-128055714D01*
X100845952Y-128008095D01*
X100798333Y-127912857D01*
X100798333Y-127674761D01*
X100845952Y-127579523D01*
X100893571Y-127531904D01*
X100988809Y-127484285D01*
X101226904Y-127484285D01*
X101322142Y-127531904D01*
X101369761Y-127579523D01*
X101417380Y-127674761D01*
X101417380Y-127912857D01*
X101369761Y-128008095D01*
X101322142Y-128055714D01*
D13*
X98075714Y-128403333D02*
X98113809Y-128441428D01*
X98151904Y-128555714D01*
X98151904Y-128631904D01*
X98113809Y-128746190D01*
X98037619Y-128822380D01*
X97961428Y-128860476D01*
X97809047Y-128898571D01*
X97694761Y-128898571D01*
X97542380Y-128860476D01*
X97466190Y-128822380D01*
X97390000Y-128746190D01*
X97351904Y-128631904D01*
X97351904Y-128555714D01*
X97390000Y-128441428D01*
X97428095Y-128403333D01*
X97351904Y-127679523D02*
X97351904Y-128060476D01*
X97732857Y-128098571D01*
X97694761Y-128060476D01*
X97656666Y-127984285D01*
X97656666Y-127793809D01*
X97694761Y-127717619D01*
X97732857Y-127679523D01*
X97809047Y-127641428D01*
X97999523Y-127641428D01*
X98075714Y-127679523D01*
X98113809Y-127717619D01*
X98151904Y-127793809D01*
X98151904Y-127984285D01*
X98113809Y-128060476D01*
X98075714Y-128098571D01*
%TO.C,C4*%
D11*
X107697142Y-128436666D02*
X107744761Y-128484285D01*
X107792380Y-128627142D01*
X107792380Y-128722380D01*
X107744761Y-128865238D01*
X107649523Y-128960476D01*
X107554285Y-129008095D01*
X107363809Y-129055714D01*
X107220952Y-129055714D01*
X107030476Y-129008095D01*
X106935238Y-128960476D01*
X106840000Y-128865238D01*
X106792380Y-128722380D01*
X106792380Y-128627142D01*
X106840000Y-128484285D01*
X106887619Y-128436666D01*
X107125714Y-127579523D02*
X107792380Y-127579523D01*
X106744761Y-127817619D02*
X107459047Y-128055714D01*
X107459047Y-127436666D01*
D13*
X104425714Y-128403333D02*
X104463809Y-128441428D01*
X104501904Y-128555714D01*
X104501904Y-128631904D01*
X104463809Y-128746190D01*
X104387619Y-128822380D01*
X104311428Y-128860476D01*
X104159047Y-128898571D01*
X104044761Y-128898571D01*
X103892380Y-128860476D01*
X103816190Y-128822380D01*
X103740000Y-128746190D01*
X103701904Y-128631904D01*
X103701904Y-128555714D01*
X103740000Y-128441428D01*
X103778095Y-128403333D01*
X103968571Y-127717619D02*
X104501904Y-127717619D01*
X103663809Y-127908095D02*
X104235238Y-128098571D01*
X104235238Y-127603333D01*
%TO.C,C3*%
D11*
X101347142Y-136056666D02*
X101394761Y-136104285D01*
X101442380Y-136247142D01*
X101442380Y-136342380D01*
X101394761Y-136485238D01*
X101299523Y-136580476D01*
X101204285Y-136628095D01*
X101013809Y-136675714D01*
X100870952Y-136675714D01*
X100680476Y-136628095D01*
X100585238Y-136580476D01*
X100490000Y-136485238D01*
X100442380Y-136342380D01*
X100442380Y-136247142D01*
X100490000Y-136104285D01*
X100537619Y-136056666D01*
X100442380Y-135723333D02*
X100442380Y-135104285D01*
X100823333Y-135437619D01*
X100823333Y-135294761D01*
X100870952Y-135199523D01*
X100918571Y-135151904D01*
X101013809Y-135104285D01*
X101251904Y-135104285D01*
X101347142Y-135151904D01*
X101394761Y-135199523D01*
X101442380Y-135294761D01*
X101442380Y-135580476D01*
X101394761Y-135675714D01*
X101347142Y-135723333D01*
D13*
X98075714Y-136023333D02*
X98113809Y-136061428D01*
X98151904Y-136175714D01*
X98151904Y-136251904D01*
X98113809Y-136366190D01*
X98037619Y-136442380D01*
X97961428Y-136480476D01*
X97809047Y-136518571D01*
X97694761Y-136518571D01*
X97542380Y-136480476D01*
X97466190Y-136442380D01*
X97390000Y-136366190D01*
X97351904Y-136251904D01*
X97351904Y-136175714D01*
X97390000Y-136061428D01*
X97428095Y-136023333D01*
X97351904Y-135756666D02*
X97351904Y-135261428D01*
X97656666Y-135528095D01*
X97656666Y-135413809D01*
X97694761Y-135337619D01*
X97732857Y-135299523D01*
X97809047Y-135261428D01*
X97999523Y-135261428D01*
X98075714Y-135299523D01*
X98113809Y-135337619D01*
X98151904Y-135413809D01*
X98151904Y-135642380D01*
X98113809Y-135718571D01*
X98075714Y-135756666D01*
%TO.C,C2*%
D11*
X126747142Y-136056666D02*
X126794761Y-136104285D01*
X126842380Y-136247142D01*
X126842380Y-136342380D01*
X126794761Y-136485238D01*
X126699523Y-136580476D01*
X126604285Y-136628095D01*
X126413809Y-136675714D01*
X126270952Y-136675714D01*
X126080476Y-136628095D01*
X125985238Y-136580476D01*
X125890000Y-136485238D01*
X125842380Y-136342380D01*
X125842380Y-136247142D01*
X125890000Y-136104285D01*
X125937619Y-136056666D01*
X125937619Y-135675714D02*
X125890000Y-135628095D01*
X125842380Y-135532857D01*
X125842380Y-135294761D01*
X125890000Y-135199523D01*
X125937619Y-135151904D01*
X126032857Y-135104285D01*
X126128095Y-135104285D01*
X126270952Y-135151904D01*
X126842380Y-135723333D01*
X126842380Y-135104285D01*
D13*
X123475714Y-136023333D02*
X123513809Y-136061428D01*
X123551904Y-136175714D01*
X123551904Y-136251904D01*
X123513809Y-136366190D01*
X123437619Y-136442380D01*
X123361428Y-136480476D01*
X123209047Y-136518571D01*
X123094761Y-136518571D01*
X122942380Y-136480476D01*
X122866190Y-136442380D01*
X122790000Y-136366190D01*
X122751904Y-136251904D01*
X122751904Y-136175714D01*
X122790000Y-136061428D01*
X122828095Y-136023333D01*
X122828095Y-135718571D02*
X122790000Y-135680476D01*
X122751904Y-135604285D01*
X122751904Y-135413809D01*
X122790000Y-135337619D01*
X122828095Y-135299523D01*
X122904285Y-135261428D01*
X122980476Y-135261428D01*
X123094761Y-135299523D01*
X123551904Y-135756666D01*
X123551904Y-135261428D01*
%TO.C,C1*%
D11*
X94997142Y-128436666D02*
X95044761Y-128484285D01*
X95092380Y-128627142D01*
X95092380Y-128722380D01*
X95044761Y-128865238D01*
X94949523Y-128960476D01*
X94854285Y-129008095D01*
X94663809Y-129055714D01*
X94520952Y-129055714D01*
X94330476Y-129008095D01*
X94235238Y-128960476D01*
X94140000Y-128865238D01*
X94092380Y-128722380D01*
X94092380Y-128627142D01*
X94140000Y-128484285D01*
X94187619Y-128436666D01*
X95092380Y-127484285D02*
X95092380Y-128055714D01*
X95092380Y-127770000D02*
X94092380Y-127770000D01*
X94235238Y-127865238D01*
X94330476Y-127960476D01*
X94378095Y-128055714D01*
D13*
X91725714Y-128403333D02*
X91763809Y-128441428D01*
X91801904Y-128555714D01*
X91801904Y-128631904D01*
X91763809Y-128746190D01*
X91687619Y-128822380D01*
X91611428Y-128860476D01*
X91459047Y-128898571D01*
X91344761Y-128898571D01*
X91192380Y-128860476D01*
X91116190Y-128822380D01*
X91040000Y-128746190D01*
X91001904Y-128631904D01*
X91001904Y-128555714D01*
X91040000Y-128441428D01*
X91078095Y-128403333D01*
X91801904Y-127641428D02*
X91801904Y-128098571D01*
X91801904Y-127870000D02*
X91001904Y-127870000D01*
X91116190Y-127946190D01*
X91192380Y-128022380D01*
X91230476Y-128098571D01*
%TO.C,AE2*%
D11*
X174216666Y-81706666D02*
X174216666Y-81230476D01*
X174502380Y-81801904D02*
X173502380Y-81468571D01*
X174502380Y-81135238D01*
X173978571Y-80801904D02*
X173978571Y-80468571D01*
X174502380Y-80325714D02*
X174502380Y-80801904D01*
X173502380Y-80801904D01*
X173502380Y-80325714D01*
X173597619Y-79944761D02*
X173550000Y-79897142D01*
X173502380Y-79801904D01*
X173502380Y-79563809D01*
X173550000Y-79468571D01*
X173597619Y-79420952D01*
X173692857Y-79373333D01*
X173788095Y-79373333D01*
X173930952Y-79420952D01*
X174502380Y-79992380D01*
X174502380Y-79373333D01*
X174206666Y-81706666D02*
X174206666Y-81230476D01*
X174492380Y-81801904D02*
X173492380Y-81468571D01*
X174492380Y-81135238D01*
X173968571Y-80801904D02*
X173968571Y-80468571D01*
X174492380Y-80325714D02*
X174492380Y-80801904D01*
X173492380Y-80801904D01*
X173492380Y-80325714D01*
X173587619Y-79944761D02*
X173540000Y-79897142D01*
X173492380Y-79801904D01*
X173492380Y-79563809D01*
X173540000Y-79468571D01*
X173587619Y-79420952D01*
X173682857Y-79373333D01*
X173778095Y-79373333D01*
X173920952Y-79420952D01*
X174492380Y-79992380D01*
X174492380Y-79373333D01*
%TO.C,C9*%
X148357619Y-110545238D02*
X148310000Y-110497619D01*
X148262380Y-110402380D01*
X148262380Y-110164285D01*
X148310000Y-110069047D01*
X148357619Y-110021428D01*
X148452857Y-109973809D01*
X148548095Y-109973809D01*
X148690952Y-110021428D01*
X149262380Y-110592857D01*
X149262380Y-109973809D01*
X148357619Y-109592857D02*
X148310000Y-109545238D01*
X148262380Y-109450000D01*
X148262380Y-109211904D01*
X148310000Y-109116666D01*
X148357619Y-109069047D01*
X148452857Y-109021428D01*
X148548095Y-109021428D01*
X148690952Y-109069047D01*
X149262380Y-109640476D01*
X149262380Y-109021428D01*
X148262380Y-108402380D02*
X148262380Y-108307142D01*
X148310000Y-108211904D01*
X148357619Y-108164285D01*
X148452857Y-108116666D01*
X148643333Y-108069047D01*
X148881428Y-108069047D01*
X149071904Y-108116666D01*
X149167142Y-108164285D01*
X149214761Y-108211904D01*
X149262380Y-108307142D01*
X149262380Y-108402380D01*
X149214761Y-108497619D01*
X149167142Y-108545238D01*
X149071904Y-108592857D01*
X148881428Y-108640476D01*
X148643333Y-108640476D01*
X148452857Y-108592857D01*
X148357619Y-108545238D01*
X148310000Y-108497619D01*
X148262380Y-108402380D01*
X148262380Y-107450000D02*
X148262380Y-107354761D01*
X148310000Y-107259523D01*
X148357619Y-107211904D01*
X148452857Y-107164285D01*
X148643333Y-107116666D01*
X148881428Y-107116666D01*
X149071904Y-107164285D01*
X149167142Y-107211904D01*
X149214761Y-107259523D01*
X149262380Y-107354761D01*
X149262380Y-107450000D01*
X149214761Y-107545238D01*
X149167142Y-107592857D01*
X149071904Y-107640476D01*
X148881428Y-107688095D01*
X148643333Y-107688095D01*
X148452857Y-107640476D01*
X148357619Y-107592857D01*
X148310000Y-107545238D01*
X148262380Y-107450000D01*
X148595714Y-106688095D02*
X149595714Y-106688095D01*
X148643333Y-106688095D02*
X148595714Y-106592857D01*
X148595714Y-106402380D01*
X148643333Y-106307142D01*
X148690952Y-106259523D01*
X148786190Y-106211904D01*
X149071904Y-106211904D01*
X149167142Y-106259523D01*
X149214761Y-106307142D01*
X149262380Y-106402380D01*
X149262380Y-106592857D01*
X149214761Y-106688095D01*
X148738571Y-105450000D02*
X148738571Y-105783333D01*
X149262380Y-105783333D02*
X148262380Y-105783333D01*
X148262380Y-105307142D01*
D15*
X150629285Y-107991666D02*
X150641190Y-108003571D01*
X150653095Y-108039285D01*
X150653095Y-108063095D01*
X150641190Y-108098809D01*
X150617380Y-108122619D01*
X150593571Y-108134523D01*
X150545952Y-108146428D01*
X150510238Y-108146428D01*
X150462619Y-108134523D01*
X150438809Y-108122619D01*
X150415000Y-108098809D01*
X150403095Y-108063095D01*
X150403095Y-108039285D01*
X150415000Y-108003571D01*
X150426904Y-107991666D01*
X150653095Y-107872619D02*
X150653095Y-107825000D01*
X150641190Y-107801190D01*
X150629285Y-107789285D01*
X150593571Y-107765476D01*
X150545952Y-107753571D01*
X150450714Y-107753571D01*
X150426904Y-107765476D01*
X150415000Y-107777380D01*
X150403095Y-107801190D01*
X150403095Y-107848809D01*
X150415000Y-107872619D01*
X150426904Y-107884523D01*
X150450714Y-107896428D01*
X150510238Y-107896428D01*
X150534047Y-107884523D01*
X150545952Y-107872619D01*
X150557857Y-107848809D01*
X150557857Y-107801190D01*
X150545952Y-107777380D01*
X150534047Y-107765476D01*
X150510238Y-107753571D01*
%TO.C,C10*%
D11*
X120397142Y-136532857D02*
X120444761Y-136580476D01*
X120492380Y-136723333D01*
X120492380Y-136818571D01*
X120444761Y-136961428D01*
X120349523Y-137056666D01*
X120254285Y-137104285D01*
X120063809Y-137151904D01*
X119920952Y-137151904D01*
X119730476Y-137104285D01*
X119635238Y-137056666D01*
X119540000Y-136961428D01*
X119492380Y-136818571D01*
X119492380Y-136723333D01*
X119540000Y-136580476D01*
X119587619Y-136532857D01*
X120492380Y-135580476D02*
X120492380Y-136151904D01*
X120492380Y-135866190D02*
X119492380Y-135866190D01*
X119635238Y-135961428D01*
X119730476Y-136056666D01*
X119778095Y-136151904D01*
X119492380Y-134961428D02*
X119492380Y-134866190D01*
X119540000Y-134770952D01*
X119587619Y-134723333D01*
X119682857Y-134675714D01*
X119873333Y-134628095D01*
X120111428Y-134628095D01*
X120301904Y-134675714D01*
X120397142Y-134723333D01*
X120444761Y-134770952D01*
X120492380Y-134866190D01*
X120492380Y-134961428D01*
X120444761Y-135056666D01*
X120397142Y-135104285D01*
X120301904Y-135151904D01*
X120111428Y-135199523D01*
X119873333Y-135199523D01*
X119682857Y-135151904D01*
X119587619Y-135104285D01*
X119540000Y-135056666D01*
X119492380Y-134961428D01*
D13*
X117125714Y-136404285D02*
X117163809Y-136442380D01*
X117201904Y-136556666D01*
X117201904Y-136632857D01*
X117163809Y-136747142D01*
X117087619Y-136823333D01*
X117011428Y-136861428D01*
X116859047Y-136899523D01*
X116744761Y-136899523D01*
X116592380Y-136861428D01*
X116516190Y-136823333D01*
X116440000Y-136747142D01*
X116401904Y-136632857D01*
X116401904Y-136556666D01*
X116440000Y-136442380D01*
X116478095Y-136404285D01*
X117201904Y-135642380D02*
X117201904Y-136099523D01*
X117201904Y-135870952D02*
X116401904Y-135870952D01*
X116516190Y-135947142D01*
X116592380Y-136023333D01*
X116630476Y-136099523D01*
X116401904Y-135147142D02*
X116401904Y-135070952D01*
X116440000Y-134994761D01*
X116478095Y-134956666D01*
X116554285Y-134918571D01*
X116706666Y-134880476D01*
X116897142Y-134880476D01*
X117049523Y-134918571D01*
X117125714Y-134956666D01*
X117163809Y-134994761D01*
X117201904Y-135070952D01*
X117201904Y-135147142D01*
X117163809Y-135223333D01*
X117125714Y-135261428D01*
X117049523Y-135299523D01*
X116897142Y-135337619D01*
X116706666Y-135337619D01*
X116554285Y-135299523D01*
X116478095Y-135261428D01*
X116440000Y-135223333D01*
X116401904Y-135147142D01*
%TD*%
M02*
