%TF.GenerationSoftware,KiCad,Pcbnew,(5.1.9)-1*%
%TF.CreationDate,2022-07-25T22:00:42-05:00*%
%TF.ProjectId,GPSPuck,47505350-7563-46b2-9e6b-696361645f70,1*%
%TF.SameCoordinates,Original*%
%TF.FileFunction,Soldermask,Bot*%
%TF.FilePolarity,Negative*%
%FSLAX46Y46*%
G04 Gerber Fmt 4.6, Leading zero omitted, Abs format (unit mm)*
G04 Created by KiCad (PCBNEW (5.1.9)-1) date 2022-07-25 22:00:42*
%MOMM*%
%LPD*%
G01*
G04 APERTURE LIST*
%ADD10C,3.600000*%
%ADD11C,5.600000*%
%ADD12R,1.700000X1.700000*%
%ADD13O,1.700000X1.700000*%
%ADD14O,1.900000X1.200000*%
%ADD15C,1.450000*%
%ADD16O,3.960000X1.980000*%
%ADD17R,3.960000X1.980000*%
%ADD18C,3.000000*%
%ADD19R,3.000000X3.000000*%
%ADD20C,2.600000*%
G04 APERTURE END LIST*
D10*
%TO.C,REF\u002A\u002A*%
X171450000Y-64770000D03*
D11*
X171450000Y-64770000D03*
%TD*%
D10*
%TO.C,REF\u002A\u002A*%
X171450000Y-133350000D03*
D11*
X171450000Y-133350000D03*
%TD*%
D10*
%TO.C,REF\u002A\u002A*%
X74930000Y-134620000D03*
D11*
X74930000Y-134620000D03*
%TD*%
%TO.C,REF\u002A\u002A*%
X74930000Y-64770000D03*
D10*
X74930000Y-64770000D03*
%TD*%
D12*
%TO.C,J10*%
X91440000Y-90170000D03*
D13*
X91440000Y-92710000D03*
X91440000Y-95250000D03*
X91440000Y-97790000D03*
%TD*%
%TO.C,J9*%
X86360000Y-97790000D03*
X86360000Y-95250000D03*
X86360000Y-92710000D03*
D12*
X86360000Y-90170000D03*
%TD*%
D13*
%TO.C,J8*%
X107950000Y-109220000D03*
X107950000Y-106680000D03*
X107950000Y-104140000D03*
X107950000Y-101600000D03*
X107950000Y-99060000D03*
X107950000Y-96520000D03*
X107950000Y-93980000D03*
X107950000Y-91440000D03*
X107950000Y-88900000D03*
X107950000Y-86360000D03*
X107950000Y-83820000D03*
X107950000Y-81280000D03*
X107950000Y-78740000D03*
X107950000Y-76200000D03*
X107950000Y-73660000D03*
D12*
X107950000Y-71120000D03*
%TD*%
D13*
%TO.C,J7*%
X90170000Y-82550000D03*
X87630000Y-82550000D03*
X90170000Y-80010000D03*
X87630000Y-80010000D03*
X90170000Y-77470000D03*
X87630000Y-77470000D03*
X90170000Y-74930000D03*
X87630000Y-74930000D03*
X90170000Y-72390000D03*
D12*
X87630000Y-72390000D03*
%TD*%
%TO.C,J6*%
X88900000Y-105410000D03*
%TD*%
%TO.C,J5*%
X88900000Y-107950000D03*
%TD*%
%TO.C,J4*%
X86360000Y-107950000D03*
%TD*%
%TO.C,J3*%
X91440000Y-107950000D03*
%TD*%
D14*
%TO.C,J2*%
X74708500Y-113863000D03*
X74708500Y-106863000D03*
D15*
X77408500Y-112863000D03*
X77408500Y-107863000D03*
%TD*%
D16*
%TO.C,J1*%
X78740000Y-119460000D03*
D17*
X78740000Y-124460000D03*
%TD*%
D18*
%TO.C,BT1*%
X73660000Y-77470000D03*
D19*
X73660000Y-90170000D03*
D20*
X84560000Y-72720000D03*
X112560000Y-72720000D03*
X97810000Y-94920000D03*
%TD*%
M02*
