%FSLAX45Y45*%
G04 Gerber Fmt 4.5, Leading zero omitted, Abs format (unit mm)*
G04 Created by KiCad (PCBNEW (5.1.9)-1) date 2022-08-26 12:33:23*
%MOMM*%
%LPD*%
G01*
G04 APERTURE LIST*
%TA.AperFunction,Profile*%
%ADD10C,0.050000*%
%TD*%
%ADD11C,0.200000*%
%ADD12C,0.300000*%
G04 APERTURE END LIST*
D10*
X6985000Y-13970000D02*
X6985000Y-5969000D01*
X17653000Y-13970000D02*
X6985000Y-13970000D01*
X17653000Y-5969000D02*
X17653000Y-13970000D01*
X6985000Y-5969000D02*
X17653000Y-5969000D01*
D11*
X16749000Y-8704000D02*
X16779000Y-8734000D01*
X16779000Y-8704000D02*
X16749000Y-8734000D01*
X7516250Y-10093250D02*
G75*
G03*
X7516250Y-10093250I-20000J0D01*
G01*
X8084500Y-8182500D02*
G75*
G03*
X8084500Y-8182500I-20000J0D01*
G01*
X8184500Y-8182500D02*
G75*
G03*
X8184500Y-8182500I-20000J0D01*
G01*
X8338500Y-8636000D02*
G75*
G03*
X8338500Y-8636000I-20000J0D01*
G01*
X8338500Y-10223500D02*
G75*
G03*
X8338500Y-10223500I-20000J0D01*
G01*
X8465500Y-9652000D02*
G75*
G03*
X8465500Y-9652000I-20000J0D01*
G01*
X8465500Y-13516500D02*
G75*
G03*
X8465500Y-13516500I-20000J0D01*
G01*
X8465500Y-13661500D02*
G75*
G03*
X8465500Y-13661500I-20000J0D01*
G01*
X8656000Y-9779000D02*
G75*
G03*
X8656000Y-9779000I-20000J0D01*
G01*
X8656000Y-12382500D02*
G75*
G03*
X8656000Y-12382500I-20000J0D01*
G01*
X8719500Y-11112500D02*
G75*
G03*
X8719500Y-11112500I-20000J0D01*
G01*
X9164000Y-13398500D02*
G75*
G03*
X9164000Y-13398500I-20000J0D01*
G01*
X9291000Y-10096500D02*
G75*
G03*
X9291000Y-10096500I-20000J0D01*
G01*
X9291000Y-13271500D02*
G75*
G03*
X9291000Y-13271500I-20000J0D01*
G01*
X9291000Y-13843000D02*
G75*
G03*
X9291000Y-13843000I-20000J0D01*
G01*
X9291000Y-13843000D02*
G75*
G03*
X9291000Y-13843000I-20000J0D01*
G01*
X9545000Y-9525000D02*
G75*
G03*
X9545000Y-9525000I-20000J0D01*
G01*
X9672000Y-13525500D02*
G75*
G03*
X9672000Y-13525500I-20000J0D01*
G01*
X9726284Y-11720824D02*
G75*
G03*
X9726284Y-11720824I-20000J0D01*
G01*
X9726500Y-11620500D02*
G75*
G03*
X9726500Y-11620500I-20000J0D01*
G01*
X10180000Y-11430000D02*
G75*
G03*
X10180000Y-11430000I-20000J0D01*
G01*
X10180000Y-11874500D02*
G75*
G03*
X10180000Y-11874500I-20000J0D01*
G01*
X10180000Y-13770500D02*
G75*
G03*
X10180000Y-13770500I-20000J0D01*
G01*
X10307000Y-11430000D02*
G75*
G03*
X10307000Y-11430000I-20000J0D01*
G01*
X10307000Y-11874500D02*
G75*
G03*
X10307000Y-11874500I-20000J0D01*
G01*
X10431000Y-13516500D02*
G75*
G03*
X10431000Y-13516500I-20000J0D01*
G01*
X10431000Y-13661500D02*
G75*
G03*
X10431000Y-13661500I-20000J0D01*
G01*
X10497500Y-13335000D02*
G75*
G03*
X10497500Y-13335000I-20000J0D01*
G01*
X10561000Y-13843000D02*
G75*
G03*
X10561000Y-13843000I-20000J0D01*
G01*
X10624500Y-12763500D02*
G75*
G03*
X10624500Y-12763500I-20000J0D01*
G01*
X11259500Y-12092000D02*
G75*
G03*
X11259500Y-12092000I-20000J0D01*
G01*
X11259500Y-12192000D02*
G75*
G03*
X11259500Y-12192000I-20000J0D01*
G01*
X11386500Y-13208000D02*
G75*
G03*
X11386500Y-13208000I-20000J0D01*
G01*
X11450000Y-7874000D02*
G75*
G03*
X11450000Y-7874000I-20000J0D01*
G01*
X11513500Y-13589000D02*
G75*
G03*
X11513500Y-13589000I-20000J0D01*
G01*
X11640500Y-12092000D02*
G75*
G03*
X11640500Y-12092000I-20000J0D01*
G01*
X11640500Y-12192000D02*
G75*
G03*
X11640500Y-12192000I-20000J0D01*
G01*
X11958000Y-13271500D02*
G75*
G03*
X11958000Y-13271500I-20000J0D01*
G01*
X12011485Y-10149985D02*
G75*
G03*
X12011485Y-10149985I-20000J0D01*
G01*
X12021500Y-9969500D02*
G75*
G03*
X12021500Y-9969500I-20000J0D01*
G01*
X12085000Y-10350500D02*
G75*
G03*
X12085000Y-10350500I-20000J0D01*
G01*
X12085000Y-11557000D02*
G75*
G03*
X12085000Y-11557000I-20000J0D01*
G01*
X12139500Y-13516500D02*
G75*
G03*
X12139500Y-13516500I-20000J0D01*
G01*
X12148500Y-10468500D02*
G75*
G03*
X12148500Y-10468500I-20000J0D01*
G01*
X12148500Y-11239500D02*
G75*
G03*
X12148500Y-11239500I-20000J0D01*
G01*
X12148500Y-12827000D02*
G75*
G03*
X12148500Y-12827000I-20000J0D01*
G01*
X12402500Y-12509500D02*
G75*
G03*
X12402500Y-12509500I-20000J0D01*
G01*
X12466000Y-10033000D02*
G75*
G03*
X12466000Y-10033000I-20000J0D01*
G01*
X12593000Y-10033000D02*
G75*
G03*
X12593000Y-10033000I-20000J0D01*
G01*
X12693000Y-10033000D02*
G75*
G03*
X12693000Y-10033000I-20000J0D01*
G01*
X12838000Y-8001000D02*
G75*
G03*
X12838000Y-8001000I-20000J0D01*
G01*
X12974000Y-12509500D02*
G75*
G03*
X12974000Y-12509500I-20000J0D01*
G01*
X13030289Y-8452711D02*
G75*
G03*
X13030289Y-8452711I-20000J0D01*
G01*
X13037500Y-8826500D02*
G75*
G03*
X13037500Y-8826500I-20000J0D01*
G01*
X13037500Y-10024000D02*
G75*
G03*
X13037500Y-10024000I-20000J0D01*
G01*
X13092000Y-12310000D02*
G75*
G03*
X13092000Y-12310000I-20000J0D01*
G01*
X13101000Y-8382000D02*
G75*
G03*
X13101000Y-8382000I-20000J0D01*
G01*
X13101000Y-11176000D02*
G75*
G03*
X13101000Y-11176000I-20000J0D01*
G01*
X13101000Y-12954000D02*
G75*
G03*
X13101000Y-12954000I-20000J0D01*
G01*
X13228000Y-8572500D02*
G75*
G03*
X13228000Y-8572500I-20000J0D01*
G01*
X13238015Y-8689485D02*
G75*
G03*
X13238015Y-8689485I-20000J0D01*
G01*
X13545500Y-9588500D02*
G75*
G03*
X13545500Y-9588500I-20000J0D01*
G01*
X13609000Y-6422500D02*
G75*
G03*
X13609000Y-6422500I-20000J0D01*
G01*
X13609000Y-9461500D02*
G75*
G03*
X13609000Y-9461500I-20000J0D01*
G01*
X13663500Y-9334500D02*
G75*
G03*
X13663500Y-9334500I-20000J0D01*
G01*
X13808500Y-8001000D02*
G75*
G03*
X13808500Y-8001000I-20000J0D01*
G01*
X13808500Y-8890000D02*
G75*
G03*
X13808500Y-8890000I-20000J0D01*
G01*
X13808500Y-9207500D02*
G75*
G03*
X13808500Y-9207500I-20000J0D01*
G01*
X13863000Y-9398000D02*
G75*
G03*
X13863000Y-9398000I-20000J0D01*
G01*
X13919000Y-7239000D02*
G75*
G03*
X13919000Y-7239000I-20000J0D01*
G01*
X13919000Y-7418961D02*
G75*
G03*
X13919000Y-7418961I-20000J0D01*
G01*
X13924042Y-7518923D02*
G75*
G03*
X13924042Y-7518923I-20000J0D01*
G01*
X13926500Y-7620000D02*
G75*
G03*
X13926500Y-7620000I-20000J0D01*
G01*
X14025250Y-11375500D02*
G75*
G03*
X14025250Y-11375500I-20000J0D01*
G01*
X14171500Y-11357500D02*
G75*
G03*
X14171500Y-11357500I-20000J0D01*
G01*
X14351485Y-7893515D02*
G75*
G03*
X14351485Y-7893515I-20000J0D01*
G01*
X14372753Y-11312000D02*
G75*
G03*
X14372753Y-11312000I-20000J0D01*
G01*
X14380000Y-10604500D02*
G75*
G03*
X14380000Y-10604500I-20000J0D01*
G01*
X14434500Y-11502500D02*
G75*
G03*
X14434500Y-11502500I-20000J0D01*
G01*
X14478485Y-10243015D02*
G75*
G03*
X14478485Y-10243015I-20000J0D01*
G01*
X14480000Y-10604500D02*
G75*
G03*
X14480000Y-10604500I-20000J0D01*
G01*
X14498000Y-11357500D02*
G75*
G03*
X14498000Y-11357500I-20000J0D01*
G01*
X14645500Y-11239500D02*
G75*
G03*
X14645500Y-11239500I-20000J0D01*
G01*
X14701570Y-11322302D02*
G75*
G03*
X14701570Y-11322302I-20000J0D01*
G01*
X14879000Y-9080500D02*
G75*
G03*
X14879000Y-9080500I-20000J0D01*
G01*
X14879000Y-10922000D02*
G75*
G03*
X14879000Y-10922000I-20000J0D01*
G01*
X14997000Y-9080500D02*
G75*
G03*
X14997000Y-9080500I-20000J0D01*
G01*
X15124000Y-10532000D02*
G75*
G03*
X15124000Y-10532000I-20000J0D01*
G01*
X15260000Y-9271000D02*
G75*
G03*
X15260000Y-9271000I-20000J0D01*
G01*
X15266000Y-9392000D02*
G75*
G03*
X15266000Y-9392000I-20000J0D01*
G01*
X15323500Y-7239000D02*
G75*
G03*
X15323500Y-7239000I-20000J0D01*
G01*
X15450500Y-10922000D02*
G75*
G03*
X15450500Y-10922000I-20000J0D01*
G01*
X15886000Y-8255000D02*
G75*
G03*
X15886000Y-8255000I-20000J0D01*
G01*
X16060100Y-8255000D02*
G75*
G03*
X16060100Y-8255000I-20000J0D01*
G01*
X16085500Y-9588500D02*
G75*
G03*
X16085500Y-9588500I-20000J0D01*
G01*
X7470850Y-10656300D02*
X7470850Y-10716300D01*
X7440850Y-10686300D02*
X7500850Y-10686300D01*
X7435850Y-10706300D02*
X7505850Y-10706300D01*
X7435850Y-10666300D02*
X7505850Y-10666300D01*
X7505850Y-10706300D02*
G75*
G03*
X7505850Y-10666300I0J20000D01*
G01*
X7435850Y-10666300D02*
G75*
G03*
X7435850Y-10706300I0J-20000D01*
G01*
X7470850Y-11356300D02*
X7470850Y-11416300D01*
X7440850Y-11386300D02*
X7500850Y-11386300D01*
X7505850Y-11366300D02*
X7435850Y-11366300D01*
X7505850Y-11406300D02*
X7435850Y-11406300D01*
X7435850Y-11366300D02*
G75*
G03*
X7435850Y-11406300I0J-20000D01*
G01*
X7505850Y-11406300D02*
G75*
G03*
X7505850Y-11366300I0J20000D01*
G01*
X7770902Y-10816352D02*
X7770902Y-10756248D01*
X7710798Y-10756248D01*
X7710798Y-10816352D01*
X7770902Y-10816352D01*
X7770902Y-11316352D02*
X7770902Y-11256248D01*
X7710798Y-11256248D01*
X7710798Y-11316352D01*
X7770902Y-11316352D01*
X8636000Y-9067000D02*
X8686000Y-9017000D01*
X8636000Y-8967000D01*
X8586000Y-9017000D01*
X8636000Y-9067000D01*
X8636000Y-9321000D02*
X8686000Y-9271000D01*
X8636000Y-9221000D01*
X8586000Y-9271000D01*
X8636000Y-9321000D01*
X8636000Y-9575000D02*
X8686000Y-9525000D01*
X8636000Y-9475000D01*
X8586000Y-9525000D01*
X8636000Y-9575000D01*
X8636000Y-9829000D02*
X8686000Y-9779000D01*
X8636000Y-9729000D01*
X8586000Y-9779000D01*
X8636000Y-9829000D01*
X8636000Y-10845000D02*
X8686000Y-10795000D01*
X8636000Y-10745000D01*
X8586000Y-10795000D01*
X8636000Y-10845000D01*
X8763000Y-7289000D02*
X8813000Y-7239000D01*
X8763000Y-7189000D01*
X8713000Y-7239000D01*
X8763000Y-7289000D01*
X8763000Y-7543000D02*
X8813000Y-7493000D01*
X8763000Y-7443000D01*
X8713000Y-7493000D01*
X8763000Y-7543000D01*
X8763000Y-7797000D02*
X8813000Y-7747000D01*
X8763000Y-7697000D01*
X8713000Y-7747000D01*
X8763000Y-7797000D01*
X8763000Y-8051000D02*
X8813000Y-8001000D01*
X8763000Y-7951000D01*
X8713000Y-8001000D01*
X8763000Y-8051000D01*
X8763000Y-8305000D02*
X8813000Y-8255000D01*
X8763000Y-8205000D01*
X8713000Y-8255000D01*
X8763000Y-8305000D01*
X8890000Y-10591000D02*
X8940000Y-10541000D01*
X8890000Y-10491000D01*
X8840000Y-10541000D01*
X8890000Y-10591000D01*
X8890000Y-10845000D02*
X8940000Y-10795000D01*
X8890000Y-10745000D01*
X8840000Y-10795000D01*
X8890000Y-10845000D01*
X9017000Y-7289000D02*
X9067000Y-7239000D01*
X9017000Y-7189000D01*
X8967000Y-7239000D01*
X9017000Y-7289000D01*
X9017000Y-7543000D02*
X9067000Y-7493000D01*
X9017000Y-7443000D01*
X8967000Y-7493000D01*
X9017000Y-7543000D01*
X9017000Y-7797000D02*
X9067000Y-7747000D01*
X9017000Y-7697000D01*
X8967000Y-7747000D01*
X9017000Y-7797000D01*
X9017000Y-8051000D02*
X9067000Y-8001000D01*
X9017000Y-7951000D01*
X8967000Y-8001000D01*
X9017000Y-8051000D01*
X9017000Y-8305000D02*
X9067000Y-8255000D01*
X9017000Y-8205000D01*
X8967000Y-8255000D01*
X9017000Y-8305000D01*
X9144000Y-9067000D02*
X9194000Y-9017000D01*
X9144000Y-8967000D01*
X9094000Y-9017000D01*
X9144000Y-9067000D01*
X9144000Y-9321000D02*
X9194000Y-9271000D01*
X9144000Y-9221000D01*
X9094000Y-9271000D01*
X9144000Y-9321000D01*
X9144000Y-9575000D02*
X9194000Y-9525000D01*
X9144000Y-9475000D01*
X9094000Y-9525000D01*
X9144000Y-9575000D01*
X9144000Y-9829000D02*
X9194000Y-9779000D01*
X9144000Y-9729000D01*
X9094000Y-9779000D01*
X9144000Y-9829000D01*
X9144000Y-10845000D02*
X9194000Y-10795000D01*
X9144000Y-10745000D01*
X9094000Y-10795000D01*
X9144000Y-10845000D01*
X10795000Y-7162000D02*
X10845000Y-7112000D01*
X10795000Y-7062000D01*
X10745000Y-7112000D01*
X10795000Y-7162000D01*
X10795000Y-7416000D02*
X10845000Y-7366000D01*
X10795000Y-7316000D01*
X10745000Y-7366000D01*
X10795000Y-7416000D01*
X10795000Y-7670000D02*
X10845000Y-7620000D01*
X10795000Y-7570000D01*
X10745000Y-7620000D01*
X10795000Y-7670000D01*
X10795000Y-7924000D02*
X10845000Y-7874000D01*
X10795000Y-7824000D01*
X10745000Y-7874000D01*
X10795000Y-7924000D01*
X10795000Y-8178000D02*
X10845000Y-8128000D01*
X10795000Y-8078000D01*
X10745000Y-8128000D01*
X10795000Y-8178000D01*
X10795000Y-8432000D02*
X10845000Y-8382000D01*
X10795000Y-8332000D01*
X10745000Y-8382000D01*
X10795000Y-8432000D01*
X10795000Y-8686000D02*
X10845000Y-8636000D01*
X10795000Y-8586000D01*
X10745000Y-8636000D01*
X10795000Y-8686000D01*
X10795000Y-8940000D02*
X10845000Y-8890000D01*
X10795000Y-8840000D01*
X10745000Y-8890000D01*
X10795000Y-8940000D01*
X10795000Y-9194000D02*
X10845000Y-9144000D01*
X10795000Y-9094000D01*
X10745000Y-9144000D01*
X10795000Y-9194000D01*
X10795000Y-9448000D02*
X10845000Y-9398000D01*
X10795000Y-9348000D01*
X10745000Y-9398000D01*
X10795000Y-9448000D01*
X10795000Y-9702000D02*
X10845000Y-9652000D01*
X10795000Y-9602000D01*
X10745000Y-9652000D01*
X10795000Y-9702000D01*
X10795000Y-9956000D02*
X10845000Y-9906000D01*
X10795000Y-9856000D01*
X10745000Y-9906000D01*
X10795000Y-9956000D01*
X10795000Y-10210000D02*
X10845000Y-10160000D01*
X10795000Y-10110000D01*
X10745000Y-10160000D01*
X10795000Y-10210000D01*
X10795000Y-10464000D02*
X10845000Y-10414000D01*
X10795000Y-10364000D01*
X10745000Y-10414000D01*
X10795000Y-10464000D01*
X10795000Y-10718000D02*
X10845000Y-10668000D01*
X10795000Y-10618000D01*
X10745000Y-10668000D01*
X10795000Y-10718000D01*
X10795000Y-10972000D02*
X10845000Y-10922000D01*
X10795000Y-10872000D01*
X10745000Y-10922000D01*
X10795000Y-10972000D01*
X7808000Y-11880000D02*
X7940000Y-12012000D01*
X7940000Y-11880000D02*
X7808000Y-12012000D01*
X7940000Y-11946000D02*
G75*
G03*
X7940000Y-11946000I-66000J0D01*
G01*
X7808000Y-12380000D02*
X7940000Y-12512000D01*
X7940000Y-12380000D02*
X7808000Y-12512000D01*
X7940000Y-12446000D02*
G75*
G03*
X7940000Y-12446000I-66000J0D01*
G01*
X7246000Y-7627000D02*
X7486000Y-7867000D01*
X7486000Y-7627000D02*
X7246000Y-7867000D01*
X7366000Y-7627000D02*
X7366000Y-7867000D01*
X7246000Y-7747000D02*
X7486000Y-7747000D01*
X7246000Y-8897000D02*
X7486000Y-9137000D01*
X7486000Y-8897000D02*
X7246000Y-9137000D01*
X7366000Y-8897000D02*
X7366000Y-9137000D01*
X7246000Y-9017000D02*
X7486000Y-9017000D01*
X7333000Y-6317000D02*
X7653000Y-6637000D01*
X7653000Y-6317000D02*
X7333000Y-6637000D01*
X7606138Y-6590138D02*
X7606138Y-6363862D01*
X7379862Y-6363862D01*
X7379862Y-6590138D01*
X7606138Y-6590138D01*
X7333000Y-13302000D02*
X7653000Y-13622000D01*
X7653000Y-13302000D02*
X7333000Y-13622000D01*
X7606138Y-13575138D02*
X7606138Y-13348862D01*
X7379862Y-13348862D01*
X7379862Y-13575138D01*
X7606138Y-13575138D01*
X16985000Y-6317000D02*
X17305000Y-6637000D01*
X17305000Y-6317000D02*
X16985000Y-6637000D01*
X17258138Y-6590138D02*
X17258138Y-6363862D01*
X17031862Y-6363862D01*
X17031862Y-6590138D01*
X17258138Y-6590138D01*
X16985000Y-13302000D02*
X17305000Y-13622000D01*
X17305000Y-13302000D02*
X16985000Y-13622000D01*
X17258138Y-13575138D02*
X17258138Y-13348862D01*
X17031862Y-13348862D01*
X17031862Y-13575138D01*
X17258138Y-13575138D01*
D12*
X7268928Y-14438214D02*
X7268928Y-14138214D01*
X7340357Y-14138214D01*
X7383214Y-14152500D01*
X7411786Y-14181071D01*
X7426071Y-14209643D01*
X7440357Y-14266786D01*
X7440357Y-14309643D01*
X7426071Y-14366786D01*
X7411786Y-14395357D01*
X7383214Y-14423929D01*
X7340357Y-14438214D01*
X7268928Y-14438214D01*
X7568928Y-14438214D02*
X7568928Y-14238214D01*
X7568928Y-14295357D02*
X7583214Y-14266786D01*
X7597500Y-14252500D01*
X7626071Y-14238214D01*
X7654643Y-14238214D01*
X7754643Y-14438214D02*
X7754643Y-14238214D01*
X7754643Y-14138214D02*
X7740357Y-14152500D01*
X7754643Y-14166786D01*
X7768928Y-14152500D01*
X7754643Y-14138214D01*
X7754643Y-14166786D01*
X7940357Y-14438214D02*
X7911786Y-14423929D01*
X7897500Y-14395357D01*
X7897500Y-14138214D01*
X8097500Y-14438214D02*
X8068928Y-14423929D01*
X8054643Y-14395357D01*
X8054643Y-14138214D01*
X8440357Y-14438214D02*
X8440357Y-14138214D01*
X8540357Y-14352500D01*
X8640357Y-14138214D01*
X8640357Y-14438214D01*
X8911786Y-14438214D02*
X8911786Y-14281071D01*
X8897500Y-14252500D01*
X8868928Y-14238214D01*
X8811786Y-14238214D01*
X8783214Y-14252500D01*
X8911786Y-14423929D02*
X8883214Y-14438214D01*
X8811786Y-14438214D01*
X8783214Y-14423929D01*
X8768928Y-14395357D01*
X8768928Y-14366786D01*
X8783214Y-14338214D01*
X8811786Y-14323929D01*
X8883214Y-14323929D01*
X8911786Y-14309643D01*
X9054643Y-14238214D02*
X9054643Y-14538214D01*
X9054643Y-14252500D02*
X9083214Y-14238214D01*
X9140357Y-14238214D01*
X9168928Y-14252500D01*
X9183214Y-14266786D01*
X9197500Y-14295357D01*
X9197500Y-14381071D01*
X9183214Y-14409643D01*
X9168928Y-14423929D01*
X9140357Y-14438214D01*
X9083214Y-14438214D01*
X9054643Y-14423929D01*
X9326071Y-14409643D02*
X9340357Y-14423929D01*
X9326071Y-14438214D01*
X9311786Y-14423929D01*
X9326071Y-14409643D01*
X9326071Y-14438214D01*
X9326071Y-14252500D02*
X9340357Y-14266786D01*
X9326071Y-14281071D01*
X9311786Y-14266786D01*
X9326071Y-14252500D01*
X9326071Y-14281071D01*
X6952500Y-14917500D02*
X6982500Y-14947500D01*
X6982500Y-14917500D02*
X6952500Y-14947500D01*
X7326071Y-14768214D02*
X7354643Y-14768214D01*
X7383214Y-14782500D01*
X7397500Y-14796786D01*
X7411786Y-14825357D01*
X7426071Y-14882500D01*
X7426071Y-14953929D01*
X7411786Y-15011071D01*
X7397500Y-15039643D01*
X7383214Y-15053929D01*
X7354643Y-15068214D01*
X7326071Y-15068214D01*
X7297500Y-15053929D01*
X7283214Y-15039643D01*
X7268928Y-15011071D01*
X7254643Y-14953929D01*
X7254643Y-14882500D01*
X7268928Y-14825357D01*
X7283214Y-14796786D01*
X7297500Y-14782500D01*
X7326071Y-14768214D01*
X7554643Y-15039643D02*
X7568928Y-15053929D01*
X7554643Y-15068214D01*
X7540357Y-15053929D01*
X7554643Y-15039643D01*
X7554643Y-15068214D01*
X7668928Y-14768214D02*
X7854643Y-14768214D01*
X7754643Y-14882500D01*
X7797500Y-14882500D01*
X7826071Y-14896786D01*
X7840357Y-14911071D01*
X7854643Y-14939643D01*
X7854643Y-15011071D01*
X7840357Y-15039643D01*
X7826071Y-15053929D01*
X7797500Y-15068214D01*
X7711786Y-15068214D01*
X7683214Y-15053929D01*
X7668928Y-15039643D01*
X8040357Y-14768214D02*
X8068928Y-14768214D01*
X8097500Y-14782500D01*
X8111786Y-14796786D01*
X8126071Y-14825357D01*
X8140357Y-14882500D01*
X8140357Y-14953929D01*
X8126071Y-15011071D01*
X8111786Y-15039643D01*
X8097500Y-15053929D01*
X8068928Y-15068214D01*
X8040357Y-15068214D01*
X8011786Y-15053929D01*
X7997500Y-15039643D01*
X7983214Y-15011071D01*
X7968928Y-14953929D01*
X7968928Y-14882500D01*
X7983214Y-14825357D01*
X7997500Y-14796786D01*
X8011786Y-14782500D01*
X8040357Y-14768214D01*
X8268928Y-15068214D02*
X8268928Y-14868214D01*
X8268928Y-14896786D02*
X8283214Y-14882500D01*
X8311786Y-14868214D01*
X8354643Y-14868214D01*
X8383214Y-14882500D01*
X8397500Y-14911071D01*
X8397500Y-15068214D01*
X8397500Y-14911071D02*
X8411786Y-14882500D01*
X8440357Y-14868214D01*
X8483214Y-14868214D01*
X8511786Y-14882500D01*
X8526071Y-14911071D01*
X8526071Y-15068214D01*
X8668928Y-15068214D02*
X8668928Y-14868214D01*
X8668928Y-14896786D02*
X8683214Y-14882500D01*
X8711786Y-14868214D01*
X8754643Y-14868214D01*
X8783214Y-14882500D01*
X8797500Y-14911071D01*
X8797500Y-15068214D01*
X8797500Y-14911071D02*
X8811786Y-14882500D01*
X8840357Y-14868214D01*
X8883214Y-14868214D01*
X8911786Y-14882500D01*
X8926071Y-14911071D01*
X8926071Y-15068214D01*
X9511786Y-14753929D02*
X9254643Y-15139643D01*
X9897500Y-14768214D02*
X9926071Y-14768214D01*
X9954643Y-14782500D01*
X9968928Y-14796786D01*
X9983214Y-14825357D01*
X9997500Y-14882500D01*
X9997500Y-14953929D01*
X9983214Y-15011071D01*
X9968928Y-15039643D01*
X9954643Y-15053929D01*
X9926071Y-15068214D01*
X9897500Y-15068214D01*
X9868928Y-15053929D01*
X9854643Y-15039643D01*
X9840357Y-15011071D01*
X9826071Y-14953929D01*
X9826071Y-14882500D01*
X9840357Y-14825357D01*
X9854643Y-14796786D01*
X9868928Y-14782500D01*
X9897500Y-14768214D01*
X10126071Y-15039643D02*
X10140357Y-15053929D01*
X10126071Y-15068214D01*
X10111786Y-15053929D01*
X10126071Y-15039643D01*
X10126071Y-15068214D01*
X10326071Y-14768214D02*
X10354643Y-14768214D01*
X10383214Y-14782500D01*
X10397500Y-14796786D01*
X10411786Y-14825357D01*
X10426071Y-14882500D01*
X10426071Y-14953929D01*
X10411786Y-15011071D01*
X10397500Y-15039643D01*
X10383214Y-15053929D01*
X10354643Y-15068214D01*
X10326071Y-15068214D01*
X10297500Y-15053929D01*
X10283214Y-15039643D01*
X10268928Y-15011071D01*
X10254643Y-14953929D01*
X10254643Y-14882500D01*
X10268928Y-14825357D01*
X10283214Y-14796786D01*
X10297500Y-14782500D01*
X10326071Y-14768214D01*
X10711786Y-15068214D02*
X10540357Y-15068214D01*
X10626071Y-15068214D02*
X10626071Y-14768214D01*
X10597500Y-14811071D01*
X10568928Y-14839643D01*
X10540357Y-14853929D01*
X10826071Y-14796786D02*
X10840357Y-14782500D01*
X10868928Y-14768214D01*
X10940357Y-14768214D01*
X10968928Y-14782500D01*
X10983214Y-14796786D01*
X10997500Y-14825357D01*
X10997500Y-14853929D01*
X10983214Y-14896786D01*
X10811786Y-15068214D01*
X10997500Y-15068214D01*
X11111786Y-14768214D02*
X11111786Y-14825357D01*
X11226071Y-14768214D02*
X11226071Y-14825357D01*
X11668928Y-15182500D02*
X11654643Y-15168214D01*
X11626071Y-15125357D01*
X11611786Y-15096786D01*
X11597500Y-15053929D01*
X11583214Y-14982500D01*
X11583214Y-14925357D01*
X11597500Y-14853929D01*
X11611786Y-14811071D01*
X11626071Y-14782500D01*
X11654643Y-14739643D01*
X11668928Y-14725357D01*
X11940357Y-15068214D02*
X11768928Y-15068214D01*
X11854643Y-15068214D02*
X11854643Y-14768214D01*
X11826071Y-14811071D01*
X11797500Y-14839643D01*
X11768928Y-14853929D01*
X12297500Y-15068214D02*
X12297500Y-14768214D01*
X12426071Y-15068214D02*
X12426071Y-14911071D01*
X12411786Y-14882500D01*
X12383214Y-14868214D01*
X12340357Y-14868214D01*
X12311786Y-14882500D01*
X12297500Y-14896786D01*
X12611786Y-15068214D02*
X12583214Y-15053929D01*
X12568928Y-15039643D01*
X12554643Y-15011071D01*
X12554643Y-14925357D01*
X12568928Y-14896786D01*
X12583214Y-14882500D01*
X12611786Y-14868214D01*
X12654643Y-14868214D01*
X12683214Y-14882500D01*
X12697500Y-14896786D01*
X12711786Y-14925357D01*
X12711786Y-15011071D01*
X12697500Y-15039643D01*
X12683214Y-15053929D01*
X12654643Y-15068214D01*
X12611786Y-15068214D01*
X12883214Y-15068214D02*
X12854643Y-15053929D01*
X12840357Y-15025357D01*
X12840357Y-14768214D01*
X13111786Y-15053929D02*
X13083214Y-15068214D01*
X13026071Y-15068214D01*
X12997500Y-15053929D01*
X12983214Y-15025357D01*
X12983214Y-14911071D01*
X12997500Y-14882500D01*
X13026071Y-14868214D01*
X13083214Y-14868214D01*
X13111786Y-14882500D01*
X13126071Y-14911071D01*
X13126071Y-14939643D01*
X12983214Y-14968214D01*
X13226071Y-15182500D02*
X13240357Y-15168214D01*
X13268928Y-15125357D01*
X13283214Y-15096786D01*
X13297500Y-15053929D01*
X13311786Y-14982500D01*
X13311786Y-14925357D01*
X13297500Y-14853929D01*
X13283214Y-14811071D01*
X13268928Y-14782500D01*
X13240357Y-14739643D01*
X13226071Y-14725357D01*
X6982500Y-15328500D02*
G75*
G03*
X6982500Y-15328500I-20000J0D01*
G01*
X7326071Y-15164214D02*
X7354643Y-15164214D01*
X7383214Y-15178500D01*
X7397500Y-15192786D01*
X7411786Y-15221357D01*
X7426071Y-15278500D01*
X7426071Y-15349929D01*
X7411786Y-15407071D01*
X7397500Y-15435643D01*
X7383214Y-15449929D01*
X7354643Y-15464214D01*
X7326071Y-15464214D01*
X7297500Y-15449929D01*
X7283214Y-15435643D01*
X7268928Y-15407071D01*
X7254643Y-15349929D01*
X7254643Y-15278500D01*
X7268928Y-15221357D01*
X7283214Y-15192786D01*
X7297500Y-15178500D01*
X7326071Y-15164214D01*
X7554643Y-15435643D02*
X7568928Y-15449929D01*
X7554643Y-15464214D01*
X7540357Y-15449929D01*
X7554643Y-15435643D01*
X7554643Y-15464214D01*
X7826071Y-15264214D02*
X7826071Y-15464214D01*
X7754643Y-15149929D02*
X7683214Y-15364214D01*
X7868928Y-15364214D01*
X8040357Y-15164214D02*
X8068928Y-15164214D01*
X8097500Y-15178500D01*
X8111786Y-15192786D01*
X8126071Y-15221357D01*
X8140357Y-15278500D01*
X8140357Y-15349929D01*
X8126071Y-15407071D01*
X8111786Y-15435643D01*
X8097500Y-15449929D01*
X8068928Y-15464214D01*
X8040357Y-15464214D01*
X8011786Y-15449929D01*
X7997500Y-15435643D01*
X7983214Y-15407071D01*
X7968928Y-15349929D01*
X7968928Y-15278500D01*
X7983214Y-15221357D01*
X7997500Y-15192786D01*
X8011786Y-15178500D01*
X8040357Y-15164214D01*
X8268928Y-15464214D02*
X8268928Y-15264214D01*
X8268928Y-15292786D02*
X8283214Y-15278500D01*
X8311786Y-15264214D01*
X8354643Y-15264214D01*
X8383214Y-15278500D01*
X8397500Y-15307071D01*
X8397500Y-15464214D01*
X8397500Y-15307071D02*
X8411786Y-15278500D01*
X8440357Y-15264214D01*
X8483214Y-15264214D01*
X8511786Y-15278500D01*
X8526071Y-15307071D01*
X8526071Y-15464214D01*
X8668928Y-15464214D02*
X8668928Y-15264214D01*
X8668928Y-15292786D02*
X8683214Y-15278500D01*
X8711786Y-15264214D01*
X8754643Y-15264214D01*
X8783214Y-15278500D01*
X8797500Y-15307071D01*
X8797500Y-15464214D01*
X8797500Y-15307071D02*
X8811786Y-15278500D01*
X8840357Y-15264214D01*
X8883214Y-15264214D01*
X8911786Y-15278500D01*
X8926071Y-15307071D01*
X8926071Y-15464214D01*
X9511786Y-15149929D02*
X9254643Y-15535643D01*
X9897500Y-15164214D02*
X9926071Y-15164214D01*
X9954643Y-15178500D01*
X9968928Y-15192786D01*
X9983214Y-15221357D01*
X9997500Y-15278500D01*
X9997500Y-15349929D01*
X9983214Y-15407071D01*
X9968928Y-15435643D01*
X9954643Y-15449929D01*
X9926071Y-15464214D01*
X9897500Y-15464214D01*
X9868928Y-15449929D01*
X9854643Y-15435643D01*
X9840357Y-15407071D01*
X9826071Y-15349929D01*
X9826071Y-15278500D01*
X9840357Y-15221357D01*
X9854643Y-15192786D01*
X9868928Y-15178500D01*
X9897500Y-15164214D01*
X10126071Y-15435643D02*
X10140357Y-15449929D01*
X10126071Y-15464214D01*
X10111786Y-15449929D01*
X10126071Y-15435643D01*
X10126071Y-15464214D01*
X10326071Y-15164214D02*
X10354643Y-15164214D01*
X10383214Y-15178500D01*
X10397500Y-15192786D01*
X10411786Y-15221357D01*
X10426071Y-15278500D01*
X10426071Y-15349929D01*
X10411786Y-15407071D01*
X10397500Y-15435643D01*
X10383214Y-15449929D01*
X10354643Y-15464214D01*
X10326071Y-15464214D01*
X10297500Y-15449929D01*
X10283214Y-15435643D01*
X10268928Y-15407071D01*
X10254643Y-15349929D01*
X10254643Y-15278500D01*
X10268928Y-15221357D01*
X10283214Y-15192786D01*
X10297500Y-15178500D01*
X10326071Y-15164214D01*
X10711786Y-15464214D02*
X10540357Y-15464214D01*
X10626071Y-15464214D02*
X10626071Y-15164214D01*
X10597500Y-15207071D01*
X10568928Y-15235643D01*
X10540357Y-15249929D01*
X10968928Y-15164214D02*
X10911786Y-15164214D01*
X10883214Y-15178500D01*
X10868928Y-15192786D01*
X10840357Y-15235643D01*
X10826071Y-15292786D01*
X10826071Y-15407071D01*
X10840357Y-15435643D01*
X10854643Y-15449929D01*
X10883214Y-15464214D01*
X10940357Y-15464214D01*
X10968928Y-15449929D01*
X10983214Y-15435643D01*
X10997500Y-15407071D01*
X10997500Y-15335643D01*
X10983214Y-15307071D01*
X10968928Y-15292786D01*
X10940357Y-15278500D01*
X10883214Y-15278500D01*
X10854643Y-15292786D01*
X10840357Y-15307071D01*
X10826071Y-15335643D01*
X11111786Y-15164214D02*
X11111786Y-15221357D01*
X11226071Y-15164214D02*
X11226071Y-15221357D01*
X11668928Y-15578500D02*
X11654643Y-15564214D01*
X11626071Y-15521357D01*
X11611786Y-15492786D01*
X11597500Y-15449929D01*
X11583214Y-15378500D01*
X11583214Y-15321357D01*
X11597500Y-15249929D01*
X11611786Y-15207071D01*
X11626071Y-15178500D01*
X11654643Y-15135643D01*
X11668928Y-15121357D01*
X11797500Y-15464214D02*
X11854643Y-15464214D01*
X11883214Y-15449929D01*
X11897500Y-15435643D01*
X11926071Y-15392786D01*
X11940357Y-15335643D01*
X11940357Y-15221357D01*
X11926071Y-15192786D01*
X11911786Y-15178500D01*
X11883214Y-15164214D01*
X11826071Y-15164214D01*
X11797500Y-15178500D01*
X11783214Y-15192786D01*
X11768928Y-15221357D01*
X11768928Y-15292786D01*
X11783214Y-15321357D01*
X11797500Y-15335643D01*
X11826071Y-15349929D01*
X11883214Y-15349929D01*
X11911786Y-15335643D01*
X11926071Y-15321357D01*
X11940357Y-15292786D01*
X12211786Y-15164214D02*
X12068928Y-15164214D01*
X12054643Y-15307071D01*
X12068928Y-15292786D01*
X12097500Y-15278500D01*
X12168928Y-15278500D01*
X12197500Y-15292786D01*
X12211786Y-15307071D01*
X12226071Y-15335643D01*
X12226071Y-15407071D01*
X12211786Y-15435643D01*
X12197500Y-15449929D01*
X12168928Y-15464214D01*
X12097500Y-15464214D01*
X12068928Y-15449929D01*
X12054643Y-15435643D01*
X12583214Y-15464214D02*
X12583214Y-15164214D01*
X12711786Y-15464214D02*
X12711786Y-15307071D01*
X12697500Y-15278500D01*
X12668928Y-15264214D01*
X12626071Y-15264214D01*
X12597500Y-15278500D01*
X12583214Y-15292786D01*
X12897500Y-15464214D02*
X12868928Y-15449929D01*
X12854643Y-15435643D01*
X12840357Y-15407071D01*
X12840357Y-15321357D01*
X12854643Y-15292786D01*
X12868928Y-15278500D01*
X12897500Y-15264214D01*
X12940357Y-15264214D01*
X12968928Y-15278500D01*
X12983214Y-15292786D01*
X12997500Y-15321357D01*
X12997500Y-15407071D01*
X12983214Y-15435643D01*
X12968928Y-15449929D01*
X12940357Y-15464214D01*
X12897500Y-15464214D01*
X13168928Y-15464214D02*
X13140357Y-15449929D01*
X13126071Y-15421357D01*
X13126071Y-15164214D01*
X13397500Y-15449929D02*
X13368928Y-15464214D01*
X13311786Y-15464214D01*
X13283214Y-15449929D01*
X13268928Y-15421357D01*
X13268928Y-15307071D01*
X13283214Y-15278500D01*
X13311786Y-15264214D01*
X13368928Y-15264214D01*
X13397500Y-15278500D01*
X13411786Y-15307071D01*
X13411786Y-15335643D01*
X13268928Y-15364214D01*
X13526071Y-15449929D02*
X13554643Y-15464214D01*
X13611786Y-15464214D01*
X13640357Y-15449929D01*
X13654643Y-15421357D01*
X13654643Y-15407071D01*
X13640357Y-15378500D01*
X13611786Y-15364214D01*
X13568928Y-15364214D01*
X13540357Y-15349929D01*
X13526071Y-15321357D01*
X13526071Y-15307071D01*
X13540357Y-15278500D01*
X13568928Y-15264214D01*
X13611786Y-15264214D01*
X13640357Y-15278500D01*
X13754643Y-15578500D02*
X13768928Y-15564214D01*
X13797500Y-15521357D01*
X13811786Y-15492786D01*
X13826071Y-15449929D01*
X13840357Y-15378500D01*
X13840357Y-15321357D01*
X13826071Y-15249929D01*
X13811786Y-15207071D01*
X13797500Y-15178500D01*
X13768928Y-15135643D01*
X13754643Y-15121357D01*
X6952500Y-15694500D02*
X6952500Y-15754500D01*
X6922500Y-15724500D02*
X6982500Y-15724500D01*
X7326071Y-15560214D02*
X7354643Y-15560214D01*
X7383214Y-15574500D01*
X7397500Y-15588786D01*
X7411786Y-15617357D01*
X7426071Y-15674500D01*
X7426071Y-15745929D01*
X7411786Y-15803071D01*
X7397500Y-15831643D01*
X7383214Y-15845929D01*
X7354643Y-15860214D01*
X7326071Y-15860214D01*
X7297500Y-15845929D01*
X7283214Y-15831643D01*
X7268928Y-15803071D01*
X7254643Y-15745929D01*
X7254643Y-15674500D01*
X7268928Y-15617357D01*
X7283214Y-15588786D01*
X7297500Y-15574500D01*
X7326071Y-15560214D01*
X7554643Y-15831643D02*
X7568928Y-15845929D01*
X7554643Y-15860214D01*
X7540357Y-15845929D01*
X7554643Y-15831643D01*
X7554643Y-15860214D01*
X7826071Y-15560214D02*
X7768928Y-15560214D01*
X7740357Y-15574500D01*
X7726071Y-15588786D01*
X7697500Y-15631643D01*
X7683214Y-15688786D01*
X7683214Y-15803071D01*
X7697500Y-15831643D01*
X7711786Y-15845929D01*
X7740357Y-15860214D01*
X7797500Y-15860214D01*
X7826071Y-15845929D01*
X7840357Y-15831643D01*
X7854643Y-15803071D01*
X7854643Y-15731643D01*
X7840357Y-15703071D01*
X7826071Y-15688786D01*
X7797500Y-15674500D01*
X7740357Y-15674500D01*
X7711786Y-15688786D01*
X7697500Y-15703071D01*
X7683214Y-15731643D01*
X8040357Y-15560214D02*
X8068928Y-15560214D01*
X8097500Y-15574500D01*
X8111786Y-15588786D01*
X8126071Y-15617357D01*
X8140357Y-15674500D01*
X8140357Y-15745929D01*
X8126071Y-15803071D01*
X8111786Y-15831643D01*
X8097500Y-15845929D01*
X8068928Y-15860214D01*
X8040357Y-15860214D01*
X8011786Y-15845929D01*
X7997500Y-15831643D01*
X7983214Y-15803071D01*
X7968928Y-15745929D01*
X7968928Y-15674500D01*
X7983214Y-15617357D01*
X7997500Y-15588786D01*
X8011786Y-15574500D01*
X8040357Y-15560214D01*
X8268928Y-15860214D02*
X8268928Y-15660214D01*
X8268928Y-15688786D02*
X8283214Y-15674500D01*
X8311786Y-15660214D01*
X8354643Y-15660214D01*
X8383214Y-15674500D01*
X8397500Y-15703071D01*
X8397500Y-15860214D01*
X8397500Y-15703071D02*
X8411786Y-15674500D01*
X8440357Y-15660214D01*
X8483214Y-15660214D01*
X8511786Y-15674500D01*
X8526071Y-15703071D01*
X8526071Y-15860214D01*
X8668928Y-15860214D02*
X8668928Y-15660214D01*
X8668928Y-15688786D02*
X8683214Y-15674500D01*
X8711786Y-15660214D01*
X8754643Y-15660214D01*
X8783214Y-15674500D01*
X8797500Y-15703071D01*
X8797500Y-15860214D01*
X8797500Y-15703071D02*
X8811786Y-15674500D01*
X8840357Y-15660214D01*
X8883214Y-15660214D01*
X8911786Y-15674500D01*
X8926071Y-15703071D01*
X8926071Y-15860214D01*
X9511786Y-15545929D02*
X9254643Y-15931643D01*
X9897500Y-15560214D02*
X9926071Y-15560214D01*
X9954643Y-15574500D01*
X9968928Y-15588786D01*
X9983214Y-15617357D01*
X9997500Y-15674500D01*
X9997500Y-15745929D01*
X9983214Y-15803071D01*
X9968928Y-15831643D01*
X9954643Y-15845929D01*
X9926071Y-15860214D01*
X9897500Y-15860214D01*
X9868928Y-15845929D01*
X9854643Y-15831643D01*
X9840357Y-15803071D01*
X9826071Y-15745929D01*
X9826071Y-15674500D01*
X9840357Y-15617357D01*
X9854643Y-15588786D01*
X9868928Y-15574500D01*
X9897500Y-15560214D01*
X10126071Y-15831643D02*
X10140357Y-15845929D01*
X10126071Y-15860214D01*
X10111786Y-15845929D01*
X10126071Y-15831643D01*
X10126071Y-15860214D01*
X10326071Y-15560214D02*
X10354643Y-15560214D01*
X10383214Y-15574500D01*
X10397500Y-15588786D01*
X10411786Y-15617357D01*
X10426071Y-15674500D01*
X10426071Y-15745929D01*
X10411786Y-15803071D01*
X10397500Y-15831643D01*
X10383214Y-15845929D01*
X10354643Y-15860214D01*
X10326071Y-15860214D01*
X10297500Y-15845929D01*
X10283214Y-15831643D01*
X10268928Y-15803071D01*
X10254643Y-15745929D01*
X10254643Y-15674500D01*
X10268928Y-15617357D01*
X10283214Y-15588786D01*
X10297500Y-15574500D01*
X10326071Y-15560214D01*
X10540357Y-15588786D02*
X10554643Y-15574500D01*
X10583214Y-15560214D01*
X10654643Y-15560214D01*
X10683214Y-15574500D01*
X10697500Y-15588786D01*
X10711786Y-15617357D01*
X10711786Y-15645929D01*
X10697500Y-15688786D01*
X10526071Y-15860214D01*
X10711786Y-15860214D01*
X10968928Y-15660214D02*
X10968928Y-15860214D01*
X10897500Y-15545929D02*
X10826071Y-15760214D01*
X11011786Y-15760214D01*
X11111786Y-15560214D02*
X11111786Y-15617357D01*
X11226071Y-15560214D02*
X11226071Y-15617357D01*
X11668928Y-15974500D02*
X11654643Y-15960214D01*
X11626071Y-15917357D01*
X11611786Y-15888786D01*
X11597500Y-15845929D01*
X11583214Y-15774500D01*
X11583214Y-15717357D01*
X11597500Y-15645929D01*
X11611786Y-15603071D01*
X11626071Y-15574500D01*
X11654643Y-15531643D01*
X11668928Y-15517357D01*
X11840357Y-15560214D02*
X11868928Y-15560214D01*
X11897500Y-15574500D01*
X11911786Y-15588786D01*
X11926071Y-15617357D01*
X11940357Y-15674500D01*
X11940357Y-15745929D01*
X11926071Y-15803071D01*
X11911786Y-15831643D01*
X11897500Y-15845929D01*
X11868928Y-15860214D01*
X11840357Y-15860214D01*
X11811786Y-15845929D01*
X11797500Y-15831643D01*
X11783214Y-15803071D01*
X11768928Y-15745929D01*
X11768928Y-15674500D01*
X11783214Y-15617357D01*
X11797500Y-15588786D01*
X11811786Y-15574500D01*
X11840357Y-15560214D01*
X12297500Y-15860214D02*
X12297500Y-15560214D01*
X12426071Y-15860214D02*
X12426071Y-15703071D01*
X12411786Y-15674500D01*
X12383214Y-15660214D01*
X12340357Y-15660214D01*
X12311786Y-15674500D01*
X12297500Y-15688786D01*
X12611786Y-15860214D02*
X12583214Y-15845929D01*
X12568928Y-15831643D01*
X12554643Y-15803071D01*
X12554643Y-15717357D01*
X12568928Y-15688786D01*
X12583214Y-15674500D01*
X12611786Y-15660214D01*
X12654643Y-15660214D01*
X12683214Y-15674500D01*
X12697500Y-15688786D01*
X12711786Y-15717357D01*
X12711786Y-15803071D01*
X12697500Y-15831643D01*
X12683214Y-15845929D01*
X12654643Y-15860214D01*
X12611786Y-15860214D01*
X12883214Y-15860214D02*
X12854643Y-15845929D01*
X12840357Y-15817357D01*
X12840357Y-15560214D01*
X13111786Y-15845929D02*
X13083214Y-15860214D01*
X13026071Y-15860214D01*
X12997500Y-15845929D01*
X12983214Y-15817357D01*
X12983214Y-15703071D01*
X12997500Y-15674500D01*
X13026071Y-15660214D01*
X13083214Y-15660214D01*
X13111786Y-15674500D01*
X13126071Y-15703071D01*
X13126071Y-15731643D01*
X12983214Y-15760214D01*
X13240357Y-15845929D02*
X13268928Y-15860214D01*
X13326071Y-15860214D01*
X13354643Y-15845929D01*
X13368928Y-15817357D01*
X13368928Y-15803071D01*
X13354643Y-15774500D01*
X13326071Y-15760214D01*
X13283214Y-15760214D01*
X13254643Y-15745929D01*
X13240357Y-15717357D01*
X13240357Y-15703071D01*
X13254643Y-15674500D01*
X13283214Y-15660214D01*
X13326071Y-15660214D01*
X13354643Y-15674500D01*
X13726071Y-15745929D02*
X13954643Y-15745929D01*
X13840357Y-15860214D02*
X13840357Y-15631643D01*
X14311786Y-15588786D02*
X14326071Y-15574500D01*
X14354643Y-15560214D01*
X14426071Y-15560214D01*
X14454643Y-15574500D01*
X14468928Y-15588786D01*
X14483214Y-15617357D01*
X14483214Y-15645929D01*
X14468928Y-15688786D01*
X14297500Y-15860214D01*
X14483214Y-15860214D01*
X14826071Y-15845929D02*
X14854643Y-15860214D01*
X14911786Y-15860214D01*
X14940357Y-15845929D01*
X14954643Y-15817357D01*
X14954643Y-15803071D01*
X14940357Y-15774500D01*
X14911786Y-15760214D01*
X14868928Y-15760214D01*
X14840357Y-15745929D01*
X14826071Y-15717357D01*
X14826071Y-15703071D01*
X14840357Y-15674500D01*
X14868928Y-15660214D01*
X14911786Y-15660214D01*
X14940357Y-15674500D01*
X15126071Y-15860214D02*
X15097500Y-15845929D01*
X15083214Y-15817357D01*
X15083214Y-15560214D01*
X15283214Y-15860214D02*
X15254643Y-15845929D01*
X15240357Y-15831643D01*
X15226071Y-15803071D01*
X15226071Y-15717357D01*
X15240357Y-15688786D01*
X15254643Y-15674500D01*
X15283214Y-15660214D01*
X15326071Y-15660214D01*
X15354643Y-15674500D01*
X15368928Y-15688786D01*
X15383214Y-15717357D01*
X15383214Y-15803071D01*
X15368928Y-15831643D01*
X15354643Y-15845929D01*
X15326071Y-15860214D01*
X15283214Y-15860214D01*
X15468928Y-15660214D02*
X15583214Y-15660214D01*
X15511786Y-15560214D02*
X15511786Y-15817357D01*
X15526071Y-15845929D01*
X15554643Y-15860214D01*
X15583214Y-15860214D01*
X15668928Y-15845929D02*
X15697500Y-15860214D01*
X15754643Y-15860214D01*
X15783214Y-15845929D01*
X15797500Y-15817357D01*
X15797500Y-15803071D01*
X15783214Y-15774500D01*
X15754643Y-15760214D01*
X15711786Y-15760214D01*
X15683214Y-15745929D01*
X15668928Y-15717357D01*
X15668928Y-15703071D01*
X15683214Y-15674500D01*
X15711786Y-15660214D01*
X15754643Y-15660214D01*
X15783214Y-15674500D01*
X15897500Y-15974500D02*
X15911786Y-15960214D01*
X15940357Y-15917357D01*
X15954643Y-15888786D01*
X15968928Y-15845929D01*
X15983214Y-15774500D01*
X15983214Y-15717357D01*
X15968928Y-15645929D01*
X15954643Y-15603071D01*
X15940357Y-15574500D01*
X15911786Y-15531643D01*
X15897500Y-15517357D01*
X6970052Y-16150552D02*
X6970052Y-16090448D01*
X6909948Y-16090448D01*
X6909948Y-16150552D01*
X6970052Y-16150552D01*
X7326071Y-15956214D02*
X7354643Y-15956214D01*
X7383214Y-15970500D01*
X7397500Y-15984786D01*
X7411786Y-16013357D01*
X7426071Y-16070500D01*
X7426071Y-16141929D01*
X7411786Y-16199071D01*
X7397500Y-16227643D01*
X7383214Y-16241929D01*
X7354643Y-16256214D01*
X7326071Y-16256214D01*
X7297500Y-16241929D01*
X7283214Y-16227643D01*
X7268928Y-16199071D01*
X7254643Y-16141929D01*
X7254643Y-16070500D01*
X7268928Y-16013357D01*
X7283214Y-15984786D01*
X7297500Y-15970500D01*
X7326071Y-15956214D01*
X7554643Y-16227643D02*
X7568928Y-16241929D01*
X7554643Y-16256214D01*
X7540357Y-16241929D01*
X7554643Y-16227643D01*
X7554643Y-16256214D01*
X7740357Y-16084786D02*
X7711786Y-16070500D01*
X7697500Y-16056214D01*
X7683214Y-16027643D01*
X7683214Y-16013357D01*
X7697500Y-15984786D01*
X7711786Y-15970500D01*
X7740357Y-15956214D01*
X7797500Y-15956214D01*
X7826071Y-15970500D01*
X7840357Y-15984786D01*
X7854643Y-16013357D01*
X7854643Y-16027643D01*
X7840357Y-16056214D01*
X7826071Y-16070500D01*
X7797500Y-16084786D01*
X7740357Y-16084786D01*
X7711786Y-16099071D01*
X7697500Y-16113357D01*
X7683214Y-16141929D01*
X7683214Y-16199071D01*
X7697500Y-16227643D01*
X7711786Y-16241929D01*
X7740357Y-16256214D01*
X7797500Y-16256214D01*
X7826071Y-16241929D01*
X7840357Y-16227643D01*
X7854643Y-16199071D01*
X7854643Y-16141929D01*
X7840357Y-16113357D01*
X7826071Y-16099071D01*
X7797500Y-16084786D01*
X8126071Y-15956214D02*
X7983214Y-15956214D01*
X7968928Y-16099071D01*
X7983214Y-16084786D01*
X8011786Y-16070500D01*
X8083214Y-16070500D01*
X8111786Y-16084786D01*
X8126071Y-16099071D01*
X8140357Y-16127643D01*
X8140357Y-16199071D01*
X8126071Y-16227643D01*
X8111786Y-16241929D01*
X8083214Y-16256214D01*
X8011786Y-16256214D01*
X7983214Y-16241929D01*
X7968928Y-16227643D01*
X8268928Y-16256214D02*
X8268928Y-16056214D01*
X8268928Y-16084786D02*
X8283214Y-16070500D01*
X8311786Y-16056214D01*
X8354643Y-16056214D01*
X8383214Y-16070500D01*
X8397500Y-16099071D01*
X8397500Y-16256214D01*
X8397500Y-16099071D02*
X8411786Y-16070500D01*
X8440357Y-16056214D01*
X8483214Y-16056214D01*
X8511786Y-16070500D01*
X8526071Y-16099071D01*
X8526071Y-16256214D01*
X8668928Y-16256214D02*
X8668928Y-16056214D01*
X8668928Y-16084786D02*
X8683214Y-16070500D01*
X8711786Y-16056214D01*
X8754643Y-16056214D01*
X8783214Y-16070500D01*
X8797500Y-16099071D01*
X8797500Y-16256214D01*
X8797500Y-16099071D02*
X8811786Y-16070500D01*
X8840357Y-16056214D01*
X8883214Y-16056214D01*
X8911786Y-16070500D01*
X8926071Y-16099071D01*
X8926071Y-16256214D01*
X9511786Y-15941929D02*
X9254643Y-16327643D01*
X9897500Y-15956214D02*
X9926071Y-15956214D01*
X9954643Y-15970500D01*
X9968928Y-15984786D01*
X9983214Y-16013357D01*
X9997500Y-16070500D01*
X9997500Y-16141929D01*
X9983214Y-16199071D01*
X9968928Y-16227643D01*
X9954643Y-16241929D01*
X9926071Y-16256214D01*
X9897500Y-16256214D01*
X9868928Y-16241929D01*
X9854643Y-16227643D01*
X9840357Y-16199071D01*
X9826071Y-16141929D01*
X9826071Y-16070500D01*
X9840357Y-16013357D01*
X9854643Y-15984786D01*
X9868928Y-15970500D01*
X9897500Y-15956214D01*
X10126071Y-16227643D02*
X10140357Y-16241929D01*
X10126071Y-16256214D01*
X10111786Y-16241929D01*
X10126071Y-16227643D01*
X10126071Y-16256214D01*
X10326071Y-15956214D02*
X10354643Y-15956214D01*
X10383214Y-15970500D01*
X10397500Y-15984786D01*
X10411786Y-16013357D01*
X10426071Y-16070500D01*
X10426071Y-16141929D01*
X10411786Y-16199071D01*
X10397500Y-16227643D01*
X10383214Y-16241929D01*
X10354643Y-16256214D01*
X10326071Y-16256214D01*
X10297500Y-16241929D01*
X10283214Y-16227643D01*
X10268928Y-16199071D01*
X10254643Y-16141929D01*
X10254643Y-16070500D01*
X10268928Y-16013357D01*
X10283214Y-15984786D01*
X10297500Y-15970500D01*
X10326071Y-15956214D01*
X10526071Y-15956214D02*
X10711786Y-15956214D01*
X10611786Y-16070500D01*
X10654643Y-16070500D01*
X10683214Y-16084786D01*
X10697500Y-16099071D01*
X10711786Y-16127643D01*
X10711786Y-16199071D01*
X10697500Y-16227643D01*
X10683214Y-16241929D01*
X10654643Y-16256214D01*
X10568928Y-16256214D01*
X10540357Y-16241929D01*
X10526071Y-16227643D01*
X10811786Y-15956214D02*
X10997500Y-15956214D01*
X10897500Y-16070500D01*
X10940357Y-16070500D01*
X10968928Y-16084786D01*
X10983214Y-16099071D01*
X10997500Y-16127643D01*
X10997500Y-16199071D01*
X10983214Y-16227643D01*
X10968928Y-16241929D01*
X10940357Y-16256214D01*
X10854643Y-16256214D01*
X10826071Y-16241929D01*
X10811786Y-16227643D01*
X11111786Y-15956214D02*
X11111786Y-16013357D01*
X11226071Y-15956214D02*
X11226071Y-16013357D01*
X11668928Y-16370500D02*
X11654643Y-16356214D01*
X11626071Y-16313357D01*
X11611786Y-16284786D01*
X11597500Y-16241929D01*
X11583214Y-16170500D01*
X11583214Y-16113357D01*
X11597500Y-16041929D01*
X11611786Y-15999071D01*
X11626071Y-15970500D01*
X11654643Y-15927643D01*
X11668928Y-15913357D01*
X11768928Y-15984786D02*
X11783214Y-15970500D01*
X11811786Y-15956214D01*
X11883214Y-15956214D01*
X11911786Y-15970500D01*
X11926071Y-15984786D01*
X11940357Y-16013357D01*
X11940357Y-16041929D01*
X11926071Y-16084786D01*
X11754643Y-16256214D01*
X11940357Y-16256214D01*
X12297500Y-16256214D02*
X12297500Y-15956214D01*
X12426071Y-16256214D02*
X12426071Y-16099071D01*
X12411786Y-16070500D01*
X12383214Y-16056214D01*
X12340357Y-16056214D01*
X12311786Y-16070500D01*
X12297500Y-16084786D01*
X12611786Y-16256214D02*
X12583214Y-16241929D01*
X12568928Y-16227643D01*
X12554643Y-16199071D01*
X12554643Y-16113357D01*
X12568928Y-16084786D01*
X12583214Y-16070500D01*
X12611786Y-16056214D01*
X12654643Y-16056214D01*
X12683214Y-16070500D01*
X12697500Y-16084786D01*
X12711786Y-16113357D01*
X12711786Y-16199071D01*
X12697500Y-16227643D01*
X12683214Y-16241929D01*
X12654643Y-16256214D01*
X12611786Y-16256214D01*
X12883214Y-16256214D02*
X12854643Y-16241929D01*
X12840357Y-16213357D01*
X12840357Y-15956214D01*
X13111786Y-16241929D02*
X13083214Y-16256214D01*
X13026071Y-16256214D01*
X12997500Y-16241929D01*
X12983214Y-16213357D01*
X12983214Y-16099071D01*
X12997500Y-16070500D01*
X13026071Y-16056214D01*
X13083214Y-16056214D01*
X13111786Y-16070500D01*
X13126071Y-16099071D01*
X13126071Y-16127643D01*
X12983214Y-16156214D01*
X13240357Y-16241929D02*
X13268928Y-16256214D01*
X13326071Y-16256214D01*
X13354643Y-16241929D01*
X13368928Y-16213357D01*
X13368928Y-16199071D01*
X13354643Y-16170500D01*
X13326071Y-16156214D01*
X13283214Y-16156214D01*
X13254643Y-16141929D01*
X13240357Y-16113357D01*
X13240357Y-16099071D01*
X13254643Y-16070500D01*
X13283214Y-16056214D01*
X13326071Y-16056214D01*
X13354643Y-16070500D01*
X13468928Y-16370500D02*
X13483214Y-16356214D01*
X13511786Y-16313357D01*
X13526071Y-16284786D01*
X13540357Y-16241929D01*
X13554643Y-16170500D01*
X13554643Y-16113357D01*
X13540357Y-16041929D01*
X13526071Y-15999071D01*
X13511786Y-15970500D01*
X13483214Y-15927643D01*
X13468928Y-15913357D01*
X6932500Y-16566500D02*
X6982500Y-16516500D01*
X6932500Y-16466500D01*
X6882500Y-16516500D01*
X6932500Y-16566500D01*
X7426071Y-16652214D02*
X7254643Y-16652214D01*
X7340357Y-16652214D02*
X7340357Y-16352214D01*
X7311786Y-16395071D01*
X7283214Y-16423643D01*
X7254643Y-16437929D01*
X7554643Y-16623643D02*
X7568928Y-16637929D01*
X7554643Y-16652214D01*
X7540357Y-16637929D01*
X7554643Y-16623643D01*
X7554643Y-16652214D01*
X7754643Y-16352214D02*
X7783214Y-16352214D01*
X7811786Y-16366500D01*
X7826071Y-16380786D01*
X7840357Y-16409357D01*
X7854643Y-16466500D01*
X7854643Y-16537929D01*
X7840357Y-16595071D01*
X7826071Y-16623643D01*
X7811786Y-16637929D01*
X7783214Y-16652214D01*
X7754643Y-16652214D01*
X7726071Y-16637929D01*
X7711786Y-16623643D01*
X7697500Y-16595071D01*
X7683214Y-16537929D01*
X7683214Y-16466500D01*
X7697500Y-16409357D01*
X7711786Y-16380786D01*
X7726071Y-16366500D01*
X7754643Y-16352214D01*
X8040357Y-16352214D02*
X8068928Y-16352214D01*
X8097500Y-16366500D01*
X8111786Y-16380786D01*
X8126071Y-16409357D01*
X8140357Y-16466500D01*
X8140357Y-16537929D01*
X8126071Y-16595071D01*
X8111786Y-16623643D01*
X8097500Y-16637929D01*
X8068928Y-16652214D01*
X8040357Y-16652214D01*
X8011786Y-16637929D01*
X7997500Y-16623643D01*
X7983214Y-16595071D01*
X7968928Y-16537929D01*
X7968928Y-16466500D01*
X7983214Y-16409357D01*
X7997500Y-16380786D01*
X8011786Y-16366500D01*
X8040357Y-16352214D01*
X8268928Y-16652214D02*
X8268928Y-16452214D01*
X8268928Y-16480786D02*
X8283214Y-16466500D01*
X8311786Y-16452214D01*
X8354643Y-16452214D01*
X8383214Y-16466500D01*
X8397500Y-16495071D01*
X8397500Y-16652214D01*
X8397500Y-16495071D02*
X8411786Y-16466500D01*
X8440357Y-16452214D01*
X8483214Y-16452214D01*
X8511786Y-16466500D01*
X8526071Y-16495071D01*
X8526071Y-16652214D01*
X8668928Y-16652214D02*
X8668928Y-16452214D01*
X8668928Y-16480786D02*
X8683214Y-16466500D01*
X8711786Y-16452214D01*
X8754643Y-16452214D01*
X8783214Y-16466500D01*
X8797500Y-16495071D01*
X8797500Y-16652214D01*
X8797500Y-16495071D02*
X8811786Y-16466500D01*
X8840357Y-16452214D01*
X8883214Y-16452214D01*
X8911786Y-16466500D01*
X8926071Y-16495071D01*
X8926071Y-16652214D01*
X9511786Y-16337929D02*
X9254643Y-16723643D01*
X9897500Y-16352214D02*
X9926071Y-16352214D01*
X9954643Y-16366500D01*
X9968928Y-16380786D01*
X9983214Y-16409357D01*
X9997500Y-16466500D01*
X9997500Y-16537929D01*
X9983214Y-16595071D01*
X9968928Y-16623643D01*
X9954643Y-16637929D01*
X9926071Y-16652214D01*
X9897500Y-16652214D01*
X9868928Y-16637929D01*
X9854643Y-16623643D01*
X9840357Y-16595071D01*
X9826071Y-16537929D01*
X9826071Y-16466500D01*
X9840357Y-16409357D01*
X9854643Y-16380786D01*
X9868928Y-16366500D01*
X9897500Y-16352214D01*
X10126071Y-16623643D02*
X10140357Y-16637929D01*
X10126071Y-16652214D01*
X10111786Y-16637929D01*
X10126071Y-16623643D01*
X10126071Y-16652214D01*
X10326071Y-16352214D02*
X10354643Y-16352214D01*
X10383214Y-16366500D01*
X10397500Y-16380786D01*
X10411786Y-16409357D01*
X10426071Y-16466500D01*
X10426071Y-16537929D01*
X10411786Y-16595071D01*
X10397500Y-16623643D01*
X10383214Y-16637929D01*
X10354643Y-16652214D01*
X10326071Y-16652214D01*
X10297500Y-16637929D01*
X10283214Y-16623643D01*
X10268928Y-16595071D01*
X10254643Y-16537929D01*
X10254643Y-16466500D01*
X10268928Y-16409357D01*
X10283214Y-16380786D01*
X10297500Y-16366500D01*
X10326071Y-16352214D01*
X10526071Y-16352214D02*
X10711786Y-16352214D01*
X10611786Y-16466500D01*
X10654643Y-16466500D01*
X10683214Y-16480786D01*
X10697500Y-16495071D01*
X10711786Y-16523643D01*
X10711786Y-16595071D01*
X10697500Y-16623643D01*
X10683214Y-16637929D01*
X10654643Y-16652214D01*
X10568928Y-16652214D01*
X10540357Y-16637929D01*
X10526071Y-16623643D01*
X10854643Y-16652214D02*
X10911786Y-16652214D01*
X10940357Y-16637929D01*
X10954643Y-16623643D01*
X10983214Y-16580786D01*
X10997500Y-16523643D01*
X10997500Y-16409357D01*
X10983214Y-16380786D01*
X10968928Y-16366500D01*
X10940357Y-16352214D01*
X10883214Y-16352214D01*
X10854643Y-16366500D01*
X10840357Y-16380786D01*
X10826071Y-16409357D01*
X10826071Y-16480786D01*
X10840357Y-16509357D01*
X10854643Y-16523643D01*
X10883214Y-16537929D01*
X10940357Y-16537929D01*
X10968928Y-16523643D01*
X10983214Y-16509357D01*
X10997500Y-16480786D01*
X11111786Y-16352214D02*
X11111786Y-16409357D01*
X11226071Y-16352214D02*
X11226071Y-16409357D01*
X11668928Y-16766500D02*
X11654643Y-16752214D01*
X11626071Y-16709357D01*
X11611786Y-16680786D01*
X11597500Y-16637929D01*
X11583214Y-16566500D01*
X11583214Y-16509357D01*
X11597500Y-16437929D01*
X11611786Y-16395071D01*
X11626071Y-16366500D01*
X11654643Y-16323643D01*
X11668928Y-16309357D01*
X11754643Y-16352214D02*
X11940357Y-16352214D01*
X11840357Y-16466500D01*
X11883214Y-16466500D01*
X11911786Y-16480786D01*
X11926071Y-16495071D01*
X11940357Y-16523643D01*
X11940357Y-16595071D01*
X11926071Y-16623643D01*
X11911786Y-16637929D01*
X11883214Y-16652214D01*
X11797500Y-16652214D01*
X11768928Y-16637929D01*
X11754643Y-16623643D01*
X12111786Y-16480786D02*
X12083214Y-16466500D01*
X12068928Y-16452214D01*
X12054643Y-16423643D01*
X12054643Y-16409357D01*
X12068928Y-16380786D01*
X12083214Y-16366500D01*
X12111786Y-16352214D01*
X12168928Y-16352214D01*
X12197500Y-16366500D01*
X12211786Y-16380786D01*
X12226071Y-16409357D01*
X12226071Y-16423643D01*
X12211786Y-16452214D01*
X12197500Y-16466500D01*
X12168928Y-16480786D01*
X12111786Y-16480786D01*
X12083214Y-16495071D01*
X12068928Y-16509357D01*
X12054643Y-16537929D01*
X12054643Y-16595071D01*
X12068928Y-16623643D01*
X12083214Y-16637929D01*
X12111786Y-16652214D01*
X12168928Y-16652214D01*
X12197500Y-16637929D01*
X12211786Y-16623643D01*
X12226071Y-16595071D01*
X12226071Y-16537929D01*
X12211786Y-16509357D01*
X12197500Y-16495071D01*
X12168928Y-16480786D01*
X12583214Y-16652214D02*
X12583214Y-16352214D01*
X12711786Y-16652214D02*
X12711786Y-16495071D01*
X12697500Y-16466500D01*
X12668928Y-16452214D01*
X12626071Y-16452214D01*
X12597500Y-16466500D01*
X12583214Y-16480786D01*
X12897500Y-16652214D02*
X12868928Y-16637929D01*
X12854643Y-16623643D01*
X12840357Y-16595071D01*
X12840357Y-16509357D01*
X12854643Y-16480786D01*
X12868928Y-16466500D01*
X12897500Y-16452214D01*
X12940357Y-16452214D01*
X12968928Y-16466500D01*
X12983214Y-16480786D01*
X12997500Y-16509357D01*
X12997500Y-16595071D01*
X12983214Y-16623643D01*
X12968928Y-16637929D01*
X12940357Y-16652214D01*
X12897500Y-16652214D01*
X13168928Y-16652214D02*
X13140357Y-16637929D01*
X13126071Y-16609357D01*
X13126071Y-16352214D01*
X13397500Y-16637929D02*
X13368928Y-16652214D01*
X13311786Y-16652214D01*
X13283214Y-16637929D01*
X13268928Y-16609357D01*
X13268928Y-16495071D01*
X13283214Y-16466500D01*
X13311786Y-16452214D01*
X13368928Y-16452214D01*
X13397500Y-16466500D01*
X13411786Y-16495071D01*
X13411786Y-16523643D01*
X13268928Y-16552214D01*
X13526071Y-16637929D02*
X13554643Y-16652214D01*
X13611786Y-16652214D01*
X13640357Y-16637929D01*
X13654643Y-16609357D01*
X13654643Y-16595071D01*
X13640357Y-16566500D01*
X13611786Y-16552214D01*
X13568928Y-16552214D01*
X13540357Y-16537929D01*
X13526071Y-16509357D01*
X13526071Y-16495071D01*
X13540357Y-16466500D01*
X13568928Y-16452214D01*
X13611786Y-16452214D01*
X13640357Y-16466500D01*
X13754643Y-16766500D02*
X13768928Y-16752214D01*
X13797500Y-16709357D01*
X13811786Y-16680786D01*
X13826071Y-16637929D01*
X13840357Y-16566500D01*
X13840357Y-16509357D01*
X13826071Y-16437929D01*
X13811786Y-16395071D01*
X13797500Y-16366500D01*
X13768928Y-16323643D01*
X13754643Y-16309357D01*
X6850500Y-16846500D02*
X6982500Y-16978500D01*
X6982500Y-16846500D02*
X6850500Y-16978500D01*
X6982500Y-16912500D02*
G75*
G03*
X6982500Y-16912500I-66000J0D01*
G01*
X7426071Y-17048214D02*
X7254643Y-17048214D01*
X7340357Y-17048214D02*
X7340357Y-16748214D01*
X7311786Y-16791072D01*
X7283214Y-16819643D01*
X7254643Y-16833929D01*
X7554643Y-17019643D02*
X7568928Y-17033929D01*
X7554643Y-17048214D01*
X7540357Y-17033929D01*
X7554643Y-17019643D01*
X7554643Y-17048214D01*
X7668928Y-16748214D02*
X7854643Y-16748214D01*
X7754643Y-16862500D01*
X7797500Y-16862500D01*
X7826071Y-16876786D01*
X7840357Y-16891072D01*
X7854643Y-16919643D01*
X7854643Y-16991072D01*
X7840357Y-17019643D01*
X7826071Y-17033929D01*
X7797500Y-17048214D01*
X7711786Y-17048214D01*
X7683214Y-17033929D01*
X7668928Y-17019643D01*
X7968928Y-16776786D02*
X7983214Y-16762500D01*
X8011786Y-16748214D01*
X8083214Y-16748214D01*
X8111786Y-16762500D01*
X8126071Y-16776786D01*
X8140357Y-16805357D01*
X8140357Y-16833929D01*
X8126071Y-16876786D01*
X7954643Y-17048214D01*
X8140357Y-17048214D01*
X8268928Y-17048214D02*
X8268928Y-16848214D01*
X8268928Y-16876786D02*
X8283214Y-16862500D01*
X8311786Y-16848214D01*
X8354643Y-16848214D01*
X8383214Y-16862500D01*
X8397500Y-16891072D01*
X8397500Y-17048214D01*
X8397500Y-16891072D02*
X8411786Y-16862500D01*
X8440357Y-16848214D01*
X8483214Y-16848214D01*
X8511786Y-16862500D01*
X8526071Y-16891072D01*
X8526071Y-17048214D01*
X8668928Y-17048214D02*
X8668928Y-16848214D01*
X8668928Y-16876786D02*
X8683214Y-16862500D01*
X8711786Y-16848214D01*
X8754643Y-16848214D01*
X8783214Y-16862500D01*
X8797500Y-16891072D01*
X8797500Y-17048214D01*
X8797500Y-16891072D02*
X8811786Y-16862500D01*
X8840357Y-16848214D01*
X8883214Y-16848214D01*
X8911786Y-16862500D01*
X8926071Y-16891072D01*
X8926071Y-17048214D01*
X9511786Y-16733929D02*
X9254643Y-17119643D01*
X9897500Y-16748214D02*
X9926071Y-16748214D01*
X9954643Y-16762500D01*
X9968928Y-16776786D01*
X9983214Y-16805357D01*
X9997500Y-16862500D01*
X9997500Y-16933929D01*
X9983214Y-16991072D01*
X9968928Y-17019643D01*
X9954643Y-17033929D01*
X9926071Y-17048214D01*
X9897500Y-17048214D01*
X9868928Y-17033929D01*
X9854643Y-17019643D01*
X9840357Y-16991072D01*
X9826071Y-16933929D01*
X9826071Y-16862500D01*
X9840357Y-16805357D01*
X9854643Y-16776786D01*
X9868928Y-16762500D01*
X9897500Y-16748214D01*
X10126071Y-17019643D02*
X10140357Y-17033929D01*
X10126071Y-17048214D01*
X10111786Y-17033929D01*
X10126071Y-17019643D01*
X10126071Y-17048214D01*
X10326071Y-16748214D02*
X10354643Y-16748214D01*
X10383214Y-16762500D01*
X10397500Y-16776786D01*
X10411786Y-16805357D01*
X10426071Y-16862500D01*
X10426071Y-16933929D01*
X10411786Y-16991072D01*
X10397500Y-17019643D01*
X10383214Y-17033929D01*
X10354643Y-17048214D01*
X10326071Y-17048214D01*
X10297500Y-17033929D01*
X10283214Y-17019643D01*
X10268928Y-16991072D01*
X10254643Y-16933929D01*
X10254643Y-16862500D01*
X10268928Y-16805357D01*
X10283214Y-16776786D01*
X10297500Y-16762500D01*
X10326071Y-16748214D01*
X10697500Y-16748214D02*
X10554643Y-16748214D01*
X10540357Y-16891072D01*
X10554643Y-16876786D01*
X10583214Y-16862500D01*
X10654643Y-16862500D01*
X10683214Y-16876786D01*
X10697500Y-16891072D01*
X10711786Y-16919643D01*
X10711786Y-16991072D01*
X10697500Y-17019643D01*
X10683214Y-17033929D01*
X10654643Y-17048214D01*
X10583214Y-17048214D01*
X10554643Y-17033929D01*
X10540357Y-17019643D01*
X10826071Y-16776786D02*
X10840357Y-16762500D01*
X10868928Y-16748214D01*
X10940357Y-16748214D01*
X10968928Y-16762500D01*
X10983214Y-16776786D01*
X10997500Y-16805357D01*
X10997500Y-16833929D01*
X10983214Y-16876786D01*
X10811786Y-17048214D01*
X10997500Y-17048214D01*
X11111786Y-16748214D02*
X11111786Y-16805357D01*
X11226071Y-16748214D02*
X11226071Y-16805357D01*
X11668928Y-17162500D02*
X11654643Y-17148214D01*
X11626071Y-17105357D01*
X11611786Y-17076786D01*
X11597500Y-17033929D01*
X11583214Y-16962500D01*
X11583214Y-16905357D01*
X11597500Y-16833929D01*
X11611786Y-16791072D01*
X11626071Y-16762500D01*
X11654643Y-16719643D01*
X11668928Y-16705357D01*
X11768928Y-16776786D02*
X11783214Y-16762500D01*
X11811786Y-16748214D01*
X11883214Y-16748214D01*
X11911786Y-16762500D01*
X11926071Y-16776786D01*
X11940357Y-16805357D01*
X11940357Y-16833929D01*
X11926071Y-16876786D01*
X11754643Y-17048214D01*
X11940357Y-17048214D01*
X12297500Y-17048214D02*
X12297500Y-16748214D01*
X12426071Y-17048214D02*
X12426071Y-16891072D01*
X12411786Y-16862500D01*
X12383214Y-16848214D01*
X12340357Y-16848214D01*
X12311786Y-16862500D01*
X12297500Y-16876786D01*
X12611786Y-17048214D02*
X12583214Y-17033929D01*
X12568928Y-17019643D01*
X12554643Y-16991072D01*
X12554643Y-16905357D01*
X12568928Y-16876786D01*
X12583214Y-16862500D01*
X12611786Y-16848214D01*
X12654643Y-16848214D01*
X12683214Y-16862500D01*
X12697500Y-16876786D01*
X12711786Y-16905357D01*
X12711786Y-16991072D01*
X12697500Y-17019643D01*
X12683214Y-17033929D01*
X12654643Y-17048214D01*
X12611786Y-17048214D01*
X12883214Y-17048214D02*
X12854643Y-17033929D01*
X12840357Y-17005357D01*
X12840357Y-16748214D01*
X13111786Y-17033929D02*
X13083214Y-17048214D01*
X13026071Y-17048214D01*
X12997500Y-17033929D01*
X12983214Y-17005357D01*
X12983214Y-16891072D01*
X12997500Y-16862500D01*
X13026071Y-16848214D01*
X13083214Y-16848214D01*
X13111786Y-16862500D01*
X13126071Y-16891072D01*
X13126071Y-16919643D01*
X12983214Y-16948214D01*
X13240357Y-17033929D02*
X13268928Y-17048214D01*
X13326071Y-17048214D01*
X13354643Y-17033929D01*
X13368928Y-17005357D01*
X13368928Y-16991072D01*
X13354643Y-16962500D01*
X13326071Y-16948214D01*
X13283214Y-16948214D01*
X13254643Y-16933929D01*
X13240357Y-16905357D01*
X13240357Y-16891072D01*
X13254643Y-16862500D01*
X13283214Y-16848214D01*
X13326071Y-16848214D01*
X13354643Y-16862500D01*
X13468928Y-17162500D02*
X13483214Y-17148214D01*
X13511786Y-17105357D01*
X13526071Y-17076786D01*
X13540357Y-17033929D01*
X13554643Y-16962500D01*
X13554643Y-16905357D01*
X13540357Y-16833929D01*
X13526071Y-16791072D01*
X13511786Y-16762500D01*
X13483214Y-16719643D01*
X13468928Y-16705357D01*
X6742500Y-17188500D02*
X6982500Y-17428500D01*
X6982500Y-17188500D02*
X6742500Y-17428500D01*
X6862500Y-17188500D02*
X6862500Y-17428500D01*
X6742500Y-17308500D02*
X6982500Y-17308500D01*
X7254643Y-17172786D02*
X7268928Y-17158500D01*
X7297500Y-17144214D01*
X7368928Y-17144214D01*
X7397500Y-17158500D01*
X7411786Y-17172786D01*
X7426071Y-17201357D01*
X7426071Y-17229929D01*
X7411786Y-17272786D01*
X7240357Y-17444214D01*
X7426071Y-17444214D01*
X7554643Y-17415643D02*
X7568928Y-17429929D01*
X7554643Y-17444214D01*
X7540357Y-17429929D01*
X7554643Y-17415643D01*
X7554643Y-17444214D01*
X7826071Y-17244214D02*
X7826071Y-17444214D01*
X7754643Y-17129929D02*
X7683214Y-17344214D01*
X7868928Y-17344214D01*
X8040357Y-17144214D02*
X8068928Y-17144214D01*
X8097500Y-17158500D01*
X8111786Y-17172786D01*
X8126071Y-17201357D01*
X8140357Y-17258500D01*
X8140357Y-17329929D01*
X8126071Y-17387072D01*
X8111786Y-17415643D01*
X8097500Y-17429929D01*
X8068928Y-17444214D01*
X8040357Y-17444214D01*
X8011786Y-17429929D01*
X7997500Y-17415643D01*
X7983214Y-17387072D01*
X7968928Y-17329929D01*
X7968928Y-17258500D01*
X7983214Y-17201357D01*
X7997500Y-17172786D01*
X8011786Y-17158500D01*
X8040357Y-17144214D01*
X8268928Y-17444214D02*
X8268928Y-17244214D01*
X8268928Y-17272786D02*
X8283214Y-17258500D01*
X8311786Y-17244214D01*
X8354643Y-17244214D01*
X8383214Y-17258500D01*
X8397500Y-17287072D01*
X8397500Y-17444214D01*
X8397500Y-17287072D02*
X8411786Y-17258500D01*
X8440357Y-17244214D01*
X8483214Y-17244214D01*
X8511786Y-17258500D01*
X8526071Y-17287072D01*
X8526071Y-17444214D01*
X8668928Y-17444214D02*
X8668928Y-17244214D01*
X8668928Y-17272786D02*
X8683214Y-17258500D01*
X8711786Y-17244214D01*
X8754643Y-17244214D01*
X8783214Y-17258500D01*
X8797500Y-17287072D01*
X8797500Y-17444214D01*
X8797500Y-17287072D02*
X8811786Y-17258500D01*
X8840357Y-17244214D01*
X8883214Y-17244214D01*
X8911786Y-17258500D01*
X8926071Y-17287072D01*
X8926071Y-17444214D01*
X9511786Y-17129929D02*
X9254643Y-17515643D01*
X9897500Y-17144214D02*
X9926071Y-17144214D01*
X9954643Y-17158500D01*
X9968928Y-17172786D01*
X9983214Y-17201357D01*
X9997500Y-17258500D01*
X9997500Y-17329929D01*
X9983214Y-17387072D01*
X9968928Y-17415643D01*
X9954643Y-17429929D01*
X9926071Y-17444214D01*
X9897500Y-17444214D01*
X9868928Y-17429929D01*
X9854643Y-17415643D01*
X9840357Y-17387072D01*
X9826071Y-17329929D01*
X9826071Y-17258500D01*
X9840357Y-17201357D01*
X9854643Y-17172786D01*
X9868928Y-17158500D01*
X9897500Y-17144214D01*
X10126071Y-17415643D02*
X10140357Y-17429929D01*
X10126071Y-17444214D01*
X10111786Y-17429929D01*
X10126071Y-17415643D01*
X10126071Y-17444214D01*
X10326071Y-17144214D02*
X10354643Y-17144214D01*
X10383214Y-17158500D01*
X10397500Y-17172786D01*
X10411786Y-17201357D01*
X10426071Y-17258500D01*
X10426071Y-17329929D01*
X10411786Y-17387072D01*
X10397500Y-17415643D01*
X10383214Y-17429929D01*
X10354643Y-17444214D01*
X10326071Y-17444214D01*
X10297500Y-17429929D01*
X10283214Y-17415643D01*
X10268928Y-17387072D01*
X10254643Y-17329929D01*
X10254643Y-17258500D01*
X10268928Y-17201357D01*
X10283214Y-17172786D01*
X10297500Y-17158500D01*
X10326071Y-17144214D01*
X10568928Y-17444214D02*
X10626071Y-17444214D01*
X10654643Y-17429929D01*
X10668928Y-17415643D01*
X10697500Y-17372786D01*
X10711786Y-17315643D01*
X10711786Y-17201357D01*
X10697500Y-17172786D01*
X10683214Y-17158500D01*
X10654643Y-17144214D01*
X10597500Y-17144214D01*
X10568928Y-17158500D01*
X10554643Y-17172786D01*
X10540357Y-17201357D01*
X10540357Y-17272786D01*
X10554643Y-17301357D01*
X10568928Y-17315643D01*
X10597500Y-17329929D01*
X10654643Y-17329929D01*
X10683214Y-17315643D01*
X10697500Y-17301357D01*
X10711786Y-17272786D01*
X10968928Y-17244214D02*
X10968928Y-17444214D01*
X10897500Y-17129929D02*
X10826071Y-17344214D01*
X11011786Y-17344214D01*
X11111786Y-17144214D02*
X11111786Y-17201357D01*
X11226071Y-17144214D02*
X11226071Y-17201357D01*
X11668928Y-17558500D02*
X11654643Y-17544214D01*
X11626071Y-17501357D01*
X11611786Y-17472786D01*
X11597500Y-17429929D01*
X11583214Y-17358500D01*
X11583214Y-17301357D01*
X11597500Y-17229929D01*
X11611786Y-17187072D01*
X11626071Y-17158500D01*
X11654643Y-17115643D01*
X11668928Y-17101357D01*
X11768928Y-17172786D02*
X11783214Y-17158500D01*
X11811786Y-17144214D01*
X11883214Y-17144214D01*
X11911786Y-17158500D01*
X11926071Y-17172786D01*
X11940357Y-17201357D01*
X11940357Y-17229929D01*
X11926071Y-17272786D01*
X11754643Y-17444214D01*
X11940357Y-17444214D01*
X12297500Y-17444214D02*
X12297500Y-17144214D01*
X12426071Y-17444214D02*
X12426071Y-17287072D01*
X12411786Y-17258500D01*
X12383214Y-17244214D01*
X12340357Y-17244214D01*
X12311786Y-17258500D01*
X12297500Y-17272786D01*
X12611786Y-17444214D02*
X12583214Y-17429929D01*
X12568928Y-17415643D01*
X12554643Y-17387072D01*
X12554643Y-17301357D01*
X12568928Y-17272786D01*
X12583214Y-17258500D01*
X12611786Y-17244214D01*
X12654643Y-17244214D01*
X12683214Y-17258500D01*
X12697500Y-17272786D01*
X12711786Y-17301357D01*
X12711786Y-17387072D01*
X12697500Y-17415643D01*
X12683214Y-17429929D01*
X12654643Y-17444214D01*
X12611786Y-17444214D01*
X12883214Y-17444214D02*
X12854643Y-17429929D01*
X12840357Y-17401357D01*
X12840357Y-17144214D01*
X13111786Y-17429929D02*
X13083214Y-17444214D01*
X13026071Y-17444214D01*
X12997500Y-17429929D01*
X12983214Y-17401357D01*
X12983214Y-17287072D01*
X12997500Y-17258500D01*
X13026071Y-17244214D01*
X13083214Y-17244214D01*
X13111786Y-17258500D01*
X13126071Y-17287072D01*
X13126071Y-17315643D01*
X12983214Y-17344214D01*
X13240357Y-17429929D02*
X13268928Y-17444214D01*
X13326071Y-17444214D01*
X13354643Y-17429929D01*
X13368928Y-17401357D01*
X13368928Y-17387072D01*
X13354643Y-17358500D01*
X13326071Y-17344214D01*
X13283214Y-17344214D01*
X13254643Y-17329929D01*
X13240357Y-17301357D01*
X13240357Y-17287072D01*
X13254643Y-17258500D01*
X13283214Y-17244214D01*
X13326071Y-17244214D01*
X13354643Y-17258500D01*
X13468928Y-17558500D02*
X13483214Y-17544214D01*
X13511786Y-17501357D01*
X13526071Y-17472786D01*
X13540357Y-17429929D01*
X13554643Y-17358500D01*
X13554643Y-17301357D01*
X13540357Y-17229929D01*
X13526071Y-17187072D01*
X13511786Y-17158500D01*
X13483214Y-17115643D01*
X13468928Y-17101357D01*
X6662500Y-17544500D02*
X6982500Y-17864500D01*
X6982500Y-17544500D02*
X6662500Y-17864500D01*
X6935638Y-17817638D02*
X6935638Y-17591362D01*
X6709362Y-17591362D01*
X6709362Y-17817638D01*
X6935638Y-17817638D01*
X7240357Y-17540214D02*
X7426071Y-17540214D01*
X7326071Y-17654500D01*
X7368928Y-17654500D01*
X7397500Y-17668786D01*
X7411786Y-17683072D01*
X7426071Y-17711643D01*
X7426071Y-17783072D01*
X7411786Y-17811643D01*
X7397500Y-17825929D01*
X7368928Y-17840214D01*
X7283214Y-17840214D01*
X7254643Y-17825929D01*
X7240357Y-17811643D01*
X7554643Y-17811643D02*
X7568928Y-17825929D01*
X7554643Y-17840214D01*
X7540357Y-17825929D01*
X7554643Y-17811643D01*
X7554643Y-17840214D01*
X7683214Y-17568786D02*
X7697500Y-17554500D01*
X7726071Y-17540214D01*
X7797500Y-17540214D01*
X7826071Y-17554500D01*
X7840357Y-17568786D01*
X7854643Y-17597357D01*
X7854643Y-17625929D01*
X7840357Y-17668786D01*
X7668928Y-17840214D01*
X7854643Y-17840214D01*
X8040357Y-17540214D02*
X8068928Y-17540214D01*
X8097500Y-17554500D01*
X8111786Y-17568786D01*
X8126071Y-17597357D01*
X8140357Y-17654500D01*
X8140357Y-17725929D01*
X8126071Y-17783072D01*
X8111786Y-17811643D01*
X8097500Y-17825929D01*
X8068928Y-17840214D01*
X8040357Y-17840214D01*
X8011786Y-17825929D01*
X7997500Y-17811643D01*
X7983214Y-17783072D01*
X7968928Y-17725929D01*
X7968928Y-17654500D01*
X7983214Y-17597357D01*
X7997500Y-17568786D01*
X8011786Y-17554500D01*
X8040357Y-17540214D01*
X8268928Y-17840214D02*
X8268928Y-17640214D01*
X8268928Y-17668786D02*
X8283214Y-17654500D01*
X8311786Y-17640214D01*
X8354643Y-17640214D01*
X8383214Y-17654500D01*
X8397500Y-17683072D01*
X8397500Y-17840214D01*
X8397500Y-17683072D02*
X8411786Y-17654500D01*
X8440357Y-17640214D01*
X8483214Y-17640214D01*
X8511786Y-17654500D01*
X8526071Y-17683072D01*
X8526071Y-17840214D01*
X8668928Y-17840214D02*
X8668928Y-17640214D01*
X8668928Y-17668786D02*
X8683214Y-17654500D01*
X8711786Y-17640214D01*
X8754643Y-17640214D01*
X8783214Y-17654500D01*
X8797500Y-17683072D01*
X8797500Y-17840214D01*
X8797500Y-17683072D02*
X8811786Y-17654500D01*
X8840357Y-17640214D01*
X8883214Y-17640214D01*
X8911786Y-17654500D01*
X8926071Y-17683072D01*
X8926071Y-17840214D01*
X9511786Y-17525929D02*
X9254643Y-17911643D01*
X9897500Y-17540214D02*
X9926071Y-17540214D01*
X9954643Y-17554500D01*
X9968928Y-17568786D01*
X9983214Y-17597357D01*
X9997500Y-17654500D01*
X9997500Y-17725929D01*
X9983214Y-17783072D01*
X9968928Y-17811643D01*
X9954643Y-17825929D01*
X9926071Y-17840214D01*
X9897500Y-17840214D01*
X9868928Y-17825929D01*
X9854643Y-17811643D01*
X9840357Y-17783072D01*
X9826071Y-17725929D01*
X9826071Y-17654500D01*
X9840357Y-17597357D01*
X9854643Y-17568786D01*
X9868928Y-17554500D01*
X9897500Y-17540214D01*
X10126071Y-17811643D02*
X10140357Y-17825929D01*
X10126071Y-17840214D01*
X10111786Y-17825929D01*
X10126071Y-17811643D01*
X10126071Y-17840214D01*
X10426071Y-17840214D02*
X10254643Y-17840214D01*
X10340357Y-17840214D02*
X10340357Y-17540214D01*
X10311786Y-17583072D01*
X10283214Y-17611643D01*
X10254643Y-17625929D01*
X10540357Y-17568786D02*
X10554643Y-17554500D01*
X10583214Y-17540214D01*
X10654643Y-17540214D01*
X10683214Y-17554500D01*
X10697500Y-17568786D01*
X10711786Y-17597357D01*
X10711786Y-17625929D01*
X10697500Y-17668786D01*
X10526071Y-17840214D01*
X10711786Y-17840214D01*
X10968928Y-17540214D02*
X10911786Y-17540214D01*
X10883214Y-17554500D01*
X10868928Y-17568786D01*
X10840357Y-17611643D01*
X10826071Y-17668786D01*
X10826071Y-17783072D01*
X10840357Y-17811643D01*
X10854643Y-17825929D01*
X10883214Y-17840214D01*
X10940357Y-17840214D01*
X10968928Y-17825929D01*
X10983214Y-17811643D01*
X10997500Y-17783072D01*
X10997500Y-17711643D01*
X10983214Y-17683072D01*
X10968928Y-17668786D01*
X10940357Y-17654500D01*
X10883214Y-17654500D01*
X10854643Y-17668786D01*
X10840357Y-17683072D01*
X10826071Y-17711643D01*
X11111786Y-17540214D02*
X11111786Y-17597357D01*
X11226071Y-17540214D02*
X11226071Y-17597357D01*
X11668928Y-17954500D02*
X11654643Y-17940214D01*
X11626071Y-17897357D01*
X11611786Y-17868786D01*
X11597500Y-17825929D01*
X11583214Y-17754500D01*
X11583214Y-17697357D01*
X11597500Y-17625929D01*
X11611786Y-17583072D01*
X11626071Y-17554500D01*
X11654643Y-17511643D01*
X11668928Y-17497357D01*
X11911786Y-17640214D02*
X11911786Y-17840214D01*
X11840357Y-17525929D02*
X11768928Y-17740214D01*
X11954643Y-17740214D01*
X12297500Y-17840214D02*
X12297500Y-17540214D01*
X12426071Y-17840214D02*
X12426071Y-17683072D01*
X12411786Y-17654500D01*
X12383214Y-17640214D01*
X12340357Y-17640214D01*
X12311786Y-17654500D01*
X12297500Y-17668786D01*
X12611786Y-17840214D02*
X12583214Y-17825929D01*
X12568928Y-17811643D01*
X12554643Y-17783072D01*
X12554643Y-17697357D01*
X12568928Y-17668786D01*
X12583214Y-17654500D01*
X12611786Y-17640214D01*
X12654643Y-17640214D01*
X12683214Y-17654500D01*
X12697500Y-17668786D01*
X12711786Y-17697357D01*
X12711786Y-17783072D01*
X12697500Y-17811643D01*
X12683214Y-17825929D01*
X12654643Y-17840214D01*
X12611786Y-17840214D01*
X12883214Y-17840214D02*
X12854643Y-17825929D01*
X12840357Y-17797357D01*
X12840357Y-17540214D01*
X13111786Y-17825929D02*
X13083214Y-17840214D01*
X13026071Y-17840214D01*
X12997500Y-17825929D01*
X12983214Y-17797357D01*
X12983214Y-17683072D01*
X12997500Y-17654500D01*
X13026071Y-17640214D01*
X13083214Y-17640214D01*
X13111786Y-17654500D01*
X13126071Y-17683072D01*
X13126071Y-17711643D01*
X12983214Y-17740214D01*
X13240357Y-17825929D02*
X13268928Y-17840214D01*
X13326071Y-17840214D01*
X13354643Y-17825929D01*
X13368928Y-17797357D01*
X13368928Y-17783072D01*
X13354643Y-17754500D01*
X13326071Y-17740214D01*
X13283214Y-17740214D01*
X13254643Y-17725929D01*
X13240357Y-17697357D01*
X13240357Y-17683072D01*
X13254643Y-17654500D01*
X13283214Y-17640214D01*
X13326071Y-17640214D01*
X13354643Y-17654500D01*
X13468928Y-17954500D02*
X13483214Y-17940214D01*
X13511786Y-17897357D01*
X13526071Y-17868786D01*
X13540357Y-17825929D01*
X13554643Y-17754500D01*
X13554643Y-17697357D01*
X13540357Y-17625929D01*
X13526071Y-17583072D01*
X13511786Y-17554500D01*
X13483214Y-17511643D01*
X13468928Y-17497357D01*
M02*
