%TF.GenerationSoftware,KiCad,Pcbnew,(5.1.9)-1*%
%TF.CreationDate,2022-07-27T20:03:32-05:00*%
%TF.ProjectId,GPSPuck,47505350-7563-46b2-9e6b-696361645f70,2*%
%TF.SameCoordinates,Original*%
%TF.FileFunction,Paste,Top*%
%TF.FilePolarity,Positive*%
%FSLAX46Y46*%
G04 Gerber Fmt 4.6, Leading zero omitted, Abs format (unit mm)*
G04 Created by KiCad (PCBNEW (5.1.9)-1) date 2022-07-27 20:03:32*
%MOMM*%
%LPD*%
G01*
G04 APERTURE LIST*
%ADD10R,1.000000X1.000000*%
%ADD11R,2.200000X1.050000*%
%ADD12R,2.000000X1.000000*%
%ADD13R,1.060000X0.650000*%
%ADD14R,1.100000X1.100000*%
%ADD15R,1.500000X0.900000*%
%ADD16R,0.900000X1.500000*%
%ADD17R,1.300000X1.550000*%
%ADD18R,1.900000X1.500000*%
%ADD19R,1.350000X0.400000*%
G04 APERTURE END LIST*
D10*
%TO.C,J11*%
X169950000Y-94615000D03*
X172950000Y-94615000D03*
D11*
X171450000Y-96090000D03*
X171450000Y-93140000D03*
%TD*%
%TO.C,U6*%
G36*
G01*
X143605000Y-107695000D02*
X143455000Y-107695000D01*
G75*
G02*
X143380000Y-107620000I0J75000D01*
G01*
X143380000Y-106920000D01*
G75*
G02*
X143455000Y-106845000I75000J0D01*
G01*
X143605000Y-106845000D01*
G75*
G02*
X143680000Y-106920000I0J-75000D01*
G01*
X143680000Y-107620000D01*
G75*
G02*
X143605000Y-107695000I-75000J0D01*
G01*
G37*
G36*
G01*
X144105000Y-107695000D02*
X143955000Y-107695000D01*
G75*
G02*
X143880000Y-107620000I0J75000D01*
G01*
X143880000Y-106920000D01*
G75*
G02*
X143955000Y-106845000I75000J0D01*
G01*
X144105000Y-106845000D01*
G75*
G02*
X144180000Y-106920000I0J-75000D01*
G01*
X144180000Y-107620000D01*
G75*
G02*
X144105000Y-107695000I-75000J0D01*
G01*
G37*
G36*
G01*
X144605000Y-107695000D02*
X144455000Y-107695000D01*
G75*
G02*
X144380000Y-107620000I0J75000D01*
G01*
X144380000Y-106920000D01*
G75*
G02*
X144455000Y-106845000I75000J0D01*
G01*
X144605000Y-106845000D01*
G75*
G02*
X144680000Y-106920000I0J-75000D01*
G01*
X144680000Y-107620000D01*
G75*
G02*
X144605000Y-107695000I-75000J0D01*
G01*
G37*
G36*
G01*
X145105000Y-107695000D02*
X144955000Y-107695000D01*
G75*
G02*
X144880000Y-107620000I0J75000D01*
G01*
X144880000Y-106920000D01*
G75*
G02*
X144955000Y-106845000I75000J0D01*
G01*
X145105000Y-106845000D01*
G75*
G02*
X145180000Y-106920000I0J-75000D01*
G01*
X145180000Y-107620000D01*
G75*
G02*
X145105000Y-107695000I-75000J0D01*
G01*
G37*
G36*
G01*
X145605000Y-107695000D02*
X145455000Y-107695000D01*
G75*
G02*
X145380000Y-107620000I0J75000D01*
G01*
X145380000Y-106920000D01*
G75*
G02*
X145455000Y-106845000I75000J0D01*
G01*
X145605000Y-106845000D01*
G75*
G02*
X145680000Y-106920000I0J-75000D01*
G01*
X145680000Y-107620000D01*
G75*
G02*
X145605000Y-107695000I-75000J0D01*
G01*
G37*
G36*
G01*
X146105000Y-107695000D02*
X145955000Y-107695000D01*
G75*
G02*
X145880000Y-107620000I0J75000D01*
G01*
X145880000Y-106920000D01*
G75*
G02*
X145955000Y-106845000I75000J0D01*
G01*
X146105000Y-106845000D01*
G75*
G02*
X146180000Y-106920000I0J-75000D01*
G01*
X146180000Y-107620000D01*
G75*
G02*
X146105000Y-107695000I-75000J0D01*
G01*
G37*
G36*
G01*
X146305000Y-108045000D02*
X146305000Y-107895000D01*
G75*
G02*
X146380000Y-107820000I75000J0D01*
G01*
X147080000Y-107820000D01*
G75*
G02*
X147155000Y-107895000I0J-75000D01*
G01*
X147155000Y-108045000D01*
G75*
G02*
X147080000Y-108120000I-75000J0D01*
G01*
X146380000Y-108120000D01*
G75*
G02*
X146305000Y-108045000I0J75000D01*
G01*
G37*
G36*
G01*
X146305000Y-108545000D02*
X146305000Y-108395000D01*
G75*
G02*
X146380000Y-108320000I75000J0D01*
G01*
X147080000Y-108320000D01*
G75*
G02*
X147155000Y-108395000I0J-75000D01*
G01*
X147155000Y-108545000D01*
G75*
G02*
X147080000Y-108620000I-75000J0D01*
G01*
X146380000Y-108620000D01*
G75*
G02*
X146305000Y-108545000I0J75000D01*
G01*
G37*
G36*
G01*
X146305000Y-109045000D02*
X146305000Y-108895000D01*
G75*
G02*
X146380000Y-108820000I75000J0D01*
G01*
X147080000Y-108820000D01*
G75*
G02*
X147155000Y-108895000I0J-75000D01*
G01*
X147155000Y-109045000D01*
G75*
G02*
X147080000Y-109120000I-75000J0D01*
G01*
X146380000Y-109120000D01*
G75*
G02*
X146305000Y-109045000I0J75000D01*
G01*
G37*
G36*
G01*
X146305000Y-109545000D02*
X146305000Y-109395000D01*
G75*
G02*
X146380000Y-109320000I75000J0D01*
G01*
X147080000Y-109320000D01*
G75*
G02*
X147155000Y-109395000I0J-75000D01*
G01*
X147155000Y-109545000D01*
G75*
G02*
X147080000Y-109620000I-75000J0D01*
G01*
X146380000Y-109620000D01*
G75*
G02*
X146305000Y-109545000I0J75000D01*
G01*
G37*
G36*
G01*
X146305000Y-110045000D02*
X146305000Y-109895000D01*
G75*
G02*
X146380000Y-109820000I75000J0D01*
G01*
X147080000Y-109820000D01*
G75*
G02*
X147155000Y-109895000I0J-75000D01*
G01*
X147155000Y-110045000D01*
G75*
G02*
X147080000Y-110120000I-75000J0D01*
G01*
X146380000Y-110120000D01*
G75*
G02*
X146305000Y-110045000I0J75000D01*
G01*
G37*
G36*
G01*
X146305000Y-110545000D02*
X146305000Y-110395000D01*
G75*
G02*
X146380000Y-110320000I75000J0D01*
G01*
X147080000Y-110320000D01*
G75*
G02*
X147155000Y-110395000I0J-75000D01*
G01*
X147155000Y-110545000D01*
G75*
G02*
X147080000Y-110620000I-75000J0D01*
G01*
X146380000Y-110620000D01*
G75*
G02*
X146305000Y-110545000I0J75000D01*
G01*
G37*
G36*
G01*
X146105000Y-111595000D02*
X145955000Y-111595000D01*
G75*
G02*
X145880000Y-111520000I0J75000D01*
G01*
X145880000Y-110820000D01*
G75*
G02*
X145955000Y-110745000I75000J0D01*
G01*
X146105000Y-110745000D01*
G75*
G02*
X146180000Y-110820000I0J-75000D01*
G01*
X146180000Y-111520000D01*
G75*
G02*
X146105000Y-111595000I-75000J0D01*
G01*
G37*
G36*
G01*
X145605000Y-111595000D02*
X145455000Y-111595000D01*
G75*
G02*
X145380000Y-111520000I0J75000D01*
G01*
X145380000Y-110820000D01*
G75*
G02*
X145455000Y-110745000I75000J0D01*
G01*
X145605000Y-110745000D01*
G75*
G02*
X145680000Y-110820000I0J-75000D01*
G01*
X145680000Y-111520000D01*
G75*
G02*
X145605000Y-111595000I-75000J0D01*
G01*
G37*
G36*
G01*
X145105000Y-111595000D02*
X144955000Y-111595000D01*
G75*
G02*
X144880000Y-111520000I0J75000D01*
G01*
X144880000Y-110820000D01*
G75*
G02*
X144955000Y-110745000I75000J0D01*
G01*
X145105000Y-110745000D01*
G75*
G02*
X145180000Y-110820000I0J-75000D01*
G01*
X145180000Y-111520000D01*
G75*
G02*
X145105000Y-111595000I-75000J0D01*
G01*
G37*
G36*
G01*
X144605000Y-111595000D02*
X144455000Y-111595000D01*
G75*
G02*
X144380000Y-111520000I0J75000D01*
G01*
X144380000Y-110820000D01*
G75*
G02*
X144455000Y-110745000I75000J0D01*
G01*
X144605000Y-110745000D01*
G75*
G02*
X144680000Y-110820000I0J-75000D01*
G01*
X144680000Y-111520000D01*
G75*
G02*
X144605000Y-111595000I-75000J0D01*
G01*
G37*
G36*
G01*
X144105000Y-111595000D02*
X143955000Y-111595000D01*
G75*
G02*
X143880000Y-111520000I0J75000D01*
G01*
X143880000Y-110820000D01*
G75*
G02*
X143955000Y-110745000I75000J0D01*
G01*
X144105000Y-110745000D01*
G75*
G02*
X144180000Y-110820000I0J-75000D01*
G01*
X144180000Y-111520000D01*
G75*
G02*
X144105000Y-111595000I-75000J0D01*
G01*
G37*
G36*
G01*
X143605000Y-111595000D02*
X143455000Y-111595000D01*
G75*
G02*
X143380000Y-111520000I0J75000D01*
G01*
X143380000Y-110820000D01*
G75*
G02*
X143455000Y-110745000I75000J0D01*
G01*
X143605000Y-110745000D01*
G75*
G02*
X143680000Y-110820000I0J-75000D01*
G01*
X143680000Y-111520000D01*
G75*
G02*
X143605000Y-111595000I-75000J0D01*
G01*
G37*
G36*
G01*
X142405000Y-110545000D02*
X142405000Y-110395000D01*
G75*
G02*
X142480000Y-110320000I75000J0D01*
G01*
X143180000Y-110320000D01*
G75*
G02*
X143255000Y-110395000I0J-75000D01*
G01*
X143255000Y-110545000D01*
G75*
G02*
X143180000Y-110620000I-75000J0D01*
G01*
X142480000Y-110620000D01*
G75*
G02*
X142405000Y-110545000I0J75000D01*
G01*
G37*
G36*
G01*
X142405000Y-110045000D02*
X142405000Y-109895000D01*
G75*
G02*
X142480000Y-109820000I75000J0D01*
G01*
X143180000Y-109820000D01*
G75*
G02*
X143255000Y-109895000I0J-75000D01*
G01*
X143255000Y-110045000D01*
G75*
G02*
X143180000Y-110120000I-75000J0D01*
G01*
X142480000Y-110120000D01*
G75*
G02*
X142405000Y-110045000I0J75000D01*
G01*
G37*
G36*
G01*
X142405000Y-109545000D02*
X142405000Y-109395000D01*
G75*
G02*
X142480000Y-109320000I75000J0D01*
G01*
X143180000Y-109320000D01*
G75*
G02*
X143255000Y-109395000I0J-75000D01*
G01*
X143255000Y-109545000D01*
G75*
G02*
X143180000Y-109620000I-75000J0D01*
G01*
X142480000Y-109620000D01*
G75*
G02*
X142405000Y-109545000I0J75000D01*
G01*
G37*
G36*
G01*
X142405000Y-109045000D02*
X142405000Y-108895000D01*
G75*
G02*
X142480000Y-108820000I75000J0D01*
G01*
X143180000Y-108820000D01*
G75*
G02*
X143255000Y-108895000I0J-75000D01*
G01*
X143255000Y-109045000D01*
G75*
G02*
X143180000Y-109120000I-75000J0D01*
G01*
X142480000Y-109120000D01*
G75*
G02*
X142405000Y-109045000I0J75000D01*
G01*
G37*
G36*
G01*
X142405000Y-108545000D02*
X142405000Y-108395000D01*
G75*
G02*
X142480000Y-108320000I75000J0D01*
G01*
X143180000Y-108320000D01*
G75*
G02*
X143255000Y-108395000I0J-75000D01*
G01*
X143255000Y-108545000D01*
G75*
G02*
X143180000Y-108620000I-75000J0D01*
G01*
X142480000Y-108620000D01*
G75*
G02*
X142405000Y-108545000I0J75000D01*
G01*
G37*
G36*
G01*
X142405000Y-108045000D02*
X142405000Y-107895000D01*
G75*
G02*
X142480000Y-107820000I75000J0D01*
G01*
X143180000Y-107820000D01*
G75*
G02*
X143255000Y-107895000I0J-75000D01*
G01*
X143255000Y-108045000D01*
G75*
G02*
X143180000Y-108120000I-75000J0D01*
G01*
X142480000Y-108120000D01*
G75*
G02*
X142405000Y-108045000I0J75000D01*
G01*
G37*
%TD*%
%TO.C,U5*%
G36*
G01*
X153690000Y-89720000D02*
X153690000Y-89320000D01*
G75*
G02*
X153890000Y-89120000I200000J0D01*
G01*
X155290000Y-89120000D01*
G75*
G02*
X155490000Y-89320000I0J-200000D01*
G01*
X155490000Y-89720000D01*
G75*
G02*
X155290000Y-89920000I-200000J0D01*
G01*
X153890000Y-89920000D01*
G75*
G02*
X153690000Y-89720000I0J200000D01*
G01*
G37*
G36*
G01*
X153690000Y-90820000D02*
X153690000Y-90420000D01*
G75*
G02*
X153890000Y-90220000I200000J0D01*
G01*
X155290000Y-90220000D01*
G75*
G02*
X155490000Y-90420000I0J-200000D01*
G01*
X155490000Y-90820000D01*
G75*
G02*
X155290000Y-91020000I-200000J0D01*
G01*
X153890000Y-91020000D01*
G75*
G02*
X153690000Y-90820000I0J200000D01*
G01*
G37*
G36*
G01*
X153690000Y-91920000D02*
X153690000Y-91520000D01*
G75*
G02*
X153890000Y-91320000I200000J0D01*
G01*
X155290000Y-91320000D01*
G75*
G02*
X155490000Y-91520000I0J-200000D01*
G01*
X155490000Y-91920000D01*
G75*
G02*
X155290000Y-92120000I-200000J0D01*
G01*
X153890000Y-92120000D01*
G75*
G02*
X153690000Y-91920000I0J200000D01*
G01*
G37*
G36*
G01*
X153690000Y-93020000D02*
X153690000Y-92620000D01*
G75*
G02*
X153890000Y-92420000I200000J0D01*
G01*
X155290000Y-92420000D01*
G75*
G02*
X155490000Y-92620000I0J-200000D01*
G01*
X155490000Y-93020000D01*
G75*
G02*
X155290000Y-93220000I-200000J0D01*
G01*
X153890000Y-93220000D01*
G75*
G02*
X153690000Y-93020000I0J200000D01*
G01*
G37*
G36*
G01*
X153690000Y-94120000D02*
X153690000Y-93720000D01*
G75*
G02*
X153890000Y-93520000I200000J0D01*
G01*
X155290000Y-93520000D01*
G75*
G02*
X155490000Y-93720000I0J-200000D01*
G01*
X155490000Y-94120000D01*
G75*
G02*
X155290000Y-94320000I-200000J0D01*
G01*
X153890000Y-94320000D01*
G75*
G02*
X153690000Y-94120000I0J200000D01*
G01*
G37*
G36*
G01*
X153690000Y-95220000D02*
X153690000Y-94820000D01*
G75*
G02*
X153890000Y-94620000I200000J0D01*
G01*
X155290000Y-94620000D01*
G75*
G02*
X155490000Y-94820000I0J-200000D01*
G01*
X155490000Y-95220000D01*
G75*
G02*
X155290000Y-95420000I-200000J0D01*
G01*
X153890000Y-95420000D01*
G75*
G02*
X153690000Y-95220000I0J200000D01*
G01*
G37*
G36*
G01*
X153690000Y-96320000D02*
X153690000Y-95920000D01*
G75*
G02*
X153890000Y-95720000I200000J0D01*
G01*
X155290000Y-95720000D01*
G75*
G02*
X155490000Y-95920000I0J-200000D01*
G01*
X155490000Y-96320000D01*
G75*
G02*
X155290000Y-96520000I-200000J0D01*
G01*
X153890000Y-96520000D01*
G75*
G02*
X153690000Y-96320000I0J200000D01*
G01*
G37*
G36*
G01*
X153690000Y-99320000D02*
X153690000Y-98920000D01*
G75*
G02*
X153890000Y-98720000I200000J0D01*
G01*
X155290000Y-98720000D01*
G75*
G02*
X155490000Y-98920000I0J-200000D01*
G01*
X155490000Y-99320000D01*
G75*
G02*
X155290000Y-99520000I-200000J0D01*
G01*
X153890000Y-99520000D01*
G75*
G02*
X153690000Y-99320000I0J200000D01*
G01*
G37*
G36*
G01*
X153690000Y-100420000D02*
X153690000Y-100020000D01*
G75*
G02*
X153890000Y-99820000I200000J0D01*
G01*
X155290000Y-99820000D01*
G75*
G02*
X155490000Y-100020000I0J-200000D01*
G01*
X155490000Y-100420000D01*
G75*
G02*
X155290000Y-100620000I-200000J0D01*
G01*
X153890000Y-100620000D01*
G75*
G02*
X153690000Y-100420000I0J200000D01*
G01*
G37*
G36*
G01*
X153690000Y-101520000D02*
X153690000Y-101120000D01*
G75*
G02*
X153890000Y-100920000I200000J0D01*
G01*
X155290000Y-100920000D01*
G75*
G02*
X155490000Y-101120000I0J-200000D01*
G01*
X155490000Y-101520000D01*
G75*
G02*
X155290000Y-101720000I-200000J0D01*
G01*
X153890000Y-101720000D01*
G75*
G02*
X153690000Y-101520000I0J200000D01*
G01*
G37*
G36*
G01*
X153690000Y-102620000D02*
X153690000Y-102220000D01*
G75*
G02*
X153890000Y-102020000I200000J0D01*
G01*
X155290000Y-102020000D01*
G75*
G02*
X155490000Y-102220000I0J-200000D01*
G01*
X155490000Y-102620000D01*
G75*
G02*
X155290000Y-102820000I-200000J0D01*
G01*
X153890000Y-102820000D01*
G75*
G02*
X153690000Y-102620000I0J200000D01*
G01*
G37*
G36*
G01*
X153690000Y-103720000D02*
X153690000Y-103320000D01*
G75*
G02*
X153890000Y-103120000I200000J0D01*
G01*
X155290000Y-103120000D01*
G75*
G02*
X155490000Y-103320000I0J-200000D01*
G01*
X155490000Y-103720000D01*
G75*
G02*
X155290000Y-103920000I-200000J0D01*
G01*
X153890000Y-103920000D01*
G75*
G02*
X153690000Y-103720000I0J200000D01*
G01*
G37*
G36*
G01*
X141690000Y-103720000D02*
X141690000Y-103320000D01*
G75*
G02*
X141890000Y-103120000I200000J0D01*
G01*
X143290000Y-103120000D01*
G75*
G02*
X143490000Y-103320000I0J-200000D01*
G01*
X143490000Y-103720000D01*
G75*
G02*
X143290000Y-103920000I-200000J0D01*
G01*
X141890000Y-103920000D01*
G75*
G02*
X141690000Y-103720000I0J200000D01*
G01*
G37*
G36*
G01*
X141690000Y-102620000D02*
X141690000Y-102220000D01*
G75*
G02*
X141890000Y-102020000I200000J0D01*
G01*
X143290000Y-102020000D01*
G75*
G02*
X143490000Y-102220000I0J-200000D01*
G01*
X143490000Y-102620000D01*
G75*
G02*
X143290000Y-102820000I-200000J0D01*
G01*
X141890000Y-102820000D01*
G75*
G02*
X141690000Y-102620000I0J200000D01*
G01*
G37*
G36*
G01*
X141690000Y-101520000D02*
X141690000Y-101120000D01*
G75*
G02*
X141890000Y-100920000I200000J0D01*
G01*
X143290000Y-100920000D01*
G75*
G02*
X143490000Y-101120000I0J-200000D01*
G01*
X143490000Y-101520000D01*
G75*
G02*
X143290000Y-101720000I-200000J0D01*
G01*
X141890000Y-101720000D01*
G75*
G02*
X141690000Y-101520000I0J200000D01*
G01*
G37*
G36*
G01*
X141690000Y-100420000D02*
X141690000Y-100020000D01*
G75*
G02*
X141890000Y-99820000I200000J0D01*
G01*
X143290000Y-99820000D01*
G75*
G02*
X143490000Y-100020000I0J-200000D01*
G01*
X143490000Y-100420000D01*
G75*
G02*
X143290000Y-100620000I-200000J0D01*
G01*
X141890000Y-100620000D01*
G75*
G02*
X141690000Y-100420000I0J200000D01*
G01*
G37*
G36*
G01*
X141690000Y-99320000D02*
X141690000Y-98920000D01*
G75*
G02*
X141890000Y-98720000I200000J0D01*
G01*
X143290000Y-98720000D01*
G75*
G02*
X143490000Y-98920000I0J-200000D01*
G01*
X143490000Y-99320000D01*
G75*
G02*
X143290000Y-99520000I-200000J0D01*
G01*
X141890000Y-99520000D01*
G75*
G02*
X141690000Y-99320000I0J200000D01*
G01*
G37*
G36*
G01*
X141690000Y-96320000D02*
X141690000Y-95920000D01*
G75*
G02*
X141890000Y-95720000I200000J0D01*
G01*
X143290000Y-95720000D01*
G75*
G02*
X143490000Y-95920000I0J-200000D01*
G01*
X143490000Y-96320000D01*
G75*
G02*
X143290000Y-96520000I-200000J0D01*
G01*
X141890000Y-96520000D01*
G75*
G02*
X141690000Y-96320000I0J200000D01*
G01*
G37*
G36*
G01*
X141690000Y-95220000D02*
X141690000Y-94820000D01*
G75*
G02*
X141890000Y-94620000I200000J0D01*
G01*
X143290000Y-94620000D01*
G75*
G02*
X143490000Y-94820000I0J-200000D01*
G01*
X143490000Y-95220000D01*
G75*
G02*
X143290000Y-95420000I-200000J0D01*
G01*
X141890000Y-95420000D01*
G75*
G02*
X141690000Y-95220000I0J200000D01*
G01*
G37*
G36*
G01*
X141690000Y-94120000D02*
X141690000Y-93720000D01*
G75*
G02*
X141890000Y-93520000I200000J0D01*
G01*
X143290000Y-93520000D01*
G75*
G02*
X143490000Y-93720000I0J-200000D01*
G01*
X143490000Y-94120000D01*
G75*
G02*
X143290000Y-94320000I-200000J0D01*
G01*
X141890000Y-94320000D01*
G75*
G02*
X141690000Y-94120000I0J200000D01*
G01*
G37*
G36*
G01*
X141690000Y-93020000D02*
X141690000Y-92620000D01*
G75*
G02*
X141890000Y-92420000I200000J0D01*
G01*
X143290000Y-92420000D01*
G75*
G02*
X143490000Y-92620000I0J-200000D01*
G01*
X143490000Y-93020000D01*
G75*
G02*
X143290000Y-93220000I-200000J0D01*
G01*
X141890000Y-93220000D01*
G75*
G02*
X141690000Y-93020000I0J200000D01*
G01*
G37*
G36*
G01*
X141690000Y-91920000D02*
X141690000Y-91520000D01*
G75*
G02*
X141890000Y-91320000I200000J0D01*
G01*
X143290000Y-91320000D01*
G75*
G02*
X143490000Y-91520000I0J-200000D01*
G01*
X143490000Y-91920000D01*
G75*
G02*
X143290000Y-92120000I-200000J0D01*
G01*
X141890000Y-92120000D01*
G75*
G02*
X141690000Y-91920000I0J200000D01*
G01*
G37*
G36*
G01*
X141690000Y-90820000D02*
X141690000Y-90420000D01*
G75*
G02*
X141890000Y-90220000I200000J0D01*
G01*
X143290000Y-90220000D01*
G75*
G02*
X143490000Y-90420000I0J-200000D01*
G01*
X143490000Y-90820000D01*
G75*
G02*
X143290000Y-91020000I-200000J0D01*
G01*
X141890000Y-91020000D01*
G75*
G02*
X141690000Y-90820000I0J200000D01*
G01*
G37*
G36*
G01*
X141690000Y-89720000D02*
X141690000Y-89320000D01*
G75*
G02*
X141890000Y-89120000I200000J0D01*
G01*
X143290000Y-89120000D01*
G75*
G02*
X143490000Y-89320000I0J-200000D01*
G01*
X143490000Y-89720000D01*
G75*
G02*
X143290000Y-89920000I-200000J0D01*
G01*
X141890000Y-89920000D01*
G75*
G02*
X141690000Y-89720000I0J200000D01*
G01*
G37*
%TD*%
D12*
%TO.C,U4*%
X156590000Y-67930000D03*
X156590000Y-69930000D03*
X156590000Y-71930000D03*
X156590000Y-73930000D03*
X156590000Y-75930000D03*
X156590000Y-77930000D03*
X156590000Y-79930000D03*
X156590000Y-81930000D03*
X140590000Y-81930000D03*
X140590000Y-79930000D03*
X140590000Y-77930000D03*
X140590000Y-75930000D03*
X140590000Y-73930000D03*
X140590000Y-71930000D03*
X140590000Y-69930000D03*
X140590000Y-67930000D03*
%TD*%
D13*
%TO.C,U3*%
X90340000Y-136840000D03*
X90340000Y-134940000D03*
X92540000Y-134940000D03*
X92540000Y-135890000D03*
X92540000Y-136840000D03*
%TD*%
%TO.C,U2*%
X103040000Y-136840000D03*
X103040000Y-134940000D03*
X105240000Y-134940000D03*
X105240000Y-135890000D03*
X105240000Y-136840000D03*
%TD*%
D14*
%TO.C,U1*%
X122535000Y-81715000D03*
X122535000Y-83265000D03*
X122535000Y-84765000D03*
X124035000Y-84765000D03*
X125535000Y-84765000D03*
X125535000Y-83265000D03*
X125535000Y-81715000D03*
X124035000Y-81715000D03*
X124035000Y-83265000D03*
D15*
X133975000Y-75215000D03*
X133975000Y-76715000D03*
X133975000Y-78215000D03*
X133975000Y-79715000D03*
X133975000Y-81215000D03*
X133975000Y-82715000D03*
X133975000Y-84215000D03*
X133975000Y-85715000D03*
X133975000Y-87215000D03*
X133975000Y-88715000D03*
X133975000Y-90215000D03*
X133975000Y-91715000D03*
X133975000Y-93215000D03*
X133975000Y-94715000D03*
X133975000Y-96215000D03*
X133975000Y-97715000D03*
D16*
X131975000Y-98465000D03*
X130475000Y-98465000D03*
X128975000Y-98465000D03*
X127475000Y-98465000D03*
X125975000Y-98465000D03*
X124475000Y-98465000D03*
X122975000Y-98465000D03*
X121475000Y-98465000D03*
X119975000Y-98465000D03*
X118475000Y-98465000D03*
D15*
X116475000Y-75215000D03*
X116475000Y-76715000D03*
X116475000Y-78215000D03*
X116475000Y-79715000D03*
X116475000Y-81215000D03*
X116475000Y-82715000D03*
X116475000Y-84215000D03*
X116475000Y-85715000D03*
X116475000Y-87215000D03*
X116475000Y-88715000D03*
X116475000Y-90215000D03*
X116475000Y-91715000D03*
X116475000Y-93215000D03*
X116475000Y-94715000D03*
X116475000Y-96215000D03*
X116475000Y-97715000D03*
%TD*%
D17*
%TO.C,SW2*%
X133060000Y-103975000D03*
X133060000Y-111925000D03*
X128560000Y-103975000D03*
X128560000Y-111925000D03*
%TD*%
%TO.C,SW1*%
X122900000Y-103975000D03*
X122900000Y-111925000D03*
X118400000Y-103975000D03*
X118400000Y-111925000D03*
%TD*%
%TO.C,R4*%
G36*
G01*
X137804999Y-110120000D02*
X139055001Y-110120000D01*
G75*
G02*
X139305000Y-110369999I0J-249999D01*
G01*
X139305000Y-110995001D01*
G75*
G02*
X139055001Y-111245000I-249999J0D01*
G01*
X137804999Y-111245000D01*
G75*
G02*
X137555000Y-110995001I0J249999D01*
G01*
X137555000Y-110369999D01*
G75*
G02*
X137804999Y-110120000I249999J0D01*
G01*
G37*
G36*
G01*
X137804999Y-107195000D02*
X139055001Y-107195000D01*
G75*
G02*
X139305000Y-107444999I0J-249999D01*
G01*
X139305000Y-108070001D01*
G75*
G02*
X139055001Y-108320000I-249999J0D01*
G01*
X137804999Y-108320000D01*
G75*
G02*
X137555000Y-108070001I0J249999D01*
G01*
X137555000Y-107444999D01*
G75*
G02*
X137804999Y-107195000I249999J0D01*
G01*
G37*
%TD*%
%TO.C,R3*%
G36*
G01*
X149385000Y-111890000D02*
X150335000Y-111890000D01*
G75*
G02*
X150585000Y-112140000I0J-250000D01*
G01*
X150585000Y-112640000D01*
G75*
G02*
X150335000Y-112890000I-250000J0D01*
G01*
X149385000Y-112890000D01*
G75*
G02*
X149135000Y-112640000I0J250000D01*
G01*
X149135000Y-112140000D01*
G75*
G02*
X149385000Y-111890000I250000J0D01*
G01*
G37*
G36*
G01*
X149385000Y-109990000D02*
X150335000Y-109990000D01*
G75*
G02*
X150585000Y-110240000I0J-250000D01*
G01*
X150585000Y-110740000D01*
G75*
G02*
X150335000Y-110990000I-250000J0D01*
G01*
X149385000Y-110990000D01*
G75*
G02*
X149135000Y-110740000I0J250000D01*
G01*
X149135000Y-110240000D01*
G75*
G02*
X149385000Y-109990000I250000J0D01*
G01*
G37*
%TD*%
%TO.C,R2*%
G36*
G01*
X163897500Y-95660000D02*
X163762500Y-95660000D01*
G75*
G02*
X163695000Y-95592500I0J67500D01*
G01*
X163695000Y-95457500D01*
G75*
G02*
X163762500Y-95390000I67500J0D01*
G01*
X163897500Y-95390000D01*
G75*
G02*
X163965000Y-95457500I0J-67500D01*
G01*
X163965000Y-95592500D01*
G75*
G02*
X163897500Y-95660000I-67500J0D01*
G01*
G37*
G36*
G01*
X163897500Y-95110000D02*
X163762500Y-95110000D01*
G75*
G02*
X163695000Y-95042500I0J67500D01*
G01*
X163695000Y-94907500D01*
G75*
G02*
X163762500Y-94840000I67500J0D01*
G01*
X163897500Y-94840000D01*
G75*
G02*
X163965000Y-94907500I0J-67500D01*
G01*
X163965000Y-95042500D01*
G75*
G02*
X163897500Y-95110000I-67500J0D01*
G01*
G37*
%TD*%
%TO.C,R1*%
G36*
G01*
X127644999Y-126245000D02*
X128895001Y-126245000D01*
G75*
G02*
X129145000Y-126494999I0J-249999D01*
G01*
X129145000Y-127120001D01*
G75*
G02*
X128895001Y-127370000I-249999J0D01*
G01*
X127644999Y-127370000D01*
G75*
G02*
X127395000Y-127120001I0J249999D01*
G01*
X127395000Y-126494999D01*
G75*
G02*
X127644999Y-126245000I249999J0D01*
G01*
G37*
G36*
G01*
X127644999Y-129170000D02*
X128895001Y-129170000D01*
G75*
G02*
X129145000Y-129419999I0J-249999D01*
G01*
X129145000Y-130045001D01*
G75*
G02*
X128895001Y-130295000I-249999J0D01*
G01*
X127644999Y-130295000D01*
G75*
G02*
X127395000Y-130045001I0J249999D01*
G01*
X127395000Y-129419999D01*
G75*
G02*
X127644999Y-129170000I249999J0D01*
G01*
G37*
%TD*%
D18*
%TO.C,J2*%
X74708500Y-109363000D03*
D19*
X77408500Y-110363000D03*
X77408500Y-111013000D03*
X77408500Y-111663000D03*
X77408500Y-109063000D03*
X77408500Y-109713000D03*
D18*
X74708500Y-111363000D03*
%TD*%
%TO.C,D2*%
G36*
G01*
X137805000Y-103645000D02*
X139055000Y-103645000D01*
G75*
G02*
X139305000Y-103895000I0J-250000D01*
G01*
X139305000Y-104645000D01*
G75*
G02*
X139055000Y-104895000I-250000J0D01*
G01*
X137805000Y-104895000D01*
G75*
G02*
X137555000Y-104645000I0J250000D01*
G01*
X137555000Y-103895000D01*
G75*
G02*
X137805000Y-103645000I250000J0D01*
G01*
G37*
G36*
G01*
X137805000Y-100845000D02*
X139055000Y-100845000D01*
G75*
G02*
X139305000Y-101095000I0J-250000D01*
G01*
X139305000Y-101845000D01*
G75*
G02*
X139055000Y-102095000I-250000J0D01*
G01*
X137805000Y-102095000D01*
G75*
G02*
X137555000Y-101845000I0J250000D01*
G01*
X137555000Y-101095000D01*
G75*
G02*
X137805000Y-100845000I250000J0D01*
G01*
G37*
%TD*%
%TO.C,D1*%
G36*
G01*
X122565000Y-126245000D02*
X123815000Y-126245000D01*
G75*
G02*
X124065000Y-126495000I0J-250000D01*
G01*
X124065000Y-127245000D01*
G75*
G02*
X123815000Y-127495000I-250000J0D01*
G01*
X122565000Y-127495000D01*
G75*
G02*
X122315000Y-127245000I0J250000D01*
G01*
X122315000Y-126495000D01*
G75*
G02*
X122565000Y-126245000I250000J0D01*
G01*
G37*
G36*
G01*
X122565000Y-129045000D02*
X123815000Y-129045000D01*
G75*
G02*
X124065000Y-129295000I0J-250000D01*
G01*
X124065000Y-130045000D01*
G75*
G02*
X123815000Y-130295000I-250000J0D01*
G01*
X122565000Y-130295000D01*
G75*
G02*
X122315000Y-130045000I0J250000D01*
G01*
X122315000Y-129295000D01*
G75*
G02*
X122565000Y-129045000I250000J0D01*
G01*
G37*
%TD*%
%TO.C,C8*%
G36*
G01*
X116290000Y-125170000D02*
X117390000Y-125170000D01*
G75*
G02*
X117640000Y-125420000I0J-250000D01*
G01*
X117640000Y-127520000D01*
G75*
G02*
X117390000Y-127770000I-250000J0D01*
G01*
X116290000Y-127770000D01*
G75*
G02*
X116040000Y-127520000I0J250000D01*
G01*
X116040000Y-125420000D01*
G75*
G02*
X116290000Y-125170000I250000J0D01*
G01*
G37*
G36*
G01*
X116290000Y-128770000D02*
X117390000Y-128770000D01*
G75*
G02*
X117640000Y-129020000I0J-250000D01*
G01*
X117640000Y-131120000D01*
G75*
G02*
X117390000Y-131370000I-250000J0D01*
G01*
X116290000Y-131370000D01*
G75*
G02*
X116040000Y-131120000I0J250000D01*
G01*
X116040000Y-129020000D01*
G75*
G02*
X116290000Y-128770000I250000J0D01*
G01*
G37*
%TD*%
%TO.C,C7*%
G36*
G01*
X109940000Y-136390000D02*
X111040000Y-136390000D01*
G75*
G02*
X111290000Y-136640000I0J-250000D01*
G01*
X111290000Y-138740000D01*
G75*
G02*
X111040000Y-138990000I-250000J0D01*
G01*
X109940000Y-138990000D01*
G75*
G02*
X109690000Y-138740000I0J250000D01*
G01*
X109690000Y-136640000D01*
G75*
G02*
X109940000Y-136390000I250000J0D01*
G01*
G37*
G36*
G01*
X109940000Y-132790000D02*
X111040000Y-132790000D01*
G75*
G02*
X111290000Y-133040000I0J-250000D01*
G01*
X111290000Y-135140000D01*
G75*
G02*
X111040000Y-135390000I-250000J0D01*
G01*
X109940000Y-135390000D01*
G75*
G02*
X109690000Y-135140000I0J250000D01*
G01*
X109690000Y-133040000D01*
G75*
G02*
X109940000Y-132790000I250000J0D01*
G01*
G37*
%TD*%
%TO.C,C6*%
G36*
G01*
X109940000Y-128770000D02*
X111040000Y-128770000D01*
G75*
G02*
X111290000Y-129020000I0J-250000D01*
G01*
X111290000Y-131120000D01*
G75*
G02*
X111040000Y-131370000I-250000J0D01*
G01*
X109940000Y-131370000D01*
G75*
G02*
X109690000Y-131120000I0J250000D01*
G01*
X109690000Y-129020000D01*
G75*
G02*
X109940000Y-128770000I250000J0D01*
G01*
G37*
G36*
G01*
X109940000Y-125170000D02*
X111040000Y-125170000D01*
G75*
G02*
X111290000Y-125420000I0J-250000D01*
G01*
X111290000Y-127520000D01*
G75*
G02*
X111040000Y-127770000I-250000J0D01*
G01*
X109940000Y-127770000D01*
G75*
G02*
X109690000Y-127520000I0J250000D01*
G01*
X109690000Y-125420000D01*
G75*
G02*
X109940000Y-125170000I250000J0D01*
G01*
G37*
%TD*%
%TO.C,C5*%
G36*
G01*
X97240000Y-128770000D02*
X98340000Y-128770000D01*
G75*
G02*
X98590000Y-129020000I0J-250000D01*
G01*
X98590000Y-131120000D01*
G75*
G02*
X98340000Y-131370000I-250000J0D01*
G01*
X97240000Y-131370000D01*
G75*
G02*
X96990000Y-131120000I0J250000D01*
G01*
X96990000Y-129020000D01*
G75*
G02*
X97240000Y-128770000I250000J0D01*
G01*
G37*
G36*
G01*
X97240000Y-125170000D02*
X98340000Y-125170000D01*
G75*
G02*
X98590000Y-125420000I0J-250000D01*
G01*
X98590000Y-127520000D01*
G75*
G02*
X98340000Y-127770000I-250000J0D01*
G01*
X97240000Y-127770000D01*
G75*
G02*
X96990000Y-127520000I0J250000D01*
G01*
X96990000Y-125420000D01*
G75*
G02*
X97240000Y-125170000I250000J0D01*
G01*
G37*
%TD*%
%TO.C,C4*%
G36*
G01*
X103590000Y-128770000D02*
X104690000Y-128770000D01*
G75*
G02*
X104940000Y-129020000I0J-250000D01*
G01*
X104940000Y-131120000D01*
G75*
G02*
X104690000Y-131370000I-250000J0D01*
G01*
X103590000Y-131370000D01*
G75*
G02*
X103340000Y-131120000I0J250000D01*
G01*
X103340000Y-129020000D01*
G75*
G02*
X103590000Y-128770000I250000J0D01*
G01*
G37*
G36*
G01*
X103590000Y-125170000D02*
X104690000Y-125170000D01*
G75*
G02*
X104940000Y-125420000I0J-250000D01*
G01*
X104940000Y-127520000D01*
G75*
G02*
X104690000Y-127770000I-250000J0D01*
G01*
X103590000Y-127770000D01*
G75*
G02*
X103340000Y-127520000I0J250000D01*
G01*
X103340000Y-125420000D01*
G75*
G02*
X103590000Y-125170000I250000J0D01*
G01*
G37*
%TD*%
%TO.C,C3*%
G36*
G01*
X97240000Y-136390000D02*
X98340000Y-136390000D01*
G75*
G02*
X98590000Y-136640000I0J-250000D01*
G01*
X98590000Y-138740000D01*
G75*
G02*
X98340000Y-138990000I-250000J0D01*
G01*
X97240000Y-138990000D01*
G75*
G02*
X96990000Y-138740000I0J250000D01*
G01*
X96990000Y-136640000D01*
G75*
G02*
X97240000Y-136390000I250000J0D01*
G01*
G37*
G36*
G01*
X97240000Y-132790000D02*
X98340000Y-132790000D01*
G75*
G02*
X98590000Y-133040000I0J-250000D01*
G01*
X98590000Y-135140000D01*
G75*
G02*
X98340000Y-135390000I-250000J0D01*
G01*
X97240000Y-135390000D01*
G75*
G02*
X96990000Y-135140000I0J250000D01*
G01*
X96990000Y-133040000D01*
G75*
G02*
X97240000Y-132790000I250000J0D01*
G01*
G37*
%TD*%
%TO.C,C2*%
G36*
G01*
X122640000Y-132790000D02*
X123740000Y-132790000D01*
G75*
G02*
X123990000Y-133040000I0J-250000D01*
G01*
X123990000Y-135140000D01*
G75*
G02*
X123740000Y-135390000I-250000J0D01*
G01*
X122640000Y-135390000D01*
G75*
G02*
X122390000Y-135140000I0J250000D01*
G01*
X122390000Y-133040000D01*
G75*
G02*
X122640000Y-132790000I250000J0D01*
G01*
G37*
G36*
G01*
X122640000Y-136390000D02*
X123740000Y-136390000D01*
G75*
G02*
X123990000Y-136640000I0J-250000D01*
G01*
X123990000Y-138740000D01*
G75*
G02*
X123740000Y-138990000I-250000J0D01*
G01*
X122640000Y-138990000D01*
G75*
G02*
X122390000Y-138740000I0J250000D01*
G01*
X122390000Y-136640000D01*
G75*
G02*
X122640000Y-136390000I250000J0D01*
G01*
G37*
%TD*%
%TO.C,C1*%
G36*
G01*
X90890000Y-128770000D02*
X91990000Y-128770000D01*
G75*
G02*
X92240000Y-129020000I0J-250000D01*
G01*
X92240000Y-131120000D01*
G75*
G02*
X91990000Y-131370000I-250000J0D01*
G01*
X90890000Y-131370000D01*
G75*
G02*
X90640000Y-131120000I0J250000D01*
G01*
X90640000Y-129020000D01*
G75*
G02*
X90890000Y-128770000I250000J0D01*
G01*
G37*
G36*
G01*
X90890000Y-125170000D02*
X91990000Y-125170000D01*
G75*
G02*
X92240000Y-125420000I0J-250000D01*
G01*
X92240000Y-127520000D01*
G75*
G02*
X91990000Y-127770000I-250000J0D01*
G01*
X90890000Y-127770000D01*
G75*
G02*
X90640000Y-127520000I0J250000D01*
G01*
X90640000Y-125420000D01*
G75*
G02*
X90890000Y-125170000I250000J0D01*
G01*
G37*
%TD*%
%TO.C,C9*%
G36*
G01*
X149770000Y-108153500D02*
X149950000Y-108153500D01*
G75*
G02*
X150040000Y-108243500I0J-90000D01*
G01*
X150040000Y-108521500D01*
G75*
G02*
X149950000Y-108611500I-90000J0D01*
G01*
X149770000Y-108611500D01*
G75*
G02*
X149680000Y-108521500I0J90000D01*
G01*
X149680000Y-108243500D01*
G75*
G02*
X149770000Y-108153500I90000J0D01*
G01*
G37*
G36*
G01*
X149770000Y-107288500D02*
X149950000Y-107288500D01*
G75*
G02*
X150040000Y-107378500I0J-90000D01*
G01*
X150040000Y-107656500D01*
G75*
G02*
X149950000Y-107746500I-90000J0D01*
G01*
X149770000Y-107746500D01*
G75*
G02*
X149680000Y-107656500I0J90000D01*
G01*
X149680000Y-107378500D01*
G75*
G02*
X149770000Y-107288500I90000J0D01*
G01*
G37*
%TD*%
%TO.C,.1uF1*%
G36*
G01*
X116290000Y-132790000D02*
X117390000Y-132790000D01*
G75*
G02*
X117640000Y-133040000I0J-250000D01*
G01*
X117640000Y-135140000D01*
G75*
G02*
X117390000Y-135390000I-250000J0D01*
G01*
X116290000Y-135390000D01*
G75*
G02*
X116040000Y-135140000I0J250000D01*
G01*
X116040000Y-133040000D01*
G75*
G02*
X116290000Y-132790000I250000J0D01*
G01*
G37*
G36*
G01*
X116290000Y-136390000D02*
X117390000Y-136390000D01*
G75*
G02*
X117640000Y-136640000I0J-250000D01*
G01*
X117640000Y-138740000D01*
G75*
G02*
X117390000Y-138990000I-250000J0D01*
G01*
X116290000Y-138990000D01*
G75*
G02*
X116040000Y-138740000I0J250000D01*
G01*
X116040000Y-136640000D01*
G75*
G02*
X116290000Y-136390000I250000J0D01*
G01*
G37*
%TD*%
M02*
