%TF.GenerationSoftware,KiCad,Pcbnew,(5.1.9)-1*%
%TF.CreationDate,2022-08-26T12:30:02-05:00*%
%TF.ProjectId,GPSPuck,47505350-7563-46b2-9e6b-696361645f70,2*%
%TF.SameCoordinates,Original*%
%TF.FileFunction,Copper,L1,Top*%
%TF.FilePolarity,Positive*%
%FSLAX46Y46*%
G04 Gerber Fmt 4.6, Leading zero omitted, Abs format (unit mm)*
G04 Created by KiCad (PCBNEW (5.1.9)-1) date 2022-08-26 12:30:02*
%MOMM*%
%LPD*%
G01*
G04 APERTURE LIST*
%TA.AperFunction,EtchedComponent*%
%ADD10C,0.100000*%
%TD*%
%TA.AperFunction,SMDPad,CuDef*%
%ADD11R,1.000000X1.000000*%
%TD*%
%TA.AperFunction,SMDPad,CuDef*%
%ADD12R,2.200000X1.050000*%
%TD*%
%TA.AperFunction,ConnectorPad*%
%ADD13C,5.600000*%
%TD*%
%TA.AperFunction,ComponentPad*%
%ADD14C,3.600000*%
%TD*%
%TA.AperFunction,SMDPad,CuDef*%
%ADD15R,2.000000X1.000000*%
%TD*%
%TA.AperFunction,SMDPad,CuDef*%
%ADD16R,1.060000X0.650000*%
%TD*%
%TA.AperFunction,SMDPad,CuDef*%
%ADD17R,1.100000X1.100000*%
%TD*%
%TA.AperFunction,SMDPad,CuDef*%
%ADD18R,1.500000X0.900000*%
%TD*%
%TA.AperFunction,SMDPad,CuDef*%
%ADD19R,0.900000X1.500000*%
%TD*%
%TA.AperFunction,SMDPad,CuDef*%
%ADD20R,1.300000X1.550000*%
%TD*%
%TA.AperFunction,ComponentPad*%
%ADD21R,1.700000X1.700000*%
%TD*%
%TA.AperFunction,ComponentPad*%
%ADD22O,1.700000X1.700000*%
%TD*%
%TA.AperFunction,SMDPad,CuDef*%
%ADD23R,1.900000X1.200000*%
%TD*%
%TA.AperFunction,ComponentPad*%
%ADD24O,1.900000X1.200000*%
%TD*%
%TA.AperFunction,SMDPad,CuDef*%
%ADD25R,1.900000X1.500000*%
%TD*%
%TA.AperFunction,ComponentPad*%
%ADD26C,1.450000*%
%TD*%
%TA.AperFunction,SMDPad,CuDef*%
%ADD27R,1.350000X0.400000*%
%TD*%
%TA.AperFunction,ComponentPad*%
%ADD28O,3.960000X1.980000*%
%TD*%
%TA.AperFunction,ComponentPad*%
%ADD29R,3.960000X1.980000*%
%TD*%
%TA.AperFunction,ComponentPad*%
%ADD30C,3.000000*%
%TD*%
%TA.AperFunction,ComponentPad*%
%ADD31R,3.000000X3.000000*%
%TD*%
%TA.AperFunction,ComponentPad*%
%ADD32R,0.500000X0.900000*%
%TD*%
%TA.AperFunction,ConnectorPad*%
%ADD33R,0.500000X0.500000*%
%TD*%
%TA.AperFunction,ViaPad*%
%ADD34C,0.800000*%
%TD*%
%TA.AperFunction,Conductor*%
%ADD35C,0.250000*%
%TD*%
%TA.AperFunction,NonConductor*%
%ADD36C,0.254000*%
%TD*%
%TA.AperFunction,NonConductor*%
%ADD37C,0.100000*%
%TD*%
G04 APERTURE END LIST*
D10*
%TO.C,AE2*%
G36*
X170150000Y-82640000D02*
G01*
X170150000Y-80640000D01*
X172790000Y-80640000D01*
X172790000Y-77940000D01*
X170150000Y-77940000D01*
X170150000Y-75940000D01*
X172790000Y-75940000D01*
X172790000Y-73240000D01*
X168350000Y-73240000D01*
X168350000Y-73740000D01*
X172290000Y-73740000D01*
X172290000Y-75440000D01*
X169650000Y-75440000D01*
X169650000Y-78440000D01*
X172290000Y-78440000D01*
X172290000Y-80140000D01*
X169650000Y-80140000D01*
X169650000Y-83140000D01*
X172290000Y-83140000D01*
X172290000Y-84840000D01*
X167390000Y-84840000D01*
X167390000Y-85340000D01*
X172290000Y-85340000D01*
X172290000Y-86740000D01*
X167390000Y-86740000D01*
X167390000Y-87640000D01*
X167633215Y-87640000D01*
X167633215Y-87337583D01*
X167585605Y-87327742D01*
X167543203Y-87303674D01*
X167510419Y-87265731D01*
X167506065Y-87257819D01*
X167493957Y-87215156D01*
X167494700Y-87166637D01*
X167507600Y-87121122D01*
X167518213Y-87102511D01*
X167553447Y-87068868D01*
X167598632Y-87048309D01*
X167648158Y-87041778D01*
X167696417Y-87050218D01*
X167728643Y-87067112D01*
X167761313Y-87102372D01*
X167781408Y-87147682D01*
X167787982Y-87197267D01*
X167780092Y-87245353D01*
X167763186Y-87278245D01*
X167726416Y-87313185D01*
X167681622Y-87332847D01*
X167633215Y-87337583D01*
X167633215Y-87640000D01*
X172790000Y-87640000D01*
X172790000Y-82640000D01*
X170150000Y-82640000D01*
G37*
%TD*%
%TO.P,REF\u002A\u002A,1*%
%TO.N,N/C*%
%TA.AperFunction,SMDPad,CuDef*%
G36*
G01*
X167755000Y-121150000D02*
X166255000Y-121150000D01*
G75*
G02*
X166005000Y-120900000I0J250000D01*
G01*
X166005000Y-120400000D01*
G75*
G02*
X166255000Y-120150000I250000J0D01*
G01*
X167755000Y-120150000D01*
G75*
G02*
X168005000Y-120400000I0J-250000D01*
G01*
X168005000Y-120900000D01*
G75*
G02*
X167755000Y-121150000I-250000J0D01*
G01*
G37*
%TD.AperFunction*%
%TD*%
D11*
%TO.P,J11,1*%
%TO.N,Net-(J11-Pad1)*%
X169950000Y-94615000D03*
%TO.P,J11,2*%
%TO.N,GND*%
X172950000Y-94615000D03*
D12*
X171450000Y-96090000D03*
X171450000Y-93140000D03*
%TD*%
D13*
%TO.P,H4,1*%
%TO.N,GND*%
X74930000Y-64770000D03*
D14*
X74930000Y-64770000D03*
%TD*%
D13*
%TO.P,H3,1*%
%TO.N,GND*%
X171450000Y-64770000D03*
D14*
X171450000Y-64770000D03*
%TD*%
D13*
%TO.P,H2,1*%
%TO.N,GND*%
X171450000Y-134620000D03*
D14*
X171450000Y-134620000D03*
%TD*%
D13*
%TO.P,H1,1*%
%TO.N,GND*%
X74930000Y-134620000D03*
D14*
X74930000Y-134620000D03*
%TD*%
%TO.P,U6,24*%
%TO.N,/SDA*%
%TA.AperFunction,SMDPad,CuDef*%
G36*
G01*
X143605000Y-107695000D02*
X143455000Y-107695000D01*
G75*
G02*
X143380000Y-107620000I0J75000D01*
G01*
X143380000Y-106920000D01*
G75*
G02*
X143455000Y-106845000I75000J0D01*
G01*
X143605000Y-106845000D01*
G75*
G02*
X143680000Y-106920000I0J-75000D01*
G01*
X143680000Y-107620000D01*
G75*
G02*
X143605000Y-107695000I-75000J0D01*
G01*
G37*
%TD.AperFunction*%
%TO.P,U6,23*%
%TO.N,/SCL*%
%TA.AperFunction,SMDPad,CuDef*%
G36*
G01*
X144105000Y-107695000D02*
X143955000Y-107695000D01*
G75*
G02*
X143880000Y-107620000I0J75000D01*
G01*
X143880000Y-106920000D01*
G75*
G02*
X143955000Y-106845000I75000J0D01*
G01*
X144105000Y-106845000D01*
G75*
G02*
X144180000Y-106920000I0J-75000D01*
G01*
X144180000Y-107620000D01*
G75*
G02*
X144105000Y-107695000I-75000J0D01*
G01*
G37*
%TD.AperFunction*%
%TO.P,U6,22*%
%TO.N,N/C*%
%TA.AperFunction,SMDPad,CuDef*%
G36*
G01*
X144605000Y-107695000D02*
X144455000Y-107695000D01*
G75*
G02*
X144380000Y-107620000I0J75000D01*
G01*
X144380000Y-106920000D01*
G75*
G02*
X144455000Y-106845000I75000J0D01*
G01*
X144605000Y-106845000D01*
G75*
G02*
X144680000Y-106920000I0J-75000D01*
G01*
X144680000Y-107620000D01*
G75*
G02*
X144605000Y-107695000I-75000J0D01*
G01*
G37*
%TD.AperFunction*%
%TO.P,U6,21*%
%TA.AperFunction,SMDPad,CuDef*%
G36*
G01*
X145105000Y-107695000D02*
X144955000Y-107695000D01*
G75*
G02*
X144880000Y-107620000I0J75000D01*
G01*
X144880000Y-106920000D01*
G75*
G02*
X144955000Y-106845000I75000J0D01*
G01*
X145105000Y-106845000D01*
G75*
G02*
X145180000Y-106920000I0J-75000D01*
G01*
X145180000Y-107620000D01*
G75*
G02*
X145105000Y-107695000I-75000J0D01*
G01*
G37*
%TD.AperFunction*%
%TO.P,U6,20*%
%TO.N,Net-(C9-Pad1)*%
%TA.AperFunction,SMDPad,CuDef*%
G36*
G01*
X145605000Y-107695000D02*
X145455000Y-107695000D01*
G75*
G02*
X145380000Y-107620000I0J75000D01*
G01*
X145380000Y-106920000D01*
G75*
G02*
X145455000Y-106845000I75000J0D01*
G01*
X145605000Y-106845000D01*
G75*
G02*
X145680000Y-106920000I0J-75000D01*
G01*
X145680000Y-107620000D01*
G75*
G02*
X145605000Y-107695000I-75000J0D01*
G01*
G37*
%TD.AperFunction*%
%TO.P,U6,19*%
%TO.N,N/C*%
%TA.AperFunction,SMDPad,CuDef*%
G36*
G01*
X146105000Y-107695000D02*
X145955000Y-107695000D01*
G75*
G02*
X145880000Y-107620000I0J75000D01*
G01*
X145880000Y-106920000D01*
G75*
G02*
X145955000Y-106845000I75000J0D01*
G01*
X146105000Y-106845000D01*
G75*
G02*
X146180000Y-106920000I0J-75000D01*
G01*
X146180000Y-107620000D01*
G75*
G02*
X146105000Y-107695000I-75000J0D01*
G01*
G37*
%TD.AperFunction*%
%TO.P,U6,18*%
%TO.N,GND*%
%TA.AperFunction,SMDPad,CuDef*%
G36*
G01*
X146305000Y-108045000D02*
X146305000Y-107895000D01*
G75*
G02*
X146380000Y-107820000I75000J0D01*
G01*
X147080000Y-107820000D01*
G75*
G02*
X147155000Y-107895000I0J-75000D01*
G01*
X147155000Y-108045000D01*
G75*
G02*
X147080000Y-108120000I-75000J0D01*
G01*
X146380000Y-108120000D01*
G75*
G02*
X146305000Y-108045000I0J75000D01*
G01*
G37*
%TD.AperFunction*%
%TO.P,U6,17*%
%TO.N,N/C*%
%TA.AperFunction,SMDPad,CuDef*%
G36*
G01*
X146305000Y-108545000D02*
X146305000Y-108395000D01*
G75*
G02*
X146380000Y-108320000I75000J0D01*
G01*
X147080000Y-108320000D01*
G75*
G02*
X147155000Y-108395000I0J-75000D01*
G01*
X147155000Y-108545000D01*
G75*
G02*
X147080000Y-108620000I-75000J0D01*
G01*
X146380000Y-108620000D01*
G75*
G02*
X146305000Y-108545000I0J75000D01*
G01*
G37*
%TD.AperFunction*%
%TO.P,U6,16*%
%TA.AperFunction,SMDPad,CuDef*%
G36*
G01*
X146305000Y-109045000D02*
X146305000Y-108895000D01*
G75*
G02*
X146380000Y-108820000I75000J0D01*
G01*
X147080000Y-108820000D01*
G75*
G02*
X147155000Y-108895000I0J-75000D01*
G01*
X147155000Y-109045000D01*
G75*
G02*
X147080000Y-109120000I-75000J0D01*
G01*
X146380000Y-109120000D01*
G75*
G02*
X146305000Y-109045000I0J75000D01*
G01*
G37*
%TD.AperFunction*%
%TO.P,U6,15*%
%TA.AperFunction,SMDPad,CuDef*%
G36*
G01*
X146305000Y-109545000D02*
X146305000Y-109395000D01*
G75*
G02*
X146380000Y-109320000I75000J0D01*
G01*
X147080000Y-109320000D01*
G75*
G02*
X147155000Y-109395000I0J-75000D01*
G01*
X147155000Y-109545000D01*
G75*
G02*
X147080000Y-109620000I-75000J0D01*
G01*
X146380000Y-109620000D01*
G75*
G02*
X146305000Y-109545000I0J75000D01*
G01*
G37*
%TD.AperFunction*%
%TO.P,U6,14*%
%TA.AperFunction,SMDPad,CuDef*%
G36*
G01*
X146305000Y-110045000D02*
X146305000Y-109895000D01*
G75*
G02*
X146380000Y-109820000I75000J0D01*
G01*
X147080000Y-109820000D01*
G75*
G02*
X147155000Y-109895000I0J-75000D01*
G01*
X147155000Y-110045000D01*
G75*
G02*
X147080000Y-110120000I-75000J0D01*
G01*
X146380000Y-110120000D01*
G75*
G02*
X146305000Y-110045000I0J75000D01*
G01*
G37*
%TD.AperFunction*%
%TO.P,U6,13*%
%TO.N,/3.3V*%
%TA.AperFunction,SMDPad,CuDef*%
G36*
G01*
X146305000Y-110545000D02*
X146305000Y-110395000D01*
G75*
G02*
X146380000Y-110320000I75000J0D01*
G01*
X147080000Y-110320000D01*
G75*
G02*
X147155000Y-110395000I0J-75000D01*
G01*
X147155000Y-110545000D01*
G75*
G02*
X147080000Y-110620000I-75000J0D01*
G01*
X146380000Y-110620000D01*
G75*
G02*
X146305000Y-110545000I0J75000D01*
G01*
G37*
%TD.AperFunction*%
%TO.P,U6,12*%
%TO.N,/ACCINT*%
%TA.AperFunction,SMDPad,CuDef*%
G36*
G01*
X146105000Y-111595000D02*
X145955000Y-111595000D01*
G75*
G02*
X145880000Y-111520000I0J75000D01*
G01*
X145880000Y-110820000D01*
G75*
G02*
X145955000Y-110745000I75000J0D01*
G01*
X146105000Y-110745000D01*
G75*
G02*
X146180000Y-110820000I0J-75000D01*
G01*
X146180000Y-111520000D01*
G75*
G02*
X146105000Y-111595000I-75000J0D01*
G01*
G37*
%TD.AperFunction*%
%TO.P,U6,11*%
%TO.N,GND*%
%TA.AperFunction,SMDPad,CuDef*%
G36*
G01*
X145605000Y-111595000D02*
X145455000Y-111595000D01*
G75*
G02*
X145380000Y-111520000I0J75000D01*
G01*
X145380000Y-110820000D01*
G75*
G02*
X145455000Y-110745000I75000J0D01*
G01*
X145605000Y-110745000D01*
G75*
G02*
X145680000Y-110820000I0J-75000D01*
G01*
X145680000Y-111520000D01*
G75*
G02*
X145605000Y-111595000I-75000J0D01*
G01*
G37*
%TD.AperFunction*%
%TO.P,U6,10*%
%TO.N,/REGOUT*%
%TA.AperFunction,SMDPad,CuDef*%
G36*
G01*
X145105000Y-111595000D02*
X144955000Y-111595000D01*
G75*
G02*
X144880000Y-111520000I0J75000D01*
G01*
X144880000Y-110820000D01*
G75*
G02*
X144955000Y-110745000I75000J0D01*
G01*
X145105000Y-110745000D01*
G75*
G02*
X145180000Y-110820000I0J-75000D01*
G01*
X145180000Y-111520000D01*
G75*
G02*
X145105000Y-111595000I-75000J0D01*
G01*
G37*
%TD.AperFunction*%
%TO.P,U6,9*%
%TO.N,Net-(R3-Pad1)*%
%TA.AperFunction,SMDPad,CuDef*%
G36*
G01*
X144605000Y-111595000D02*
X144455000Y-111595000D01*
G75*
G02*
X144380000Y-111520000I0J75000D01*
G01*
X144380000Y-110820000D01*
G75*
G02*
X144455000Y-110745000I75000J0D01*
G01*
X144605000Y-110745000D01*
G75*
G02*
X144680000Y-110820000I0J-75000D01*
G01*
X144680000Y-111520000D01*
G75*
G02*
X144605000Y-111595000I-75000J0D01*
G01*
G37*
%TD.AperFunction*%
%TO.P,U6,8*%
%TO.N,/3.3V*%
%TA.AperFunction,SMDPad,CuDef*%
G36*
G01*
X144105000Y-111595000D02*
X143955000Y-111595000D01*
G75*
G02*
X143880000Y-111520000I0J75000D01*
G01*
X143880000Y-110820000D01*
G75*
G02*
X143955000Y-110745000I75000J0D01*
G01*
X144105000Y-110745000D01*
G75*
G02*
X144180000Y-110820000I0J-75000D01*
G01*
X144180000Y-111520000D01*
G75*
G02*
X144105000Y-111595000I-75000J0D01*
G01*
G37*
%TD.AperFunction*%
%TO.P,U6,7*%
%TO.N,Net-(U6-Pad7)*%
%TA.AperFunction,SMDPad,CuDef*%
G36*
G01*
X143605000Y-111595000D02*
X143455000Y-111595000D01*
G75*
G02*
X143380000Y-111520000I0J75000D01*
G01*
X143380000Y-110820000D01*
G75*
G02*
X143455000Y-110745000I75000J0D01*
G01*
X143605000Y-110745000D01*
G75*
G02*
X143680000Y-110820000I0J-75000D01*
G01*
X143680000Y-111520000D01*
G75*
G02*
X143605000Y-111595000I-75000J0D01*
G01*
G37*
%TD.AperFunction*%
%TO.P,U6,6*%
%TO.N,Net-(U6-Pad6)*%
%TA.AperFunction,SMDPad,CuDef*%
G36*
G01*
X142405000Y-110545000D02*
X142405000Y-110395000D01*
G75*
G02*
X142480000Y-110320000I75000J0D01*
G01*
X143180000Y-110320000D01*
G75*
G02*
X143255000Y-110395000I0J-75000D01*
G01*
X143255000Y-110545000D01*
G75*
G02*
X143180000Y-110620000I-75000J0D01*
G01*
X142480000Y-110620000D01*
G75*
G02*
X142405000Y-110545000I0J75000D01*
G01*
G37*
%TD.AperFunction*%
%TO.P,U6,5*%
%TO.N,N/C*%
%TA.AperFunction,SMDPad,CuDef*%
G36*
G01*
X142405000Y-110045000D02*
X142405000Y-109895000D01*
G75*
G02*
X142480000Y-109820000I75000J0D01*
G01*
X143180000Y-109820000D01*
G75*
G02*
X143255000Y-109895000I0J-75000D01*
G01*
X143255000Y-110045000D01*
G75*
G02*
X143180000Y-110120000I-75000J0D01*
G01*
X142480000Y-110120000D01*
G75*
G02*
X142405000Y-110045000I0J75000D01*
G01*
G37*
%TD.AperFunction*%
%TO.P,U6,4*%
%TA.AperFunction,SMDPad,CuDef*%
G36*
G01*
X142405000Y-109545000D02*
X142405000Y-109395000D01*
G75*
G02*
X142480000Y-109320000I75000J0D01*
G01*
X143180000Y-109320000D01*
G75*
G02*
X143255000Y-109395000I0J-75000D01*
G01*
X143255000Y-109545000D01*
G75*
G02*
X143180000Y-109620000I-75000J0D01*
G01*
X142480000Y-109620000D01*
G75*
G02*
X142405000Y-109545000I0J75000D01*
G01*
G37*
%TD.AperFunction*%
%TO.P,U6,3*%
%TA.AperFunction,SMDPad,CuDef*%
G36*
G01*
X142405000Y-109045000D02*
X142405000Y-108895000D01*
G75*
G02*
X142480000Y-108820000I75000J0D01*
G01*
X143180000Y-108820000D01*
G75*
G02*
X143255000Y-108895000I0J-75000D01*
G01*
X143255000Y-109045000D01*
G75*
G02*
X143180000Y-109120000I-75000J0D01*
G01*
X142480000Y-109120000D01*
G75*
G02*
X142405000Y-109045000I0J75000D01*
G01*
G37*
%TD.AperFunction*%
%TO.P,U6,2*%
%TA.AperFunction,SMDPad,CuDef*%
G36*
G01*
X142405000Y-108545000D02*
X142405000Y-108395000D01*
G75*
G02*
X142480000Y-108320000I75000J0D01*
G01*
X143180000Y-108320000D01*
G75*
G02*
X143255000Y-108395000I0J-75000D01*
G01*
X143255000Y-108545000D01*
G75*
G02*
X143180000Y-108620000I-75000J0D01*
G01*
X142480000Y-108620000D01*
G75*
G02*
X142405000Y-108545000I0J75000D01*
G01*
G37*
%TD.AperFunction*%
%TO.P,U6,1*%
%TO.N,GND*%
%TA.AperFunction,SMDPad,CuDef*%
G36*
G01*
X142405000Y-108045000D02*
X142405000Y-107895000D01*
G75*
G02*
X142480000Y-107820000I75000J0D01*
G01*
X143180000Y-107820000D01*
G75*
G02*
X143255000Y-107895000I0J-75000D01*
G01*
X143255000Y-108045000D01*
G75*
G02*
X143180000Y-108120000I-75000J0D01*
G01*
X142480000Y-108120000D01*
G75*
G02*
X142405000Y-108045000I0J75000D01*
G01*
G37*
%TD.AperFunction*%
%TD*%
%TO.P,U5,24*%
%TO.N,GND*%
%TA.AperFunction,SMDPad,CuDef*%
G36*
G01*
X153690000Y-89720000D02*
X153690000Y-89320000D01*
G75*
G02*
X153890000Y-89120000I200000J0D01*
G01*
X155290000Y-89120000D01*
G75*
G02*
X155490000Y-89320000I0J-200000D01*
G01*
X155490000Y-89720000D01*
G75*
G02*
X155290000Y-89920000I-200000J0D01*
G01*
X153890000Y-89920000D01*
G75*
G02*
X153690000Y-89720000I0J200000D01*
G01*
G37*
%TD.AperFunction*%
%TO.P,U5,23*%
%TO.N,/3.3V*%
%TA.AperFunction,SMDPad,CuDef*%
G36*
G01*
X153690000Y-90820000D02*
X153690000Y-90420000D01*
G75*
G02*
X153890000Y-90220000I200000J0D01*
G01*
X155290000Y-90220000D01*
G75*
G02*
X155490000Y-90420000I0J-200000D01*
G01*
X155490000Y-90820000D01*
G75*
G02*
X155290000Y-91020000I-200000J0D01*
G01*
X153890000Y-91020000D01*
G75*
G02*
X153690000Y-90820000I0J200000D01*
G01*
G37*
%TD.AperFunction*%
%TO.P,U5,22*%
%TO.N,Net-(U5-Pad22)*%
%TA.AperFunction,SMDPad,CuDef*%
G36*
G01*
X153690000Y-91920000D02*
X153690000Y-91520000D01*
G75*
G02*
X153890000Y-91320000I200000J0D01*
G01*
X155290000Y-91320000D01*
G75*
G02*
X155490000Y-91520000I0J-200000D01*
G01*
X155490000Y-91920000D01*
G75*
G02*
X155290000Y-92120000I-200000J0D01*
G01*
X153890000Y-92120000D01*
G75*
G02*
X153690000Y-91920000I0J200000D01*
G01*
G37*
%TD.AperFunction*%
%TO.P,U5,21*%
%TO.N,/GPSRX*%
%TA.AperFunction,SMDPad,CuDef*%
G36*
G01*
X153690000Y-93020000D02*
X153690000Y-92620000D01*
G75*
G02*
X153890000Y-92420000I200000J0D01*
G01*
X155290000Y-92420000D01*
G75*
G02*
X155490000Y-92620000I0J-200000D01*
G01*
X155490000Y-93020000D01*
G75*
G02*
X155290000Y-93220000I-200000J0D01*
G01*
X153890000Y-93220000D01*
G75*
G02*
X153690000Y-93020000I0J200000D01*
G01*
G37*
%TD.AperFunction*%
%TO.P,U5,20*%
%TO.N,/GPSTX*%
%TA.AperFunction,SMDPad,CuDef*%
G36*
G01*
X153690000Y-94120000D02*
X153690000Y-93720000D01*
G75*
G02*
X153890000Y-93520000I200000J0D01*
G01*
X155290000Y-93520000D01*
G75*
G02*
X155490000Y-93720000I0J-200000D01*
G01*
X155490000Y-94120000D01*
G75*
G02*
X155290000Y-94320000I-200000J0D01*
G01*
X153890000Y-94320000D01*
G75*
G02*
X153690000Y-94120000I0J200000D01*
G01*
G37*
%TD.AperFunction*%
%TO.P,U5,19*%
%TO.N,Net-(U5-Pad19)*%
%TA.AperFunction,SMDPad,CuDef*%
G36*
G01*
X153690000Y-95220000D02*
X153690000Y-94820000D01*
G75*
G02*
X153890000Y-94620000I200000J0D01*
G01*
X155290000Y-94620000D01*
G75*
G02*
X155490000Y-94820000I0J-200000D01*
G01*
X155490000Y-95220000D01*
G75*
G02*
X155290000Y-95420000I-200000J0D01*
G01*
X153890000Y-95420000D01*
G75*
G02*
X153690000Y-95220000I0J200000D01*
G01*
G37*
%TD.AperFunction*%
%TO.P,U5,18*%
%TO.N,Net-(U5-Pad18)*%
%TA.AperFunction,SMDPad,CuDef*%
G36*
G01*
X153690000Y-96320000D02*
X153690000Y-95920000D01*
G75*
G02*
X153890000Y-95720000I200000J0D01*
G01*
X155290000Y-95720000D01*
G75*
G02*
X155490000Y-95920000I0J-200000D01*
G01*
X155490000Y-96320000D01*
G75*
G02*
X155290000Y-96520000I-200000J0D01*
G01*
X153890000Y-96520000D01*
G75*
G02*
X153690000Y-96320000I0J200000D01*
G01*
G37*
%TD.AperFunction*%
%TO.P,U5,17*%
%TO.N,Net-(U5-Pad17)*%
%TA.AperFunction,SMDPad,CuDef*%
G36*
G01*
X153690000Y-99320000D02*
X153690000Y-98920000D01*
G75*
G02*
X153890000Y-98720000I200000J0D01*
G01*
X155290000Y-98720000D01*
G75*
G02*
X155490000Y-98920000I0J-200000D01*
G01*
X155490000Y-99320000D01*
G75*
G02*
X155290000Y-99520000I-200000J0D01*
G01*
X153890000Y-99520000D01*
G75*
G02*
X153690000Y-99320000I0J200000D01*
G01*
G37*
%TD.AperFunction*%
%TO.P,U5,16*%
%TO.N,Net-(U5-Pad16)*%
%TA.AperFunction,SMDPad,CuDef*%
G36*
G01*
X153690000Y-100420000D02*
X153690000Y-100020000D01*
G75*
G02*
X153890000Y-99820000I200000J0D01*
G01*
X155290000Y-99820000D01*
G75*
G02*
X155490000Y-100020000I0J-200000D01*
G01*
X155490000Y-100420000D01*
G75*
G02*
X155290000Y-100620000I-200000J0D01*
G01*
X153890000Y-100620000D01*
G75*
G02*
X153690000Y-100420000I0J200000D01*
G01*
G37*
%TD.AperFunction*%
%TO.P,U5,15*%
%TO.N,Net-(U5-Pad15)*%
%TA.AperFunction,SMDPad,CuDef*%
G36*
G01*
X153690000Y-101520000D02*
X153690000Y-101120000D01*
G75*
G02*
X153890000Y-100920000I200000J0D01*
G01*
X155290000Y-100920000D01*
G75*
G02*
X155490000Y-101120000I0J-200000D01*
G01*
X155490000Y-101520000D01*
G75*
G02*
X155290000Y-101720000I-200000J0D01*
G01*
X153890000Y-101720000D01*
G75*
G02*
X153690000Y-101520000I0J200000D01*
G01*
G37*
%TD.AperFunction*%
%TO.P,U5,14*%
%TO.N,Net-(U5-Pad14)*%
%TA.AperFunction,SMDPad,CuDef*%
G36*
G01*
X153690000Y-102620000D02*
X153690000Y-102220000D01*
G75*
G02*
X153890000Y-102020000I200000J0D01*
G01*
X155290000Y-102020000D01*
G75*
G02*
X155490000Y-102220000I0J-200000D01*
G01*
X155490000Y-102620000D01*
G75*
G02*
X155290000Y-102820000I-200000J0D01*
G01*
X153890000Y-102820000D01*
G75*
G02*
X153690000Y-102620000I0J200000D01*
G01*
G37*
%TD.AperFunction*%
%TO.P,U5,13*%
%TO.N,GND*%
%TA.AperFunction,SMDPad,CuDef*%
G36*
G01*
X153690000Y-103720000D02*
X153690000Y-103320000D01*
G75*
G02*
X153890000Y-103120000I200000J0D01*
G01*
X155290000Y-103120000D01*
G75*
G02*
X155490000Y-103320000I0J-200000D01*
G01*
X155490000Y-103720000D01*
G75*
G02*
X155290000Y-103920000I-200000J0D01*
G01*
X153890000Y-103920000D01*
G75*
G02*
X153690000Y-103720000I0J200000D01*
G01*
G37*
%TD.AperFunction*%
%TO.P,U5,12*%
%TA.AperFunction,SMDPad,CuDef*%
G36*
G01*
X141690000Y-103720000D02*
X141690000Y-103320000D01*
G75*
G02*
X141890000Y-103120000I200000J0D01*
G01*
X143290000Y-103120000D01*
G75*
G02*
X143490000Y-103320000I0J-200000D01*
G01*
X143490000Y-103720000D01*
G75*
G02*
X143290000Y-103920000I-200000J0D01*
G01*
X141890000Y-103920000D01*
G75*
G02*
X141690000Y-103720000I0J200000D01*
G01*
G37*
%TD.AperFunction*%
%TO.P,U5,11*%
%TO.N,Net-(R2-Pad1)*%
%TA.AperFunction,SMDPad,CuDef*%
G36*
G01*
X141690000Y-102620000D02*
X141690000Y-102220000D01*
G75*
G02*
X141890000Y-102020000I200000J0D01*
G01*
X143290000Y-102020000D01*
G75*
G02*
X143490000Y-102220000I0J-200000D01*
G01*
X143490000Y-102620000D01*
G75*
G02*
X143290000Y-102820000I-200000J0D01*
G01*
X141890000Y-102820000D01*
G75*
G02*
X141690000Y-102620000I0J200000D01*
G01*
G37*
%TD.AperFunction*%
%TO.P,U5,10*%
%TO.N,GND*%
%TA.AperFunction,SMDPad,CuDef*%
G36*
G01*
X141690000Y-101520000D02*
X141690000Y-101120000D01*
G75*
G02*
X141890000Y-100920000I200000J0D01*
G01*
X143290000Y-100920000D01*
G75*
G02*
X143490000Y-101120000I0J-200000D01*
G01*
X143490000Y-101520000D01*
G75*
G02*
X143290000Y-101720000I-200000J0D01*
G01*
X141890000Y-101720000D01*
G75*
G02*
X141690000Y-101520000I0J200000D01*
G01*
G37*
%TD.AperFunction*%
%TO.P,U5,9*%
%TO.N,Net-(U5-Pad8)*%
%TA.AperFunction,SMDPad,CuDef*%
G36*
G01*
X141690000Y-100420000D02*
X141690000Y-100020000D01*
G75*
G02*
X141890000Y-99820000I200000J0D01*
G01*
X143290000Y-99820000D01*
G75*
G02*
X143490000Y-100020000I0J-200000D01*
G01*
X143490000Y-100420000D01*
G75*
G02*
X143290000Y-100620000I-200000J0D01*
G01*
X141890000Y-100620000D01*
G75*
G02*
X141690000Y-100420000I0J200000D01*
G01*
G37*
%TD.AperFunction*%
%TO.P,U5,8*%
%TA.AperFunction,SMDPad,CuDef*%
G36*
G01*
X141690000Y-99320000D02*
X141690000Y-98920000D01*
G75*
G02*
X141890000Y-98720000I200000J0D01*
G01*
X143290000Y-98720000D01*
G75*
G02*
X143490000Y-98920000I0J-200000D01*
G01*
X143490000Y-99320000D01*
G75*
G02*
X143290000Y-99520000I-200000J0D01*
G01*
X141890000Y-99520000D01*
G75*
G02*
X141690000Y-99320000I0J200000D01*
G01*
G37*
%TD.AperFunction*%
%TO.P,U5,7*%
%TO.N,Net-(U5-Pad7)*%
%TA.AperFunction,SMDPad,CuDef*%
G36*
G01*
X141690000Y-96320000D02*
X141690000Y-95920000D01*
G75*
G02*
X141890000Y-95720000I200000J0D01*
G01*
X143290000Y-95720000D01*
G75*
G02*
X143490000Y-95920000I0J-200000D01*
G01*
X143490000Y-96320000D01*
G75*
G02*
X143290000Y-96520000I-200000J0D01*
G01*
X141890000Y-96520000D01*
G75*
G02*
X141690000Y-96320000I0J200000D01*
G01*
G37*
%TD.AperFunction*%
%TO.P,U5,6*%
%TO.N,Net-(U5-Pad6)*%
%TA.AperFunction,SMDPad,CuDef*%
G36*
G01*
X141690000Y-95220000D02*
X141690000Y-94820000D01*
G75*
G02*
X141890000Y-94620000I200000J0D01*
G01*
X143290000Y-94620000D01*
G75*
G02*
X143490000Y-94820000I0J-200000D01*
G01*
X143490000Y-95220000D01*
G75*
G02*
X143290000Y-95420000I-200000J0D01*
G01*
X141890000Y-95420000D01*
G75*
G02*
X141690000Y-95220000I0J200000D01*
G01*
G37*
%TD.AperFunction*%
%TO.P,U5,5*%
%TO.N,Net-(U5-Pad5)*%
%TA.AperFunction,SMDPad,CuDef*%
G36*
G01*
X141690000Y-94120000D02*
X141690000Y-93720000D01*
G75*
G02*
X141890000Y-93520000I200000J0D01*
G01*
X143290000Y-93520000D01*
G75*
G02*
X143490000Y-93720000I0J-200000D01*
G01*
X143490000Y-94120000D01*
G75*
G02*
X143290000Y-94320000I-200000J0D01*
G01*
X141890000Y-94320000D01*
G75*
G02*
X141690000Y-94120000I0J200000D01*
G01*
G37*
%TD.AperFunction*%
%TO.P,U5,4*%
%TO.N,Net-(U5-Pad4)*%
%TA.AperFunction,SMDPad,CuDef*%
G36*
G01*
X141690000Y-93020000D02*
X141690000Y-92620000D01*
G75*
G02*
X141890000Y-92420000I200000J0D01*
G01*
X143290000Y-92420000D01*
G75*
G02*
X143490000Y-92620000I0J-200000D01*
G01*
X143490000Y-93020000D01*
G75*
G02*
X143290000Y-93220000I-200000J0D01*
G01*
X141890000Y-93220000D01*
G75*
G02*
X141690000Y-93020000I0J200000D01*
G01*
G37*
%TD.AperFunction*%
%TO.P,U5,3*%
%TO.N,/IPPS*%
%TA.AperFunction,SMDPad,CuDef*%
G36*
G01*
X141690000Y-91920000D02*
X141690000Y-91520000D01*
G75*
G02*
X141890000Y-91320000I200000J0D01*
G01*
X143290000Y-91320000D01*
G75*
G02*
X143490000Y-91520000I0J-200000D01*
G01*
X143490000Y-91920000D01*
G75*
G02*
X143290000Y-92120000I-200000J0D01*
G01*
X141890000Y-92120000D01*
G75*
G02*
X141690000Y-91920000I0J200000D01*
G01*
G37*
%TD.AperFunction*%
%TO.P,U5,2*%
%TO.N,Net-(U5-Pad2)*%
%TA.AperFunction,SMDPad,CuDef*%
G36*
G01*
X141690000Y-90820000D02*
X141690000Y-90420000D01*
G75*
G02*
X141890000Y-90220000I200000J0D01*
G01*
X143290000Y-90220000D01*
G75*
G02*
X143490000Y-90420000I0J-200000D01*
G01*
X143490000Y-90820000D01*
G75*
G02*
X143290000Y-91020000I-200000J0D01*
G01*
X141890000Y-91020000D01*
G75*
G02*
X141690000Y-90820000I0J200000D01*
G01*
G37*
%TD.AperFunction*%
%TO.P,U5,1*%
%TO.N,N/C*%
%TA.AperFunction,SMDPad,CuDef*%
G36*
G01*
X141690000Y-89720000D02*
X141690000Y-89320000D01*
G75*
G02*
X141890000Y-89120000I200000J0D01*
G01*
X143290000Y-89120000D01*
G75*
G02*
X143490000Y-89320000I0J-200000D01*
G01*
X143490000Y-89720000D01*
G75*
G02*
X143290000Y-89920000I-200000J0D01*
G01*
X141890000Y-89920000D01*
G75*
G02*
X141690000Y-89720000I0J200000D01*
G01*
G37*
%TD.AperFunction*%
%TD*%
D15*
%TO.P,U4,16*%
%TO.N,Net-(U4-Pad16)*%
X156590000Y-67930000D03*
%TO.P,U4,15*%
%TO.N,Net-(U4-Pad15)*%
X156590000Y-69930000D03*
%TO.P,U4,14*%
%TO.N,/RFDIO0*%
X156590000Y-71930000D03*
%TO.P,U4,13*%
%TO.N,/3.3V*%
X156590000Y-73930000D03*
%TO.P,U4,12*%
%TO.N,Net-(U4-Pad12)*%
X156590000Y-75930000D03*
%TO.P,U4,11*%
%TO.N,Net-(U4-Pad11)*%
X156590000Y-77930000D03*
%TO.P,U4,10*%
%TO.N,GND*%
X156590000Y-79930000D03*
%TO.P,U4,9*%
%TO.N,Net-(AE2-Pad1)*%
X156590000Y-81930000D03*
%TO.P,U4,8*%
%TO.N,GND*%
X140590000Y-81930000D03*
%TO.P,U4,7*%
%TO.N,Net-(U4-Pad7)*%
X140590000Y-79930000D03*
%TO.P,U4,6*%
%TO.N,GND*%
X140590000Y-77930000D03*
%TO.P,U4,5*%
%TO.N,/SS0*%
X140590000Y-75930000D03*
%TO.P,U4,4*%
%TO.N,/SCK*%
X140590000Y-73930000D03*
%TO.P,U4,3*%
%TO.N,/MOSI*%
X140590000Y-71930000D03*
%TO.P,U4,2*%
%TO.N,/MISO*%
X140590000Y-69930000D03*
%TO.P,U4,1*%
%TO.N,GND*%
X140590000Y-67930000D03*
%TD*%
D16*
%TO.P,U3,5*%
%TO.N,/5V*%
X90340000Y-136840000D03*
%TO.P,U3,4*%
%TO.N,Net-(C3-Pad1)*%
X90340000Y-134940000D03*
%TO.P,U3,3*%
%TO.N,/VPP_SEL*%
X92540000Y-134940000D03*
%TO.P,U3,2*%
%TO.N,GND*%
X92540000Y-135890000D03*
%TO.P,U3,1*%
%TO.N,/VPP_SEL*%
X92540000Y-136840000D03*
%TD*%
%TO.P,U2,5*%
%TO.N,/3.3V*%
X103040000Y-136840000D03*
%TO.P,U2,4*%
%TO.N,Net-(C2-Pad1)*%
X103040000Y-134940000D03*
%TO.P,U2,3*%
%TO.N,/VPP_SEL*%
X105240000Y-134940000D03*
%TO.P,U2,2*%
%TO.N,GND*%
X105240000Y-135890000D03*
%TO.P,U2,1*%
%TO.N,/VPP_SEL*%
X105240000Y-136840000D03*
%TD*%
D17*
%TO.P,U1,43*%
%TO.N,GND*%
X122535000Y-81715000D03*
X122535000Y-83265000D03*
X122535000Y-84765000D03*
X124035000Y-84765000D03*
X125535000Y-84765000D03*
X125535000Y-83265000D03*
X125535000Y-81715000D03*
X124035000Y-81715000D03*
X124035000Y-83265000D03*
D18*
%TO.P,U1,42*%
X133975000Y-75215000D03*
%TO.P,U1,41*%
%TO.N,/RST*%
X133975000Y-76715000D03*
%TO.P,U1,40*%
%TO.N,/RFDIO0*%
X133975000Y-78215000D03*
%TO.P,U1,39*%
%TO.N,/GPIO45*%
X133975000Y-79715000D03*
%TO.P,U1,38*%
%TO.N,/GPSRX*%
X133975000Y-81215000D03*
%TO.P,U1,37*%
%TO.N,/GPSTX*%
X133975000Y-82715000D03*
%TO.P,U1,36*%
%TO.N,/MTMS*%
X133975000Y-84215000D03*
%TO.P,U1,35*%
%TO.N,/MTDI*%
X133975000Y-85715000D03*
%TO.P,U1,34*%
%TO.N,/MTDO*%
X133975000Y-87215000D03*
%TO.P,U1,33*%
%TO.N,/MTCK*%
X133975000Y-88715000D03*
%TO.P,U1,32*%
%TO.N,/SDA*%
X133975000Y-90215000D03*
%TO.P,U1,31*%
%TO.N,/SCL*%
X133975000Y-91715000D03*
%TO.P,U1,30*%
%TO.N,/SCK*%
X133975000Y-93215000D03*
%TO.P,U1,29*%
%TO.N,/MOSI*%
X133975000Y-94715000D03*
%TO.P,U1,28*%
%TO.N,/MISO*%
X133975000Y-96215000D03*
%TO.P,U1,27*%
%TO.N,/IPPS*%
X133975000Y-97715000D03*
D19*
%TO.P,U1,26*%
%TO.N,GND*%
X131975000Y-98465000D03*
%TO.P,U1,25*%
%TO.N,/ACCINT*%
X130475000Y-98465000D03*
%TO.P,U1,24*%
%TO.N,/RFDIO0*%
X128975000Y-98465000D03*
%TO.P,U1,23*%
%TO.N,/D+*%
X127475000Y-98465000D03*
%TO.P,U1,22*%
%TO.N,/D-*%
X125975000Y-98465000D03*
%TO.P,U1,21*%
%TO.N,/GPIO18*%
X124475000Y-98465000D03*
%TO.P,U1,20*%
%TO.N,/GPIO17*%
X122975000Y-98465000D03*
%TO.P,U1,19*%
%TO.N,/SS1*%
X121475000Y-98465000D03*
%TO.P,U1,18*%
%TO.N,/SS0*%
X119975000Y-98465000D03*
%TO.P,U1,17*%
%TO.N,/GPIO13*%
X118475000Y-98465000D03*
D18*
%TO.P,U1,1*%
%TO.N,GND*%
X116475000Y-75215000D03*
%TO.P,U1,2*%
%TO.N,/3.3V*%
X116475000Y-76715000D03*
%TO.P,U1,3*%
%TO.N,/BOOT*%
X116475000Y-78215000D03*
%TO.P,U1,4*%
%TO.N,/GPIO0*%
X116475000Y-79715000D03*
%TO.P,U1,5*%
%TO.N,/GPIO1*%
X116475000Y-81215000D03*
%TO.P,U1,6*%
%TO.N,/GPIO2*%
X116475000Y-82715000D03*
%TO.P,U1,7*%
%TO.N,/GPIO3*%
X116475000Y-84215000D03*
%TO.P,U1,8*%
%TO.N,/GPIO4*%
X116475000Y-85715000D03*
%TO.P,U1,9*%
%TO.N,/GPIO5*%
X116475000Y-87215000D03*
%TO.P,U1,10*%
%TO.N,/GPIO6*%
X116475000Y-88715000D03*
%TO.P,U1,11*%
%TO.N,/GPIO7*%
X116475000Y-90215000D03*
%TO.P,U1,12*%
%TO.N,/GPIO8*%
X116475000Y-91715000D03*
%TO.P,U1,13*%
%TO.N,/GPIO9*%
X116475000Y-93215000D03*
%TO.P,U1,14*%
%TO.N,/GPIO10*%
X116475000Y-94715000D03*
%TO.P,U1,15*%
%TO.N,/GPIO11*%
X116475000Y-96215000D03*
%TO.P,U1,16*%
%TO.N,/GPIO12*%
X116475000Y-97715000D03*
%TD*%
D20*
%TO.P,SW2,2*%
%TO.N,/RST*%
X133060000Y-103975000D03*
X133060000Y-111925000D03*
%TO.P,SW2,1*%
%TO.N,GND*%
X128560000Y-103975000D03*
X128560000Y-111925000D03*
%TD*%
%TO.P,SW1,2*%
%TO.N,/BOOT*%
X122900000Y-103975000D03*
X122900000Y-111925000D03*
%TO.P,SW1,1*%
%TO.N,GND*%
X118400000Y-103975000D03*
X118400000Y-111925000D03*
%TD*%
%TO.P,R4,2*%
%TO.N,GND*%
%TA.AperFunction,SMDPad,CuDef*%
G36*
G01*
X137804997Y-110120000D02*
X139055003Y-110120000D01*
G75*
G02*
X139305000Y-110369997I0J-249997D01*
G01*
X139305000Y-110995003D01*
G75*
G02*
X139055003Y-111245000I-249997J0D01*
G01*
X137804997Y-111245000D01*
G75*
G02*
X137555000Y-110995003I0J249997D01*
G01*
X137555000Y-110369997D01*
G75*
G02*
X137804997Y-110120000I249997J0D01*
G01*
G37*
%TD.AperFunction*%
%TO.P,R4,1*%
%TO.N,Net-(D2-Pad2)*%
%TA.AperFunction,SMDPad,CuDef*%
G36*
G01*
X137804997Y-107195000D02*
X139055003Y-107195000D01*
G75*
G02*
X139305000Y-107444997I0J-249997D01*
G01*
X139305000Y-108070003D01*
G75*
G02*
X139055003Y-108320000I-249997J0D01*
G01*
X137804997Y-108320000D01*
G75*
G02*
X137555000Y-108070003I0J249997D01*
G01*
X137555000Y-107444997D01*
G75*
G02*
X137804997Y-107195000I249997J0D01*
G01*
G37*
%TD.AperFunction*%
%TD*%
%TO.P,R3,2*%
%TO.N,GND*%
%TA.AperFunction,SMDPad,CuDef*%
G36*
G01*
X149385000Y-111890000D02*
X150335000Y-111890000D01*
G75*
G02*
X150585000Y-112140000I0J-250000D01*
G01*
X150585000Y-112640000D01*
G75*
G02*
X150335000Y-112890000I-250000J0D01*
G01*
X149385000Y-112890000D01*
G75*
G02*
X149135000Y-112640000I0J250000D01*
G01*
X149135000Y-112140000D01*
G75*
G02*
X149385000Y-111890000I250000J0D01*
G01*
G37*
%TD.AperFunction*%
%TO.P,R3,1*%
%TO.N,Net-(R3-Pad1)*%
%TA.AperFunction,SMDPad,CuDef*%
G36*
G01*
X149385000Y-109990000D02*
X150335000Y-109990000D01*
G75*
G02*
X150585000Y-110240000I0J-250000D01*
G01*
X150585000Y-110740000D01*
G75*
G02*
X150335000Y-110990000I-250000J0D01*
G01*
X149385000Y-110990000D01*
G75*
G02*
X149135000Y-110740000I0J250000D01*
G01*
X149135000Y-110240000D01*
G75*
G02*
X149385000Y-109990000I250000J0D01*
G01*
G37*
%TD.AperFunction*%
%TD*%
%TO.P,R2,1*%
%TO.N,Net-(R2-Pad1)*%
%TA.AperFunction,SMDPad,CuDef*%
G36*
G01*
X163905000Y-95700000D02*
X163755000Y-95700000D01*
G75*
G02*
X163680000Y-95625000I0J75000D01*
G01*
X163680000Y-95375000D01*
G75*
G02*
X163755000Y-95300000I75000J0D01*
G01*
X163905000Y-95300000D01*
G75*
G02*
X163980000Y-95375000I0J-75000D01*
G01*
X163980000Y-95625000D01*
G75*
G02*
X163905000Y-95700000I-75000J0D01*
G01*
G37*
%TD.AperFunction*%
%TO.P,R2,2*%
%TO.N,Net-(J11-Pad1)*%
%TA.AperFunction,SMDPad,CuDef*%
G36*
G01*
X163905000Y-95200000D02*
X163755000Y-95200000D01*
G75*
G02*
X163680000Y-95125000I0J75000D01*
G01*
X163680000Y-94875000D01*
G75*
G02*
X163755000Y-94800000I75000J0D01*
G01*
X163905000Y-94800000D01*
G75*
G02*
X163980000Y-94875000I0J-75000D01*
G01*
X163980000Y-95125000D01*
G75*
G02*
X163905000Y-95200000I-75000J0D01*
G01*
G37*
%TD.AperFunction*%
%TD*%
%TO.P,R1,1*%
%TO.N,Net-(D1-Pad2)*%
%TA.AperFunction,SMDPad,CuDef*%
G36*
G01*
X127644997Y-126245000D02*
X128895003Y-126245000D01*
G75*
G02*
X129145000Y-126494997I0J-249997D01*
G01*
X129145000Y-127120003D01*
G75*
G02*
X128895003Y-127370000I-249997J0D01*
G01*
X127644997Y-127370000D01*
G75*
G02*
X127395000Y-127120003I0J249997D01*
G01*
X127395000Y-126494997D01*
G75*
G02*
X127644997Y-126245000I249997J0D01*
G01*
G37*
%TD.AperFunction*%
%TO.P,R1,2*%
%TO.N,GND*%
%TA.AperFunction,SMDPad,CuDef*%
G36*
G01*
X127644997Y-129170000D02*
X128895003Y-129170000D01*
G75*
G02*
X129145000Y-129419997I0J-249997D01*
G01*
X129145000Y-130045003D01*
G75*
G02*
X128895003Y-130295000I-249997J0D01*
G01*
X127644997Y-130295000D01*
G75*
G02*
X127395000Y-130045003I0J249997D01*
G01*
X127395000Y-129419997D01*
G75*
G02*
X127644997Y-129170000I249997J0D01*
G01*
G37*
%TD.AperFunction*%
%TD*%
D21*
%TO.P,J10,1*%
%TO.N,/5V*%
X91440000Y-90170000D03*
D22*
%TO.P,J10,2*%
%TO.N,/SDA*%
X91440000Y-92710000D03*
%TO.P,J10,3*%
%TO.N,/SCL*%
X91440000Y-95250000D03*
%TO.P,J10,4*%
%TO.N,GND*%
X91440000Y-97790000D03*
%TD*%
%TO.P,J9,4*%
%TO.N,/SS1*%
X86360000Y-97790000D03*
%TO.P,J9,3*%
%TO.N,/SS0*%
X86360000Y-95250000D03*
%TO.P,J9,2*%
%TO.N,/MISO*%
X86360000Y-92710000D03*
D21*
%TO.P,J9,1*%
%TO.N,/MOSI*%
X86360000Y-90170000D03*
%TD*%
D22*
%TO.P,J8,16*%
%TO.N,/GPIO17*%
X107950000Y-109220000D03*
%TO.P,J8,15*%
%TO.N,/GPIO18*%
X107950000Y-106680000D03*
%TO.P,J8,14*%
%TO.N,/GPIO13*%
X107950000Y-104140000D03*
%TO.P,J8,13*%
%TO.N,/GPIO12*%
X107950000Y-101600000D03*
%TO.P,J8,12*%
%TO.N,/GPIO11*%
X107950000Y-99060000D03*
%TO.P,J8,11*%
%TO.N,/GPIO10*%
X107950000Y-96520000D03*
%TO.P,J8,10*%
%TO.N,/GPIO9*%
X107950000Y-93980000D03*
%TO.P,J8,9*%
%TO.N,/GPIO8*%
X107950000Y-91440000D03*
%TO.P,J8,8*%
%TO.N,/GPIO7*%
X107950000Y-88900000D03*
%TO.P,J8,7*%
%TO.N,/GPIO6*%
X107950000Y-86360000D03*
%TO.P,J8,6*%
%TO.N,/GPIO5*%
X107950000Y-83820000D03*
%TO.P,J8,5*%
%TO.N,/GPIO4*%
X107950000Y-81280000D03*
%TO.P,J8,4*%
%TO.N,/GPIO3*%
X107950000Y-78740000D03*
%TO.P,J8,3*%
%TO.N,/GPIO2*%
X107950000Y-76200000D03*
%TO.P,J8,2*%
%TO.N,/GPIO1*%
X107950000Y-73660000D03*
D21*
%TO.P,J8,1*%
%TO.N,/GPIO0*%
X107950000Y-71120000D03*
%TD*%
D22*
%TO.P,J7,10*%
%TO.N,GND*%
X90170000Y-82550000D03*
%TO.P,J7,9*%
X87630000Y-82550000D03*
%TO.P,J7,8*%
%TO.N,/MTDI*%
X90170000Y-80010000D03*
%TO.P,J7,7*%
%TO.N,Net-(J7-Pad7)*%
X87630000Y-80010000D03*
%TO.P,J7,6*%
%TO.N,/MTDO*%
X90170000Y-77470000D03*
%TO.P,J7,5*%
%TO.N,GND*%
X87630000Y-77470000D03*
%TO.P,J7,4*%
%TO.N,/MTCK*%
X90170000Y-74930000D03*
%TO.P,J7,3*%
%TO.N,GND*%
X87630000Y-74930000D03*
%TO.P,J7,2*%
%TO.N,/MTMS*%
X90170000Y-72390000D03*
D21*
%TO.P,J7,1*%
%TO.N,/5V*%
X87630000Y-72390000D03*
%TD*%
%TO.P,J6,1*%
%TO.N,Net-(BT1-Pad1)*%
X88900000Y-105410000D03*
%TD*%
%TO.P,J5,1*%
%TO.N,/VPP_SEL*%
X88900000Y-107950000D03*
%TD*%
%TO.P,J4,1*%
%TO.N,/VBUS*%
X86360000Y-107950000D03*
%TD*%
%TO.P,J3,1*%
%TO.N,Net-(J1-Pad2)*%
X91440000Y-107950000D03*
%TD*%
D23*
%TO.P,J2,6*%
%TO.N,GND*%
X74708500Y-107463000D03*
X74708500Y-113263000D03*
D24*
X74708500Y-113863000D03*
X74708500Y-106863000D03*
D25*
X74708500Y-109363000D03*
D26*
X77408500Y-112863000D03*
D27*
%TO.P,J2,3*%
%TO.N,/D+*%
X77408500Y-110363000D03*
%TO.P,J2,4*%
%TO.N,Net-(J2-Pad4)*%
X77408500Y-111013000D03*
%TO.P,J2,5*%
%TO.N,GND*%
X77408500Y-111663000D03*
%TO.P,J2,1*%
%TO.N,/VBUS*%
X77408500Y-109063000D03*
%TO.P,J2,2*%
%TO.N,/D-*%
X77408500Y-109713000D03*
D26*
%TO.P,J2,6*%
%TO.N,GND*%
X77408500Y-107863000D03*
D25*
X74708500Y-111363000D03*
%TD*%
D28*
%TO.P,J1,2*%
%TO.N,Net-(J1-Pad2)*%
X78740000Y-119460000D03*
D29*
%TO.P,J1,1*%
%TO.N,GND*%
X78740000Y-124460000D03*
%TD*%
%TO.P,D2,2*%
%TO.N,Net-(D2-Pad2)*%
%TA.AperFunction,SMDPad,CuDef*%
G36*
G01*
X137805000Y-103645000D02*
X139055000Y-103645000D01*
G75*
G02*
X139305000Y-103895000I0J-250000D01*
G01*
X139305000Y-104645000D01*
G75*
G02*
X139055000Y-104895000I-250000J0D01*
G01*
X137805000Y-104895000D01*
G75*
G02*
X137555000Y-104645000I0J250000D01*
G01*
X137555000Y-103895000D01*
G75*
G02*
X137805000Y-103645000I250000J0D01*
G01*
G37*
%TD.AperFunction*%
%TO.P,D2,1*%
%TO.N,/GPIO45*%
%TA.AperFunction,SMDPad,CuDef*%
G36*
G01*
X137805000Y-100845000D02*
X139055000Y-100845000D01*
G75*
G02*
X139305000Y-101095000I0J-250000D01*
G01*
X139305000Y-101845000D01*
G75*
G02*
X139055000Y-102095000I-250000J0D01*
G01*
X137805000Y-102095000D01*
G75*
G02*
X137555000Y-101845000I0J250000D01*
G01*
X137555000Y-101095000D01*
G75*
G02*
X137805000Y-100845000I250000J0D01*
G01*
G37*
%TD.AperFunction*%
%TD*%
%TO.P,D1,1*%
%TO.N,/3.3V*%
%TA.AperFunction,SMDPad,CuDef*%
G36*
G01*
X122565000Y-126245000D02*
X123815000Y-126245000D01*
G75*
G02*
X124065000Y-126495000I0J-250000D01*
G01*
X124065000Y-127245000D01*
G75*
G02*
X123815000Y-127495000I-250000J0D01*
G01*
X122565000Y-127495000D01*
G75*
G02*
X122315000Y-127245000I0J250000D01*
G01*
X122315000Y-126495000D01*
G75*
G02*
X122565000Y-126245000I250000J0D01*
G01*
G37*
%TD.AperFunction*%
%TO.P,D1,2*%
%TO.N,Net-(D1-Pad2)*%
%TA.AperFunction,SMDPad,CuDef*%
G36*
G01*
X122565000Y-129045000D02*
X123815000Y-129045000D01*
G75*
G02*
X124065000Y-129295000I0J-250000D01*
G01*
X124065000Y-130045000D01*
G75*
G02*
X123815000Y-130295000I-250000J0D01*
G01*
X122565000Y-130295000D01*
G75*
G02*
X122315000Y-130045000I0J250000D01*
G01*
X122315000Y-129295000D01*
G75*
G02*
X122565000Y-129045000I250000J0D01*
G01*
G37*
%TD.AperFunction*%
%TD*%
%TO.P,C8,1*%
%TO.N,/REGOUT*%
%TA.AperFunction,SMDPad,CuDef*%
G36*
G01*
X116290000Y-125170000D02*
X117390000Y-125170000D01*
G75*
G02*
X117640000Y-125420000I0J-250000D01*
G01*
X117640000Y-127520000D01*
G75*
G02*
X117390000Y-127770000I-250000J0D01*
G01*
X116290000Y-127770000D01*
G75*
G02*
X116040000Y-127520000I0J250000D01*
G01*
X116040000Y-125420000D01*
G75*
G02*
X116290000Y-125170000I250000J0D01*
G01*
G37*
%TD.AperFunction*%
%TO.P,C8,2*%
%TO.N,GND*%
%TA.AperFunction,SMDPad,CuDef*%
G36*
G01*
X116290000Y-128770000D02*
X117390000Y-128770000D01*
G75*
G02*
X117640000Y-129020000I0J-250000D01*
G01*
X117640000Y-131120000D01*
G75*
G02*
X117390000Y-131370000I-250000J0D01*
G01*
X116290000Y-131370000D01*
G75*
G02*
X116040000Y-131120000I0J250000D01*
G01*
X116040000Y-129020000D01*
G75*
G02*
X116290000Y-128770000I250000J0D01*
G01*
G37*
%TD.AperFunction*%
%TD*%
%TO.P,C7,2*%
%TO.N,GND*%
%TA.AperFunction,SMDPad,CuDef*%
G36*
G01*
X109940000Y-136390000D02*
X111040000Y-136390000D01*
G75*
G02*
X111290000Y-136640000I0J-250000D01*
G01*
X111290000Y-138740000D01*
G75*
G02*
X111040000Y-138990000I-250000J0D01*
G01*
X109940000Y-138990000D01*
G75*
G02*
X109690000Y-138740000I0J250000D01*
G01*
X109690000Y-136640000D01*
G75*
G02*
X109940000Y-136390000I250000J0D01*
G01*
G37*
%TD.AperFunction*%
%TO.P,C7,1*%
%TO.N,/RST*%
%TA.AperFunction,SMDPad,CuDef*%
G36*
G01*
X109940000Y-132790000D02*
X111040000Y-132790000D01*
G75*
G02*
X111290000Y-133040000I0J-250000D01*
G01*
X111290000Y-135140000D01*
G75*
G02*
X111040000Y-135390000I-250000J0D01*
G01*
X109940000Y-135390000D01*
G75*
G02*
X109690000Y-135140000I0J250000D01*
G01*
X109690000Y-133040000D01*
G75*
G02*
X109940000Y-132790000I250000J0D01*
G01*
G37*
%TD.AperFunction*%
%TD*%
%TO.P,C6,2*%
%TO.N,GND*%
%TA.AperFunction,SMDPad,CuDef*%
G36*
G01*
X109940000Y-128770000D02*
X111040000Y-128770000D01*
G75*
G02*
X111290000Y-129020000I0J-250000D01*
G01*
X111290000Y-131120000D01*
G75*
G02*
X111040000Y-131370000I-250000J0D01*
G01*
X109940000Y-131370000D01*
G75*
G02*
X109690000Y-131120000I0J250000D01*
G01*
X109690000Y-129020000D01*
G75*
G02*
X109940000Y-128770000I250000J0D01*
G01*
G37*
%TD.AperFunction*%
%TO.P,C6,1*%
%TO.N,/BOOT*%
%TA.AperFunction,SMDPad,CuDef*%
G36*
G01*
X109940000Y-125170000D02*
X111040000Y-125170000D01*
G75*
G02*
X111290000Y-125420000I0J-250000D01*
G01*
X111290000Y-127520000D01*
G75*
G02*
X111040000Y-127770000I-250000J0D01*
G01*
X109940000Y-127770000D01*
G75*
G02*
X109690000Y-127520000I0J250000D01*
G01*
X109690000Y-125420000D01*
G75*
G02*
X109940000Y-125170000I250000J0D01*
G01*
G37*
%TD.AperFunction*%
%TD*%
%TO.P,C5,2*%
%TO.N,GND*%
%TA.AperFunction,SMDPad,CuDef*%
G36*
G01*
X97240000Y-128770000D02*
X98340000Y-128770000D01*
G75*
G02*
X98590000Y-129020000I0J-250000D01*
G01*
X98590000Y-131120000D01*
G75*
G02*
X98340000Y-131370000I-250000J0D01*
G01*
X97240000Y-131370000D01*
G75*
G02*
X96990000Y-131120000I0J250000D01*
G01*
X96990000Y-129020000D01*
G75*
G02*
X97240000Y-128770000I250000J0D01*
G01*
G37*
%TD.AperFunction*%
%TO.P,C5,1*%
%TO.N,/5V*%
%TA.AperFunction,SMDPad,CuDef*%
G36*
G01*
X97240000Y-125170000D02*
X98340000Y-125170000D01*
G75*
G02*
X98590000Y-125420000I0J-250000D01*
G01*
X98590000Y-127520000D01*
G75*
G02*
X98340000Y-127770000I-250000J0D01*
G01*
X97240000Y-127770000D01*
G75*
G02*
X96990000Y-127520000I0J250000D01*
G01*
X96990000Y-125420000D01*
G75*
G02*
X97240000Y-125170000I250000J0D01*
G01*
G37*
%TD.AperFunction*%
%TD*%
%TO.P,C4,2*%
%TO.N,GND*%
%TA.AperFunction,SMDPad,CuDef*%
G36*
G01*
X103590000Y-128770000D02*
X104690000Y-128770000D01*
G75*
G02*
X104940000Y-129020000I0J-250000D01*
G01*
X104940000Y-131120000D01*
G75*
G02*
X104690000Y-131370000I-250000J0D01*
G01*
X103590000Y-131370000D01*
G75*
G02*
X103340000Y-131120000I0J250000D01*
G01*
X103340000Y-129020000D01*
G75*
G02*
X103590000Y-128770000I250000J0D01*
G01*
G37*
%TD.AperFunction*%
%TO.P,C4,1*%
%TO.N,/3.3V*%
%TA.AperFunction,SMDPad,CuDef*%
G36*
G01*
X103590000Y-125170000D02*
X104690000Y-125170000D01*
G75*
G02*
X104940000Y-125420000I0J-250000D01*
G01*
X104940000Y-127520000D01*
G75*
G02*
X104690000Y-127770000I-250000J0D01*
G01*
X103590000Y-127770000D01*
G75*
G02*
X103340000Y-127520000I0J250000D01*
G01*
X103340000Y-125420000D01*
G75*
G02*
X103590000Y-125170000I250000J0D01*
G01*
G37*
%TD.AperFunction*%
%TD*%
%TO.P,C3,2*%
%TO.N,GND*%
%TA.AperFunction,SMDPad,CuDef*%
G36*
G01*
X97240000Y-136390000D02*
X98340000Y-136390000D01*
G75*
G02*
X98590000Y-136640000I0J-250000D01*
G01*
X98590000Y-138740000D01*
G75*
G02*
X98340000Y-138990000I-250000J0D01*
G01*
X97240000Y-138990000D01*
G75*
G02*
X96990000Y-138740000I0J250000D01*
G01*
X96990000Y-136640000D01*
G75*
G02*
X97240000Y-136390000I250000J0D01*
G01*
G37*
%TD.AperFunction*%
%TO.P,C3,1*%
%TO.N,Net-(C3-Pad1)*%
%TA.AperFunction,SMDPad,CuDef*%
G36*
G01*
X97240000Y-132790000D02*
X98340000Y-132790000D01*
G75*
G02*
X98590000Y-133040000I0J-250000D01*
G01*
X98590000Y-135140000D01*
G75*
G02*
X98340000Y-135390000I-250000J0D01*
G01*
X97240000Y-135390000D01*
G75*
G02*
X96990000Y-135140000I0J250000D01*
G01*
X96990000Y-133040000D01*
G75*
G02*
X97240000Y-132790000I250000J0D01*
G01*
G37*
%TD.AperFunction*%
%TD*%
%TO.P,C2,1*%
%TO.N,Net-(C2-Pad1)*%
%TA.AperFunction,SMDPad,CuDef*%
G36*
G01*
X122640000Y-132790000D02*
X123740000Y-132790000D01*
G75*
G02*
X123990000Y-133040000I0J-250000D01*
G01*
X123990000Y-135140000D01*
G75*
G02*
X123740000Y-135390000I-250000J0D01*
G01*
X122640000Y-135390000D01*
G75*
G02*
X122390000Y-135140000I0J250000D01*
G01*
X122390000Y-133040000D01*
G75*
G02*
X122640000Y-132790000I250000J0D01*
G01*
G37*
%TD.AperFunction*%
%TO.P,C2,2*%
%TO.N,GND*%
%TA.AperFunction,SMDPad,CuDef*%
G36*
G01*
X122640000Y-136390000D02*
X123740000Y-136390000D01*
G75*
G02*
X123990000Y-136640000I0J-250000D01*
G01*
X123990000Y-138740000D01*
G75*
G02*
X123740000Y-138990000I-250000J0D01*
G01*
X122640000Y-138990000D01*
G75*
G02*
X122390000Y-138740000I0J250000D01*
G01*
X122390000Y-136640000D01*
G75*
G02*
X122640000Y-136390000I250000J0D01*
G01*
G37*
%TD.AperFunction*%
%TD*%
%TO.P,C1,2*%
%TO.N,GND*%
%TA.AperFunction,SMDPad,CuDef*%
G36*
G01*
X90890000Y-128770000D02*
X91990000Y-128770000D01*
G75*
G02*
X92240000Y-129020000I0J-250000D01*
G01*
X92240000Y-131120000D01*
G75*
G02*
X91990000Y-131370000I-250000J0D01*
G01*
X90890000Y-131370000D01*
G75*
G02*
X90640000Y-131120000I0J250000D01*
G01*
X90640000Y-129020000D01*
G75*
G02*
X90890000Y-128770000I250000J0D01*
G01*
G37*
%TD.AperFunction*%
%TO.P,C1,1*%
%TO.N,/VPP_SEL*%
%TA.AperFunction,SMDPad,CuDef*%
G36*
G01*
X90890000Y-125170000D02*
X91990000Y-125170000D01*
G75*
G02*
X92240000Y-125420000I0J-250000D01*
G01*
X92240000Y-127520000D01*
G75*
G02*
X91990000Y-127770000I-250000J0D01*
G01*
X90890000Y-127770000D01*
G75*
G02*
X90640000Y-127520000I0J250000D01*
G01*
X90640000Y-125420000D01*
G75*
G02*
X90890000Y-125170000I250000J0D01*
G01*
G37*
%TD.AperFunction*%
%TD*%
D30*
%TO.P,BT1,2*%
%TO.N,GND*%
X73660000Y-77470000D03*
D31*
%TO.P,BT1,1*%
%TO.N,Net-(BT1-Pad1)*%
X73660000Y-90170000D03*
%TD*%
D32*
%TO.P,AE2,2*%
%TO.N,N/C*%
X167640000Y-87190000D03*
D33*
%TO.P,AE2,1*%
%TO.N,Net-(AE2-Pad1)*%
X167640000Y-85090000D03*
%TD*%
%TO.P,C9,2*%
%TO.N,GND*%
%TA.AperFunction,SMDPad,CuDef*%
G36*
G01*
X149760000Y-108040000D02*
X149960000Y-108040000D01*
G75*
G02*
X150060000Y-108140000I0J-100000D01*
G01*
X150060000Y-108575000D01*
G75*
G02*
X149960000Y-108675000I-100000J0D01*
G01*
X149760000Y-108675000D01*
G75*
G02*
X149660000Y-108575000I0J100000D01*
G01*
X149660000Y-108140000D01*
G75*
G02*
X149760000Y-108040000I100000J0D01*
G01*
G37*
%TD.AperFunction*%
%TO.P,C9,1*%
%TO.N,Net-(C9-Pad1)*%
%TA.AperFunction,SMDPad,CuDef*%
G36*
G01*
X149760000Y-107225000D02*
X149960000Y-107225000D01*
G75*
G02*
X150060000Y-107325000I0J-100000D01*
G01*
X150060000Y-107760000D01*
G75*
G02*
X149960000Y-107860000I-100000J0D01*
G01*
X149760000Y-107860000D01*
G75*
G02*
X149660000Y-107760000I0J100000D01*
G01*
X149660000Y-107325000D01*
G75*
G02*
X149760000Y-107225000I100000J0D01*
G01*
G37*
%TD.AperFunction*%
%TD*%
%TO.P,C10,1*%
%TO.N,/3.3V*%
%TA.AperFunction,SMDPad,CuDef*%
G36*
G01*
X116290000Y-132790000D02*
X117390000Y-132790000D01*
G75*
G02*
X117640000Y-133040000I0J-250000D01*
G01*
X117640000Y-135140000D01*
G75*
G02*
X117390000Y-135390000I-250000J0D01*
G01*
X116290000Y-135390000D01*
G75*
G02*
X116040000Y-135140000I0J250000D01*
G01*
X116040000Y-133040000D01*
G75*
G02*
X116290000Y-132790000I250000J0D01*
G01*
G37*
%TD.AperFunction*%
%TO.P,C10,2*%
%TO.N,GND*%
%TA.AperFunction,SMDPad,CuDef*%
G36*
G01*
X116290000Y-136390000D02*
X117390000Y-136390000D01*
G75*
G02*
X117640000Y-136640000I0J-250000D01*
G01*
X117640000Y-138740000D01*
G75*
G02*
X117390000Y-138990000I-250000J0D01*
G01*
X116290000Y-138990000D01*
G75*
G02*
X116040000Y-138740000I0J250000D01*
G01*
X116040000Y-136640000D01*
G75*
G02*
X116290000Y-136390000I250000J0D01*
G01*
G37*
%TD.AperFunction*%
%TD*%
D34*
%TO.N,GND*%
X74962500Y-100932500D03*
X130810000Y-129540000D03*
X130720000Y-123100000D03*
%TO.N,/3.3V*%
X104109998Y-136615000D03*
X114935000Y-135890000D03*
X119380000Y-132715000D03*
X121285000Y-128270000D03*
X140052500Y-113755000D03*
X154305000Y-109220000D03*
X148590000Y-109220000D03*
X141515000Y-113575000D03*
X101600000Y-137705000D03*
X106045000Y-127635000D03*
%TO.N,Net-(AE2-Pad1)*%
X158660000Y-82550000D03*
X160401000Y-82550000D03*
%TO.N,/VPP_SEL*%
X86995000Y-111125000D03*
X86360000Y-123825000D03*
X104775000Y-133350000D03*
X92710000Y-132715000D03*
X105410000Y-138430000D03*
X92710000Y-138430000D03*
X92710000Y-138430000D03*
%TO.N,Net-(C2-Pad1)*%
X104109998Y-135165000D03*
X121195000Y-135165000D03*
%TO.N,Net-(C3-Pad1)*%
X91440000Y-133985000D03*
X96520000Y-135255000D03*
%TO.N,/5V*%
X83185000Y-102235000D03*
X83185000Y-86360000D03*
X84455000Y-135165000D03*
X84455000Y-136615000D03*
%TO.N,/BOOT*%
X120650000Y-115570000D03*
X121285000Y-112395000D03*
X121285000Y-104685000D03*
X120650000Y-103505000D03*
X114300000Y-78740000D03*
%TO.N,/RST*%
X113665000Y-132080000D03*
X130810000Y-111760000D03*
X130175000Y-88265000D03*
X128180000Y-80010000D03*
%TO.N,/REGOUT*%
X123825000Y-125095000D03*
X129540000Y-125095000D03*
X144145000Y-115025000D03*
X144780000Y-113575000D03*
%TO.N,/GPIO45*%
X137885000Y-80010000D03*
X137885000Y-88900000D03*
%TO.N,/D+*%
X97062844Y-117208238D03*
X126730003Y-100330000D03*
%TO.N,/D-*%
X97065000Y-116205000D03*
X125730000Y-100330000D03*
%TO.N,/MTDI*%
X132080000Y-85725000D03*
%TO.N,/MTDO*%
X132180153Y-86894847D03*
%TO.N,/MTCK*%
X130102892Y-84527108D03*
%TO.N,/MTMS*%
X130810000Y-83820000D03*
%TO.N,/GPIO18*%
X119914847Y-101499847D03*
X124460000Y-100330000D03*
%TO.N,/SS1*%
X86360000Y-97790000D03*
%TO.N,/SS0*%
X139065000Y-76200000D03*
X120015000Y-99695000D03*
X92710000Y-100965000D03*
X84455000Y-96520000D03*
%TO.N,/MISO*%
X138989998Y-72390000D03*
X135255000Y-95885000D03*
X80645000Y-81825000D03*
%TO.N,/MOSI*%
X138989998Y-74189606D03*
X135890000Y-94615000D03*
X135890000Y-64225000D03*
X81645003Y-81825000D03*
%TO.N,/SCL*%
X144600003Y-106045000D03*
X137885000Y-92075000D03*
X116205000Y-120919997D03*
X112395000Y-120919997D03*
X102870000Y-118745000D03*
X102870000Y-114300000D03*
X95250000Y-95250000D03*
%TO.N,/SDA*%
X143600000Y-106045000D03*
X138430000Y-93980000D03*
X151039999Y-105319999D03*
X116205000Y-121920000D03*
X112395000Y-121920000D03*
X101600000Y-118745000D03*
X101600000Y-114300000D03*
%TO.N,Net-(R2-Pad1)*%
X144584847Y-102430153D03*
X160655000Y-95885000D03*
%TO.N,Net-(R3-Pad1)*%
X143527527Y-113120000D03*
X146815705Y-113223018D03*
%TO.N,/RFDIO0*%
X153035000Y-72390000D03*
X143314847Y-78935153D03*
%TO.N,/GPSRX*%
X152400000Y-92710000D03*
X149770000Y-90805000D03*
%TO.N,/GPSTX*%
X152460000Y-93920000D03*
X148590000Y-90805000D03*
%TO.N,/SCK*%
X139040425Y-75189231D03*
X136435000Y-93345000D03*
%TO.N,/ACCINT*%
X130175000Y-100240000D03*
X146255000Y-112395000D03*
%TD*%
D35*
%TO.N,GND*%
X91440000Y-97790000D02*
X91440000Y-99695000D01*
X90202500Y-100932500D02*
X74962500Y-100932500D01*
X91440000Y-99695000D02*
X90202500Y-100932500D01*
X92540000Y-135890000D02*
X94615000Y-135890000D01*
X96415000Y-137690000D02*
X97790000Y-137690000D01*
X94615000Y-135890000D02*
X96415000Y-137690000D01*
X97790000Y-137690000D02*
X100435000Y-137690000D01*
X102235000Y-135890000D02*
X105240000Y-135890000D01*
X100435000Y-137690000D02*
X102235000Y-135890000D01*
X105240000Y-135890000D02*
X106045000Y-135890000D01*
X107845000Y-137690000D02*
X110490000Y-137690000D01*
X106045000Y-135890000D02*
X107845000Y-137690000D01*
X110490000Y-137690000D02*
X116840000Y-137690000D01*
X116840000Y-137690000D02*
X123190000Y-137690000D01*
X128270000Y-132610000D02*
X128270000Y-129732500D01*
X123190000Y-137690000D02*
X128270000Y-132610000D01*
X86360000Y-135890000D02*
X86360000Y-132080000D01*
X86360000Y-135890000D02*
X92540000Y-135890000D01*
X88370000Y-130070000D02*
X91440000Y-130070000D01*
X86360000Y-132080000D02*
X88370000Y-130070000D01*
X91440000Y-130070000D02*
X97790000Y-130070000D01*
X97790000Y-130070000D02*
X104140000Y-130070000D01*
X104140000Y-130070000D02*
X110490000Y-130070000D01*
X110490000Y-130070000D02*
X116840000Y-130070000D01*
X116840000Y-130070000D02*
X119910000Y-130070000D01*
X119910000Y-130070000D02*
X121285000Y-131445000D01*
X126557500Y-131445000D02*
X128270000Y-129732500D01*
X121285000Y-131445000D02*
X126557500Y-131445000D01*
X128270000Y-129732500D02*
X130617500Y-129732500D01*
X129705000Y-111925000D02*
X128560000Y-111925000D01*
X130810000Y-113030000D02*
X129705000Y-111925000D01*
X120140000Y-113665000D02*
X118400000Y-111925000D01*
X125095000Y-113665000D02*
X120140000Y-113665000D01*
X126835000Y-111925000D02*
X125095000Y-113665000D01*
X128560000Y-111925000D02*
X126835000Y-111925000D01*
X118400000Y-111925000D02*
X118400000Y-103975000D01*
X118400000Y-103975000D02*
X118580000Y-103975000D01*
X118580000Y-103975000D02*
X120015000Y-105410000D01*
X120015000Y-105410000D02*
X125095000Y-105410000D01*
X126530000Y-103975000D02*
X128560000Y-103975000D01*
X125095000Y-105410000D02*
X126530000Y-103975000D01*
X130810000Y-113665000D02*
X137160000Y-113665000D01*
X138430000Y-112395000D02*
X138430000Y-110682500D01*
X137160000Y-113665000D02*
X138430000Y-112395000D01*
X149220000Y-113030000D02*
X149860000Y-112390000D01*
X150910010Y-109407510D02*
X149860000Y-108357500D01*
X149860000Y-112390000D02*
X150910010Y-111339990D01*
X149860000Y-108357500D02*
X148997500Y-108357500D01*
X148610000Y-107970000D02*
X146730000Y-107970000D01*
X148997500Y-108357500D02*
X148610000Y-107970000D01*
X154590000Y-103827500D02*
X154590000Y-103520000D01*
X150060000Y-108357500D02*
X154590000Y-103827500D01*
X149860000Y-108357500D02*
X150060000Y-108357500D01*
X156504998Y-79930000D02*
X156590000Y-79930000D01*
X154590000Y-89520000D02*
X154590000Y-81844998D01*
X140815001Y-81704999D02*
X140590000Y-81930000D01*
X154590000Y-81844998D02*
X154729999Y-81704999D01*
X154729999Y-81704999D02*
X156504998Y-79930000D01*
X145204999Y-81704999D02*
X145204999Y-79799999D01*
X154729999Y-81704999D02*
X145204999Y-81704999D01*
X145204999Y-81704999D02*
X140815001Y-81704999D01*
X143335000Y-77930000D02*
X140590000Y-77930000D01*
X143510000Y-78105000D02*
X143510000Y-68580000D01*
X145204999Y-79799999D02*
X143510000Y-78105000D01*
X143510000Y-78105000D02*
X143335000Y-77930000D01*
X142860000Y-67930000D02*
X140590000Y-67930000D01*
X143510000Y-68580000D02*
X142860000Y-67930000D01*
X140590000Y-77930000D02*
X138890000Y-77930000D01*
X136175000Y-75215000D02*
X133975000Y-75215000D01*
X138890000Y-77930000D02*
X136175000Y-75215000D01*
X133975000Y-75215000D02*
X116475000Y-75215000D01*
X138430000Y-110682500D02*
X140777500Y-113030000D01*
X140777500Y-114300000D02*
X144160702Y-114300000D01*
X145530000Y-114185000D02*
X145415000Y-114300000D01*
X145530000Y-112440000D02*
X145530000Y-114185000D01*
X145415000Y-114300000D02*
X149220000Y-114300000D01*
X144160702Y-114300000D02*
X145415000Y-114300000D01*
X140777500Y-114300000D02*
X140777500Y-113222500D01*
X145530000Y-112440000D02*
X145530000Y-111170000D01*
X149220000Y-114300000D02*
X149220000Y-113035000D01*
X117475000Y-75215000D02*
X122535000Y-80275000D01*
X122535000Y-80275000D02*
X122535000Y-81715000D01*
X116475000Y-75215000D02*
X117475000Y-75215000D01*
X122535000Y-81715000D02*
X124035000Y-81715000D01*
X124035000Y-81715000D02*
X125535000Y-81715000D01*
X125535000Y-81715000D02*
X125535000Y-83265000D01*
X125535000Y-83265000D02*
X124035000Y-83265000D01*
X124035000Y-83265000D02*
X122535000Y-83265000D01*
X122535000Y-83265000D02*
X122535000Y-84765000D01*
X122535000Y-84765000D02*
X124035000Y-84765000D01*
X124035000Y-84765000D02*
X125535000Y-84765000D01*
X125535000Y-84765000D02*
X125535000Y-83265000D01*
X124035000Y-83265000D02*
X124035000Y-84765000D01*
X124035000Y-83265000D02*
X124035000Y-81715000D01*
X122535000Y-83265000D02*
X122535000Y-81715000D01*
X125535000Y-81715000D02*
X125535000Y-80205000D01*
X130525000Y-75215000D02*
X133975000Y-75215000D01*
X125535000Y-80205000D02*
X130525000Y-75215000D01*
X128560000Y-103975000D02*
X128560000Y-102580000D01*
X128560000Y-102580000D02*
X130175000Y-100965000D01*
X130175000Y-100965000D02*
X132080000Y-100965000D01*
X132080000Y-98570000D02*
X131975000Y-98465000D01*
X132080000Y-100965000D02*
X132080000Y-98570000D01*
X154590000Y-89520000D02*
X151145000Y-89520000D01*
X151145000Y-89520000D02*
X150495000Y-90170000D01*
X150495000Y-90170000D02*
X150495000Y-102870000D01*
X151145000Y-103520000D02*
X154590000Y-103520000D01*
X150495000Y-102870000D02*
X151145000Y-103520000D01*
X142875000Y-103805000D02*
X142590000Y-103520000D01*
X142875000Y-107950000D02*
X142875000Y-103805000D01*
X141162500Y-107950000D02*
X142875000Y-107950000D01*
X138430000Y-110682500D02*
X141162500Y-107950000D01*
X144500000Y-101320000D02*
X142590000Y-101320000D01*
X145415000Y-102235000D02*
X144500000Y-101320000D01*
X145415000Y-102870000D02*
X145415000Y-102235000D01*
X144765000Y-103520000D02*
X145415000Y-102870000D01*
X142590000Y-103520000D02*
X144765000Y-103520000D01*
X130617500Y-129732500D02*
X130810000Y-129540000D01*
X130720000Y-113120000D02*
X130810000Y-113030000D01*
X130720000Y-123100000D02*
X130720000Y-113120000D01*
X77408500Y-112863000D02*
X77408500Y-111663000D01*
X78740000Y-124460000D02*
X82550000Y-124460000D01*
X82550000Y-135255000D02*
X83185000Y-135890000D01*
X86360000Y-135890000D02*
X83185000Y-135890000D01*
X171475000Y-93140000D02*
X172950000Y-94615000D01*
X171450000Y-93140000D02*
X171475000Y-93140000D01*
X171475000Y-96090000D02*
X172950000Y-94615000D01*
X171450000Y-96090000D02*
X171475000Y-96090000D01*
X155879992Y-110270010D02*
X150910010Y-110270010D01*
X171450000Y-93140000D02*
X171450000Y-94700002D01*
X150910010Y-110270010D02*
X150910010Y-109407510D01*
X150910010Y-111339990D02*
X150910010Y-110270010D01*
X82550000Y-132080000D02*
X82550000Y-132715000D01*
X82550000Y-124460000D02*
X82550000Y-132080000D01*
X82550000Y-132080000D02*
X82550000Y-135255000D01*
X80645000Y-134620000D02*
X74930000Y-134620000D01*
X82550000Y-132715000D02*
X80645000Y-134620000D01*
X74930000Y-76200000D02*
X73660000Y-77470000D01*
X74930000Y-64770000D02*
X74930000Y-76200000D01*
X171450000Y-64770000D02*
X174625000Y-67945000D01*
X174625000Y-89965000D02*
X171450000Y-93140000D01*
X174625000Y-67945000D02*
X174625000Y-89965000D01*
X171450000Y-102235000D02*
X167682501Y-98467501D01*
X167682501Y-98467501D02*
X155879992Y-110270010D01*
X171450000Y-94700002D02*
X167682501Y-98467501D01*
X171450000Y-118110000D02*
X171450000Y-118745000D01*
X171450000Y-134620000D02*
X171450000Y-118110000D01*
X171450000Y-118110000D02*
X171450000Y-102235000D01*
X171450000Y-118745000D02*
X169545000Y-120650000D01*
X169545000Y-120650000D02*
X167005000Y-120650000D01*
X78740000Y-124460000D02*
X74295000Y-120015000D01*
X74295000Y-114276500D02*
X74708500Y-113863000D01*
X74295000Y-120015000D02*
X74295000Y-114276500D01*
%TO.N,/3.3V*%
X159385000Y-71135000D02*
X156590000Y-73930000D01*
X159385000Y-64770000D02*
X159385000Y-71135000D01*
X158115000Y-63500000D02*
X159385000Y-64770000D01*
X111760000Y-63500000D02*
X158115000Y-63500000D01*
X110934999Y-64325001D02*
X111760000Y-63500000D01*
X110934999Y-74739999D02*
X110934999Y-64325001D01*
X112910000Y-76715000D02*
X110934999Y-74739999D01*
X116475000Y-76715000D02*
X112910000Y-76715000D01*
X159385000Y-71135000D02*
X159385000Y-86995000D01*
X159385000Y-86995000D02*
X155575000Y-90805000D01*
X159385000Y-104403190D02*
X154568190Y-109220000D01*
X159385000Y-86995000D02*
X159385000Y-104403190D01*
X103884998Y-136840000D02*
X104109998Y-136615000D01*
X103040000Y-136840000D02*
X103884998Y-136840000D01*
X116735000Y-134090000D02*
X116840000Y-134090000D01*
X114935000Y-135890000D02*
X116735000Y-134090000D01*
X116840000Y-134090000D02*
X118005000Y-134090000D01*
X118005000Y-134090000D02*
X119380000Y-132715000D01*
X121285000Y-128270000D02*
X121285000Y-127635000D01*
X122050000Y-126870000D02*
X123190000Y-126870000D01*
X121285000Y-127635000D02*
X122050000Y-126870000D01*
X123190000Y-126870000D02*
X126235000Y-123825000D01*
X126235000Y-123825000D02*
X131445000Y-123825000D01*
X131445000Y-123825000D02*
X131445000Y-114300000D01*
X139249990Y-114750010D02*
X140327490Y-113672510D01*
X131895010Y-114750010D02*
X139249990Y-114750010D01*
X131445000Y-114300000D02*
X131895010Y-114750010D01*
X140134990Y-113672510D02*
X140052500Y-113755000D01*
X140327490Y-113672510D02*
X140134990Y-113672510D01*
X154568190Y-109220000D02*
X154305000Y-109220000D01*
X147340000Y-110470000D02*
X146730000Y-110470000D01*
X148590000Y-109220000D02*
X147340000Y-110470000D01*
X141515000Y-113575000D02*
X142695000Y-112395000D01*
X144030000Y-111660702D02*
X144030000Y-111170000D01*
X143295702Y-112395000D02*
X144030000Y-111660702D01*
X142695000Y-112395000D02*
X143295702Y-112395000D01*
X103040000Y-136840000D02*
X102555000Y-136840000D01*
X101690000Y-137705000D02*
X101600000Y-137705000D01*
X102555000Y-136840000D02*
X101690000Y-137705000D01*
X105305000Y-127635000D02*
X104140000Y-126470000D01*
X106045000Y-127635000D02*
X105305000Y-127635000D01*
X154775000Y-90805000D02*
X154590000Y-90620000D01*
X155575000Y-90805000D02*
X154775000Y-90805000D01*
%TO.N,Net-(AE2-Pad1)*%
X156590000Y-81930000D02*
X158130000Y-81930000D01*
X158660000Y-82460000D02*
X158660000Y-82550000D01*
X158130000Y-81930000D02*
X158660000Y-82460000D01*
X167005000Y-85090000D02*
X167640000Y-85090000D01*
X160401000Y-82550000D02*
X163195000Y-82550000D01*
X165735000Y-85090000D02*
X167640000Y-85090000D01*
X163195000Y-82550000D02*
X165735000Y-85090000D01*
%TO.N,Net-(BT1-Pad1)*%
X77470000Y-105410000D02*
X88900000Y-105410000D01*
X73660000Y-101600000D02*
X77470000Y-105410000D01*
X73660000Y-90170000D02*
X73660000Y-101600000D01*
%TO.N,/VPP_SEL*%
X88900000Y-107950000D02*
X88900000Y-109220000D01*
X88900000Y-109220000D02*
X86995000Y-111125000D01*
X88795000Y-123825000D02*
X91440000Y-126470000D01*
X86360000Y-123825000D02*
X88795000Y-123825000D01*
X104775000Y-133350000D02*
X105410000Y-133985000D01*
X105240000Y-134155000D02*
X105240000Y-134940000D01*
X105410000Y-133985000D02*
X105240000Y-134155000D01*
X92710000Y-134770000D02*
X92540000Y-134940000D01*
X92710000Y-132715000D02*
X92710000Y-134770000D01*
X105410000Y-137010000D02*
X105240000Y-136840000D01*
X105410000Y-138430000D02*
X105410000Y-137010000D01*
X92710000Y-137010000D02*
X92540000Y-136840000D01*
X92710000Y-138430000D02*
X92710000Y-137010000D01*
%TO.N,Net-(C2-Pad1)*%
X103884998Y-134940000D02*
X104109998Y-135165000D01*
X103040000Y-134940000D02*
X103884998Y-134940000D01*
X122115000Y-135165000D02*
X123190000Y-134090000D01*
X121195000Y-135165000D02*
X122115000Y-135165000D01*
%TO.N,Net-(C3-Pad1)*%
X90485000Y-134940000D02*
X91440000Y-133985000D01*
X90340000Y-134940000D02*
X90485000Y-134940000D01*
X96625000Y-135255000D02*
X97790000Y-134090000D01*
X96520000Y-135255000D02*
X96625000Y-135255000D01*
%TO.N,/5V*%
X97790000Y-126470000D02*
X97790000Y-106045000D01*
X97790000Y-106045000D02*
X93980000Y-102235000D01*
X93980000Y-102235000D02*
X83185000Y-102235000D01*
X87630000Y-86360000D02*
X91440000Y-90170000D01*
X83185000Y-86360000D02*
X87630000Y-86360000D01*
X86185001Y-73834999D02*
X87630000Y-72390000D01*
X86185001Y-83359999D02*
X86185001Y-73834999D01*
X83185000Y-86360000D02*
X86185001Y-83359999D01*
X97790000Y-126470000D02*
X95145000Y-126470000D01*
X93170010Y-128444990D02*
X85550010Y-128444990D01*
X95145000Y-126470000D02*
X93170010Y-128444990D01*
X85550010Y-128444990D02*
X84455000Y-129540000D01*
X84455000Y-129540000D02*
X84455000Y-135165000D01*
X90115000Y-136615000D02*
X90340000Y-136840000D01*
X84455000Y-136615000D02*
X90115000Y-136615000D01*
%TO.N,/BOOT*%
X110490000Y-126470000D02*
X110490000Y-119380000D01*
X110490000Y-119380000D02*
X114300000Y-115570000D01*
X114300000Y-115570000D02*
X120650000Y-115570000D01*
X122430000Y-112395000D02*
X122900000Y-111925000D01*
X121285000Y-112395000D02*
X122430000Y-112395000D01*
X122190000Y-104685000D02*
X122900000Y-103975000D01*
X121285000Y-104685000D02*
X122190000Y-104685000D01*
X122900000Y-103975000D02*
X121120000Y-103975000D01*
X121120000Y-103975000D02*
X120650000Y-103505000D01*
X115950000Y-78740000D02*
X116475000Y-78215000D01*
X114300000Y-78740000D02*
X115950000Y-78740000D01*
%TO.N,/RST*%
X110490000Y-134090000D02*
X111655000Y-134090000D01*
X111655000Y-134090000D02*
X113665000Y-132080000D01*
X132895000Y-111760000D02*
X133060000Y-111925000D01*
X130810000Y-111760000D02*
X132895000Y-111760000D01*
X133060000Y-111925000D02*
X133060000Y-103975000D01*
X132899999Y-103814999D02*
X132899999Y-90989999D01*
X133060000Y-103975000D02*
X132899999Y-103814999D01*
X132899999Y-90989999D02*
X130175000Y-88265000D01*
X131475000Y-76715000D02*
X133975000Y-76715000D01*
X128180000Y-80010000D02*
X131475000Y-76715000D01*
%TO.N,/REGOUT*%
X116840000Y-126470000D02*
X120545000Y-126470000D01*
X121920000Y-125095000D02*
X123825000Y-125095000D01*
X120545000Y-126470000D02*
X121920000Y-125095000D01*
X130811410Y-125095000D02*
X132080000Y-123826410D01*
X129540000Y-125095000D02*
X130811410Y-125095000D01*
X132080000Y-123826410D02*
X132080000Y-115570000D01*
X132080000Y-115570000D02*
X143510000Y-115570000D01*
X144055000Y-115025000D02*
X144145000Y-115025000D01*
X143510000Y-115570000D02*
X144055000Y-115025000D01*
X145030000Y-113325000D02*
X145030000Y-111170000D01*
X144780000Y-113575000D02*
X145030000Y-113325000D01*
%TO.N,Net-(D1-Pad2)*%
X123190000Y-129670000D02*
X124965000Y-129670000D01*
X127827500Y-126807500D02*
X128270000Y-126807500D01*
X124965000Y-129670000D02*
X127827500Y-126807500D01*
%TO.N,Net-(D2-Pad2)*%
X138430000Y-104270000D02*
X138430000Y-107757500D01*
%TO.N,/GPIO45*%
X139280009Y-93493581D02*
X140335000Y-92438590D01*
X139280008Y-100619992D02*
X139280009Y-93493581D01*
X138430000Y-101470000D02*
X139280008Y-100619992D01*
X140335000Y-91655167D02*
X140609990Y-91380177D01*
X140335000Y-92438590D02*
X140335000Y-91655167D01*
X134270000Y-80010000D02*
X133975000Y-79715000D01*
X137885000Y-80010000D02*
X134270000Y-80010000D01*
X140609990Y-91380177D02*
X138129813Y-88900000D01*
X138129813Y-88900000D02*
X137885000Y-88900000D01*
%TO.N,/D+*%
X127475000Y-99585003D02*
X127475000Y-98465000D01*
X126730003Y-100330000D02*
X127475000Y-99585003D01*
X77533499Y-110487999D02*
X77408500Y-110363000D01*
X86450001Y-116930001D02*
X80007999Y-110487999D01*
X96784607Y-116930001D02*
X86450001Y-116930001D01*
X80007999Y-110487999D02*
X77533499Y-110487999D01*
X97062844Y-117208238D02*
X96784607Y-116930001D01*
%TO.N,/VBUS*%
X77408500Y-109063000D02*
X78333500Y-109063000D01*
X77408500Y-109063000D02*
X79532000Y-109063000D01*
X80645000Y-107950000D02*
X86360000Y-107950000D01*
X79532000Y-109063000D02*
X80645000Y-107950000D01*
%TO.N,/D-*%
X77423500Y-109728000D02*
X77408500Y-109713000D01*
X125730000Y-98710000D02*
X125975000Y-98465000D01*
X125730000Y-100330000D02*
X125730000Y-98710000D01*
X81138000Y-109713000D02*
X77408500Y-109713000D01*
X87630000Y-116205000D02*
X81138000Y-109713000D01*
X97065000Y-116205000D02*
X87630000Y-116205000D01*
%TO.N,/MTDI*%
X133965000Y-85725000D02*
X133975000Y-85715000D01*
X132080000Y-85725000D02*
X133965000Y-85725000D01*
%TO.N,/MTDO*%
X133654847Y-86894847D02*
X133975000Y-87215000D01*
X132180153Y-86894847D02*
X133654847Y-86894847D01*
%TO.N,/MTCK*%
X132975000Y-88715000D02*
X133975000Y-88715000D01*
X130102892Y-85842892D02*
X132975000Y-88715000D01*
X130102892Y-84527108D02*
X130102892Y-85842892D01*
%TO.N,/MTMS*%
X133580000Y-83820000D02*
X133975000Y-84215000D01*
X130810000Y-83820000D02*
X133580000Y-83820000D01*
%TO.N,/GPIO17*%
X119565001Y-102874999D02*
X116200001Y-102874999D01*
X122975000Y-99465000D02*
X119565001Y-102874999D01*
X122975000Y-98465000D02*
X122975000Y-99465000D01*
X109855000Y-109220000D02*
X107950000Y-109220000D01*
X116200001Y-102874999D02*
X109855000Y-109220000D01*
%TO.N,/GPIO18*%
X119814694Y-101600000D02*
X119914847Y-101499847D01*
X124460000Y-98480000D02*
X124475000Y-98465000D01*
X124460000Y-100330000D02*
X124460000Y-98480000D01*
X119380000Y-102034694D02*
X119914847Y-101499847D01*
X119380000Y-102235000D02*
X119380000Y-102034694D01*
X112395000Y-102235000D02*
X119380000Y-102235000D01*
X107950000Y-106680000D02*
X112395000Y-102235000D01*
%TO.N,/GPIO13*%
X118475000Y-98465000D02*
X115975000Y-100965000D01*
X111125000Y-100965000D02*
X107950000Y-104140000D01*
X115975000Y-100965000D02*
X111125000Y-100965000D01*
%TO.N,/GPIO12*%
X116475000Y-97715000D02*
X116280000Y-97715000D01*
X116280000Y-97715000D02*
X114300000Y-99695000D01*
X109855000Y-99695000D02*
X107950000Y-101600000D01*
X114300000Y-99695000D02*
X109855000Y-99695000D01*
%TO.N,/GPIO11*%
X115475000Y-96215000D02*
X114300000Y-97390000D01*
X116475000Y-96215000D02*
X115475000Y-96215000D01*
X109620000Y-97390000D02*
X107950000Y-99060000D01*
X114300000Y-97390000D02*
X109620000Y-97390000D01*
%TO.N,/GPIO10*%
X116475000Y-94715000D02*
X114200000Y-94715000D01*
X112395000Y-96520000D02*
X107950000Y-96520000D01*
X114200000Y-94715000D02*
X112395000Y-96520000D01*
%TO.N,/GPIO9*%
X116475000Y-93215000D02*
X114430000Y-93215000D01*
X113665000Y-93980000D02*
X107950000Y-93980000D01*
X114430000Y-93215000D02*
X113665000Y-93980000D01*
%TO.N,/GPIO8*%
X116475000Y-91715000D02*
X114575000Y-91715000D01*
X114300000Y-91440000D02*
X107950000Y-91440000D01*
X114575000Y-91715000D02*
X114300000Y-91440000D01*
%TO.N,/GPIO7*%
X116475000Y-90215000D02*
X114345000Y-90215000D01*
X113030000Y-88900000D02*
X107950000Y-88900000D01*
X114345000Y-90215000D02*
X113030000Y-88900000D01*
%TO.N,/GPIO6*%
X116475000Y-88715000D02*
X114115000Y-88715000D01*
X111760000Y-86360000D02*
X107950000Y-86360000D01*
X114115000Y-88715000D02*
X111760000Y-86360000D01*
%TO.N,/GPIO5*%
X116475000Y-87215000D02*
X114520000Y-87215000D01*
X111125000Y-83820000D02*
X107950000Y-83820000D01*
X114520000Y-87215000D02*
X111125000Y-83820000D01*
%TO.N,/GPIO4*%
X116475000Y-85715000D02*
X114290000Y-85715000D01*
X109855000Y-81280000D02*
X107950000Y-81280000D01*
X114290000Y-85715000D02*
X109855000Y-81280000D01*
%TO.N,/GPIO3*%
X116475000Y-84215000D02*
X114695000Y-84215000D01*
X108585000Y-78740000D02*
X107950000Y-78740000D01*
X114060000Y-84215000D02*
X108585000Y-78740000D01*
X116475000Y-84215000D02*
X114060000Y-84215000D01*
%TO.N,/GPIO2*%
X116475000Y-82715000D02*
X114465000Y-82715000D01*
X114465000Y-82715000D02*
X107950000Y-76200000D01*
%TO.N,/GPIO1*%
X116475000Y-81215000D02*
X114235000Y-81215000D01*
X114235000Y-81215000D02*
X109220000Y-76200000D01*
X109220000Y-74930000D02*
X107950000Y-73660000D01*
X109220000Y-76200000D02*
X109220000Y-74930000D01*
%TO.N,/GPIO0*%
X114201998Y-79715000D02*
X109855000Y-75368002D01*
X116475000Y-79715000D02*
X114201998Y-79715000D01*
X109855000Y-73025000D02*
X107950000Y-71120000D01*
X109855000Y-75368002D02*
X109855000Y-73025000D01*
%TO.N,/SS1*%
X99322407Y-96614999D02*
X87535001Y-96614999D01*
X105482409Y-102775001D02*
X99322407Y-96614999D01*
X108514001Y-102775001D02*
X105482409Y-102775001D01*
X115460012Y-100514990D02*
X110774012Y-100514990D01*
X110774012Y-100514990D02*
X108514001Y-102775001D01*
X117699999Y-98275003D02*
X115460012Y-100514990D01*
X117699999Y-97454999D02*
X117699999Y-98275003D01*
X117764999Y-97389999D02*
X117699999Y-97454999D01*
X121399999Y-97389999D02*
X117764999Y-97389999D01*
X87535001Y-96614999D02*
X86360000Y-97790000D01*
X121475000Y-97465000D02*
X121399999Y-97389999D01*
X121475000Y-98465000D02*
X121475000Y-97465000D01*
%TO.N,/SS0*%
X139335000Y-75930000D02*
X139065000Y-76200000D01*
X140590000Y-75930000D02*
X139335000Y-75930000D01*
X120015000Y-98505000D02*
X119975000Y-98465000D01*
X120015000Y-99695000D02*
X120015000Y-98505000D01*
X120015000Y-99695000D02*
X118110000Y-101600000D01*
X118110000Y-101600000D02*
X116840000Y-101600000D01*
X116840000Y-101600000D02*
X111760000Y-101600000D01*
X109125001Y-104704001D02*
X108514001Y-105315001D01*
X109125001Y-104234999D02*
X109125001Y-104704001D01*
X111760000Y-101600000D02*
X109125001Y-104234999D01*
X107385999Y-105315001D02*
X103035998Y-100965000D01*
X108514001Y-105315001D02*
X107385999Y-105315001D01*
X103035998Y-100965000D02*
X92710000Y-100965000D01*
X85090000Y-96520000D02*
X86360000Y-95250000D01*
X84455000Y-96520000D02*
X85090000Y-96520000D01*
%TO.N,/MISO*%
X140590000Y-69930000D02*
X139065000Y-71455000D01*
X139065000Y-72314998D02*
X138989998Y-72390000D01*
X139065000Y-71455000D02*
X139065000Y-72314998D01*
X134305000Y-95885000D02*
X133975000Y-96215000D01*
X135255000Y-95885000D02*
X134305000Y-95885000D01*
X86360000Y-92455002D02*
X86360000Y-92710000D01*
X80645000Y-86740002D02*
X86360000Y-92455002D01*
X80645000Y-81825000D02*
X80645000Y-86740002D01*
%TO.N,/MOSI*%
X140590000Y-71930000D02*
X139065000Y-73455000D01*
X139065000Y-74114604D02*
X138989998Y-74189606D01*
X139065000Y-73455000D02*
X139065000Y-74114604D01*
X134075000Y-94615000D02*
X133975000Y-94715000D01*
X135890000Y-94615000D02*
X134075000Y-94615000D01*
X138264997Y-73464605D02*
X138264997Y-66205003D01*
X138989998Y-74189606D02*
X138264997Y-73464605D01*
X136284994Y-64225000D02*
X135890000Y-64225000D01*
X138264997Y-66205003D02*
X136284994Y-64225000D01*
X81645003Y-81825000D02*
X81645003Y-86725003D01*
X85090000Y-90170000D02*
X86360000Y-90170000D01*
X81645003Y-86725003D02*
X85090000Y-90170000D01*
%TO.N,/SCL*%
X144030000Y-106688002D02*
X144325001Y-106393001D01*
X144030000Y-107270000D02*
X144030000Y-106688002D01*
X144325001Y-106320002D02*
X144600003Y-106045000D01*
X144325001Y-106393001D02*
X144325001Y-106320002D01*
X134335000Y-92075000D02*
X133975000Y-91715000D01*
X137885000Y-92075000D02*
X134335000Y-92075000D01*
X115639315Y-120919997D02*
X115364313Y-121194999D01*
X116205000Y-120919997D02*
X115639315Y-120919997D01*
X112670002Y-121194999D02*
X112395000Y-120919997D01*
X115364313Y-121194999D02*
X112670002Y-121194999D01*
X102870000Y-118745000D02*
X102870000Y-114300000D01*
X95250000Y-95250000D02*
X91440000Y-95250000D01*
%TO.N,/SDA*%
X143530000Y-107270000D02*
X143530000Y-106065000D01*
X143550000Y-106045000D02*
X143600000Y-106045000D01*
X143530000Y-106065000D02*
X143550000Y-106045000D01*
X138475000Y-90215000D02*
X133975000Y-90215000D01*
X139884990Y-91624990D02*
X138475000Y-90215000D01*
X139884990Y-92252190D02*
X139884990Y-91624990D01*
X138830000Y-93307180D02*
X139884990Y-92252190D01*
X138829999Y-93580001D02*
X138830000Y-93307180D01*
X138430000Y-93980000D02*
X138829999Y-93580001D01*
X143759316Y-105319999D02*
X151039999Y-105319999D01*
X143600000Y-105479315D02*
X143759316Y-105319999D01*
X143600000Y-106045000D02*
X143600000Y-105479315D01*
X116205000Y-121920000D02*
X112395000Y-121920000D01*
X101600000Y-118745000D02*
X101600000Y-114300000D01*
%TO.N,Net-(R2-Pad1)*%
X142590000Y-102420000D02*
X144595000Y-102420000D01*
X144595000Y-102420000D02*
X144584847Y-102430153D01*
X163470010Y-95885000D02*
X163830000Y-95525010D01*
X160655000Y-95885000D02*
X163470010Y-95885000D01*
%TO.N,Net-(R3-Pad1)*%
X144530000Y-111170000D02*
X144530000Y-112010000D01*
X143527527Y-113012473D02*
X143527527Y-113120000D01*
X144530000Y-112010000D02*
X143527527Y-113012473D01*
X149548723Y-110490000D02*
X149860000Y-110490000D01*
X146815705Y-113223018D02*
X149548723Y-110490000D01*
%TO.N,/RFDIO0*%
X153495000Y-71930000D02*
X153035000Y-72390000D01*
X156590000Y-71930000D02*
X153495000Y-71930000D01*
X134085000Y-78105000D02*
X138428590Y-78105000D01*
X133975000Y-78215000D02*
X134085000Y-78105000D01*
X128975000Y-82215000D02*
X128975000Y-98465000D01*
X132975000Y-78215000D02*
X128975000Y-82215000D01*
X133975000Y-78215000D02*
X132975000Y-78215000D01*
X139078591Y-78755001D02*
X143494999Y-78755001D01*
X138428590Y-78105000D02*
X139078591Y-78755001D01*
X143494999Y-78755001D02*
X143314847Y-78935153D01*
%TO.N,/GPSRX*%
X154590000Y-92820000D02*
X152510000Y-92820000D01*
X152510000Y-92820000D02*
X152400000Y-92710000D01*
X134040000Y-81280000D02*
X133975000Y-81215000D01*
X138430000Y-81280000D02*
X134040000Y-81280000D01*
X138430000Y-83276410D02*
X138973590Y-83820000D01*
X138430000Y-81280000D02*
X138430000Y-83276410D01*
X138973590Y-83820000D02*
X145415000Y-83820000D01*
X145415000Y-83820000D02*
X149860000Y-88265000D01*
X149860000Y-88265000D02*
X149860000Y-90805000D01*
X149860000Y-90805000D02*
X149770000Y-90805000D01*
%TO.N,/GPSTX*%
X154590000Y-93920000D02*
X152460000Y-93920000D01*
X134445000Y-83185000D02*
X133975000Y-82715000D01*
X137885000Y-83185000D02*
X134445000Y-83185000D01*
X137885000Y-83367820D02*
X138972180Y-84455000D01*
X137885000Y-83185000D02*
X137885000Y-83367820D01*
X138972180Y-84455000D02*
X145413590Y-84455000D01*
X145413590Y-84455000D02*
X148590000Y-87631410D01*
X148590000Y-87631410D02*
X148590000Y-90805000D01*
%TO.N,/SCK*%
X140590000Y-73930000D02*
X139065000Y-75455000D01*
X139065000Y-75213806D02*
X139040425Y-75189231D01*
X139065000Y-75455000D02*
X139065000Y-75213806D01*
X134105000Y-93345000D02*
X133975000Y-93215000D01*
X136435000Y-93345000D02*
X134105000Y-93345000D01*
%TO.N,/IPPS*%
X141690000Y-91720000D02*
X139730018Y-93679982D01*
X142590000Y-91720000D02*
X141690000Y-91720000D01*
X136340009Y-101193199D02*
X136340009Y-98240009D01*
X137566820Y-102420010D02*
X136340009Y-101193199D01*
X139293180Y-102420010D02*
X137566820Y-102420010D01*
X139730018Y-101983172D02*
X139293180Y-102420010D01*
X139730018Y-93679982D02*
X139730018Y-101983172D01*
X136340009Y-98240009D02*
X135890000Y-97790000D01*
X134050000Y-97790000D02*
X133975000Y-97715000D01*
X135890000Y-97790000D02*
X134050000Y-97790000D01*
%TO.N,/ACCINT*%
X130475000Y-99940000D02*
X130175000Y-100240000D01*
X130475000Y-98465000D02*
X130475000Y-99940000D01*
X146255000Y-111395000D02*
X146030000Y-111170000D01*
X146255000Y-112395000D02*
X146255000Y-111395000D01*
%TO.N,Net-(J11-Pad1)*%
X164104990Y-94700000D02*
X163830000Y-94974990D01*
X168970000Y-94700000D02*
X164104990Y-94700000D01*
X169055000Y-94615000D02*
X168970000Y-94700000D01*
X169950000Y-94615000D02*
X169055000Y-94615000D01*
%TD*%
D36*
X136398000Y-74488449D02*
X136323986Y-74465997D01*
X136212333Y-74455000D01*
X136212322Y-74455000D01*
X136175000Y-74451324D01*
X136137678Y-74455000D01*
X135279320Y-74455000D01*
X135255537Y-74410506D01*
X135176185Y-74313815D01*
X135079494Y-74234463D01*
X134969180Y-74175498D01*
X134849482Y-74139188D01*
X134725000Y-74126928D01*
X133225000Y-74126928D01*
X133100518Y-74139188D01*
X132980820Y-74175498D01*
X132870506Y-74234463D01*
X132773815Y-74313815D01*
X132694463Y-74410506D01*
X132670680Y-74455000D01*
X130562325Y-74455000D01*
X130525000Y-74451324D01*
X130487675Y-74455000D01*
X117779320Y-74455000D01*
X117755537Y-74410506D01*
X117676185Y-74313815D01*
X117579494Y-74234463D01*
X117469180Y-74175498D01*
X117349482Y-74139188D01*
X117225000Y-74126928D01*
X115725000Y-74126928D01*
X115600518Y-74139188D01*
X115480820Y-74175498D01*
X115370506Y-74234463D01*
X115273815Y-74313815D01*
X115194463Y-74410506D01*
X115135498Y-74520820D01*
X115099188Y-74640518D01*
X115086928Y-74765000D01*
X115086928Y-75438000D01*
X114427000Y-75438000D01*
X114427000Y-73252440D01*
X114495000Y-72910581D01*
X114495000Y-72529419D01*
X114427000Y-72187560D01*
X114427000Y-65532000D01*
X136398000Y-65532000D01*
X136398000Y-74488449D01*
%TA.AperFunction,NonConductor*%
D37*
G36*
X136398000Y-74488449D02*
G01*
X136323986Y-74465997D01*
X136212333Y-74455000D01*
X136212322Y-74455000D01*
X136175000Y-74451324D01*
X136137678Y-74455000D01*
X135279320Y-74455000D01*
X135255537Y-74410506D01*
X135176185Y-74313815D01*
X135079494Y-74234463D01*
X134969180Y-74175498D01*
X134849482Y-74139188D01*
X134725000Y-74126928D01*
X133225000Y-74126928D01*
X133100518Y-74139188D01*
X132980820Y-74175498D01*
X132870506Y-74234463D01*
X132773815Y-74313815D01*
X132694463Y-74410506D01*
X132670680Y-74455000D01*
X130562325Y-74455000D01*
X130525000Y-74451324D01*
X130487675Y-74455000D01*
X117779320Y-74455000D01*
X117755537Y-74410506D01*
X117676185Y-74313815D01*
X117579494Y-74234463D01*
X117469180Y-74175498D01*
X117349482Y-74139188D01*
X117225000Y-74126928D01*
X115725000Y-74126928D01*
X115600518Y-74139188D01*
X115480820Y-74175498D01*
X115370506Y-74234463D01*
X115273815Y-74313815D01*
X115194463Y-74410506D01*
X115135498Y-74520820D01*
X115099188Y-74640518D01*
X115086928Y-74765000D01*
X115086928Y-75438000D01*
X114427000Y-75438000D01*
X114427000Y-73252440D01*
X114495000Y-72910581D01*
X114495000Y-72529419D01*
X114427000Y-72187560D01*
X114427000Y-65532000D01*
X136398000Y-65532000D01*
X136398000Y-74488449D01*
G37*
%TD.AperFunction*%
D36*
X143510000Y-116333676D02*
X143527016Y-116332000D01*
X166878000Y-116332000D01*
X166878000Y-119511928D01*
X166255000Y-119511928D01*
X166081746Y-119528992D01*
X165915150Y-119579528D01*
X165761614Y-119661595D01*
X165627038Y-119772038D01*
X165516595Y-119906614D01*
X165434528Y-120060150D01*
X165383992Y-120226746D01*
X165366928Y-120400000D01*
X165366928Y-120900000D01*
X165383992Y-121073254D01*
X165434528Y-121239850D01*
X165516595Y-121393386D01*
X165627038Y-121527962D01*
X165761614Y-121638405D01*
X165915150Y-121720472D01*
X166081746Y-121771008D01*
X166255000Y-121788072D01*
X166878000Y-121788072D01*
X166878000Y-138303000D01*
X132842000Y-138303000D01*
X132842000Y-123843428D01*
X132843676Y-123826411D01*
X132842000Y-123809394D01*
X132842000Y-116332000D01*
X143492984Y-116332000D01*
X143510000Y-116333676D01*
%TA.AperFunction,NonConductor*%
D37*
G36*
X143510000Y-116333676D02*
G01*
X143527016Y-116332000D01*
X166878000Y-116332000D01*
X166878000Y-119511928D01*
X166255000Y-119511928D01*
X166081746Y-119528992D01*
X165915150Y-119579528D01*
X165761614Y-119661595D01*
X165627038Y-119772038D01*
X165516595Y-119906614D01*
X165434528Y-120060150D01*
X165383992Y-120226746D01*
X165366928Y-120400000D01*
X165366928Y-120900000D01*
X165383992Y-121073254D01*
X165434528Y-121239850D01*
X165516595Y-121393386D01*
X165627038Y-121527962D01*
X165761614Y-121638405D01*
X165915150Y-121720472D01*
X166081746Y-121771008D01*
X166255000Y-121788072D01*
X166878000Y-121788072D01*
X166878000Y-138303000D01*
X132842000Y-138303000D01*
X132842000Y-123843428D01*
X132843676Y-123826411D01*
X132842000Y-123809394D01*
X132842000Y-116332000D01*
X143492984Y-116332000D01*
X143510000Y-116333676D01*
G37*
%TD.AperFunction*%
M02*
